%TF.GenerationSoftware,KiCad,Pcbnew,10.0.4*%
%TF.CreationDate,2026-08-27T19:19:05-03:00*%
%TF.ProjectId,pcb_0222,7063625f-3032-4323-922e-6b696361645f,20260827*%
%TF.SameCoordinates,Original*%
%TF.FileFunction,Plated,1,2,PTH,Drill*%
%TF.FilePolarity,Positive*%
%FSLAX46Y46*%
G04 Gerber Fmt 4.6, Leading zero omitted, Abs format (unit mm)*
G04 Created by KiCad (PCBNEW 10.0.4) date 2026-08-27 19:19:05*
%MOMM*%
%LPD*%
G01*
G04 APERTURE LIST*
%TA.AperFunction,ViaDrill*%
%ADD10C,0.304800*%
%TD*%
%TA.AperFunction,ComponentDrill*%
%ADD11C,1.100000*%
%TD*%
%TA.AperFunction,ComponentDrill*%
%ADD12C,1.150000*%
%TD*%
%TA.AperFunction,ComponentDrill*%
%ADD13C,1.800000*%
%TD*%
G04 APERTURE END LIST*
D10*
X118313000Y-128750000D03*
X120599000Y-128750000D03*
X122885000Y-102334000D03*
X122885000Y-103604000D03*
X122885000Y-104874000D03*
X124155000Y-73124000D03*
X124155000Y-74394000D03*
X124155000Y-75664000D03*
X124155000Y-133830000D03*
X125425000Y-102334000D03*
X125425000Y-103604000D03*
X125425000Y-104874000D03*
X126695000Y-73124000D03*
X126695000Y-74394000D03*
X126695000Y-75664000D03*
X126695000Y-133830000D03*
X128473000Y-126210000D03*
X128473000Y-127734000D03*
X128600000Y-102334000D03*
X128600000Y-103604000D03*
X128600000Y-104874000D03*
X129235000Y-73124000D03*
X129235000Y-74394000D03*
X129235000Y-75664000D03*
X129235000Y-133830000D03*
X130251000Y-126210000D03*
X130251000Y-127734000D03*
X131140000Y-102334000D03*
X131140000Y-103604000D03*
X131140000Y-104874000D03*
X131775000Y-73124000D03*
X131775000Y-74394000D03*
X131775000Y-75664000D03*
X131775000Y-126210000D03*
X131775000Y-127734000D03*
X131775000Y-133830000D03*
X132918000Y-90269000D03*
X132918000Y-91031000D03*
X133680000Y-90269000D03*
X133680000Y-91031000D03*
X134442000Y-90269000D03*
X134442000Y-91031000D03*
X135204000Y-127607000D03*
X136220000Y-127607000D03*
X137363000Y-127657800D03*
X137667800Y-122146000D03*
X138429800Y-86078000D03*
X138429800Y-87348000D03*
X138429800Y-88618000D03*
X139395000Y-117574000D03*
X139395000Y-118844000D03*
X139903000Y-107033000D03*
X139903000Y-108303000D03*
X140919000Y-131544000D03*
X141046000Y-110589000D03*
X143205000Y-110843000D03*
X143205000Y-111732000D03*
X143205000Y-115288000D03*
X143257000Y-119123400D03*
X144221000Y-122146000D03*
X144449600Y-106194800D03*
X145110000Y-118209000D03*
X145491000Y-120647400D03*
X145491000Y-127099000D03*
X145643400Y-84757200D03*
X146380000Y-118209000D03*
X146380000Y-119479000D03*
X146761000Y-131544000D03*
X147167400Y-113875998D03*
X147472200Y-115829998D03*
X147650000Y-119479000D03*
X147821400Y-107820400D03*
X147827569Y-114521998D03*
X148386600Y-92529600D03*
X148500599Y-115192800D03*
X148539000Y-107109200D03*
X148742200Y-129715200D03*
X149148600Y-87246400D03*
X149148600Y-88516400D03*
X149174000Y-95349000D03*
X149195000Y-94494000D03*
X149328448Y-108928400D03*
X149859800Y-111528800D03*
X150063000Y-95349000D03*
X150095000Y-94494000D03*
X151206000Y-134211000D03*
X152603000Y-134211000D03*
X153118531Y-128152400D03*
X153212600Y-126311600D03*
X153365000Y-102969000D03*
X153365000Y-104239000D03*
X154127000Y-92428000D03*
X155041400Y-107776000D03*
X155098600Y-111280000D03*
X155397000Y-92428000D03*
X155905000Y-71854000D03*
X155905000Y-74394000D03*
X155905000Y-80744000D03*
X156006600Y-113872000D03*
X156057400Y-98676400D03*
X156209800Y-129131000D03*
X156667000Y-92428000D03*
X156819400Y-114475200D03*
X156921000Y-101775200D03*
X157175000Y-71854000D03*
X157175000Y-74394000D03*
X157175000Y-80744000D03*
X157302000Y-99667000D03*
X157632200Y-100708400D03*
X157632200Y-115192800D03*
X158191000Y-97635000D03*
X158241800Y-96339600D03*
X158445000Y-105001000D03*
X158445000Y-115846800D03*
X159080000Y-93444000D03*
X159080000Y-94815600D03*
X159207000Y-90269000D03*
X159207000Y-91031000D03*
X159461000Y-110704000D03*
X159511800Y-113256000D03*
X159511800Y-117929600D03*
X159969000Y-90269000D03*
X159969000Y-91031000D03*
X160096000Y-103477000D03*
X160350000Y-93444000D03*
X160375400Y-94866400D03*
X160731000Y-90269000D03*
X160731000Y-91031000D03*
X161035800Y-109954000D03*
X161137400Y-127378400D03*
X161747000Y-97127000D03*
X161747000Y-102588000D03*
X162128000Y-107541000D03*
X162380361Y-108454742D03*
X162407400Y-125549600D03*
X162509000Y-99667000D03*
X162890000Y-94841000D03*
X163017000Y-86967000D03*
X163017000Y-88110000D03*
X163525000Y-108582400D03*
X163525000Y-114170400D03*
X163925000Y-126464000D03*
X164287000Y-94841000D03*
X164414000Y-86967000D03*
X164414000Y-88110000D03*
X164795000Y-71854000D03*
X164795000Y-117574000D03*
X164795000Y-120114000D03*
X165176000Y-102207000D03*
X165430000Y-111224000D03*
X165938000Y-86967000D03*
X165938000Y-88110000D03*
X166065000Y-71854000D03*
X166065000Y-117574000D03*
X166065000Y-120114000D03*
X166446000Y-99667000D03*
X166446000Y-102207000D03*
X166573000Y-104493000D03*
X166623800Y-109598400D03*
X166700000Y-94841000D03*
X166700000Y-111224000D03*
X167335000Y-71854000D03*
X167335000Y-86967000D03*
X167335000Y-88110000D03*
X167843000Y-102207000D03*
X167970000Y-94841000D03*
X167970000Y-111224000D03*
X168224000Y-123289000D03*
X168249400Y-129664400D03*
X169113000Y-102207000D03*
X170764000Y-102207000D03*
X171145000Y-71854000D03*
X171145000Y-74394000D03*
X172034000Y-102207000D03*
X172415000Y-71854000D03*
X172415000Y-74394000D03*
X173177000Y-112494000D03*
X173177000Y-121384000D03*
X173177000Y-125321000D03*
X173685000Y-71854000D03*
X173685000Y-74394000D03*
X174955000Y-132814000D03*
X176123400Y-105890000D03*
X176225000Y-97254000D03*
X176225000Y-99794000D03*
X176225000Y-132814000D03*
X177495000Y-97254000D03*
X177495000Y-99794000D03*
X177495000Y-132814000D03*
X177952200Y-118945600D03*
X178257000Y-84300000D03*
X178765000Y-71854000D03*
X178765000Y-74394000D03*
X178765000Y-97254000D03*
X178765000Y-99794000D03*
X178765000Y-109954000D03*
X178765000Y-111224000D03*
X180035000Y-71854000D03*
X180035000Y-74394000D03*
X180035000Y-84300000D03*
X180670000Y-109954000D03*
X180670000Y-111224000D03*
X180670000Y-125194000D03*
X180670000Y-127734000D03*
X180670000Y-130274000D03*
X180670000Y-132814000D03*
X181305000Y-71854000D03*
X181305000Y-74394000D03*
X181686000Y-84300000D03*
X181686000Y-86967000D03*
X181686000Y-88491000D03*
X181940000Y-95984000D03*
X181940000Y-97254000D03*
X181940000Y-109319000D03*
X181940000Y-125194000D03*
X181940000Y-127734000D03*
X181940000Y-130274000D03*
X181940000Y-132814000D03*
X182575000Y-79474000D03*
X182575000Y-81125000D03*
X183210000Y-95984000D03*
X183210000Y-97254000D03*
X183210000Y-109319000D03*
X183210000Y-125194000D03*
X183210000Y-127734000D03*
X183210000Y-130274000D03*
X183210000Y-132814000D03*
X186385000Y-79474000D03*
X186385000Y-82014000D03*
X186385000Y-88364000D03*
X186385000Y-90904000D03*
X186385000Y-95984000D03*
X186385000Y-125194000D03*
X186385000Y-127734000D03*
X187655000Y-79474000D03*
X187655000Y-82014000D03*
X187655000Y-88364000D03*
X187655000Y-90904000D03*
X187655000Y-95984000D03*
X187655000Y-109319000D03*
X187655000Y-125194000D03*
X187655000Y-127734000D03*
X188925000Y-79474000D03*
X188925000Y-82014000D03*
X188925000Y-88364000D03*
X188925000Y-90904000D03*
X188925000Y-109319000D03*
X188925000Y-125194000D03*
X188925000Y-127734000D03*
D11*
%TO.C,J8*%
X148793000Y-131798000D03*
X151333000Y-131798000D03*
D12*
%TO.C,J7*%
X170891000Y-110335000D03*
X170891000Y-112875000D03*
X170891000Y-115415000D03*
X170891000Y-117955000D03*
%TO.C,J9*%
X170891000Y-122654000D03*
X170891000Y-125194000D03*
X170891000Y-127734000D03*
X170891000Y-130274000D03*
D13*
%TO.C,J1*%
X177825200Y-88086999D03*
X177825200Y-92047000D03*
M02*
