%TF.GenerationSoftware,KiCad,Pcbnew,10.0.4*%
%TF.CreationDate,2026-08-16T22:45:16-03:00*%
%TF.ProjectId,pcb_0222,7063625f-3032-4323-922e-6b696361645f,rev?*%
%TF.SameCoordinates,PX6cb6cf8PY8381870*%
%TF.FileFunction,Soldermask,Top*%
%TF.FilePolarity,Negative*%
%FSLAX46Y46*%
G04 Gerber Fmt 4.6, Leading zero omitted, Abs format (unit mm)*
G04 Created by KiCad (PCBNEW 10.0.4) date 2026-08-16 22:45:16*
%MOMM*%
%LPD*%
G01*
G04 APERTURE LIST*
G04 APERTURE END LIST*
G36*
X40914114Y4023285D02*
G01*
X41016030Y3964444D01*
X41099244Y3881230D01*
X41158085Y3779314D01*
X41188543Y3665641D01*
X41188543Y3547959D01*
X41158085Y3434286D01*
X41099244Y3332370D01*
X41016030Y3249156D01*
X40914114Y3190315D01*
X40800441Y3159857D01*
X40682759Y3159857D01*
X40569086Y3190315D01*
X40467170Y3249156D01*
X40383956Y3332370D01*
X40325115Y3434286D01*
X40294657Y3547959D01*
X40294657Y3665641D01*
X40325115Y3779314D01*
X40383956Y3881230D01*
X40467170Y3964444D01*
X40569086Y4023285D01*
X40682759Y4053743D01*
X40800441Y4053743D01*
X40914114Y4023285D01*
G37*
G36*
X5421876Y6798728D02*
G01*
X5643291Y6739400D01*
X5855067Y6651680D01*
X6053581Y6537067D01*
X6235438Y6397524D01*
X6397524Y6235438D01*
X6537067Y6053581D01*
X6651680Y5855067D01*
X6739400Y5643291D01*
X6798728Y5421876D01*
X6828648Y5194612D01*
X6828648Y4965388D01*
X6798728Y4738124D01*
X6739400Y4516709D01*
X6651680Y4304933D01*
X6537067Y4106419D01*
X6397524Y3924562D01*
X6235438Y3762476D01*
X6053581Y3622933D01*
X5855067Y3508320D01*
X5643291Y3420600D01*
X5421876Y3361272D01*
X5194612Y3331352D01*
X4965388Y3331352D01*
X4738124Y3361272D01*
X4516709Y3420600D01*
X4304933Y3508320D01*
X4106419Y3622933D01*
X3924562Y3762476D01*
X3762476Y3924562D01*
X3622933Y4106419D01*
X3508320Y4304933D01*
X3420600Y4516709D01*
X3361272Y4738124D01*
X3331352Y4965388D01*
X3331352Y5194612D01*
X3361272Y5421876D01*
X3420600Y5643291D01*
X3508320Y5855067D01*
X3622933Y6053581D01*
X3762476Y6235438D01*
X3924562Y6397524D01*
X4106419Y6537067D01*
X4304933Y6651680D01*
X4516709Y6739400D01*
X4738124Y6798728D01*
X4965388Y6828648D01*
X5194612Y6828648D01*
X5421876Y6798728D01*
G37*
G36*
X75261876Y6798728D02*
G01*
X75483291Y6739400D01*
X75695067Y6651680D01*
X75893581Y6537067D01*
X76075438Y6397524D01*
X76237524Y6235438D01*
X76377067Y6053581D01*
X76491680Y5855067D01*
X76579400Y5643291D01*
X76638728Y5421876D01*
X76668648Y5194612D01*
X76668648Y4965388D01*
X76638728Y4738124D01*
X76579400Y4516709D01*
X76491680Y4304933D01*
X76377067Y4106419D01*
X76237524Y3924562D01*
X76075438Y3762476D01*
X75893581Y3622933D01*
X75695067Y3508320D01*
X75483291Y3420600D01*
X75261876Y3361272D01*
X75034612Y3331352D01*
X74805388Y3331352D01*
X74578124Y3361272D01*
X74356709Y3420600D01*
X74144933Y3508320D01*
X73946419Y3622933D01*
X73764562Y3762476D01*
X73602476Y3924562D01*
X73462933Y4106419D01*
X73348320Y4304933D01*
X73260600Y4516709D01*
X73201272Y4738124D01*
X73171352Y4965388D01*
X73171352Y5194612D01*
X73201272Y5421876D01*
X73260600Y5643291D01*
X73348320Y5855067D01*
X73462933Y6053581D01*
X73602476Y6235438D01*
X73764562Y6397524D01*
X73946419Y6537067D01*
X74144933Y6651680D01*
X74356709Y6739400D01*
X74578124Y6798728D01*
X74805388Y6828648D01*
X75034612Y6828648D01*
X75261876Y6798728D01*
G37*
G36*
X45070240Y5236933D02*
G01*
X45086721Y5225921D01*
X45097733Y5209440D01*
X45101600Y5190000D01*
X45101600Y3690000D01*
X45097733Y3670560D01*
X45086721Y3654079D01*
X45070240Y3643067D01*
X45050800Y3639200D01*
X43950800Y3639200D01*
X43931360Y3643067D01*
X43914879Y3654079D01*
X43903867Y3670560D01*
X43900000Y3690000D01*
X43900000Y5190000D01*
X43903867Y5209440D01*
X43914879Y5225921D01*
X43931360Y5236933D01*
X43950800Y5240800D01*
X45050800Y5240800D01*
X45070240Y5236933D01*
G37*
G36*
X47610240Y5236933D02*
G01*
X47626721Y5225921D01*
X47637733Y5209440D01*
X47641600Y5190000D01*
X47641600Y3690000D01*
X47637733Y3670560D01*
X47626721Y3654079D01*
X47610240Y3643067D01*
X47590800Y3639200D01*
X46490800Y3639200D01*
X46471360Y3643067D01*
X46454879Y3654079D01*
X46443867Y3670560D01*
X46440000Y3690000D01*
X46440000Y5190000D01*
X46443867Y5209440D01*
X46454879Y5225921D01*
X46471360Y5236933D01*
X46490800Y5240800D01*
X47590800Y5240800D01*
X47610240Y5236933D01*
G37*
G36*
X41281434Y5841036D02*
G01*
X41314525Y5818925D01*
X41336636Y5785834D01*
X41344400Y5746800D01*
X41344400Y4946800D01*
X41336636Y4907766D01*
X41314525Y4874675D01*
X41281434Y4852564D01*
X41242400Y4844800D01*
X40342400Y4844800D01*
X40303366Y4852564D01*
X40270275Y4874675D01*
X40248164Y4907766D01*
X40240400Y4946800D01*
X40240400Y5746800D01*
X40248164Y5785834D01*
X40270275Y5818925D01*
X40303366Y5841036D01*
X40342400Y5848800D01*
X41242400Y5848800D01*
X41281434Y5841036D01*
G37*
G36*
X38202034Y7015236D02*
G01*
X38235125Y6993125D01*
X38257236Y6960034D01*
X38265000Y6921000D01*
X38265000Y5271000D01*
X38257236Y5231966D01*
X38235125Y5198875D01*
X38202034Y5176764D01*
X38163000Y5169000D01*
X36513000Y5169000D01*
X36473966Y5176764D01*
X36440875Y5198875D01*
X36418764Y5231966D01*
X36411000Y5271000D01*
X36411000Y6921000D01*
X36418764Y6960034D01*
X36440875Y6993125D01*
X36473966Y7015236D01*
X36513000Y7023000D01*
X38163000Y7023000D01*
X38202034Y7015236D01*
G37*
G36*
X35067094Y6983084D02*
G01*
X35234985Y6913541D01*
X35386083Y6812581D01*
X35514581Y6684083D01*
X35615541Y6532985D01*
X35685084Y6365094D01*
X35720536Y6186862D01*
X35720536Y6005138D01*
X35685084Y5826906D01*
X35615541Y5659015D01*
X35514581Y5507917D01*
X35386083Y5379419D01*
X35234985Y5278459D01*
X35067094Y5208916D01*
X34888862Y5173464D01*
X34707138Y5173464D01*
X34528906Y5208916D01*
X34361015Y5278459D01*
X34209917Y5379419D01*
X34081419Y5507917D01*
X33980459Y5659015D01*
X33910916Y5826906D01*
X33875464Y6005138D01*
X33875464Y6186862D01*
X33910916Y6365094D01*
X33980459Y6532985D01*
X34081419Y6684083D01*
X34209917Y6812581D01*
X34361015Y6913541D01*
X34528906Y6983084D01*
X34707138Y7018536D01*
X34888862Y7018536D01*
X35067094Y6983084D01*
G37*
G36*
X41281434Y7441036D02*
G01*
X41314525Y7418925D01*
X41336636Y7385834D01*
X41344400Y7346800D01*
X41344400Y6546800D01*
X41336636Y6507766D01*
X41314525Y6474675D01*
X41281434Y6452564D01*
X41242400Y6444800D01*
X40342400Y6444800D01*
X40303366Y6452564D01*
X40270275Y6474675D01*
X40248164Y6507766D01*
X40240400Y6546800D01*
X40240400Y7346800D01*
X40248164Y7385834D01*
X40270275Y7418925D01*
X40303366Y7441036D01*
X40342400Y7448800D01*
X41242400Y7448800D01*
X41281434Y7441036D01*
G37*
G36*
X57798299Y8578583D02*
G01*
X57832039Y8556039D01*
X57854583Y8522299D01*
X57862500Y8482500D01*
X57862500Y6757500D01*
X57854583Y6717701D01*
X57832039Y6683961D01*
X57798299Y6661417D01*
X57758500Y6653500D01*
X56033500Y6653500D01*
X55993701Y6661417D01*
X55959961Y6683961D01*
X55937417Y6717701D01*
X55929500Y6757500D01*
X55929500Y8482500D01*
X55937417Y8522299D01*
X55959961Y8556039D01*
X55993701Y8578583D01*
X56033500Y8586500D01*
X57758500Y8586500D01*
X57798299Y8578583D01*
G37*
G36*
X25639746Y9465212D02*
G01*
X25825488Y9404860D01*
X25999502Y9316196D01*
X26157503Y9201401D01*
X26295601Y9063303D01*
X26410396Y8905302D01*
X26499060Y8731288D01*
X26559412Y8545546D01*
X26589963Y8352650D01*
X26589963Y8157350D01*
X26559412Y7964454D01*
X26499060Y7778712D01*
X26410396Y7604698D01*
X26295601Y7446697D01*
X26157503Y7308599D01*
X25999502Y7193804D01*
X25825488Y7105140D01*
X25639746Y7044788D01*
X25446850Y7014237D01*
X25251550Y7014237D01*
X25058654Y7044788D01*
X24872912Y7105140D01*
X24698898Y7193804D01*
X24540897Y7308599D01*
X24402799Y7446697D01*
X24288004Y7604698D01*
X24199340Y7778712D01*
X24138988Y7964454D01*
X24108437Y8157350D01*
X24108437Y8352650D01*
X24138988Y8545546D01*
X24199340Y8731288D01*
X24288004Y8905302D01*
X24402799Y9063303D01*
X24540897Y9201401D01*
X24698898Y9316196D01*
X24872912Y9404860D01*
X25058654Y9465212D01*
X25251550Y9495763D01*
X25446850Y9495763D01*
X25639746Y9465212D01*
G37*
G36*
X28814746Y9465212D02*
G01*
X29000488Y9404860D01*
X29174502Y9316196D01*
X29332503Y9201401D01*
X29470601Y9063303D01*
X29585396Y8905302D01*
X29674060Y8731288D01*
X29734412Y8545546D01*
X29764963Y8352650D01*
X29764963Y8157350D01*
X29734412Y7964454D01*
X29674060Y7778712D01*
X29585396Y7604698D01*
X29470601Y7446697D01*
X29332503Y7308599D01*
X29174502Y7193804D01*
X29000488Y7105140D01*
X28814746Y7044788D01*
X28621850Y7014237D01*
X28426550Y7014237D01*
X28233654Y7044788D01*
X28047912Y7105140D01*
X27873898Y7193804D01*
X27715897Y7308599D01*
X27577799Y7446697D01*
X27463004Y7604698D01*
X27374340Y7778712D01*
X27313988Y7964454D01*
X27283437Y8157350D01*
X27283437Y8352650D01*
X27313988Y8545546D01*
X27374340Y8731288D01*
X27463004Y8905302D01*
X27577799Y9063303D01*
X27715897Y9201401D01*
X27873898Y9316196D01*
X28047912Y9404860D01*
X28233654Y9465212D01*
X28426550Y9495763D01*
X28621850Y9495763D01*
X28814746Y9465212D01*
G37*
G36*
X62323440Y9300740D02*
G01*
X62332996Y9300740D01*
X62370329Y9293314D01*
X62475283Y9276692D01*
X62509043Y9265723D01*
X62535031Y9260553D01*
X62571709Y9245361D01*
X62632093Y9225740D01*
X62688654Y9196921D01*
X62725344Y9181723D01*
X62747386Y9166995D01*
X62779003Y9150885D01*
X62864962Y9088433D01*
X62896620Y9067279D01*
X62903375Y9060524D01*
X62912386Y9053977D01*
X63028976Y8937387D01*
X63035522Y8928377D01*
X63042279Y8921620D01*
X63063435Y8889958D01*
X63125884Y8804004D01*
X63141992Y8772390D01*
X63156723Y8750344D01*
X63171922Y8713650D01*
X63200739Y8657094D01*
X63220357Y8596718D01*
X63235553Y8560031D01*
X63240723Y8534039D01*
X63251691Y8500284D01*
X63268312Y8395335D01*
X63275740Y8357996D01*
X63275740Y8348441D01*
X63277482Y8337442D01*
X63277482Y8172559D01*
X63275740Y8161561D01*
X63275740Y8152004D01*
X63268312Y8114662D01*
X63251691Y8009717D01*
X63240723Y7975964D01*
X63235553Y7949969D01*
X63220355Y7913280D01*
X63200739Y7852907D01*
X63171924Y7796357D01*
X63156723Y7759656D01*
X63141990Y7737608D01*
X63125884Y7705997D01*
X63063443Y7620055D01*
X63042279Y7588380D01*
X63035519Y7581621D01*
X63028976Y7572614D01*
X62912386Y7456024D01*
X62903379Y7449481D01*
X62896620Y7442721D01*
X62864945Y7421557D01*
X62779003Y7359116D01*
X62747392Y7343010D01*
X62725344Y7328277D01*
X62688643Y7313076D01*
X62632093Y7284261D01*
X62571720Y7264645D01*
X62535031Y7249447D01*
X62509036Y7244277D01*
X62475283Y7233309D01*
X62370338Y7216688D01*
X62332996Y7209260D01*
X62323440Y7209260D01*
X62312441Y7207518D01*
X62147559Y7207518D01*
X62136560Y7209260D01*
X62127004Y7209260D01*
X62089662Y7216688D01*
X61984716Y7233309D01*
X61950961Y7244277D01*
X61924969Y7249447D01*
X61888282Y7264643D01*
X61827906Y7284261D01*
X61771350Y7313078D01*
X61734656Y7328277D01*
X61712610Y7343008D01*
X61680996Y7359116D01*
X61595042Y7421565D01*
X61563380Y7442721D01*
X61556623Y7449478D01*
X61547613Y7456024D01*
X61431023Y7572614D01*
X61424476Y7581625D01*
X61417721Y7588380D01*
X61396567Y7620038D01*
X61334115Y7705997D01*
X61318005Y7737614D01*
X61303277Y7759656D01*
X61288079Y7796346D01*
X61259260Y7852907D01*
X61239639Y7913291D01*
X61224447Y7949969D01*
X61219277Y7975957D01*
X61208308Y8009717D01*
X61191686Y8114671D01*
X61184260Y8152004D01*
X61184260Y8161560D01*
X61182518Y8172559D01*
X61182518Y8337442D01*
X61184260Y8348442D01*
X61184260Y8357996D01*
X61191685Y8395326D01*
X61208308Y8500284D01*
X61219278Y8534047D01*
X61224447Y8560031D01*
X61239638Y8596706D01*
X61259260Y8657094D01*
X61288081Y8713660D01*
X61303277Y8750344D01*
X61318003Y8772384D01*
X61334115Y8804004D01*
X61396576Y8889975D01*
X61417721Y8921620D01*
X61424473Y8928373D01*
X61431023Y8937387D01*
X61547613Y9053977D01*
X61556627Y9060527D01*
X61563380Y9067279D01*
X61595025Y9088424D01*
X61680996Y9150885D01*
X61712616Y9166997D01*
X61734656Y9181723D01*
X61771340Y9196919D01*
X61827906Y9225740D01*
X61888294Y9245362D01*
X61924969Y9260553D01*
X61950953Y9265722D01*
X61984716Y9276692D01*
X62089671Y9293315D01*
X62127004Y9300740D01*
X62136560Y9300740D01*
X62147559Y9302482D01*
X62312441Y9302482D01*
X62323440Y9300740D01*
G37*
G36*
X51861434Y8773836D02*
G01*
X51894525Y8751725D01*
X51916636Y8718634D01*
X51924400Y8679600D01*
X51924400Y7779600D01*
X51916636Y7740566D01*
X51894525Y7707475D01*
X51861434Y7685364D01*
X51822400Y7677600D01*
X51022400Y7677600D01*
X50983366Y7685364D01*
X50950275Y7707475D01*
X50928164Y7740566D01*
X50920400Y7779600D01*
X50920400Y8679600D01*
X50928164Y8718634D01*
X50950275Y8751725D01*
X50983366Y8773836D01*
X51022400Y8781600D01*
X51822400Y8781600D01*
X51861434Y8773836D01*
G37*
G36*
X53461434Y8773836D02*
G01*
X53494525Y8751725D01*
X53516636Y8718634D01*
X53524400Y8679600D01*
X53524400Y7779600D01*
X53516636Y7740566D01*
X53494525Y7707475D01*
X53461434Y7685364D01*
X53422400Y7677600D01*
X52622400Y7677600D01*
X52583366Y7685364D01*
X52550275Y7707475D01*
X52528164Y7740566D01*
X52520400Y7779600D01*
X52520400Y8679600D01*
X52528164Y8718634D01*
X52550275Y8751725D01*
X52583366Y8773836D01*
X52622400Y8781600D01*
X53422400Y8781600D01*
X53461434Y8773836D01*
G37*
G36*
X57176560Y11084883D02*
G01*
X57351605Y11012377D01*
X57509141Y10907115D01*
X57643115Y10773141D01*
X57748377Y10615605D01*
X57820883Y10440560D01*
X57857846Y10254734D01*
X57857846Y10065266D01*
X57820883Y9879440D01*
X57748377Y9704395D01*
X57643115Y9546859D01*
X57509141Y9412885D01*
X57351605Y9307623D01*
X57176560Y9235117D01*
X56990734Y9198154D01*
X56801266Y9198154D01*
X56615440Y9235117D01*
X56440395Y9307623D01*
X56282859Y9412885D01*
X56148885Y9546859D01*
X56043623Y9704395D01*
X55971117Y9879440D01*
X55934154Y10065266D01*
X55934154Y10254734D01*
X55971117Y10440560D01*
X56043623Y10615605D01*
X56148885Y10773141D01*
X56282859Y10907115D01*
X56440395Y11012377D01*
X56615440Y11084883D01*
X56801266Y11121846D01*
X56990734Y11121846D01*
X57176560Y11084883D01*
G37*
G36*
X30638183Y10283531D02*
G01*
X30761645Y10212250D01*
X30862450Y10111445D01*
X30933731Y9987983D01*
X30970628Y9850280D01*
X30970628Y9707720D01*
X30933731Y9570017D01*
X30862450Y9446555D01*
X30761645Y9345750D01*
X30638183Y9274469D01*
X30500480Y9237572D01*
X30357920Y9237572D01*
X30220217Y9274469D01*
X30096755Y9345750D01*
X29995950Y9446555D01*
X29924669Y9570017D01*
X29887772Y9707720D01*
X29887772Y9850280D01*
X29924669Y9987983D01*
X29995950Y10111445D01*
X30096755Y10212250D01*
X30220217Y10283531D01*
X30357920Y10320428D01*
X30500480Y10320428D01*
X30638183Y10283531D01*
G37*
G36*
X34871081Y10111866D02*
G01*
X34904042Y10089842D01*
X34926066Y10056881D01*
X34933800Y10018000D01*
X34933800Y9418000D01*
X34926066Y9379119D01*
X34904042Y9346158D01*
X34871081Y9324134D01*
X34832200Y9316400D01*
X33632200Y9316400D01*
X33593319Y9324134D01*
X33560358Y9346158D01*
X33538334Y9379119D01*
X33530600Y9418000D01*
X33530600Y10018000D01*
X33538334Y10056881D01*
X33560358Y10089842D01*
X33593319Y10111866D01*
X33632200Y10119600D01*
X34832200Y10119600D01*
X34871081Y10111866D01*
G37*
G36*
X37171081Y10111866D02*
G01*
X37204042Y10089842D01*
X37226066Y10056881D01*
X37233800Y10018000D01*
X37233800Y9418000D01*
X37226066Y9379119D01*
X37204042Y9346158D01*
X37171081Y9324134D01*
X37132200Y9316400D01*
X35932200Y9316400D01*
X35893319Y9324134D01*
X35860358Y9346158D01*
X35838334Y9379119D01*
X35830600Y9418000D01*
X35830600Y10018000D01*
X35838334Y10056881D01*
X35860358Y10089842D01*
X35893319Y10111866D01*
X35932200Y10119600D01*
X37132200Y10119600D01*
X37171081Y10111866D01*
G37*
G36*
X26789303Y10570664D02*
G01*
X26889794Y10512646D01*
X26971846Y10430594D01*
X27029864Y10330103D01*
X27059897Y10218019D01*
X27059897Y10101981D01*
X27029864Y9989897D01*
X26971846Y9889406D01*
X26889794Y9807354D01*
X26789303Y9749336D01*
X26677219Y9719303D01*
X26561181Y9719303D01*
X26449097Y9749336D01*
X26348606Y9807354D01*
X26266554Y9889406D01*
X26208536Y9989897D01*
X26178503Y10101981D01*
X26178503Y10218019D01*
X26208536Y10330103D01*
X26266554Y10430594D01*
X26348606Y10512646D01*
X26449097Y10570664D01*
X26561181Y10600697D01*
X26677219Y10600697D01*
X26789303Y10570664D01*
G37*
G36*
X28059303Y10570664D02*
G01*
X28159794Y10512646D01*
X28241846Y10430594D01*
X28299864Y10330103D01*
X28329897Y10218019D01*
X28329897Y10101981D01*
X28299864Y9989897D01*
X28241846Y9889406D01*
X28159794Y9807354D01*
X28059303Y9749336D01*
X27947219Y9719303D01*
X27831181Y9719303D01*
X27719097Y9749336D01*
X27618606Y9807354D01*
X27536554Y9889406D01*
X27478536Y9989897D01*
X27448503Y10101981D01*
X27448503Y10218019D01*
X27478536Y10330103D01*
X27536554Y10430594D01*
X27618606Y10512646D01*
X27719097Y10570664D01*
X27831181Y10600697D01*
X27947219Y10600697D01*
X28059303Y10570664D01*
G37*
G36*
X29329303Y10570664D02*
G01*
X29429794Y10512646D01*
X29511846Y10430594D01*
X29569864Y10330103D01*
X29599897Y10218019D01*
X29599897Y10101981D01*
X29569864Y9989897D01*
X29511846Y9889406D01*
X29429794Y9807354D01*
X29329303Y9749336D01*
X29217219Y9719303D01*
X29101181Y9719303D01*
X28989097Y9749336D01*
X28888606Y9807354D01*
X28806554Y9889406D01*
X28748536Y9989897D01*
X28718503Y10101981D01*
X28718503Y10218019D01*
X28748536Y10330103D01*
X28806554Y10430594D01*
X28888606Y10512646D01*
X28989097Y10570664D01*
X29101181Y10600697D01*
X29217219Y10600697D01*
X29329303Y10570664D01*
G37*
G36*
X52066881Y10873866D02*
G01*
X52099842Y10851842D01*
X52121866Y10818881D01*
X52129600Y10780000D01*
X52129600Y10180000D01*
X52121866Y10141119D01*
X52099842Y10108158D01*
X52066881Y10086134D01*
X52028000Y10078400D01*
X50828000Y10078400D01*
X50789119Y10086134D01*
X50756158Y10108158D01*
X50734134Y10141119D01*
X50726400Y10180000D01*
X50726400Y10780000D01*
X50734134Y10818881D01*
X50756158Y10851842D01*
X50789119Y10873866D01*
X50828000Y10881600D01*
X52028000Y10881600D01*
X52066881Y10873866D01*
G37*
G36*
X54366881Y10873866D02*
G01*
X54399842Y10851842D01*
X54421866Y10818881D01*
X54429600Y10780000D01*
X54429600Y10180000D01*
X54421866Y10141119D01*
X54399842Y10108158D01*
X54366881Y10086134D01*
X54328000Y10078400D01*
X53128000Y10078400D01*
X53089119Y10086134D01*
X53056158Y10108158D01*
X53034134Y10141119D01*
X53026400Y10180000D01*
X53026400Y10780000D01*
X53034134Y10818881D01*
X53056158Y10851842D01*
X53089119Y10873866D01*
X53128000Y10881600D01*
X54328000Y10881600D01*
X54366881Y10873866D01*
G37*
G36*
X41256034Y11225836D02*
G01*
X41289125Y11203725D01*
X41311236Y11170634D01*
X41319000Y11131600D01*
X41319000Y10331600D01*
X41311236Y10292566D01*
X41289125Y10259475D01*
X41256034Y10237364D01*
X41217000Y10229600D01*
X40317000Y10229600D01*
X40277966Y10237364D01*
X40244875Y10259475D01*
X40222764Y10292566D01*
X40215000Y10331600D01*
X40215000Y11131600D01*
X40222764Y11170634D01*
X40244875Y11203725D01*
X40277966Y11225836D01*
X40317000Y11233600D01*
X41217000Y11233600D01*
X41256034Y11225836D01*
G37*
G36*
X25558183Y11299531D02*
G01*
X25681645Y11228250D01*
X25782450Y11127445D01*
X25853731Y11003983D01*
X25890628Y10866280D01*
X25890628Y10723720D01*
X25853731Y10586017D01*
X25782450Y10462555D01*
X25681645Y10361750D01*
X25558183Y10290469D01*
X25420480Y10253572D01*
X25277920Y10253572D01*
X25140217Y10290469D01*
X25016755Y10361750D01*
X24915950Y10462555D01*
X24844669Y10586017D01*
X24807772Y10723720D01*
X24807772Y10866280D01*
X24844669Y11003983D01*
X24915950Y11127445D01*
X25016755Y11228250D01*
X25140217Y11299531D01*
X25277920Y11336428D01*
X25420480Y11336428D01*
X25558183Y11299531D01*
G37*
G36*
X34871081Y11061866D02*
G01*
X34904042Y11039842D01*
X34926066Y11006881D01*
X34933800Y10968000D01*
X34933800Y10368000D01*
X34926066Y10329119D01*
X34904042Y10296158D01*
X34871081Y10274134D01*
X34832200Y10266400D01*
X33632200Y10266400D01*
X33593319Y10274134D01*
X33560358Y10296158D01*
X33538334Y10329119D01*
X33530600Y10368000D01*
X33530600Y10968000D01*
X33538334Y11006881D01*
X33560358Y11039842D01*
X33593319Y11061866D01*
X33632200Y11069600D01*
X34832200Y11069600D01*
X34871081Y11061866D01*
G37*
G36*
X37171081Y11061866D02*
G01*
X37204042Y11039842D01*
X37226066Y11006881D01*
X37233800Y10968000D01*
X37233800Y10368000D01*
X37226066Y10329119D01*
X37204042Y10296158D01*
X37171081Y10274134D01*
X37132200Y10266400D01*
X35932200Y10266400D01*
X35893319Y10274134D01*
X35860358Y10296158D01*
X35838334Y10329119D01*
X35830600Y10368000D01*
X35830600Y10968000D01*
X35838334Y11006881D01*
X35860358Y11039842D01*
X35893319Y11061866D01*
X35932200Y11069600D01*
X37132200Y11069600D01*
X37171081Y11061866D01*
G37*
G36*
X9871551Y12828579D02*
G01*
X9905291Y12806035D01*
X9927835Y12772295D01*
X9935752Y12732496D01*
X9935752Y10827496D01*
X9927835Y10787697D01*
X9905291Y10753957D01*
X9871551Y10731413D01*
X9831752Y10723496D01*
X5920152Y10723496D01*
X5880353Y10731413D01*
X5846613Y10753957D01*
X5824069Y10787697D01*
X5816152Y10827496D01*
X5816152Y12732496D01*
X5824069Y12772295D01*
X5846613Y12806035D01*
X5880353Y12828579D01*
X5920152Y12836496D01*
X9831752Y12836496D01*
X9871551Y12828579D01*
G37*
G36*
X11259543Y12997196D02*
G01*
X11371520Y12932546D01*
X11462948Y12841118D01*
X11527598Y12729141D01*
X11561063Y12604248D01*
X11565300Y12539598D01*
X11565300Y11320398D01*
X11561063Y11255748D01*
X11527598Y11130855D01*
X11462948Y11018878D01*
X11371520Y10927450D01*
X11259543Y10862800D01*
X11134650Y10829335D01*
X11005350Y10829335D01*
X10880457Y10862800D01*
X10768480Y10927450D01*
X10677052Y11018878D01*
X10612402Y11130855D01*
X10578937Y11255748D01*
X10574700Y11320398D01*
X10574700Y12539598D01*
X10578937Y12604248D01*
X10612402Y12729141D01*
X10677052Y12841118D01*
X10768480Y12932546D01*
X10880457Y12997196D01*
X11005350Y13030661D01*
X11134650Y13030661D01*
X11259543Y12997196D01*
G37*
G36*
X26789303Y11840664D02*
G01*
X26889794Y11782646D01*
X26971846Y11700594D01*
X27029864Y11600103D01*
X27059897Y11488019D01*
X27059897Y11371981D01*
X27029864Y11259897D01*
X26971846Y11159406D01*
X26889794Y11077354D01*
X26789303Y11019336D01*
X26677219Y10989303D01*
X26561181Y10989303D01*
X26449097Y11019336D01*
X26348606Y11077354D01*
X26266554Y11159406D01*
X26208536Y11259897D01*
X26178503Y11371981D01*
X26178503Y11488019D01*
X26208536Y11600103D01*
X26266554Y11700594D01*
X26348606Y11782646D01*
X26449097Y11840664D01*
X26561181Y11870697D01*
X26677219Y11870697D01*
X26789303Y11840664D01*
G37*
G36*
X28059303Y11840664D02*
G01*
X28159794Y11782646D01*
X28241846Y11700594D01*
X28299864Y11600103D01*
X28329897Y11488019D01*
X28329897Y11371981D01*
X28299864Y11259897D01*
X28241846Y11159406D01*
X28159794Y11077354D01*
X28059303Y11019336D01*
X27947219Y10989303D01*
X27831181Y10989303D01*
X27719097Y11019336D01*
X27618606Y11077354D01*
X27536554Y11159406D01*
X27478536Y11259897D01*
X27448503Y11371981D01*
X27448503Y11488019D01*
X27478536Y11600103D01*
X27536554Y11700594D01*
X27618606Y11782646D01*
X27719097Y11840664D01*
X27831181Y11870697D01*
X27947219Y11870697D01*
X28059303Y11840664D01*
G37*
G36*
X29329303Y11840664D02*
G01*
X29429794Y11782646D01*
X29511846Y11700594D01*
X29569864Y11600103D01*
X29599897Y11488019D01*
X29599897Y11371981D01*
X29569864Y11259897D01*
X29511846Y11159406D01*
X29429794Y11077354D01*
X29329303Y11019336D01*
X29217219Y10989303D01*
X29101181Y10989303D01*
X28989097Y11019336D01*
X28888606Y11077354D01*
X28806554Y11159406D01*
X28748536Y11259897D01*
X28718503Y11371981D01*
X28718503Y11488019D01*
X28748536Y11600103D01*
X28806554Y11700594D01*
X28888606Y11782646D01*
X28989097Y11840664D01*
X29101181Y11870697D01*
X29217219Y11870697D01*
X29329303Y11840664D01*
G37*
G36*
X52066881Y11823866D02*
G01*
X52099842Y11801842D01*
X52121866Y11768881D01*
X52129600Y11730000D01*
X52129600Y11130000D01*
X52121866Y11091119D01*
X52099842Y11058158D01*
X52066881Y11036134D01*
X52028000Y11028400D01*
X50828000Y11028400D01*
X50789119Y11036134D01*
X50756158Y11058158D01*
X50734134Y11091119D01*
X50726400Y11130000D01*
X50726400Y11730000D01*
X50734134Y11768881D01*
X50756158Y11801842D01*
X50789119Y11823866D01*
X50828000Y11831600D01*
X52028000Y11831600D01*
X52066881Y11823866D01*
G37*
G36*
X54366881Y11823866D02*
G01*
X54399842Y11801842D01*
X54421866Y11768881D01*
X54429600Y11730000D01*
X54429600Y11130000D01*
X54421866Y11091119D01*
X54399842Y11058158D01*
X54366881Y11036134D01*
X54328000Y11028400D01*
X53128000Y11028400D01*
X53089119Y11036134D01*
X53056158Y11058158D01*
X53034134Y11091119D01*
X53026400Y11130000D01*
X53026400Y11730000D01*
X53034134Y11768881D01*
X53056158Y11801842D01*
X53089119Y11823866D01*
X53128000Y11831600D01*
X54328000Y11831600D01*
X54366881Y11823866D01*
G37*
G36*
X34871081Y12011866D02*
G01*
X34904042Y11989842D01*
X34926066Y11956881D01*
X34933800Y11918000D01*
X34933800Y11318000D01*
X34926066Y11279119D01*
X34904042Y11246158D01*
X34871081Y11224134D01*
X34832200Y11216400D01*
X33632200Y11216400D01*
X33593319Y11224134D01*
X33560358Y11246158D01*
X33538334Y11279119D01*
X33530600Y11318000D01*
X33530600Y11918000D01*
X33538334Y11956881D01*
X33560358Y11989842D01*
X33593319Y12011866D01*
X33632200Y12019600D01*
X34832200Y12019600D01*
X34871081Y12011866D01*
G37*
G36*
X37171081Y12011866D02*
G01*
X37204042Y11989842D01*
X37226066Y11956881D01*
X37233800Y11918000D01*
X37233800Y11318000D01*
X37226066Y11279119D01*
X37204042Y11246158D01*
X37171081Y11224134D01*
X37132200Y11216400D01*
X35932200Y11216400D01*
X35893319Y11224134D01*
X35860358Y11246158D01*
X35838334Y11279119D01*
X35830600Y11318000D01*
X35830600Y11918000D01*
X35838334Y11956881D01*
X35860358Y11989842D01*
X35893319Y12011866D01*
X35932200Y12019600D01*
X37132200Y12019600D01*
X37171081Y12011866D01*
G37*
G36*
X30638183Y12315531D02*
G01*
X30761645Y12244250D01*
X30862450Y12143445D01*
X30933731Y12019983D01*
X30970628Y11882280D01*
X30970628Y11739720D01*
X30933731Y11602017D01*
X30862450Y11478555D01*
X30761645Y11377750D01*
X30638183Y11306469D01*
X30500480Y11269572D01*
X30357920Y11269572D01*
X30220217Y11306469D01*
X30096755Y11377750D01*
X29995950Y11478555D01*
X29924669Y11602017D01*
X29887772Y11739720D01*
X29887772Y11882280D01*
X29924669Y12019983D01*
X29995950Y12143445D01*
X30096755Y12244250D01*
X30220217Y12315531D01*
X30357920Y12352428D01*
X30500480Y12352428D01*
X30638183Y12315531D01*
G37*
G36*
X22155234Y12267236D02*
G01*
X22188325Y12245125D01*
X22210436Y12212034D01*
X22218200Y12173000D01*
X22218200Y11373000D01*
X22210436Y11333966D01*
X22188325Y11300875D01*
X22155234Y11278764D01*
X22116200Y11271000D01*
X21216200Y11271000D01*
X21177166Y11278764D01*
X21144075Y11300875D01*
X21121964Y11333966D01*
X21114200Y11373000D01*
X21114200Y12173000D01*
X21121964Y12212034D01*
X21144075Y12245125D01*
X21177166Y12267236D01*
X21216200Y12275000D01*
X22116200Y12275000D01*
X22155234Y12267236D01*
G37*
G36*
X62323440Y13745740D02*
G01*
X62332996Y13745740D01*
X62370329Y13738314D01*
X62475283Y13721692D01*
X62509043Y13710723D01*
X62535031Y13705553D01*
X62571709Y13690361D01*
X62632093Y13670740D01*
X62688654Y13641921D01*
X62725344Y13626723D01*
X62747386Y13611995D01*
X62779003Y13595885D01*
X62864962Y13533433D01*
X62896620Y13512279D01*
X62903375Y13505524D01*
X62912386Y13498977D01*
X63028976Y13382387D01*
X63035522Y13373377D01*
X63042279Y13366620D01*
X63063435Y13334958D01*
X63125884Y13249004D01*
X63141992Y13217390D01*
X63156723Y13195344D01*
X63171922Y13158650D01*
X63200739Y13102094D01*
X63220357Y13041718D01*
X63235553Y13005031D01*
X63240723Y12979039D01*
X63251691Y12945284D01*
X63268312Y12840335D01*
X63275740Y12802996D01*
X63275740Y12793441D01*
X63277482Y12782442D01*
X63277482Y12617559D01*
X63275740Y12606561D01*
X63275740Y12597004D01*
X63268312Y12559662D01*
X63251691Y12454717D01*
X63240723Y12420964D01*
X63235553Y12394969D01*
X63220355Y12358280D01*
X63200739Y12297907D01*
X63171924Y12241357D01*
X63156723Y12204656D01*
X63141990Y12182608D01*
X63125884Y12150997D01*
X63063443Y12065055D01*
X63042279Y12033380D01*
X63035519Y12026621D01*
X63028976Y12017614D01*
X62912386Y11901024D01*
X62903379Y11894481D01*
X62896620Y11887721D01*
X62864945Y11866557D01*
X62779003Y11804116D01*
X62747392Y11788010D01*
X62725344Y11773277D01*
X62688643Y11758076D01*
X62632093Y11729261D01*
X62571720Y11709645D01*
X62535031Y11694447D01*
X62509036Y11689277D01*
X62475283Y11678309D01*
X62370338Y11661688D01*
X62332996Y11654260D01*
X62323440Y11654260D01*
X62312441Y11652518D01*
X62147559Y11652518D01*
X62136560Y11654260D01*
X62127004Y11654260D01*
X62089662Y11661688D01*
X61984716Y11678309D01*
X61950961Y11689277D01*
X61924969Y11694447D01*
X61888282Y11709643D01*
X61827906Y11729261D01*
X61771350Y11758078D01*
X61734656Y11773277D01*
X61712610Y11788008D01*
X61680996Y11804116D01*
X61595042Y11866565D01*
X61563380Y11887721D01*
X61556623Y11894478D01*
X61547613Y11901024D01*
X61431023Y12017614D01*
X61424476Y12026625D01*
X61417721Y12033380D01*
X61396567Y12065038D01*
X61334115Y12150997D01*
X61318005Y12182614D01*
X61303277Y12204656D01*
X61288079Y12241346D01*
X61259260Y12297907D01*
X61239639Y12358291D01*
X61224447Y12394969D01*
X61219277Y12420957D01*
X61208308Y12454717D01*
X61191686Y12559671D01*
X61184260Y12597004D01*
X61184260Y12606560D01*
X61182518Y12617559D01*
X61182518Y12782442D01*
X61184260Y12793442D01*
X61184260Y12802996D01*
X61191685Y12840326D01*
X61208308Y12945284D01*
X61219278Y12979047D01*
X61224447Y13005031D01*
X61239638Y13041706D01*
X61259260Y13102094D01*
X61288081Y13158660D01*
X61303277Y13195344D01*
X61318003Y13217384D01*
X61334115Y13249004D01*
X61396576Y13334975D01*
X61417721Y13366620D01*
X61424473Y13373373D01*
X61431023Y13382387D01*
X61547613Y13498977D01*
X61556627Y13505527D01*
X61563380Y13512279D01*
X61595025Y13533424D01*
X61680996Y13595885D01*
X61712616Y13611997D01*
X61734656Y13626723D01*
X61771340Y13641919D01*
X61827906Y13670740D01*
X61888294Y13690362D01*
X61924969Y13705553D01*
X61950953Y13710722D01*
X61984716Y13721692D01*
X62089671Y13738315D01*
X62127004Y13745740D01*
X62136560Y13745740D01*
X62147559Y13747482D01*
X62312441Y13747482D01*
X62323440Y13745740D01*
G37*
G36*
X57176560Y13624883D02*
G01*
X57351605Y13552377D01*
X57509141Y13447115D01*
X57643115Y13313141D01*
X57748377Y13155605D01*
X57820883Y12980560D01*
X57857846Y12794734D01*
X57857846Y12605266D01*
X57820883Y12419440D01*
X57748377Y12244395D01*
X57643115Y12086859D01*
X57509141Y11952885D01*
X57351605Y11847623D01*
X57176560Y11775117D01*
X56990734Y11738154D01*
X56801266Y11738154D01*
X56615440Y11775117D01*
X56440395Y11847623D01*
X56282859Y11952885D01*
X56148885Y12086859D01*
X56043623Y12244395D01*
X55971117Y12419440D01*
X55934154Y12605266D01*
X55934154Y12794734D01*
X55971117Y12980560D01*
X56043623Y13155605D01*
X56148885Y13313141D01*
X56282859Y13447115D01*
X56440395Y13552377D01*
X56615440Y13624883D01*
X56801266Y13661846D01*
X56990734Y13661846D01*
X57176560Y13624883D01*
G37*
G36*
X41256034Y12825836D02*
G01*
X41289125Y12803725D01*
X41311236Y12770634D01*
X41319000Y12731600D01*
X41319000Y11931600D01*
X41311236Y11892566D01*
X41289125Y11859475D01*
X41256034Y11837364D01*
X41217000Y11829600D01*
X40317000Y11829600D01*
X40277966Y11837364D01*
X40244875Y11859475D01*
X40222764Y11892566D01*
X40215000Y11931600D01*
X40215000Y12731600D01*
X40222764Y12770634D01*
X40244875Y12803725D01*
X40277966Y12825836D01*
X40317000Y12833600D01*
X41217000Y12833600D01*
X41256034Y12825836D01*
G37*
G36*
X52066881Y12773866D02*
G01*
X52099842Y12751842D01*
X52121866Y12718881D01*
X52129600Y12680000D01*
X52129600Y12080000D01*
X52121866Y12041119D01*
X52099842Y12008158D01*
X52066881Y11986134D01*
X52028000Y11978400D01*
X50828000Y11978400D01*
X50789119Y11986134D01*
X50756158Y12008158D01*
X50734134Y12041119D01*
X50726400Y12080000D01*
X50726400Y12680000D01*
X50734134Y12718881D01*
X50756158Y12751842D01*
X50789119Y12773866D01*
X50828000Y12781600D01*
X52028000Y12781600D01*
X52066881Y12773866D01*
G37*
G36*
X54366881Y12773866D02*
G01*
X54399842Y12751842D01*
X54421866Y12718881D01*
X54429600Y12680000D01*
X54429600Y12080000D01*
X54421866Y12041119D01*
X54399842Y12008158D01*
X54366881Y11986134D01*
X54328000Y11978400D01*
X53128000Y11978400D01*
X53089119Y11986134D01*
X53056158Y12008158D01*
X53034134Y12041119D01*
X53026400Y12080000D01*
X53026400Y12680000D01*
X53034134Y12718881D01*
X53056158Y12751842D01*
X53089119Y12773866D01*
X53128000Y12781600D01*
X54328000Y12781600D01*
X54366881Y12773866D01*
G37*
G36*
X25639746Y14545212D02*
G01*
X25825488Y14484860D01*
X25999502Y14396196D01*
X26157503Y14281401D01*
X26295601Y14143303D01*
X26410396Y13985302D01*
X26499060Y13811288D01*
X26559412Y13625546D01*
X26589963Y13432650D01*
X26589963Y13237350D01*
X26559412Y13044454D01*
X26499060Y12858712D01*
X26410396Y12684698D01*
X26295601Y12526697D01*
X26157503Y12388599D01*
X25999502Y12273804D01*
X25825488Y12185140D01*
X25639746Y12124788D01*
X25446850Y12094237D01*
X25251550Y12094237D01*
X25058654Y12124788D01*
X24872912Y12185140D01*
X24698898Y12273804D01*
X24540897Y12388599D01*
X24402799Y12526697D01*
X24288004Y12684698D01*
X24199340Y12858712D01*
X24138988Y13044454D01*
X24108437Y13237350D01*
X24108437Y13432650D01*
X24138988Y13625546D01*
X24199340Y13811288D01*
X24288004Y13985302D01*
X24402799Y14143303D01*
X24540897Y14281401D01*
X24698898Y14396196D01*
X24872912Y14484860D01*
X25058654Y14545212D01*
X25251550Y14575763D01*
X25446850Y14575763D01*
X25639746Y14545212D01*
G37*
G36*
X28814746Y14545212D02*
G01*
X29000488Y14484860D01*
X29174502Y14396196D01*
X29332503Y14281401D01*
X29470601Y14143303D01*
X29585396Y13985302D01*
X29674060Y13811288D01*
X29734412Y13625546D01*
X29764963Y13432650D01*
X29764963Y13237350D01*
X29734412Y13044454D01*
X29674060Y12858712D01*
X29585396Y12684698D01*
X29470601Y12526697D01*
X29332503Y12388599D01*
X29174502Y12273804D01*
X29000488Y12185140D01*
X28814746Y12124788D01*
X28621850Y12094237D01*
X28426550Y12094237D01*
X28233654Y12124788D01*
X28047912Y12185140D01*
X27873898Y12273804D01*
X27715897Y12388599D01*
X27577799Y12526697D01*
X27463004Y12684698D01*
X27374340Y12858712D01*
X27313988Y13044454D01*
X27283437Y13237350D01*
X27283437Y13432650D01*
X27313988Y13625546D01*
X27374340Y13811288D01*
X27463004Y13985302D01*
X27577799Y14143303D01*
X27715897Y14281401D01*
X27873898Y14396196D01*
X28047912Y14484860D01*
X28233654Y14545212D01*
X28426550Y14575763D01*
X28621850Y14575763D01*
X28814746Y14545212D01*
G37*
G36*
X45070240Y14136933D02*
G01*
X45086721Y14125921D01*
X45097733Y14109440D01*
X45101600Y14090000D01*
X45101600Y12590000D01*
X45097733Y12570560D01*
X45086721Y12554079D01*
X45070240Y12543067D01*
X45050800Y12539200D01*
X43950800Y12539200D01*
X43931360Y12543067D01*
X43914879Y12554079D01*
X43903867Y12570560D01*
X43900000Y12590000D01*
X43900000Y14090000D01*
X43903867Y14109440D01*
X43914879Y14125921D01*
X43931360Y14136933D01*
X43950800Y14140800D01*
X45050800Y14140800D01*
X45070240Y14136933D01*
G37*
G36*
X47610240Y14136933D02*
G01*
X47626721Y14125921D01*
X47637733Y14109440D01*
X47641600Y14090000D01*
X47641600Y12590000D01*
X47637733Y12570560D01*
X47626721Y12554079D01*
X47610240Y12543067D01*
X47590800Y12539200D01*
X46490800Y12539200D01*
X46471360Y12543067D01*
X46454879Y12554079D01*
X46443867Y12570560D01*
X46440000Y12590000D01*
X46440000Y14090000D01*
X46443867Y14109440D01*
X46454879Y14125921D01*
X46471360Y14136933D01*
X46490800Y14140800D01*
X47590800Y14140800D01*
X47610240Y14136933D01*
G37*
G36*
X22155234Y13867236D02*
G01*
X22188325Y13845125D01*
X22210436Y13812034D01*
X22218200Y13773000D01*
X22218200Y12973000D01*
X22210436Y12933966D01*
X22188325Y12900875D01*
X22155234Y12878764D01*
X22116200Y12871000D01*
X21216200Y12871000D01*
X21177166Y12878764D01*
X21144075Y12900875D01*
X21121964Y12933966D01*
X21114200Y12973000D01*
X21114200Y13773000D01*
X21121964Y13812034D01*
X21144075Y13845125D01*
X21177166Y13867236D01*
X21216200Y13875000D01*
X22116200Y13875000D01*
X22155234Y13867236D01*
G37*
G36*
X40939514Y14386485D02*
G01*
X41041430Y14327644D01*
X41124644Y14244430D01*
X41183485Y14142514D01*
X41213943Y14028841D01*
X41213943Y13911159D01*
X41183485Y13797486D01*
X41124644Y13695570D01*
X41041430Y13612356D01*
X40939514Y13553515D01*
X40825841Y13523057D01*
X40708159Y13523057D01*
X40594486Y13553515D01*
X40492570Y13612356D01*
X40409356Y13695570D01*
X40350515Y13797486D01*
X40320057Y13911159D01*
X40320057Y14028841D01*
X40350515Y14142514D01*
X40409356Y14244430D01*
X40492570Y14327644D01*
X40594486Y14386485D01*
X40708159Y14416943D01*
X40825841Y14416943D01*
X40939514Y14386485D01*
G37*
G36*
X13659799Y14726080D02*
G01*
X13693539Y14703536D01*
X13716083Y14669796D01*
X13724000Y14629997D01*
X13724000Y13629997D01*
X13716083Y13590198D01*
X13693539Y13556458D01*
X13659799Y13533914D01*
X13620000Y13525997D01*
X10920000Y13525997D01*
X10880201Y13533914D01*
X10846461Y13556458D01*
X10823917Y13590198D01*
X10816000Y13629997D01*
X10816000Y14629997D01*
X10823917Y14669796D01*
X10846461Y14703536D01*
X10880201Y14726080D01*
X10920000Y14733997D01*
X13620000Y14733997D01*
X13659799Y14726080D01*
G37*
G36*
X51861434Y15149236D02*
G01*
X51894525Y15127125D01*
X51916636Y15094034D01*
X51924400Y15055000D01*
X51924400Y14155000D01*
X51916636Y14115966D01*
X51894525Y14082875D01*
X51861434Y14060764D01*
X51822400Y14053000D01*
X51022400Y14053000D01*
X50983366Y14060764D01*
X50950275Y14082875D01*
X50928164Y14115966D01*
X50920400Y14155000D01*
X50920400Y15055000D01*
X50928164Y15094034D01*
X50950275Y15127125D01*
X50983366Y15149236D01*
X51022400Y15157000D01*
X51822400Y15157000D01*
X51861434Y15149236D01*
G37*
G36*
X53461434Y15149236D02*
G01*
X53494525Y15127125D01*
X53516636Y15094034D01*
X53524400Y15055000D01*
X53524400Y14155000D01*
X53516636Y14115966D01*
X53494525Y14082875D01*
X53461434Y14060764D01*
X53422400Y14053000D01*
X52622400Y14053000D01*
X52583366Y14060764D01*
X52550275Y14082875D01*
X52528164Y14115966D01*
X52520400Y14155000D01*
X52520400Y15055000D01*
X52528164Y15094034D01*
X52550275Y15127125D01*
X52583366Y15149236D01*
X52622400Y15157000D01*
X53422400Y15157000D01*
X53461434Y15149236D01*
G37*
G36*
X57187010Y16199333D02*
G01*
X57368575Y16124126D01*
X57531979Y16014943D01*
X57670943Y15875979D01*
X57780126Y15712575D01*
X57855333Y15531010D01*
X57893673Y15338262D01*
X57893673Y15141738D01*
X57855333Y14948990D01*
X57780126Y14767425D01*
X57670943Y14604021D01*
X57531979Y14465057D01*
X57368575Y14355874D01*
X57187010Y14280667D01*
X56994262Y14242327D01*
X56797738Y14242327D01*
X56604990Y14280667D01*
X56423425Y14355874D01*
X56260021Y14465057D01*
X56121057Y14604021D01*
X56011874Y14767425D01*
X55936667Y14948990D01*
X55898327Y15141738D01*
X55898327Y15338262D01*
X55936667Y15531010D01*
X56011874Y15712575D01*
X56121057Y15875979D01*
X56260021Y16014943D01*
X56423425Y16124126D01*
X56604990Y16199333D01*
X56797738Y16237673D01*
X56994262Y16237673D01*
X57187010Y16199333D01*
G37*
G36*
X13659799Y16726081D02*
G01*
X13693539Y16703537D01*
X13716083Y16669797D01*
X13724000Y16629998D01*
X13724000Y15629998D01*
X13716083Y15590199D01*
X13693539Y15556459D01*
X13659799Y15533915D01*
X13620000Y15525998D01*
X10920000Y15525998D01*
X10880201Y15533915D01*
X10846461Y15556459D01*
X10823917Y15590199D01*
X10816000Y15629998D01*
X10816000Y16629998D01*
X10823917Y16669797D01*
X10846461Y16703537D01*
X10880201Y16726081D01*
X10920000Y16733998D01*
X13620000Y16733998D01*
X13659799Y16726081D01*
G37*
G36*
X38165434Y17391636D02*
G01*
X38198525Y17369525D01*
X38220636Y17336434D01*
X38228400Y17297400D01*
X38228400Y16027400D01*
X38220636Y15988366D01*
X38198525Y15955275D01*
X38165434Y15933164D01*
X38126400Y15925400D01*
X36346400Y15925400D01*
X36307366Y15933164D01*
X36274275Y15955275D01*
X36252164Y15988366D01*
X36244400Y16027400D01*
X36244400Y17297400D01*
X36252164Y17336434D01*
X36274275Y17369525D01*
X36307366Y17391636D01*
X36346400Y17399400D01*
X38126400Y17399400D01*
X38165434Y17391636D01*
G37*
G36*
X41975434Y17391636D02*
G01*
X42008525Y17369525D01*
X42030636Y17336434D01*
X42038400Y17297400D01*
X42038400Y16027400D01*
X42030636Y15988366D01*
X42008525Y15955275D01*
X41975434Y15933164D01*
X41936400Y15925400D01*
X40156400Y15925400D01*
X40117366Y15933164D01*
X40084275Y15955275D01*
X40062164Y15988366D01*
X40054400Y16027400D01*
X40054400Y17297400D01*
X40062164Y17336434D01*
X40084275Y17369525D01*
X40117366Y17391636D01*
X40156400Y17399400D01*
X41936400Y17399400D01*
X41975434Y17391636D01*
G37*
G36*
X67634914Y17078885D02*
G01*
X67736830Y17020044D01*
X67820044Y16936830D01*
X67878885Y16834914D01*
X67909343Y16721241D01*
X67909343Y16603559D01*
X67878885Y16489886D01*
X67820044Y16387970D01*
X67736830Y16304756D01*
X67634914Y16245915D01*
X67521241Y16215457D01*
X67403559Y16215457D01*
X67289886Y16245915D01*
X67187970Y16304756D01*
X67104756Y16387970D01*
X67045915Y16489886D01*
X67015457Y16603559D01*
X67015457Y16721241D01*
X67045915Y16834914D01*
X67104756Y16936830D01*
X67187970Y17020044D01*
X67289886Y17078885D01*
X67403559Y17109343D01*
X67521241Y17109343D01*
X67634914Y17078885D01*
G37*
G36*
X46259834Y17220236D02*
G01*
X46292925Y17198125D01*
X46315036Y17165034D01*
X46322800Y17126000D01*
X46322800Y16326000D01*
X46315036Y16286966D01*
X46292925Y16253875D01*
X46259834Y16231764D01*
X46220800Y16224000D01*
X45320800Y16224000D01*
X45281766Y16231764D01*
X45248675Y16253875D01*
X45226564Y16286966D01*
X45218800Y16326000D01*
X45218800Y17126000D01*
X45226564Y17165034D01*
X45248675Y17198125D01*
X45281766Y17220236D01*
X45320800Y17228000D01*
X46220800Y17228000D01*
X46259834Y17220236D01*
G37*
G36*
X62763034Y17220236D02*
G01*
X62796125Y17198125D01*
X62818236Y17165034D01*
X62826000Y17126000D01*
X62826000Y16326000D01*
X62818236Y16286966D01*
X62796125Y16253875D01*
X62763034Y16231764D01*
X62724000Y16224000D01*
X61824000Y16224000D01*
X61784966Y16231764D01*
X61751875Y16253875D01*
X61729764Y16286966D01*
X61722000Y16326000D01*
X61722000Y17126000D01*
X61729764Y17165034D01*
X61751875Y17198125D01*
X61784966Y17220236D01*
X61824000Y17228000D01*
X62724000Y17228000D01*
X62763034Y17220236D01*
G37*
G36*
X48139434Y17271036D02*
G01*
X48172525Y17248925D01*
X48194636Y17215834D01*
X48202400Y17176800D01*
X48202400Y16376800D01*
X48194636Y16337766D01*
X48172525Y16304675D01*
X48139434Y16282564D01*
X48100400Y16274800D01*
X47200400Y16274800D01*
X47161366Y16282564D01*
X47128275Y16304675D01*
X47106164Y16337766D01*
X47098400Y16376800D01*
X47098400Y17176800D01*
X47106164Y17215834D01*
X47128275Y17248925D01*
X47161366Y17271036D01*
X47200400Y17278800D01*
X48100400Y17278800D01*
X48139434Y17271036D01*
G37*
G36*
X28471799Y17868083D02*
G01*
X28505539Y17845539D01*
X28528083Y17811799D01*
X28536000Y17772000D01*
X28536000Y16772000D01*
X28528083Y16732201D01*
X28505539Y16698461D01*
X28471799Y16675917D01*
X28432000Y16668000D01*
X27852000Y16668000D01*
X27812201Y16675917D01*
X27778461Y16698461D01*
X27755917Y16732201D01*
X27748000Y16772000D01*
X27748000Y17772000D01*
X27755917Y17811799D01*
X27778461Y17845539D01*
X27812201Y17868083D01*
X27852000Y17876000D01*
X28432000Y17876000D01*
X28471799Y17868083D01*
G37*
G36*
X29591799Y17868083D02*
G01*
X29625539Y17845539D01*
X29648083Y17811799D01*
X29656000Y17772000D01*
X29656000Y16772000D01*
X29648083Y16732201D01*
X29625539Y16698461D01*
X29591799Y16675917D01*
X29552000Y16668000D01*
X28972000Y16668000D01*
X28932201Y16675917D01*
X28898461Y16698461D01*
X28875917Y16732201D01*
X28868000Y16772000D01*
X28868000Y17772000D01*
X28875917Y17811799D01*
X28898461Y17845539D01*
X28932201Y17868083D01*
X28972000Y17876000D01*
X29552000Y17876000D01*
X29591799Y17868083D01*
G37*
G36*
X44126199Y17454483D02*
G01*
X44159939Y17431939D01*
X44182483Y17398199D01*
X44190400Y17358400D01*
X44190400Y16778400D01*
X44182483Y16738601D01*
X44159939Y16704861D01*
X44126199Y16682317D01*
X44086400Y16674400D01*
X43086400Y16674400D01*
X43046601Y16682317D01*
X43012861Y16704861D01*
X42990317Y16738601D01*
X42982400Y16778400D01*
X42982400Y17358400D01*
X42990317Y17398199D01*
X43012861Y17431939D01*
X43046601Y17454483D01*
X43086400Y17462400D01*
X44086400Y17462400D01*
X44126199Y17454483D01*
G37*
G36*
X13659799Y18726082D02*
G01*
X13693539Y18703538D01*
X13716083Y18669798D01*
X13724000Y18629999D01*
X13724000Y17629999D01*
X13716083Y17590200D01*
X13693539Y17556460D01*
X13659799Y17533916D01*
X13620000Y17525999D01*
X10920000Y17525999D01*
X10880201Y17533916D01*
X10846461Y17556460D01*
X10823917Y17590200D01*
X10816000Y17629999D01*
X10816000Y18629999D01*
X10823917Y18669798D01*
X10846461Y18703538D01*
X10880201Y18726082D01*
X10920000Y18733999D01*
X13620000Y18733999D01*
X13659799Y18726082D01*
G37*
G36*
X74489799Y19694083D02*
G01*
X74523539Y19671539D01*
X74546083Y19637799D01*
X74554000Y19598000D01*
X74554000Y17698000D01*
X74546083Y17658201D01*
X74523539Y17624461D01*
X74489799Y17601917D01*
X74450000Y17594000D01*
X70550000Y17594000D01*
X70510201Y17601917D01*
X70476461Y17624461D01*
X70453917Y17658201D01*
X70446000Y17698000D01*
X70446000Y19598000D01*
X70453917Y19637799D01*
X70476461Y19671539D01*
X70510201Y19694083D01*
X70550000Y19702000D01*
X74450000Y19702000D01*
X74489799Y19694083D01*
G37*
G36*
X44126199Y18574483D02*
G01*
X44159939Y18551939D01*
X44182483Y18518199D01*
X44190400Y18478400D01*
X44190400Y17898400D01*
X44182483Y17858601D01*
X44159939Y17824861D01*
X44126199Y17802317D01*
X44086400Y17794400D01*
X43086400Y17794400D01*
X43046601Y17802317D01*
X43012861Y17824861D01*
X42990317Y17858601D01*
X42982400Y17898400D01*
X42982400Y18478400D01*
X42990317Y18518199D01*
X43012861Y18551939D01*
X43046601Y18574483D01*
X43086400Y18582400D01*
X44086400Y18582400D01*
X44126199Y18574483D01*
G37*
G36*
X46259834Y18820236D02*
G01*
X46292925Y18798125D01*
X46315036Y18765034D01*
X46322800Y18726000D01*
X46322800Y17926000D01*
X46315036Y17886966D01*
X46292925Y17853875D01*
X46259834Y17831764D01*
X46220800Y17824000D01*
X45320800Y17824000D01*
X45281766Y17831764D01*
X45248675Y17853875D01*
X45226564Y17886966D01*
X45218800Y17926000D01*
X45218800Y18726000D01*
X45226564Y18765034D01*
X45248675Y18798125D01*
X45281766Y18820236D01*
X45320800Y18828000D01*
X46220800Y18828000D01*
X46259834Y18820236D01*
G37*
G36*
X62763034Y18820236D02*
G01*
X62796125Y18798125D01*
X62818236Y18765034D01*
X62826000Y18726000D01*
X62826000Y17926000D01*
X62818236Y17886966D01*
X62796125Y17853875D01*
X62763034Y17831764D01*
X62724000Y17824000D01*
X61824000Y17824000D01*
X61784966Y17831764D01*
X61751875Y17853875D01*
X61729764Y17886966D01*
X61722000Y17926000D01*
X61722000Y18726000D01*
X61729764Y18765034D01*
X61751875Y18798125D01*
X61784966Y18820236D01*
X61824000Y18828000D01*
X62724000Y18828000D01*
X62763034Y18820236D01*
G37*
G36*
X48139434Y18871036D02*
G01*
X48172525Y18848925D01*
X48194636Y18815834D01*
X48202400Y18776800D01*
X48202400Y17976800D01*
X48194636Y17937766D01*
X48172525Y17904675D01*
X48139434Y17882564D01*
X48100400Y17874800D01*
X47200400Y17874800D01*
X47161366Y17882564D01*
X47128275Y17904675D01*
X47106164Y17937766D01*
X47098400Y17976800D01*
X47098400Y18776800D01*
X47106164Y18815834D01*
X47128275Y18848925D01*
X47161366Y18871036D01*
X47200400Y18878800D01*
X48100400Y18878800D01*
X48139434Y18871036D01*
G37*
G36*
X69289543Y18955598D02*
G01*
X69401520Y18890948D01*
X69492948Y18799520D01*
X69557598Y18687543D01*
X69591063Y18562650D01*
X69591063Y18433350D01*
X69557598Y18308457D01*
X69492948Y18196480D01*
X69401520Y18105052D01*
X69289543Y18040402D01*
X69164650Y18006937D01*
X69035350Y18006937D01*
X68910457Y18040402D01*
X68798480Y18105052D01*
X68707052Y18196480D01*
X68642402Y18308457D01*
X68608937Y18433350D01*
X68608937Y18562650D01*
X68642402Y18687543D01*
X68707052Y18799520D01*
X68798480Y18890948D01*
X68910457Y18955598D01*
X69035350Y18989063D01*
X69164650Y18989063D01*
X69289543Y18955598D01*
G37*
G36*
X38165434Y19931636D02*
G01*
X38198525Y19909525D01*
X38220636Y19876434D01*
X38228400Y19837400D01*
X38228400Y18567400D01*
X38220636Y18528366D01*
X38198525Y18495275D01*
X38165434Y18473164D01*
X38126400Y18465400D01*
X36346400Y18465400D01*
X36307366Y18473164D01*
X36274275Y18495275D01*
X36252164Y18528366D01*
X36244400Y18567400D01*
X36244400Y19837400D01*
X36252164Y19876434D01*
X36274275Y19909525D01*
X36307366Y19931636D01*
X36346400Y19939400D01*
X38126400Y19939400D01*
X38165434Y19931636D01*
G37*
G36*
X41975434Y19931636D02*
G01*
X42008525Y19909525D01*
X42030636Y19876434D01*
X42038400Y19837400D01*
X42038400Y18567400D01*
X42030636Y18528366D01*
X42008525Y18495275D01*
X41975434Y18473164D01*
X41936400Y18465400D01*
X40156400Y18465400D01*
X40117366Y18473164D01*
X40084275Y18495275D01*
X40062164Y18528366D01*
X40054400Y18567400D01*
X40054400Y19837400D01*
X40062164Y19876434D01*
X40084275Y19909525D01*
X40117366Y19931636D01*
X40156400Y19939400D01*
X41936400Y19939400D01*
X41975434Y19931636D01*
G37*
G36*
X57798299Y20897583D02*
G01*
X57832039Y20875039D01*
X57854583Y20841299D01*
X57862500Y20801500D01*
X57862500Y19076500D01*
X57854583Y19036701D01*
X57832039Y19002961D01*
X57798299Y18980417D01*
X57758500Y18972500D01*
X56033500Y18972500D01*
X55993701Y18980417D01*
X55959961Y19002961D01*
X55937417Y19036701D01*
X55929500Y19076500D01*
X55929500Y20801500D01*
X55937417Y20841299D01*
X55959961Y20875039D01*
X55993701Y20897583D01*
X56033500Y20905500D01*
X57758500Y20905500D01*
X57798299Y20897583D01*
G37*
G36*
X13659799Y20726080D02*
G01*
X13693539Y20703536D01*
X13716083Y20669796D01*
X13724000Y20629997D01*
X13724000Y19629997D01*
X13716083Y19590198D01*
X13693539Y19556458D01*
X13659799Y19533914D01*
X13620000Y19525997D01*
X10920000Y19525997D01*
X10880201Y19533914D01*
X10846461Y19556458D01*
X10823917Y19590198D01*
X10816000Y19629997D01*
X10816000Y20629997D01*
X10823917Y20669796D01*
X10846461Y20703536D01*
X10880201Y20726080D01*
X10920000Y20733997D01*
X13620000Y20733997D01*
X13659799Y20726080D01*
G37*
G36*
X43708114Y20685685D02*
G01*
X43810030Y20626844D01*
X43893244Y20543630D01*
X43952085Y20441714D01*
X43982543Y20328041D01*
X43982543Y20210359D01*
X43952085Y20096686D01*
X43893244Y19994770D01*
X43810030Y19911556D01*
X43708114Y19852715D01*
X43594441Y19822257D01*
X43476759Y19822257D01*
X43363086Y19852715D01*
X43261170Y19911556D01*
X43177956Y19994770D01*
X43119115Y20096686D01*
X43088657Y20210359D01*
X43088657Y20328041D01*
X43119115Y20441714D01*
X43177956Y20543630D01*
X43261170Y20626844D01*
X43363086Y20685685D01*
X43476759Y20716143D01*
X43594441Y20716143D01*
X43708114Y20685685D01*
G37*
G36*
X28429034Y21284236D02*
G01*
X28462125Y21262125D01*
X28484236Y21229034D01*
X28492000Y21190000D01*
X28492000Y20390000D01*
X28484236Y20350966D01*
X28462125Y20317875D01*
X28429034Y20295764D01*
X28390000Y20288000D01*
X27490000Y20288000D01*
X27450966Y20295764D01*
X27417875Y20317875D01*
X27395764Y20350966D01*
X27388000Y20390000D01*
X27388000Y21190000D01*
X27395764Y21229034D01*
X27417875Y21262125D01*
X27450966Y21284236D01*
X27490000Y21292000D01*
X28390000Y21292000D01*
X28429034Y21284236D01*
G37*
G36*
X69289799Y21694083D02*
G01*
X69323539Y21671539D01*
X69346083Y21637799D01*
X69354000Y21598000D01*
X69354000Y20498000D01*
X69346083Y20458201D01*
X69323539Y20424461D01*
X69289799Y20401917D01*
X69250000Y20394000D01*
X66550000Y20394000D01*
X66510201Y20401917D01*
X66476461Y20424461D01*
X66453917Y20458201D01*
X66446000Y20498000D01*
X66446000Y21598000D01*
X66453917Y21637799D01*
X66476461Y21671539D01*
X66510201Y21694083D01*
X66550000Y21702000D01*
X69250000Y21702000D01*
X69289799Y21694083D01*
G37*
G36*
X62763034Y21733236D02*
G01*
X62796125Y21711125D01*
X62818236Y21678034D01*
X62826000Y21639000D01*
X62826000Y20839000D01*
X62818236Y20799966D01*
X62796125Y20766875D01*
X62763034Y20744764D01*
X62724000Y20737000D01*
X61824000Y20737000D01*
X61784966Y20744764D01*
X61751875Y20766875D01*
X61729764Y20799966D01*
X61722000Y20839000D01*
X61722000Y21639000D01*
X61729764Y21678034D01*
X61751875Y21711125D01*
X61784966Y21733236D01*
X61824000Y21741000D01*
X62724000Y21741000D01*
X62763034Y21733236D01*
G37*
G36*
X65309799Y21722083D02*
G01*
X65343539Y21699539D01*
X65366083Y21665799D01*
X65374000Y21626000D01*
X65374000Y21046000D01*
X65366083Y21006201D01*
X65343539Y20972461D01*
X65309799Y20949917D01*
X65270000Y20942000D01*
X64270000Y20942000D01*
X64230201Y20949917D01*
X64196461Y20972461D01*
X64173917Y21006201D01*
X64166000Y21046000D01*
X64166000Y21626000D01*
X64173917Y21665799D01*
X64196461Y21699539D01*
X64230201Y21722083D01*
X64270000Y21730000D01*
X65270000Y21730000D01*
X65309799Y21722083D01*
G37*
G36*
X57176560Y23403883D02*
G01*
X57351605Y23331377D01*
X57509141Y23226115D01*
X57643115Y23092141D01*
X57748377Y22934605D01*
X57820883Y22759560D01*
X57857846Y22573734D01*
X57857846Y22384266D01*
X57820883Y22198440D01*
X57748377Y22023395D01*
X57643115Y21865859D01*
X57509141Y21731885D01*
X57351605Y21626623D01*
X57176560Y21554117D01*
X56990734Y21517154D01*
X56801266Y21517154D01*
X56615440Y21554117D01*
X56440395Y21626623D01*
X56282859Y21731885D01*
X56148885Y21865859D01*
X56043623Y22023395D01*
X55971117Y22198440D01*
X55934154Y22384266D01*
X55934154Y22573734D01*
X55971117Y22759560D01*
X56043623Y22934605D01*
X56148885Y23092141D01*
X56282859Y23226115D01*
X56440395Y23331377D01*
X56615440Y23403883D01*
X56801266Y23440846D01*
X56990734Y23440846D01*
X57176560Y23403883D01*
G37*
G36*
X13659799Y22726081D02*
G01*
X13693539Y22703537D01*
X13716083Y22669797D01*
X13724000Y22629998D01*
X13724000Y21629998D01*
X13716083Y21590199D01*
X13693539Y21556459D01*
X13659799Y21533915D01*
X13620000Y21525998D01*
X10920000Y21525998D01*
X10880201Y21533915D01*
X10846461Y21556459D01*
X10823917Y21590199D01*
X10816000Y21629998D01*
X10816000Y22629998D01*
X10823917Y22669797D01*
X10846461Y22703537D01*
X10880201Y22726081D01*
X10920000Y22733998D01*
X13620000Y22733998D01*
X13659799Y22726081D01*
G37*
G36*
X38444599Y22341884D02*
G01*
X38478339Y22319340D01*
X38500883Y22285600D01*
X38508800Y22245801D01*
X38508800Y21890201D01*
X38500883Y21850402D01*
X38478339Y21816662D01*
X38444599Y21794118D01*
X38404800Y21786201D01*
X36626800Y21786201D01*
X36587001Y21794118D01*
X36553261Y21816662D01*
X36530717Y21850402D01*
X36522800Y21890201D01*
X36522800Y22245801D01*
X36530717Y22285600D01*
X36553261Y22319340D01*
X36587001Y22341884D01*
X36626800Y22349801D01*
X38404800Y22349801D01*
X38444599Y22341884D01*
G37*
G36*
X32500999Y22341886D02*
G01*
X32534739Y22319342D01*
X32557283Y22285602D01*
X32565200Y22245803D01*
X32565200Y21890203D01*
X32557283Y21850404D01*
X32534739Y21816664D01*
X32500999Y21794120D01*
X32461200Y21786203D01*
X30683200Y21786203D01*
X30643401Y21794120D01*
X30609661Y21816664D01*
X30587117Y21850404D01*
X30579200Y21890203D01*
X30579200Y22245803D01*
X30587117Y22285602D01*
X30609661Y22319342D01*
X30643401Y22341886D01*
X30683200Y22349803D01*
X32461200Y22349803D01*
X32500999Y22341886D01*
G37*
G36*
X28429034Y22884236D02*
G01*
X28462125Y22862125D01*
X28484236Y22829034D01*
X28492000Y22790000D01*
X28492000Y21990000D01*
X28484236Y21950966D01*
X28462125Y21917875D01*
X28429034Y21895764D01*
X28390000Y21888000D01*
X27490000Y21888000D01*
X27450966Y21895764D01*
X27417875Y21917875D01*
X27395764Y21950966D01*
X27388000Y21990000D01*
X27388000Y22790000D01*
X27395764Y22829034D01*
X27417875Y22862125D01*
X27450966Y22884236D01*
X27490000Y22892000D01*
X28390000Y22892000D01*
X28429034Y22884236D01*
G37*
G36*
X65309799Y22842083D02*
G01*
X65343539Y22819539D01*
X65366083Y22785799D01*
X65374000Y22746000D01*
X65374000Y22166000D01*
X65366083Y22126201D01*
X65343539Y22092461D01*
X65309799Y22069917D01*
X65270000Y22062000D01*
X64270000Y22062000D01*
X64230201Y22069917D01*
X64196461Y22092461D01*
X64173917Y22126201D01*
X64166000Y22166000D01*
X64166000Y22746000D01*
X64173917Y22785799D01*
X64196461Y22819539D01*
X64230201Y22842083D01*
X64270000Y22850000D01*
X65270000Y22850000D01*
X65309799Y22842083D01*
G37*
G36*
X62763034Y23333236D02*
G01*
X62796125Y23311125D01*
X62818236Y23278034D01*
X62826000Y23239000D01*
X62826000Y22439000D01*
X62818236Y22399966D01*
X62796125Y22366875D01*
X62763034Y22344764D01*
X62724000Y22337000D01*
X61824000Y22337000D01*
X61784966Y22344764D01*
X61751875Y22366875D01*
X61729764Y22399966D01*
X61722000Y22439000D01*
X61722000Y23239000D01*
X61729764Y23278034D01*
X61751875Y23311125D01*
X61784966Y23333236D01*
X61824000Y23341000D01*
X62724000Y23341000D01*
X62763034Y23333236D01*
G37*
G36*
X69289799Y23694083D02*
G01*
X69323539Y23671539D01*
X69346083Y23637799D01*
X69354000Y23598000D01*
X69354000Y22498000D01*
X69346083Y22458201D01*
X69323539Y22424461D01*
X69289799Y22401917D01*
X69250000Y22394000D01*
X66550000Y22394000D01*
X66510201Y22401917D01*
X66476461Y22424461D01*
X66453917Y22458201D01*
X66446000Y22498000D01*
X66446000Y23598000D01*
X66453917Y23637799D01*
X66476461Y23671539D01*
X66510201Y23694083D01*
X66550000Y23702000D01*
X69250000Y23702000D01*
X69289799Y23694083D01*
G37*
G36*
X52066881Y23192866D02*
G01*
X52099842Y23170842D01*
X52121866Y23137881D01*
X52129600Y23099000D01*
X52129600Y22499000D01*
X52121866Y22460119D01*
X52099842Y22427158D01*
X52066881Y22405134D01*
X52028000Y22397400D01*
X50828000Y22397400D01*
X50789119Y22405134D01*
X50756158Y22427158D01*
X50734134Y22460119D01*
X50726400Y22499000D01*
X50726400Y23099000D01*
X50734134Y23137881D01*
X50756158Y23170842D01*
X50789119Y23192866D01*
X50828000Y23200600D01*
X52028000Y23200600D01*
X52066881Y23192866D01*
G37*
G36*
X54366881Y23192866D02*
G01*
X54399842Y23170842D01*
X54421866Y23137881D01*
X54429600Y23099000D01*
X54429600Y22499000D01*
X54421866Y22460119D01*
X54399842Y22427158D01*
X54366881Y22405134D01*
X54328000Y22397400D01*
X53128000Y22397400D01*
X53089119Y22405134D01*
X53056158Y22427158D01*
X53034134Y22460119D01*
X53026400Y22499000D01*
X53026400Y23099000D01*
X53034134Y23137881D01*
X53056158Y23170842D01*
X53089119Y23192866D01*
X53128000Y23200600D01*
X54328000Y23200600D01*
X54366881Y23192866D01*
G37*
G36*
X38444599Y22991882D02*
G01*
X38478339Y22969338D01*
X38500883Y22935598D01*
X38508800Y22895799D01*
X38508800Y22540199D01*
X38500883Y22500400D01*
X38478339Y22466660D01*
X38444599Y22444116D01*
X38404800Y22436199D01*
X36626800Y22436199D01*
X36587001Y22444116D01*
X36553261Y22466660D01*
X36530717Y22500400D01*
X36522800Y22540199D01*
X36522800Y22895799D01*
X36530717Y22935598D01*
X36553261Y22969338D01*
X36587001Y22991882D01*
X36626800Y22999799D01*
X38404800Y22999799D01*
X38444599Y22991882D01*
G37*
G36*
X32500999Y22991885D02*
G01*
X32534739Y22969341D01*
X32557283Y22935601D01*
X32565200Y22895802D01*
X32565200Y22540202D01*
X32557283Y22500403D01*
X32534739Y22466663D01*
X32500999Y22444119D01*
X32461200Y22436202D01*
X30683200Y22436202D01*
X30643401Y22444119D01*
X30609661Y22466663D01*
X30587117Y22500403D01*
X30579200Y22540202D01*
X30579200Y22895802D01*
X30587117Y22935601D01*
X30609661Y22969341D01*
X30643401Y22991885D01*
X30683200Y22999802D01*
X32461200Y22999802D01*
X32500999Y22991885D01*
G37*
G36*
X38444599Y23641883D02*
G01*
X38478339Y23619339D01*
X38500883Y23585599D01*
X38508800Y23545800D01*
X38508800Y23190200D01*
X38500883Y23150401D01*
X38478339Y23116661D01*
X38444599Y23094117D01*
X38404800Y23086200D01*
X36626800Y23086200D01*
X36587001Y23094117D01*
X36553261Y23116661D01*
X36530717Y23150401D01*
X36522800Y23190200D01*
X36522800Y23545800D01*
X36530717Y23585599D01*
X36553261Y23619339D01*
X36587001Y23641883D01*
X36626800Y23649800D01*
X38404800Y23649800D01*
X38444599Y23641883D01*
G37*
G36*
X32500999Y23641886D02*
G01*
X32534739Y23619342D01*
X32557283Y23585602D01*
X32565200Y23545803D01*
X32565200Y23190203D01*
X32557283Y23150404D01*
X32534739Y23116664D01*
X32500999Y23094120D01*
X32461200Y23086203D01*
X30683200Y23086203D01*
X30643401Y23094120D01*
X30609661Y23116664D01*
X30587117Y23150404D01*
X30579200Y23190203D01*
X30579200Y23545803D01*
X30587117Y23585602D01*
X30609661Y23619342D01*
X30643401Y23641886D01*
X30683200Y23649803D01*
X32461200Y23649803D01*
X32500999Y23641886D01*
G37*
G36*
X52066881Y24142866D02*
G01*
X52099842Y24120842D01*
X52121866Y24087881D01*
X52129600Y24049000D01*
X52129600Y23449000D01*
X52121866Y23410119D01*
X52099842Y23377158D01*
X52066881Y23355134D01*
X52028000Y23347400D01*
X50828000Y23347400D01*
X50789119Y23355134D01*
X50756158Y23377158D01*
X50734134Y23410119D01*
X50726400Y23449000D01*
X50726400Y24049000D01*
X50734134Y24087881D01*
X50756158Y24120842D01*
X50789119Y24142866D01*
X50828000Y24150600D01*
X52028000Y24150600D01*
X52066881Y24142866D01*
G37*
G36*
X54366881Y24142866D02*
G01*
X54399842Y24120842D01*
X54421866Y24087881D01*
X54429600Y24049000D01*
X54429600Y23449000D01*
X54421866Y23410119D01*
X54399842Y23377158D01*
X54366881Y23355134D01*
X54328000Y23347400D01*
X53128000Y23347400D01*
X53089119Y23355134D01*
X53056158Y23377158D01*
X53034134Y23410119D01*
X53026400Y23449000D01*
X53026400Y24049000D01*
X53034134Y24087881D01*
X53056158Y24120842D01*
X53089119Y24142866D01*
X53128000Y24150600D01*
X54328000Y24150600D01*
X54366881Y24142866D01*
G37*
G36*
X13659799Y24726080D02*
G01*
X13693539Y24703536D01*
X13716083Y24669796D01*
X13724000Y24629997D01*
X13724000Y23629997D01*
X13716083Y23590198D01*
X13693539Y23556458D01*
X13659799Y23533914D01*
X13620000Y23525997D01*
X10920000Y23525997D01*
X10880201Y23533914D01*
X10846461Y23556458D01*
X10823917Y23590198D01*
X10816000Y23629997D01*
X10816000Y24629997D01*
X10823917Y24669796D01*
X10846461Y24703536D01*
X10880201Y24726080D01*
X10920000Y24733997D01*
X13620000Y24733997D01*
X13659799Y24726080D01*
G37*
G36*
X38444599Y24291882D02*
G01*
X38478339Y24269338D01*
X38500883Y24235598D01*
X38508800Y24195799D01*
X38508800Y23840199D01*
X38500883Y23800400D01*
X38478339Y23766660D01*
X38444599Y23744116D01*
X38404800Y23736199D01*
X36626800Y23736199D01*
X36587001Y23744116D01*
X36553261Y23766660D01*
X36530717Y23800400D01*
X36522800Y23840199D01*
X36522800Y24195799D01*
X36530717Y24235598D01*
X36553261Y24269338D01*
X36587001Y24291882D01*
X36626800Y24299799D01*
X38404800Y24299799D01*
X38444599Y24291882D01*
G37*
G36*
X32500999Y24291885D02*
G01*
X32534739Y24269341D01*
X32557283Y24235601D01*
X32565200Y24195802D01*
X32565200Y23840202D01*
X32557283Y23800403D01*
X32534739Y23766663D01*
X32500999Y23744119D01*
X32461200Y23736202D01*
X30683200Y23736202D01*
X30643401Y23744119D01*
X30609661Y23766663D01*
X30587117Y23800403D01*
X30579200Y23840202D01*
X30579200Y24195802D01*
X30587117Y24235601D01*
X30609661Y24269341D01*
X30643401Y24291885D01*
X30683200Y24299802D01*
X32461200Y24299802D01*
X32500999Y24291885D01*
G37*
G36*
X17289034Y25204234D02*
G01*
X17322125Y25182123D01*
X17344236Y25149032D01*
X17352000Y25109998D01*
X17352000Y23909998D01*
X17344236Y23870964D01*
X17322125Y23837873D01*
X17289034Y23815762D01*
X17250000Y23807998D01*
X14750000Y23807998D01*
X14710966Y23815762D01*
X14677875Y23837873D01*
X14655764Y23870964D01*
X14648000Y23909998D01*
X14648000Y25109998D01*
X14655764Y25149032D01*
X14677875Y25182123D01*
X14710966Y25204234D01*
X14750000Y25211998D01*
X17250000Y25211998D01*
X17289034Y25204234D01*
G37*
G36*
X57176560Y25943883D02*
G01*
X57351605Y25871377D01*
X57509141Y25766115D01*
X57643115Y25632141D01*
X57748377Y25474605D01*
X57820883Y25299560D01*
X57857846Y25113734D01*
X57857846Y24924266D01*
X57820883Y24738440D01*
X57748377Y24563395D01*
X57643115Y24405859D01*
X57509141Y24271885D01*
X57351605Y24166623D01*
X57176560Y24094117D01*
X56990734Y24057154D01*
X56801266Y24057154D01*
X56615440Y24094117D01*
X56440395Y24166623D01*
X56282859Y24271885D01*
X56148885Y24405859D01*
X56043623Y24563395D01*
X55971117Y24738440D01*
X55934154Y24924266D01*
X55934154Y25113734D01*
X55971117Y25299560D01*
X56043623Y25474605D01*
X56148885Y25632141D01*
X56282859Y25766115D01*
X56440395Y25871377D01*
X56615440Y25943883D01*
X56801266Y25980846D01*
X56990734Y25980846D01*
X57176560Y25943883D01*
G37*
G36*
X26524034Y25132236D02*
G01*
X26557125Y25110125D01*
X26579236Y25077034D01*
X26587000Y25038000D01*
X26587000Y24238000D01*
X26579236Y24198966D01*
X26557125Y24165875D01*
X26524034Y24143764D01*
X26485000Y24136000D01*
X25585000Y24136000D01*
X25545966Y24143764D01*
X25512875Y24165875D01*
X25490764Y24198966D01*
X25483000Y24238000D01*
X25483000Y25038000D01*
X25490764Y25077034D01*
X25512875Y25110125D01*
X25545966Y25132236D01*
X25585000Y25140000D01*
X26485000Y25140000D01*
X26524034Y25132236D01*
G37*
G36*
X28429034Y25132236D02*
G01*
X28462125Y25110125D01*
X28484236Y25077034D01*
X28492000Y25038000D01*
X28492000Y24238000D01*
X28484236Y24198966D01*
X28462125Y24165875D01*
X28429034Y24143764D01*
X28390000Y24136000D01*
X27490000Y24136000D01*
X27450966Y24143764D01*
X27417875Y24165875D01*
X27395764Y24198966D01*
X27388000Y24238000D01*
X27388000Y25038000D01*
X27395764Y25077034D01*
X27417875Y25110125D01*
X27450966Y25132236D01*
X27490000Y25140000D01*
X28390000Y25140000D01*
X28429034Y25132236D01*
G37*
G36*
X69289543Y26365198D02*
G01*
X69401520Y26300548D01*
X69492948Y26209120D01*
X69557598Y26097143D01*
X69591063Y25972250D01*
X69595300Y25907600D01*
X69595300Y24688400D01*
X69591063Y24623750D01*
X69557598Y24498857D01*
X69492948Y24386880D01*
X69401520Y24295452D01*
X69289543Y24230802D01*
X69164650Y24197337D01*
X69035350Y24197337D01*
X68910457Y24230802D01*
X68798480Y24295452D01*
X68707052Y24386880D01*
X68642402Y24498857D01*
X68608937Y24623750D01*
X68604700Y24688400D01*
X68604700Y25907600D01*
X68608937Y25972250D01*
X68642402Y26097143D01*
X68707052Y26209120D01*
X68798480Y26300548D01*
X68910457Y26365198D01*
X69035350Y26398663D01*
X69164650Y26398663D01*
X69289543Y26365198D01*
G37*
G36*
X52066881Y25092866D02*
G01*
X52099842Y25070842D01*
X52121866Y25037881D01*
X52129600Y24999000D01*
X52129600Y24399000D01*
X52121866Y24360119D01*
X52099842Y24327158D01*
X52066881Y24305134D01*
X52028000Y24297400D01*
X50828000Y24297400D01*
X50789119Y24305134D01*
X50756158Y24327158D01*
X50734134Y24360119D01*
X50726400Y24399000D01*
X50726400Y24999000D01*
X50734134Y25037881D01*
X50756158Y25070842D01*
X50789119Y25092866D01*
X50828000Y25100600D01*
X52028000Y25100600D01*
X52066881Y25092866D01*
G37*
G36*
X54366881Y25092866D02*
G01*
X54399842Y25070842D01*
X54421866Y25037881D01*
X54429600Y24999000D01*
X54429600Y24399000D01*
X54421866Y24360119D01*
X54399842Y24327158D01*
X54366881Y24305134D01*
X54328000Y24297400D01*
X53128000Y24297400D01*
X53089119Y24305134D01*
X53056158Y24327158D01*
X53034134Y24360119D01*
X53026400Y24399000D01*
X53026400Y24999000D01*
X53034134Y25037881D01*
X53056158Y25070842D01*
X53089119Y25092866D01*
X53128000Y25100600D01*
X54328000Y25100600D01*
X54366881Y25092866D01*
G37*
G36*
X38444599Y24941883D02*
G01*
X38478339Y24919339D01*
X38500883Y24885599D01*
X38508800Y24845800D01*
X38508800Y24490200D01*
X38500883Y24450401D01*
X38478339Y24416661D01*
X38444599Y24394117D01*
X38404800Y24386200D01*
X36626800Y24386200D01*
X36587001Y24394117D01*
X36553261Y24416661D01*
X36530717Y24450401D01*
X36522800Y24490200D01*
X36522800Y24845800D01*
X36530717Y24885599D01*
X36553261Y24919339D01*
X36587001Y24941883D01*
X36626800Y24949800D01*
X38404800Y24949800D01*
X38444599Y24941883D01*
G37*
G36*
X32500999Y24941886D02*
G01*
X32534739Y24919342D01*
X32557283Y24885602D01*
X32565200Y24845803D01*
X32565200Y24490203D01*
X32557283Y24450404D01*
X32534739Y24416664D01*
X32500999Y24394120D01*
X32461200Y24386203D01*
X30683200Y24386203D01*
X30643401Y24394120D01*
X30609661Y24416664D01*
X30587117Y24450404D01*
X30579200Y24490203D01*
X30579200Y24845803D01*
X30587117Y24885602D01*
X30609661Y24919342D01*
X30643401Y24941886D01*
X30683200Y24949803D01*
X32461200Y24949803D01*
X32500999Y24941886D01*
G37*
G36*
X74489799Y26494083D02*
G01*
X74523539Y26471539D01*
X74546083Y26437799D01*
X74554000Y26398000D01*
X74554000Y24498000D01*
X74546083Y24458201D01*
X74523539Y24424461D01*
X74489799Y24401917D01*
X74450000Y24394000D01*
X70550000Y24394000D01*
X70510201Y24401917D01*
X70476461Y24424461D01*
X70453917Y24458201D01*
X70446000Y24498000D01*
X70446000Y26398000D01*
X70453917Y26437799D01*
X70476461Y26471539D01*
X70510201Y26494083D01*
X70550000Y26502000D01*
X74450000Y26502000D01*
X74489799Y26494083D01*
G37*
G36*
X38444599Y25591882D02*
G01*
X38478339Y25569338D01*
X38500883Y25535598D01*
X38508800Y25495799D01*
X38508800Y25140199D01*
X38500883Y25100400D01*
X38478339Y25066660D01*
X38444599Y25044116D01*
X38404800Y25036199D01*
X36626800Y25036199D01*
X36587001Y25044116D01*
X36553261Y25066660D01*
X36530717Y25100400D01*
X36522800Y25140199D01*
X36522800Y25495799D01*
X36530717Y25535598D01*
X36553261Y25569338D01*
X36587001Y25591882D01*
X36626800Y25599799D01*
X38404800Y25599799D01*
X38444599Y25591882D01*
G37*
G36*
X32500999Y25591885D02*
G01*
X32534739Y25569341D01*
X32557283Y25535601D01*
X32565200Y25495802D01*
X32565200Y25140202D01*
X32557283Y25100403D01*
X32534739Y25066663D01*
X32500999Y25044119D01*
X32461200Y25036202D01*
X30683200Y25036202D01*
X30643401Y25044119D01*
X30609661Y25066663D01*
X30587117Y25100403D01*
X30579200Y25140202D01*
X30579200Y25495802D01*
X30587117Y25535601D01*
X30609661Y25569341D01*
X30643401Y25591885D01*
X30683200Y25599802D01*
X32461200Y25599802D01*
X32500999Y25591885D01*
G37*
G36*
X13659799Y26726081D02*
G01*
X13693539Y26703537D01*
X13716083Y26669797D01*
X13724000Y26629998D01*
X13724000Y25629998D01*
X13716083Y25590199D01*
X13693539Y25556459D01*
X13659799Y25533915D01*
X13620000Y25525998D01*
X10920000Y25525998D01*
X10880201Y25533915D01*
X10846461Y25556459D01*
X10823917Y25590199D01*
X10816000Y25629998D01*
X10816000Y26629998D01*
X10823917Y26669797D01*
X10846461Y26703537D01*
X10880201Y26726081D01*
X10920000Y26733998D01*
X13620000Y26733998D01*
X13659799Y26726081D01*
G37*
G36*
X32500999Y26241883D02*
G01*
X32534739Y26219339D01*
X32557283Y26185599D01*
X32565200Y26145800D01*
X32565200Y25790200D01*
X32557283Y25750401D01*
X32534739Y25716661D01*
X32500999Y25694117D01*
X32461200Y25686200D01*
X30683200Y25686200D01*
X30643401Y25694117D01*
X30609661Y25716661D01*
X30587117Y25750401D01*
X30579200Y25790200D01*
X30579200Y26145800D01*
X30587117Y26185599D01*
X30609661Y26219339D01*
X30643401Y26241883D01*
X30683200Y26249800D01*
X32461200Y26249800D01*
X32500999Y26241883D01*
G37*
G36*
X38444599Y26241883D02*
G01*
X38478339Y26219339D01*
X38500883Y26185599D01*
X38508800Y26145800D01*
X38508800Y25790200D01*
X38500883Y25750401D01*
X38478339Y25716661D01*
X38444599Y25694117D01*
X38404800Y25686200D01*
X36626800Y25686200D01*
X36587001Y25694117D01*
X36553261Y25716661D01*
X36530717Y25750401D01*
X36522800Y25790200D01*
X36522800Y26145800D01*
X36530717Y26185599D01*
X36553261Y26219339D01*
X36587001Y26241883D01*
X36626800Y26249800D01*
X38404800Y26249800D01*
X38444599Y26241883D01*
G37*
G36*
X26524034Y26732236D02*
G01*
X26557125Y26710125D01*
X26579236Y26677034D01*
X26587000Y26638000D01*
X26587000Y25838000D01*
X26579236Y25798966D01*
X26557125Y25765875D01*
X26524034Y25743764D01*
X26485000Y25736000D01*
X25585000Y25736000D01*
X25545966Y25743764D01*
X25512875Y25765875D01*
X25490764Y25798966D01*
X25483000Y25838000D01*
X25483000Y26638000D01*
X25490764Y26677034D01*
X25512875Y26710125D01*
X25545966Y26732236D01*
X25585000Y26740000D01*
X26485000Y26740000D01*
X26524034Y26732236D01*
G37*
G36*
X28429034Y26732236D02*
G01*
X28462125Y26710125D01*
X28484236Y26677034D01*
X28492000Y26638000D01*
X28492000Y25838000D01*
X28484236Y25798966D01*
X28462125Y25765875D01*
X28429034Y25743764D01*
X28390000Y25736000D01*
X27490000Y25736000D01*
X27450966Y25743764D01*
X27417875Y25765875D01*
X27395764Y25798966D01*
X27388000Y25838000D01*
X27388000Y26638000D01*
X27395764Y26677034D01*
X27417875Y26710125D01*
X27450966Y26732236D01*
X27490000Y26740000D01*
X28390000Y26740000D01*
X28429034Y26732236D01*
G37*
G36*
X38444599Y26891882D02*
G01*
X38478339Y26869338D01*
X38500883Y26835598D01*
X38508800Y26795799D01*
X38508800Y26440199D01*
X38500883Y26400400D01*
X38478339Y26366660D01*
X38444599Y26344116D01*
X38404800Y26336199D01*
X36626800Y26336199D01*
X36587001Y26344116D01*
X36553261Y26366660D01*
X36530717Y26400400D01*
X36522800Y26440199D01*
X36522800Y26795799D01*
X36530717Y26835598D01*
X36553261Y26869338D01*
X36587001Y26891882D01*
X36626800Y26899799D01*
X38404800Y26899799D01*
X38444599Y26891882D01*
G37*
G36*
X32500999Y26891885D02*
G01*
X32534739Y26869341D01*
X32557283Y26835601D01*
X32565200Y26795802D01*
X32565200Y26440202D01*
X32557283Y26400403D01*
X32534739Y26366663D01*
X32500999Y26344119D01*
X32461200Y26336202D01*
X30683200Y26336202D01*
X30643401Y26344119D01*
X30609661Y26366663D01*
X30587117Y26400403D01*
X30579200Y26440202D01*
X30579200Y26795802D01*
X30587117Y26835601D01*
X30609661Y26869341D01*
X30643401Y26891885D01*
X30683200Y26899802D01*
X32461200Y26899802D01*
X32500999Y26891885D01*
G37*
G36*
X57187010Y28518333D02*
G01*
X57368575Y28443126D01*
X57531979Y28333943D01*
X57670943Y28194979D01*
X57780126Y28031575D01*
X57855333Y27850010D01*
X57893673Y27657262D01*
X57893673Y27460738D01*
X57855333Y27267990D01*
X57780126Y27086425D01*
X57670943Y26923021D01*
X57531979Y26784057D01*
X57368575Y26674874D01*
X57187010Y26599667D01*
X56994262Y26561327D01*
X56797738Y26561327D01*
X56604990Y26599667D01*
X56423425Y26674874D01*
X56260021Y26784057D01*
X56121057Y26923021D01*
X56011874Y27086425D01*
X55936667Y27267990D01*
X55898327Y27460738D01*
X55898327Y27657262D01*
X55936667Y27850010D01*
X56011874Y28031575D01*
X56121057Y28194979D01*
X56260021Y28333943D01*
X56423425Y28443126D01*
X56604990Y28518333D01*
X56797738Y28556673D01*
X56994262Y28556673D01*
X57187010Y28518333D01*
G37*
G36*
X32500999Y27541883D02*
G01*
X32534739Y27519339D01*
X32557283Y27485599D01*
X32565200Y27445800D01*
X32565200Y27090200D01*
X32557283Y27050401D01*
X32534739Y27016661D01*
X32500999Y26994117D01*
X32461200Y26986200D01*
X30683200Y26986200D01*
X30643401Y26994117D01*
X30609661Y27016661D01*
X30587117Y27050401D01*
X30579200Y27090200D01*
X30579200Y27445800D01*
X30587117Y27485599D01*
X30609661Y27519339D01*
X30643401Y27541883D01*
X30683200Y27549800D01*
X32461200Y27549800D01*
X32500999Y27541883D01*
G37*
G36*
X38444599Y27541883D02*
G01*
X38478339Y27519339D01*
X38500883Y27485599D01*
X38508800Y27445800D01*
X38508800Y27090200D01*
X38500883Y27050401D01*
X38478339Y27016661D01*
X38444599Y26994117D01*
X38404800Y26986200D01*
X36626800Y26986200D01*
X36587001Y26994117D01*
X36553261Y27016661D01*
X36530717Y27050401D01*
X36522800Y27090200D01*
X36522800Y27445800D01*
X36530717Y27485599D01*
X36553261Y27519339D01*
X36587001Y27541883D01*
X36626800Y27549800D01*
X38404800Y27549800D01*
X38444599Y27541883D01*
G37*
G36*
X17289034Y28604234D02*
G01*
X17322125Y28582123D01*
X17344236Y28549032D01*
X17352000Y28509998D01*
X17352000Y27309998D01*
X17344236Y27270964D01*
X17322125Y27237873D01*
X17289034Y27215762D01*
X17250000Y27207998D01*
X14750000Y27207998D01*
X14710966Y27215762D01*
X14677875Y27237873D01*
X14655764Y27270964D01*
X14648000Y27309998D01*
X14648000Y28509998D01*
X14655764Y28549032D01*
X14677875Y28582123D01*
X14710966Y28604234D01*
X14750000Y28611998D01*
X17250000Y28611998D01*
X17289034Y28604234D01*
G37*
G36*
X13659799Y28726080D02*
G01*
X13693539Y28703536D01*
X13716083Y28669796D01*
X13724000Y28629997D01*
X13724000Y27629997D01*
X13716083Y27590198D01*
X13693539Y27556458D01*
X13659799Y27533914D01*
X13620000Y27525997D01*
X10920000Y27525997D01*
X10880201Y27533914D01*
X10846461Y27556458D01*
X10823917Y27590198D01*
X10816000Y27629997D01*
X10816000Y28629997D01*
X10823917Y28669796D01*
X10846461Y28703536D01*
X10880201Y28726080D01*
X10920000Y28733997D01*
X13620000Y28733997D01*
X13659799Y28726080D01*
G37*
G36*
X38444599Y28191882D02*
G01*
X38478339Y28169338D01*
X38500883Y28135598D01*
X38508800Y28095799D01*
X38508800Y27740199D01*
X38500883Y27700400D01*
X38478339Y27666660D01*
X38444599Y27644116D01*
X38404800Y27636199D01*
X36626800Y27636199D01*
X36587001Y27644116D01*
X36553261Y27666660D01*
X36530717Y27700400D01*
X36522800Y27740199D01*
X36522800Y28095799D01*
X36530717Y28135598D01*
X36553261Y28169338D01*
X36587001Y28191882D01*
X36626800Y28199799D01*
X38404800Y28199799D01*
X38444599Y28191882D01*
G37*
G36*
X32500999Y28191884D02*
G01*
X32534739Y28169340D01*
X32557283Y28135600D01*
X32565200Y28095801D01*
X32565200Y27740201D01*
X32557283Y27700402D01*
X32534739Y27666662D01*
X32500999Y27644118D01*
X32461200Y27636201D01*
X30683200Y27636201D01*
X30643401Y27644118D01*
X30609661Y27666662D01*
X30587117Y27700402D01*
X30579200Y27740201D01*
X30579200Y28095801D01*
X30587117Y28135600D01*
X30609661Y28169340D01*
X30643401Y28191884D01*
X30683200Y28199801D01*
X32461200Y28199801D01*
X32500999Y28191884D01*
G37*
G36*
X62846034Y29539236D02*
G01*
X62879125Y29517125D01*
X62901236Y29484034D01*
X62909000Y29445000D01*
X62909000Y28645000D01*
X62901236Y28605966D01*
X62879125Y28572875D01*
X62846034Y28550764D01*
X62807000Y28543000D01*
X61907000Y28543000D01*
X61867966Y28550764D01*
X61834875Y28572875D01*
X61812764Y28605966D01*
X61805000Y28645000D01*
X61805000Y29445000D01*
X61812764Y29484034D01*
X61834875Y29517125D01*
X61867966Y29539236D01*
X61907000Y29547000D01*
X62807000Y29547000D01*
X62846034Y29539236D01*
G37*
G36*
X9871551Y31528583D02*
G01*
X9905291Y31506039D01*
X9927835Y31472299D01*
X9935752Y31432500D01*
X9935752Y29527500D01*
X9927835Y29487701D01*
X9905291Y29453961D01*
X9871551Y29431417D01*
X9831752Y29423500D01*
X5920152Y29423500D01*
X5880353Y29431417D01*
X5846613Y29453961D01*
X5824069Y29487701D01*
X5816152Y29527500D01*
X5816152Y31432500D01*
X5824069Y31472299D01*
X5846613Y31506039D01*
X5880353Y31528583D01*
X5920152Y31536500D01*
X9831752Y31536500D01*
X9871551Y31528583D01*
G37*
G36*
X74489799Y31886083D02*
G01*
X74523539Y31863539D01*
X74546083Y31829799D01*
X74554000Y31790000D01*
X74554000Y29890000D01*
X74546083Y29850201D01*
X74523539Y29816461D01*
X74489799Y29793917D01*
X74450000Y29786000D01*
X70550000Y29786000D01*
X70510201Y29793917D01*
X70476461Y29816461D01*
X70453917Y29850201D01*
X70446000Y29890000D01*
X70446000Y31790000D01*
X70453917Y31829799D01*
X70476461Y31863539D01*
X70510201Y31886083D01*
X70550000Y31894000D01*
X74450000Y31894000D01*
X74489799Y31886083D01*
G37*
G36*
X11259647Y30787596D02*
G01*
X11371624Y30722946D01*
X11463052Y30631518D01*
X11527702Y30519541D01*
X11561167Y30394648D01*
X11561167Y30265348D01*
X11527702Y30140455D01*
X11463052Y30028478D01*
X11371624Y29937050D01*
X11259647Y29872400D01*
X11134754Y29838935D01*
X11005454Y29838935D01*
X10880561Y29872400D01*
X10768584Y29937050D01*
X10677156Y30028478D01*
X10612506Y30140455D01*
X10579041Y30265348D01*
X10579041Y30394648D01*
X10612506Y30519541D01*
X10677156Y30631518D01*
X10768584Y30722946D01*
X10880561Y30787596D01*
X11005454Y30821061D01*
X11134754Y30821061D01*
X11259647Y30787596D01*
G37*
G36*
X62846034Y31139236D02*
G01*
X62879125Y31117125D01*
X62901236Y31084034D01*
X62909000Y31045000D01*
X62909000Y30245000D01*
X62901236Y30205966D01*
X62879125Y30172875D01*
X62846034Y30150764D01*
X62807000Y30143000D01*
X61907000Y30143000D01*
X61867966Y30150764D01*
X61834875Y30172875D01*
X61812764Y30205966D01*
X61805000Y30245000D01*
X61805000Y31045000D01*
X61812764Y31084034D01*
X61834875Y31117125D01*
X61867966Y31139236D01*
X61907000Y31147000D01*
X62807000Y31147000D01*
X62846034Y31139236D01*
G37*
G36*
X69289543Y31147598D02*
G01*
X69401520Y31082948D01*
X69492948Y30991520D01*
X69557598Y30879543D01*
X69591063Y30754650D01*
X69591063Y30625350D01*
X69557598Y30500457D01*
X69492948Y30388480D01*
X69401520Y30297052D01*
X69289543Y30232402D01*
X69164650Y30198937D01*
X69035350Y30198937D01*
X68910457Y30232402D01*
X68798480Y30297052D01*
X68707052Y30388480D01*
X68642402Y30500457D01*
X68608937Y30625350D01*
X68608937Y30754650D01*
X68642402Y30879543D01*
X68707052Y30991520D01*
X68798480Y31082948D01*
X68910457Y31147598D01*
X69035350Y31181063D01*
X69164650Y31181063D01*
X69289543Y31147598D01*
G37*
G36*
X53170540Y33436164D02*
G01*
X53174651Y33434349D01*
X53178735Y33433811D01*
X53229809Y33409995D01*
X53269715Y33392374D01*
X53271567Y33390522D01*
X53271978Y33390330D01*
X53344329Y33317979D01*
X53344520Y33317569D01*
X53346374Y33315715D01*
X53364011Y33275770D01*
X53387809Y33224736D01*
X53388345Y33220658D01*
X53390164Y33216540D01*
X53398000Y33149000D01*
X53398000Y30859000D01*
X53390164Y30791460D01*
X53388347Y30787346D01*
X53387810Y30783265D01*
X53364011Y30732231D01*
X53346374Y30692285D01*
X53344519Y30690431D01*
X53344329Y30690022D01*
X53271978Y30617671D01*
X53271569Y30617481D01*
X53269715Y30615626D01*
X53229750Y30597981D01*
X53178735Y30574191D01*
X53174657Y30573655D01*
X53170540Y30571836D01*
X53103000Y30564000D01*
X52053000Y30564000D01*
X51985460Y30571836D01*
X51981345Y30573653D01*
X51977264Y30574190D01*
X51926212Y30597997D01*
X51886285Y30615626D01*
X51884431Y30617480D01*
X51884021Y30617671D01*
X51811670Y30690022D01*
X51811478Y30690433D01*
X51809626Y30692285D01*
X51791997Y30732209D01*
X51768190Y30783265D01*
X51767652Y30787346D01*
X51765836Y30791460D01*
X51758000Y30859000D01*
X51758000Y33149000D01*
X51765836Y33216540D01*
X51767651Y33220652D01*
X51768189Y33224736D01*
X51792014Y33275829D01*
X51809626Y33315715D01*
X51811477Y33317567D01*
X51811670Y33317979D01*
X51884021Y33390330D01*
X51884433Y33390523D01*
X51886285Y33392374D01*
X51926190Y33409994D01*
X51977264Y33433810D01*
X51981345Y33434348D01*
X51985460Y33436164D01*
X52053000Y33444000D01*
X53103000Y33444000D01*
X53170540Y33436164D01*
G37*
G36*
X55710540Y33436164D02*
G01*
X55714651Y33434349D01*
X55718735Y33433811D01*
X55769809Y33409995D01*
X55809715Y33392374D01*
X55811567Y33390522D01*
X55811978Y33390330D01*
X55884329Y33317979D01*
X55884520Y33317569D01*
X55886374Y33315715D01*
X55904011Y33275770D01*
X55927809Y33224736D01*
X55928345Y33220658D01*
X55930164Y33216540D01*
X55938000Y33149000D01*
X55938000Y30859000D01*
X55930164Y30791460D01*
X55928347Y30787346D01*
X55927810Y30783265D01*
X55904011Y30732231D01*
X55886374Y30692285D01*
X55884519Y30690431D01*
X55884329Y30690022D01*
X55811978Y30617671D01*
X55811569Y30617481D01*
X55809715Y30615626D01*
X55769750Y30597981D01*
X55718735Y30574191D01*
X55714657Y30573655D01*
X55710540Y30571836D01*
X55643000Y30564000D01*
X54593000Y30564000D01*
X54525460Y30571836D01*
X54521345Y30573653D01*
X54517264Y30574190D01*
X54466212Y30597997D01*
X54426285Y30615626D01*
X54424431Y30617480D01*
X54424021Y30617671D01*
X54351670Y30690022D01*
X54351478Y30690433D01*
X54349626Y30692285D01*
X54331997Y30732209D01*
X54308190Y30783265D01*
X54307652Y30787346D01*
X54305836Y30791460D01*
X54298000Y30859000D01*
X54298000Y33149000D01*
X54305836Y33216540D01*
X54307651Y33220652D01*
X54308189Y33224736D01*
X54332014Y33275829D01*
X54349626Y33315715D01*
X54351477Y33317567D01*
X54351670Y33317979D01*
X54424021Y33390330D01*
X54424433Y33390523D01*
X54426285Y33392374D01*
X54466190Y33409994D01*
X54517264Y33433810D01*
X54521345Y33434348D01*
X54525460Y33436164D01*
X54593000Y33444000D01*
X55643000Y33444000D01*
X55710540Y33436164D01*
G37*
G36*
X58250540Y33436164D02*
G01*
X58254651Y33434349D01*
X58258735Y33433811D01*
X58309809Y33409995D01*
X58349715Y33392374D01*
X58351567Y33390522D01*
X58351978Y33390330D01*
X58424329Y33317979D01*
X58424520Y33317569D01*
X58426374Y33315715D01*
X58444011Y33275770D01*
X58467809Y33224736D01*
X58468345Y33220658D01*
X58470164Y33216540D01*
X58478000Y33149000D01*
X58478000Y30859000D01*
X58470164Y30791460D01*
X58468347Y30787346D01*
X58467810Y30783265D01*
X58444011Y30732231D01*
X58426374Y30692285D01*
X58424519Y30690431D01*
X58424329Y30690022D01*
X58351978Y30617671D01*
X58351569Y30617481D01*
X58349715Y30615626D01*
X58309750Y30597981D01*
X58258735Y30574191D01*
X58254657Y30573655D01*
X58250540Y30571836D01*
X58183000Y30564000D01*
X57133000Y30564000D01*
X57065460Y30571836D01*
X57061345Y30573653D01*
X57057264Y30574190D01*
X57006212Y30597997D01*
X56966285Y30615626D01*
X56964431Y30617480D01*
X56964021Y30617671D01*
X56891670Y30690022D01*
X56891478Y30690433D01*
X56889626Y30692285D01*
X56871997Y30732209D01*
X56848190Y30783265D01*
X56847652Y30787346D01*
X56845836Y30791460D01*
X56838000Y30859000D01*
X56838000Y33149000D01*
X56845836Y33216540D01*
X56847651Y33220652D01*
X56848189Y33224736D01*
X56872014Y33275829D01*
X56889626Y33315715D01*
X56891477Y33317567D01*
X56891670Y33317979D01*
X56964021Y33390330D01*
X56964433Y33390523D01*
X56966285Y33392374D01*
X57006190Y33409994D01*
X57057264Y33433810D01*
X57061345Y33434348D01*
X57065460Y33436164D01*
X57133000Y33444000D01*
X58183000Y33444000D01*
X58250540Y33436164D01*
G37*
G36*
X50019034Y31749036D02*
G01*
X50052125Y31726925D01*
X50074236Y31693834D01*
X50082000Y31654800D01*
X50082000Y30854800D01*
X50074236Y30815766D01*
X50052125Y30782675D01*
X50019034Y30760564D01*
X49980000Y30752800D01*
X49080000Y30752800D01*
X49040966Y30760564D01*
X49007875Y30782675D01*
X48985764Y30815766D01*
X48978000Y30854800D01*
X48978000Y31654800D01*
X48985764Y31693834D01*
X49007875Y31726925D01*
X49040966Y31749036D01*
X49080000Y31756800D01*
X49980000Y31756800D01*
X50019034Y31749036D01*
G37*
G36*
X64180514Y31658485D02*
G01*
X64282430Y31599644D01*
X64365644Y31516430D01*
X64424485Y31414514D01*
X64454943Y31300841D01*
X64454943Y31183159D01*
X64424485Y31069486D01*
X64365644Y30967570D01*
X64282430Y30884356D01*
X64180514Y30825515D01*
X64066841Y30795057D01*
X63949159Y30795057D01*
X63835486Y30825515D01*
X63733570Y30884356D01*
X63650356Y30967570D01*
X63591515Y31069486D01*
X63561057Y31183159D01*
X63561057Y31300841D01*
X63591515Y31414514D01*
X63650356Y31516430D01*
X63733570Y31599644D01*
X63835486Y31658485D01*
X63949159Y31688943D01*
X64066841Y31688943D01*
X64180514Y31658485D01*
G37*
G36*
X32252634Y32243436D02*
G01*
X32285725Y32221325D01*
X32307836Y32188234D01*
X32315600Y32149200D01*
X32315600Y31249200D01*
X32307836Y31210166D01*
X32285725Y31177075D01*
X32252634Y31154964D01*
X32213600Y31147200D01*
X31413600Y31147200D01*
X31374566Y31154964D01*
X31341475Y31177075D01*
X31319364Y31210166D01*
X31311600Y31249200D01*
X31311600Y32149200D01*
X31319364Y32188234D01*
X31341475Y32221325D01*
X31374566Y32243436D01*
X31413600Y32251200D01*
X32213600Y32251200D01*
X32252634Y32243436D01*
G37*
G36*
X33852634Y32243436D02*
G01*
X33885725Y32221325D01*
X33907836Y32188234D01*
X33915600Y32149200D01*
X33915600Y31249200D01*
X33907836Y31210166D01*
X33885725Y31177075D01*
X33852634Y31154964D01*
X33813600Y31147200D01*
X33013600Y31147200D01*
X32974566Y31154964D01*
X32941475Y31177075D01*
X32919364Y31210166D01*
X32911600Y31249200D01*
X32911600Y32149200D01*
X32919364Y32188234D01*
X32941475Y32221325D01*
X32974566Y32243436D01*
X33013600Y32251200D01*
X33813600Y32251200D01*
X33852634Y32243436D01*
G37*
G36*
X29382514Y32115685D02*
G01*
X29484430Y32056844D01*
X29567644Y31973630D01*
X29626485Y31871714D01*
X29656943Y31758041D01*
X29656943Y31640359D01*
X29626485Y31526686D01*
X29567644Y31424770D01*
X29484430Y31341556D01*
X29382514Y31282715D01*
X29268841Y31252257D01*
X29151159Y31252257D01*
X29037486Y31282715D01*
X28935570Y31341556D01*
X28852356Y31424770D01*
X28793515Y31526686D01*
X28763057Y31640359D01*
X28763057Y31758041D01*
X28793515Y31871714D01*
X28852356Y31973630D01*
X28935570Y32056844D01*
X29037486Y32115685D01*
X29151159Y32146143D01*
X29268841Y32146143D01*
X29382514Y32115685D01*
G37*
G36*
X46564634Y32307836D02*
G01*
X46597725Y32285725D01*
X46619836Y32252634D01*
X46627600Y32213600D01*
X46627600Y31413600D01*
X46619836Y31374566D01*
X46597725Y31341475D01*
X46564634Y31319364D01*
X46525600Y31311600D01*
X45625600Y31311600D01*
X45586566Y31319364D01*
X45553475Y31341475D01*
X45531364Y31374566D01*
X45523600Y31413600D01*
X45523600Y32213600D01*
X45531364Y32252634D01*
X45553475Y32285725D01*
X45586566Y32307836D01*
X45625600Y32315600D01*
X46525600Y32315600D01*
X46564634Y32307836D01*
G37*
G36*
X50019034Y33349036D02*
G01*
X50052125Y33326925D01*
X50074236Y33293834D01*
X50082000Y33254800D01*
X50082000Y32454800D01*
X50074236Y32415766D01*
X50052125Y32382675D01*
X50019034Y32360564D01*
X49980000Y32352800D01*
X49080000Y32352800D01*
X49040966Y32360564D01*
X49007875Y32382675D01*
X48985764Y32415766D01*
X48978000Y32454800D01*
X48978000Y33254800D01*
X48985764Y33293834D01*
X49007875Y33326925D01*
X49040966Y33349036D01*
X49080000Y33356800D01*
X49980000Y33356800D01*
X50019034Y33349036D01*
G37*
G36*
X69289799Y33886083D02*
G01*
X69323539Y33863539D01*
X69346083Y33829799D01*
X69354000Y33790000D01*
X69354000Y32690000D01*
X69346083Y32650201D01*
X69323539Y32616461D01*
X69289799Y32593917D01*
X69250000Y32586000D01*
X66550000Y32586000D01*
X66510201Y32593917D01*
X66476461Y32616461D01*
X66453917Y32650201D01*
X66446000Y32690000D01*
X66446000Y33790000D01*
X66453917Y33829799D01*
X66476461Y33863539D01*
X66510201Y33886083D01*
X66550000Y33894000D01*
X69250000Y33894000D01*
X69289799Y33886083D01*
G37*
G36*
X62846034Y33857236D02*
G01*
X62879125Y33835125D01*
X62901236Y33802034D01*
X62909000Y33763000D01*
X62909000Y32963000D01*
X62901236Y32923966D01*
X62879125Y32890875D01*
X62846034Y32868764D01*
X62807000Y32861000D01*
X61907000Y32861000D01*
X61867966Y32868764D01*
X61834875Y32890875D01*
X61812764Y32923966D01*
X61805000Y32963000D01*
X61805000Y33763000D01*
X61812764Y33802034D01*
X61834875Y33835125D01*
X61867966Y33857236D01*
X61907000Y33865000D01*
X62807000Y33865000D01*
X62846034Y33857236D01*
G37*
G36*
X46564634Y33907836D02*
G01*
X46597725Y33885725D01*
X46619836Y33852634D01*
X46627600Y33813600D01*
X46627600Y33013600D01*
X46619836Y32974566D01*
X46597725Y32941475D01*
X46564634Y32919364D01*
X46525600Y32911600D01*
X45625600Y32911600D01*
X45586566Y32919364D01*
X45553475Y32941475D01*
X45531364Y32974566D01*
X45523600Y33013600D01*
X45523600Y33813600D01*
X45531364Y33852634D01*
X45553475Y33885725D01*
X45586566Y33907836D01*
X45625600Y33915600D01*
X46525600Y33915600D01*
X46564634Y33907836D01*
G37*
G36*
X37567534Y34130236D02*
G01*
X37600625Y34108125D01*
X37622736Y34075034D01*
X37630500Y34036000D01*
X37630500Y33020000D01*
X37622736Y32980966D01*
X37600625Y32947875D01*
X37567534Y32925764D01*
X37528500Y32918000D01*
X36385500Y32918000D01*
X36346466Y32925764D01*
X36313375Y32947875D01*
X36291264Y32980966D01*
X36283500Y33020000D01*
X36283500Y34036000D01*
X36291264Y34075034D01*
X36313375Y34108125D01*
X36346466Y34130236D01*
X36385500Y34138000D01*
X37528500Y34138000D01*
X37567534Y34130236D01*
G37*
G36*
X44520914Y33842885D02*
G01*
X44622830Y33784044D01*
X44706044Y33700830D01*
X44764885Y33598914D01*
X44795343Y33485241D01*
X44795343Y33367559D01*
X44764885Y33253886D01*
X44706044Y33151970D01*
X44622830Y33068756D01*
X44520914Y33009915D01*
X44407241Y32979457D01*
X44289559Y32979457D01*
X44175886Y33009915D01*
X44073970Y33068756D01*
X43990756Y33151970D01*
X43931915Y33253886D01*
X43901457Y33367559D01*
X43901457Y33485241D01*
X43931915Y33598914D01*
X43990756Y33700830D01*
X44073970Y33784044D01*
X44175886Y33842885D01*
X44289559Y33873343D01*
X44407241Y33873343D01*
X44520914Y33842885D01*
G37*
G36*
X65309799Y33862083D02*
G01*
X65343539Y33839539D01*
X65366083Y33805799D01*
X65374000Y33766000D01*
X65374000Y33186000D01*
X65366083Y33146201D01*
X65343539Y33112461D01*
X65309799Y33089917D01*
X65270000Y33082000D01*
X64270000Y33082000D01*
X64230201Y33089917D01*
X64196461Y33112461D01*
X64173917Y33146201D01*
X64166000Y33186000D01*
X64166000Y33766000D01*
X64173917Y33805799D01*
X64196461Y33839539D01*
X64230201Y33862083D01*
X64270000Y33870000D01*
X65270000Y33870000D01*
X65309799Y33862083D01*
G37*
G36*
X35535534Y35019236D02*
G01*
X35568625Y34997125D01*
X35590736Y34964034D01*
X35598500Y34925000D01*
X35598500Y33909000D01*
X35590736Y33869966D01*
X35568625Y33836875D01*
X35535534Y33814764D01*
X35496500Y33807000D01*
X34353500Y33807000D01*
X34314466Y33814764D01*
X34281375Y33836875D01*
X34259264Y33869966D01*
X34251500Y33909000D01*
X34251500Y34925000D01*
X34259264Y34964034D01*
X34281375Y34997125D01*
X34314466Y35019236D01*
X34353500Y35027000D01*
X35496500Y35027000D01*
X35535534Y35019236D01*
G37*
G36*
X49651714Y34808085D02*
G01*
X49753630Y34749244D01*
X49836844Y34666030D01*
X49895685Y34564114D01*
X49926143Y34450441D01*
X49926143Y34332759D01*
X49895685Y34219086D01*
X49836844Y34117170D01*
X49753630Y34033956D01*
X49651714Y33975115D01*
X49538041Y33944657D01*
X49420359Y33944657D01*
X49306686Y33975115D01*
X49204770Y34033956D01*
X49121556Y34117170D01*
X49062715Y34219086D01*
X49032257Y34332759D01*
X49032257Y34450441D01*
X49062715Y34564114D01*
X49121556Y34666030D01*
X49204770Y34749244D01*
X49306686Y34808085D01*
X49420359Y34838543D01*
X49538041Y34838543D01*
X49651714Y34808085D01*
G37*
G36*
X65309799Y34982083D02*
G01*
X65343539Y34959539D01*
X65366083Y34925799D01*
X65374000Y34886000D01*
X65374000Y34306000D01*
X65366083Y34266201D01*
X65343539Y34232461D01*
X65309799Y34209917D01*
X65270000Y34202000D01*
X64270000Y34202000D01*
X64230201Y34209917D01*
X64196461Y34232461D01*
X64173917Y34266201D01*
X64166000Y34306000D01*
X64166000Y34886000D01*
X64173917Y34925799D01*
X64196461Y34959539D01*
X64230201Y34982083D01*
X64270000Y34990000D01*
X65270000Y34990000D01*
X65309799Y34982083D01*
G37*
G36*
X62846034Y35457236D02*
G01*
X62879125Y35435125D01*
X62901236Y35402034D01*
X62909000Y35363000D01*
X62909000Y34563000D01*
X62901236Y34523966D01*
X62879125Y34490875D01*
X62846034Y34468764D01*
X62807000Y34461000D01*
X61907000Y34461000D01*
X61867966Y34468764D01*
X61834875Y34490875D01*
X61812764Y34523966D01*
X61805000Y34563000D01*
X61805000Y35363000D01*
X61812764Y35402034D01*
X61834875Y35435125D01*
X61867966Y35457236D01*
X61907000Y35465000D01*
X62807000Y35465000D01*
X62846034Y35457236D01*
G37*
G36*
X20894440Y36606933D02*
G01*
X20910921Y36595921D01*
X20921933Y36579440D01*
X20925800Y36560000D01*
X20925800Y34560000D01*
X20921933Y34540560D01*
X20910921Y34524079D01*
X20894440Y34513067D01*
X20875000Y34509200D01*
X19765000Y34509200D01*
X19745560Y34513067D01*
X19729079Y34524079D01*
X19718067Y34540560D01*
X19714200Y34560000D01*
X19714200Y36560000D01*
X19718067Y36579440D01*
X19729079Y36595921D01*
X19745560Y36606933D01*
X19765000Y36610800D01*
X20875000Y36610800D01*
X20894440Y36606933D01*
G37*
G36*
X23434440Y36606933D02*
G01*
X23450921Y36595921D01*
X23461933Y36579440D01*
X23465800Y36560000D01*
X23465800Y34560000D01*
X23461933Y34540560D01*
X23450921Y34524079D01*
X23434440Y34513067D01*
X23415000Y34509200D01*
X22305000Y34509200D01*
X22285560Y34513067D01*
X22269079Y34524079D01*
X22258067Y34540560D01*
X22254200Y34560000D01*
X22254200Y36560000D01*
X22258067Y36579440D01*
X22269079Y36595921D01*
X22285560Y36606933D01*
X22305000Y36610800D01*
X23415000Y36610800D01*
X23434440Y36606933D01*
G37*
G36*
X25974440Y36606933D02*
G01*
X25990921Y36595921D01*
X26001933Y36579440D01*
X26005800Y36560000D01*
X26005800Y34560000D01*
X26001933Y34540560D01*
X25990921Y34524079D01*
X25974440Y34513067D01*
X25955000Y34509200D01*
X24845000Y34509200D01*
X24825560Y34513067D01*
X24809079Y34524079D01*
X24798067Y34540560D01*
X24794200Y34560000D01*
X24794200Y36560000D01*
X24798067Y36579440D01*
X24809079Y36595921D01*
X24825560Y36606933D01*
X24845000Y36610800D01*
X25955000Y36610800D01*
X25974440Y36606933D01*
G37*
G36*
X31054440Y36606933D02*
G01*
X31070921Y36595921D01*
X31081933Y36579440D01*
X31085800Y36560000D01*
X31085800Y34560000D01*
X31081933Y34540560D01*
X31070921Y34524079D01*
X31054440Y34513067D01*
X31035000Y34509200D01*
X29925000Y34509200D01*
X29905560Y34513067D01*
X29889079Y34524079D01*
X29878067Y34540560D01*
X29874200Y34560000D01*
X29874200Y36560000D01*
X29878067Y36579440D01*
X29889079Y36595921D01*
X29905560Y36606933D01*
X29925000Y36610800D01*
X31035000Y36610800D01*
X31054440Y36606933D01*
G37*
G36*
X69289799Y35886083D02*
G01*
X69323539Y35863539D01*
X69346083Y35829799D01*
X69354000Y35790000D01*
X69354000Y34690000D01*
X69346083Y34650201D01*
X69323539Y34616461D01*
X69289799Y34593917D01*
X69250000Y34586000D01*
X66550000Y34586000D01*
X66510201Y34593917D01*
X66476461Y34616461D01*
X66453917Y34650201D01*
X66446000Y34690000D01*
X66446000Y35790000D01*
X66453917Y35829799D01*
X66476461Y35863539D01*
X66510201Y35886083D01*
X66550000Y35894000D01*
X69250000Y35894000D01*
X69289799Y35886083D01*
G37*
G36*
X37567534Y35908236D02*
G01*
X37600625Y35886125D01*
X37622736Y35853034D01*
X37630500Y35814000D01*
X37630500Y34798000D01*
X37622736Y34758966D01*
X37600625Y34725875D01*
X37567534Y34703764D01*
X37528500Y34696000D01*
X36385500Y34696000D01*
X36346466Y34703764D01*
X36313375Y34725875D01*
X36291264Y34758966D01*
X36283500Y34798000D01*
X36283500Y35814000D01*
X36291264Y35853034D01*
X36313375Y35886125D01*
X36346466Y35908236D01*
X36385500Y35916000D01*
X37528500Y35916000D01*
X37567534Y35908236D01*
G37*
G36*
X69289543Y38557198D02*
G01*
X69401520Y38492548D01*
X69492948Y38401120D01*
X69557598Y38289143D01*
X69591063Y38164250D01*
X69595300Y38099600D01*
X69595300Y36880400D01*
X69591063Y36815750D01*
X69557598Y36690857D01*
X69492948Y36578880D01*
X69401520Y36487452D01*
X69289543Y36422802D01*
X69164650Y36389337D01*
X69035350Y36389337D01*
X68910457Y36422802D01*
X68798480Y36487452D01*
X68707052Y36578880D01*
X68642402Y36690857D01*
X68608937Y36815750D01*
X68604700Y36880400D01*
X68604700Y38099600D01*
X68608937Y38164250D01*
X68642402Y38289143D01*
X68707052Y38401120D01*
X68798480Y38492548D01*
X68910457Y38557198D01*
X69035350Y38590663D01*
X69164650Y38590663D01*
X69289543Y38557198D01*
G37*
G36*
X74489799Y38686083D02*
G01*
X74523539Y38663539D01*
X74546083Y38629799D01*
X74554000Y38590000D01*
X74554000Y36690000D01*
X74546083Y36650201D01*
X74523539Y36616461D01*
X74489799Y36593917D01*
X74450000Y36586000D01*
X70550000Y36586000D01*
X70510201Y36593917D01*
X70476461Y36616461D01*
X70453917Y36650201D01*
X70446000Y36690000D01*
X70446000Y38590000D01*
X70453917Y38629799D01*
X70476461Y38663539D01*
X70510201Y38686083D01*
X70550000Y38694000D01*
X74450000Y38694000D01*
X74489799Y38686083D01*
G37*
G36*
X49600914Y37551285D02*
G01*
X49702830Y37492444D01*
X49786044Y37409230D01*
X49844885Y37307314D01*
X49875343Y37193641D01*
X49875343Y37075959D01*
X49844885Y36962286D01*
X49786044Y36860370D01*
X49702830Y36777156D01*
X49600914Y36718315D01*
X49487241Y36687857D01*
X49369559Y36687857D01*
X49255886Y36718315D01*
X49153970Y36777156D01*
X49070756Y36860370D01*
X49011915Y36962286D01*
X48981457Y37075959D01*
X48981457Y37193641D01*
X49011915Y37307314D01*
X49070756Y37409230D01*
X49153970Y37492444D01*
X49255886Y37551285D01*
X49369559Y37581743D01*
X49487241Y37581743D01*
X49600914Y37551285D01*
G37*
G36*
X38755034Y38263236D02*
G01*
X38788125Y38241125D01*
X38810236Y38208034D01*
X38818000Y38169000D01*
X38818000Y37269000D01*
X38810236Y37229966D01*
X38788125Y37196875D01*
X38755034Y37174764D01*
X38716000Y37167000D01*
X37916000Y37167000D01*
X37876966Y37174764D01*
X37843875Y37196875D01*
X37821764Y37229966D01*
X37814000Y37269000D01*
X37814000Y38169000D01*
X37821764Y38208034D01*
X37843875Y38241125D01*
X37876966Y38263236D01*
X37916000Y38271000D01*
X38716000Y38271000D01*
X38755034Y38263236D01*
G37*
G36*
X40355034Y38263236D02*
G01*
X40388125Y38241125D01*
X40410236Y38208034D01*
X40418000Y38169000D01*
X40418000Y37269000D01*
X40410236Y37229966D01*
X40388125Y37196875D01*
X40355034Y37174764D01*
X40316000Y37167000D01*
X39516000Y37167000D01*
X39476966Y37174764D01*
X39443875Y37196875D01*
X39421764Y37229966D01*
X39414000Y37269000D01*
X39414000Y38169000D01*
X39421764Y38208034D01*
X39443875Y38241125D01*
X39476966Y38263236D01*
X39516000Y38271000D01*
X40316000Y38271000D01*
X40355034Y38263236D01*
G37*
G36*
X36621514Y38135485D02*
G01*
X36723430Y38076644D01*
X36806644Y37993430D01*
X36865485Y37891514D01*
X36895943Y37777841D01*
X36895943Y37660159D01*
X36865485Y37546486D01*
X36806644Y37444570D01*
X36723430Y37361356D01*
X36621514Y37302515D01*
X36507841Y37272057D01*
X36390159Y37272057D01*
X36276486Y37302515D01*
X36174570Y37361356D01*
X36091356Y37444570D01*
X36032515Y37546486D01*
X36002057Y37660159D01*
X36002057Y37777841D01*
X36032515Y37891514D01*
X36091356Y37993430D01*
X36174570Y38076644D01*
X36276486Y38135485D01*
X36390159Y38165943D01*
X36507841Y38165943D01*
X36621514Y38135485D01*
G37*
G36*
X34742710Y38205537D02*
G01*
X34804350Y38164350D01*
X34845537Y38102710D01*
X34860000Y38030000D01*
X34860000Y37470000D01*
X34845537Y37397290D01*
X34804350Y37335650D01*
X34742710Y37294463D01*
X34670000Y37280000D01*
X33910000Y37280000D01*
X33837290Y37294463D01*
X33775650Y37335650D01*
X33734463Y37397290D01*
X33720000Y37470000D01*
X33720000Y38030000D01*
X33734463Y38102710D01*
X33775650Y38164350D01*
X33837290Y38205537D01*
X33910000Y38220000D01*
X34670000Y38220000D01*
X34742710Y38205537D01*
G37*
G36*
X9871551Y39498579D02*
G01*
X9905291Y39476035D01*
X9927835Y39442295D01*
X9935752Y39402496D01*
X9935752Y37497496D01*
X9927835Y37457697D01*
X9905291Y37423957D01*
X9871551Y37401413D01*
X9831752Y37393496D01*
X5920152Y37393496D01*
X5880353Y37401413D01*
X5846613Y37423957D01*
X5824069Y37457697D01*
X5816152Y37497496D01*
X5816152Y39402496D01*
X5824069Y39442295D01*
X5846613Y39476035D01*
X5880353Y39498579D01*
X5920152Y39506496D01*
X9831752Y39506496D01*
X9871551Y39498579D01*
G37*
G36*
X11259543Y39667196D02*
G01*
X11371520Y39602546D01*
X11462948Y39511118D01*
X11527598Y39399141D01*
X11561063Y39274248D01*
X11565300Y39209598D01*
X11565300Y37990398D01*
X11561063Y37925748D01*
X11527598Y37800855D01*
X11462948Y37688878D01*
X11371520Y37597450D01*
X11259543Y37532800D01*
X11134650Y37499335D01*
X11005350Y37499335D01*
X10880457Y37532800D01*
X10768480Y37597450D01*
X10677052Y37688878D01*
X10612402Y37800855D01*
X10578937Y37925748D01*
X10574700Y37990398D01*
X10574700Y39209598D01*
X10578937Y39274248D01*
X10612402Y39399141D01*
X10677052Y39511118D01*
X10768480Y39602546D01*
X10880457Y39667196D01*
X11005350Y39700661D01*
X11134650Y39700661D01*
X11259543Y39667196D01*
G37*
G36*
X46717034Y39064236D02*
G01*
X46750125Y39042125D01*
X46772236Y39009034D01*
X46780000Y38970000D01*
X46780000Y38170000D01*
X46772236Y38130966D01*
X46750125Y38097875D01*
X46717034Y38075764D01*
X46678000Y38068000D01*
X45778000Y38068000D01*
X45738966Y38075764D01*
X45705875Y38097875D01*
X45683764Y38130966D01*
X45676000Y38170000D01*
X45676000Y38970000D01*
X45683764Y39009034D01*
X45705875Y39042125D01*
X45738966Y39064236D01*
X45778000Y39072000D01*
X46678000Y39072000D01*
X46717034Y39064236D01*
G37*
G36*
X44622514Y38973685D02*
G01*
X44724430Y38914844D01*
X44807644Y38831630D01*
X44866485Y38729714D01*
X44896943Y38616041D01*
X44896943Y38498359D01*
X44866485Y38384686D01*
X44807644Y38282770D01*
X44724430Y38199556D01*
X44622514Y38140715D01*
X44508841Y38110257D01*
X44391159Y38110257D01*
X44277486Y38140715D01*
X44175570Y38199556D01*
X44092356Y38282770D01*
X44033515Y38384686D01*
X44003057Y38498359D01*
X44003057Y38616041D01*
X44033515Y38729714D01*
X44092356Y38831630D01*
X44175570Y38914844D01*
X44277486Y38973685D01*
X44391159Y39004143D01*
X44508841Y39004143D01*
X44622514Y38973685D01*
G37*
G36*
X53170540Y41286164D02*
G01*
X53174651Y41284349D01*
X53178735Y41283811D01*
X53229809Y41259995D01*
X53269715Y41242374D01*
X53271567Y41240522D01*
X53271978Y41240330D01*
X53344329Y41167979D01*
X53344520Y41167569D01*
X53346374Y41165715D01*
X53364011Y41125770D01*
X53387809Y41074736D01*
X53388345Y41070658D01*
X53390164Y41066540D01*
X53398000Y40999000D01*
X53398000Y38709000D01*
X53390164Y38641460D01*
X53388347Y38637346D01*
X53387810Y38633265D01*
X53364011Y38582231D01*
X53346374Y38542285D01*
X53344519Y38540431D01*
X53344329Y38540022D01*
X53271978Y38467671D01*
X53271569Y38467481D01*
X53269715Y38465626D01*
X53229750Y38447981D01*
X53178735Y38424191D01*
X53174657Y38423655D01*
X53170540Y38421836D01*
X53103000Y38414000D01*
X52053000Y38414000D01*
X51985460Y38421836D01*
X51981345Y38423653D01*
X51977264Y38424190D01*
X51926212Y38447997D01*
X51886285Y38465626D01*
X51884431Y38467480D01*
X51884021Y38467671D01*
X51811670Y38540022D01*
X51811478Y38540433D01*
X51809626Y38542285D01*
X51791997Y38582209D01*
X51768190Y38633265D01*
X51767652Y38637346D01*
X51765836Y38641460D01*
X51758000Y38709000D01*
X51758000Y40999000D01*
X51765836Y41066540D01*
X51767651Y41070652D01*
X51768189Y41074736D01*
X51792014Y41125829D01*
X51809626Y41165715D01*
X51811477Y41167567D01*
X51811670Y41167979D01*
X51884021Y41240330D01*
X51884433Y41240523D01*
X51886285Y41242374D01*
X51926190Y41259994D01*
X51977264Y41283810D01*
X51981345Y41284348D01*
X51985460Y41286164D01*
X52053000Y41294000D01*
X53103000Y41294000D01*
X53170540Y41286164D01*
G37*
G36*
X55710540Y41286164D02*
G01*
X55714651Y41284349D01*
X55718735Y41283811D01*
X55769809Y41259995D01*
X55809715Y41242374D01*
X55811567Y41240522D01*
X55811978Y41240330D01*
X55884329Y41167979D01*
X55884520Y41167569D01*
X55886374Y41165715D01*
X55904011Y41125770D01*
X55927809Y41074736D01*
X55928345Y41070658D01*
X55930164Y41066540D01*
X55938000Y40999000D01*
X55938000Y38709000D01*
X55930164Y38641460D01*
X55928347Y38637346D01*
X55927810Y38633265D01*
X55904011Y38582231D01*
X55886374Y38542285D01*
X55884519Y38540431D01*
X55884329Y38540022D01*
X55811978Y38467671D01*
X55811569Y38467481D01*
X55809715Y38465626D01*
X55769750Y38447981D01*
X55718735Y38424191D01*
X55714657Y38423655D01*
X55710540Y38421836D01*
X55643000Y38414000D01*
X54593000Y38414000D01*
X54525460Y38421836D01*
X54521345Y38423653D01*
X54517264Y38424190D01*
X54466212Y38447997D01*
X54426285Y38465626D01*
X54424431Y38467480D01*
X54424021Y38467671D01*
X54351670Y38540022D01*
X54351478Y38540433D01*
X54349626Y38542285D01*
X54331997Y38582209D01*
X54308190Y38633265D01*
X54307652Y38637346D01*
X54305836Y38641460D01*
X54298000Y38709000D01*
X54298000Y40999000D01*
X54305836Y41066540D01*
X54307651Y41070652D01*
X54308189Y41074736D01*
X54332014Y41125829D01*
X54349626Y41165715D01*
X54351477Y41167567D01*
X54351670Y41167979D01*
X54424021Y41240330D01*
X54424433Y41240523D01*
X54426285Y41242374D01*
X54466190Y41259994D01*
X54517264Y41283810D01*
X54521345Y41284348D01*
X54525460Y41286164D01*
X54593000Y41294000D01*
X55643000Y41294000D01*
X55710540Y41286164D01*
G37*
G36*
X58250540Y41286164D02*
G01*
X58254651Y41284349D01*
X58258735Y41283811D01*
X58309809Y41259995D01*
X58349715Y41242374D01*
X58351567Y41240522D01*
X58351978Y41240330D01*
X58424329Y41167979D01*
X58424520Y41167569D01*
X58426374Y41165715D01*
X58444011Y41125770D01*
X58467809Y41074736D01*
X58468345Y41070658D01*
X58470164Y41066540D01*
X58478000Y40999000D01*
X58478000Y38709000D01*
X58470164Y38641460D01*
X58468347Y38637346D01*
X58467810Y38633265D01*
X58444011Y38582231D01*
X58426374Y38542285D01*
X58424519Y38540431D01*
X58424329Y38540022D01*
X58351978Y38467671D01*
X58351569Y38467481D01*
X58349715Y38465626D01*
X58309750Y38447981D01*
X58258735Y38424191D01*
X58254657Y38423655D01*
X58250540Y38421836D01*
X58183000Y38414000D01*
X57133000Y38414000D01*
X57065460Y38421836D01*
X57061345Y38423653D01*
X57057264Y38424190D01*
X57006212Y38447997D01*
X56966285Y38465626D01*
X56964431Y38467480D01*
X56964021Y38467671D01*
X56891670Y38540022D01*
X56891478Y38540433D01*
X56889626Y38542285D01*
X56871997Y38582209D01*
X56848190Y38633265D01*
X56847652Y38637346D01*
X56845836Y38641460D01*
X56838000Y38709000D01*
X56838000Y40999000D01*
X56845836Y41066540D01*
X56847651Y41070652D01*
X56848189Y41074736D01*
X56872014Y41125829D01*
X56889626Y41165715D01*
X56891477Y41167567D01*
X56891670Y41167979D01*
X56964021Y41240330D01*
X56964433Y41240523D01*
X56966285Y41242374D01*
X57006190Y41259994D01*
X57057264Y41283810D01*
X57061345Y41284348D01*
X57065460Y41286164D01*
X57133000Y41294000D01*
X58183000Y41294000D01*
X58250540Y41286164D01*
G37*
G36*
X49917434Y39521436D02*
G01*
X49950525Y39499325D01*
X49972636Y39466234D01*
X49980400Y39427200D01*
X49980400Y38627200D01*
X49972636Y38588166D01*
X49950525Y38555075D01*
X49917434Y38532964D01*
X49878400Y38525200D01*
X48978400Y38525200D01*
X48939366Y38532964D01*
X48906275Y38555075D01*
X48884164Y38588166D01*
X48876400Y38627200D01*
X48876400Y39427200D01*
X48884164Y39466234D01*
X48906275Y39499325D01*
X48939366Y39521436D01*
X48978400Y39529200D01*
X49878400Y39529200D01*
X49917434Y39521436D01*
G37*
G36*
X46717034Y40664236D02*
G01*
X46750125Y40642125D01*
X46772236Y40609034D01*
X46780000Y40570000D01*
X46780000Y39770000D01*
X46772236Y39730966D01*
X46750125Y39697875D01*
X46717034Y39675764D01*
X46678000Y39668000D01*
X45778000Y39668000D01*
X45738966Y39675764D01*
X45705875Y39697875D01*
X45683764Y39730966D01*
X45676000Y39770000D01*
X45676000Y40570000D01*
X45683764Y40609034D01*
X45705875Y40642125D01*
X45738966Y40664236D01*
X45778000Y40672000D01*
X46678000Y40672000D01*
X46717034Y40664236D01*
G37*
G36*
X49917434Y41121436D02*
G01*
X49950525Y41099325D01*
X49972636Y41066234D01*
X49980400Y41027200D01*
X49980400Y40227200D01*
X49972636Y40188166D01*
X49950525Y40155075D01*
X49917434Y40132964D01*
X49878400Y40125200D01*
X48978400Y40125200D01*
X48939366Y40132964D01*
X48906275Y40155075D01*
X48884164Y40188166D01*
X48876400Y40227200D01*
X48876400Y41027200D01*
X48884164Y41066234D01*
X48906275Y41099325D01*
X48939366Y41121436D01*
X48978400Y41129200D01*
X49878400Y41129200D01*
X49917434Y41121436D01*
G37*
G36*
X13659799Y41396080D02*
G01*
X13693539Y41373536D01*
X13716083Y41339796D01*
X13724000Y41299997D01*
X13724000Y40299997D01*
X13716083Y40260198D01*
X13693539Y40226458D01*
X13659799Y40203914D01*
X13620000Y40195997D01*
X10920000Y40195997D01*
X10880201Y40203914D01*
X10846461Y40226458D01*
X10823917Y40260198D01*
X10816000Y40299997D01*
X10816000Y41299997D01*
X10823917Y41339796D01*
X10846461Y41373536D01*
X10880201Y41396080D01*
X10920000Y41403997D01*
X13620000Y41403997D01*
X13659799Y41396080D01*
G37*
G36*
X34742710Y41445537D02*
G01*
X34804350Y41404350D01*
X34845537Y41342710D01*
X34860000Y41270000D01*
X34860000Y40710000D01*
X34845537Y40637290D01*
X34804350Y40575650D01*
X34742710Y40534463D01*
X34670000Y40520000D01*
X33910000Y40520000D01*
X33837290Y40534463D01*
X33775650Y40575650D01*
X33734463Y40637290D01*
X33720000Y40710000D01*
X33720000Y41270000D01*
X33734463Y41342710D01*
X33775650Y41404350D01*
X33837290Y41445537D01*
X33910000Y41460000D01*
X34670000Y41460000D01*
X34742710Y41445537D01*
G37*
G36*
X38568058Y41490591D02*
G01*
X38626888Y41483766D01*
X38646990Y41474890D01*
X38669325Y41470447D01*
X38693236Y41454471D01*
X38718337Y41443387D01*
X38735480Y41426244D01*
X38756919Y41411919D01*
X38771243Y41390481D01*
X38788386Y41373338D01*
X38799468Y41348239D01*
X38815447Y41324325D01*
X38819890Y41301989D01*
X38828765Y41281889D01*
X38835588Y41223071D01*
X38836000Y41221000D01*
X38836000Y40821000D01*
X38835588Y40818930D01*
X38828765Y40760112D01*
X38819890Y40740014D01*
X38815447Y40717675D01*
X38799467Y40693760D01*
X38788386Y40668663D01*
X38771245Y40651523D01*
X38756919Y40630081D01*
X38735477Y40615755D01*
X38718337Y40598614D01*
X38693240Y40587533D01*
X38669325Y40571553D01*
X38646986Y40567110D01*
X38626888Y40558235D01*
X38568071Y40551413D01*
X38566000Y40551000D01*
X38166000Y40551000D01*
X38163931Y40551412D01*
X38105111Y40558235D01*
X38085011Y40567110D01*
X38062675Y40571553D01*
X38038761Y40587532D01*
X38013662Y40598614D01*
X37996519Y40615757D01*
X37975081Y40630081D01*
X37960756Y40651520D01*
X37943613Y40668663D01*
X37932529Y40693764D01*
X37916553Y40717675D01*
X37912110Y40740010D01*
X37903234Y40760112D01*
X37896409Y40818941D01*
X37896000Y40821000D01*
X37896000Y41221000D01*
X37896409Y41223057D01*
X37903234Y41281889D01*
X37912110Y41301993D01*
X37916553Y41324325D01*
X37932528Y41348235D01*
X37943613Y41373338D01*
X37960758Y41390484D01*
X37975081Y41411919D01*
X37996516Y41426242D01*
X38013662Y41443387D01*
X38038765Y41454472D01*
X38062675Y41470447D01*
X38085007Y41474890D01*
X38105111Y41483766D01*
X38163941Y41490591D01*
X38166000Y41491000D01*
X38566000Y41491000D01*
X38568058Y41490591D01*
G37*
G36*
X40068058Y41490591D02*
G01*
X40126888Y41483766D01*
X40146990Y41474890D01*
X40169325Y41470447D01*
X40193236Y41454471D01*
X40218337Y41443387D01*
X40235480Y41426244D01*
X40256919Y41411919D01*
X40271243Y41390481D01*
X40288386Y41373338D01*
X40299468Y41348239D01*
X40315447Y41324325D01*
X40319890Y41301989D01*
X40328765Y41281889D01*
X40335588Y41223071D01*
X40336000Y41221000D01*
X40336000Y40821000D01*
X40335588Y40818930D01*
X40328765Y40760112D01*
X40319890Y40740014D01*
X40315447Y40717675D01*
X40299467Y40693760D01*
X40288386Y40668663D01*
X40271245Y40651523D01*
X40256919Y40630081D01*
X40235477Y40615755D01*
X40218337Y40598614D01*
X40193240Y40587533D01*
X40169325Y40571553D01*
X40146986Y40567110D01*
X40126888Y40558235D01*
X40068071Y40551413D01*
X40066000Y40551000D01*
X39666000Y40551000D01*
X39663931Y40551412D01*
X39605111Y40558235D01*
X39585011Y40567110D01*
X39562675Y40571553D01*
X39538761Y40587532D01*
X39513662Y40598614D01*
X39496519Y40615757D01*
X39475081Y40630081D01*
X39460756Y40651520D01*
X39443613Y40668663D01*
X39432529Y40693764D01*
X39416553Y40717675D01*
X39412110Y40740010D01*
X39403234Y40760112D01*
X39396409Y40818941D01*
X39396000Y40821000D01*
X39396000Y41221000D01*
X39396409Y41223057D01*
X39403234Y41281889D01*
X39412110Y41301993D01*
X39416553Y41324325D01*
X39432528Y41348235D01*
X39443613Y41373338D01*
X39460758Y41390484D01*
X39475081Y41411919D01*
X39496516Y41426242D01*
X39513662Y41443387D01*
X39538765Y41454472D01*
X39562675Y41470447D01*
X39585007Y41474890D01*
X39605111Y41483766D01*
X39663941Y41490591D01*
X39666000Y41491000D01*
X40066000Y41491000D01*
X40068058Y41490591D01*
G37*
G36*
X42551434Y41553436D02*
G01*
X42584525Y41531325D01*
X42606636Y41498234D01*
X42614400Y41459200D01*
X42614400Y40659200D01*
X42606636Y40620166D01*
X42584525Y40587075D01*
X42551434Y40564964D01*
X42512400Y40557200D01*
X41612400Y40557200D01*
X41573366Y40564964D01*
X41540275Y40587075D01*
X41518164Y40620166D01*
X41510400Y40659200D01*
X41510400Y41459200D01*
X41518164Y41498234D01*
X41540275Y41531325D01*
X41573366Y41553436D01*
X41612400Y41561200D01*
X42512400Y41561200D01*
X42551434Y41553436D01*
G37*
G36*
X20894440Y42896933D02*
G01*
X20910921Y42885921D01*
X20921933Y42869440D01*
X20925800Y42850000D01*
X20925800Y40850000D01*
X20921933Y40830560D01*
X20910921Y40814079D01*
X20894440Y40803067D01*
X20875000Y40799200D01*
X19765000Y40799200D01*
X19745560Y40803067D01*
X19729079Y40814079D01*
X19718067Y40830560D01*
X19714200Y40850000D01*
X19714200Y42850000D01*
X19718067Y42869440D01*
X19729079Y42885921D01*
X19745560Y42896933D01*
X19765000Y42900800D01*
X20875000Y42900800D01*
X20894440Y42896933D01*
G37*
G36*
X23434440Y42896933D02*
G01*
X23450921Y42885921D01*
X23461933Y42869440D01*
X23465800Y42850000D01*
X23465800Y40850000D01*
X23461933Y40830560D01*
X23450921Y40814079D01*
X23434440Y40803067D01*
X23415000Y40799200D01*
X22305000Y40799200D01*
X22285560Y40803067D01*
X22269079Y40814079D01*
X22258067Y40830560D01*
X22254200Y40850000D01*
X22254200Y42850000D01*
X22258067Y42869440D01*
X22269079Y42885921D01*
X22285560Y42896933D01*
X22305000Y42900800D01*
X23415000Y42900800D01*
X23434440Y42896933D01*
G37*
G36*
X25974440Y42896933D02*
G01*
X25990921Y42885921D01*
X26001933Y42869440D01*
X26005800Y42850000D01*
X26005800Y40850000D01*
X26001933Y40830560D01*
X25990921Y40814079D01*
X25974440Y40803067D01*
X25955000Y40799200D01*
X24845000Y40799200D01*
X24825560Y40803067D01*
X24809079Y40814079D01*
X24798067Y40830560D01*
X24794200Y40850000D01*
X24794200Y42850000D01*
X24798067Y42869440D01*
X24809079Y42885921D01*
X24825560Y42896933D01*
X24845000Y42900800D01*
X25955000Y42900800D01*
X25974440Y42896933D01*
G37*
G36*
X31054440Y42896933D02*
G01*
X31070921Y42885921D01*
X31081933Y42869440D01*
X31085800Y42850000D01*
X31085800Y40850000D01*
X31081933Y40830560D01*
X31070921Y40814079D01*
X31054440Y40803067D01*
X31035000Y40799200D01*
X29925000Y40799200D01*
X29905560Y40803067D01*
X29889079Y40814079D01*
X29878067Y40830560D01*
X29874200Y40850000D01*
X29874200Y42850000D01*
X29878067Y42869440D01*
X29889079Y42885921D01*
X29905560Y42896933D01*
X29925000Y42900800D01*
X31035000Y42900800D01*
X31054440Y42896933D01*
G37*
G36*
X42551434Y43153436D02*
G01*
X42584525Y43131325D01*
X42606636Y43098234D01*
X42614400Y43059200D01*
X42614400Y42259200D01*
X42606636Y42220166D01*
X42584525Y42187075D01*
X42551434Y42164964D01*
X42512400Y42157200D01*
X41612400Y42157200D01*
X41573366Y42164964D01*
X41540275Y42187075D01*
X41518164Y42220166D01*
X41510400Y42259200D01*
X41510400Y43059200D01*
X41518164Y43098234D01*
X41540275Y43131325D01*
X41573366Y43153436D01*
X41612400Y43161200D01*
X42512400Y43161200D01*
X42551434Y43153436D01*
G37*
G36*
X13659799Y43396081D02*
G01*
X13693539Y43373537D01*
X13716083Y43339797D01*
X13724000Y43299998D01*
X13724000Y42299998D01*
X13716083Y42260199D01*
X13693539Y42226459D01*
X13659799Y42203915D01*
X13620000Y42195998D01*
X10920000Y42195998D01*
X10880201Y42203915D01*
X10846461Y42226459D01*
X10823917Y42260199D01*
X10816000Y42299998D01*
X10816000Y43299998D01*
X10823917Y43339797D01*
X10846461Y43373537D01*
X10880201Y43396081D01*
X10920000Y43403998D01*
X13620000Y43403998D01*
X13659799Y43396081D01*
G37*
G36*
X38568058Y44157591D02*
G01*
X38626888Y44150766D01*
X38646990Y44141890D01*
X38669325Y44137447D01*
X38693236Y44121471D01*
X38718337Y44110387D01*
X38735480Y44093244D01*
X38756919Y44078919D01*
X38771243Y44057481D01*
X38788386Y44040338D01*
X38799468Y44015239D01*
X38815447Y43991325D01*
X38819890Y43968989D01*
X38828765Y43948889D01*
X38835588Y43890071D01*
X38836000Y43888000D01*
X38836000Y43488000D01*
X38835588Y43485930D01*
X38828765Y43427112D01*
X38819890Y43407014D01*
X38815447Y43384675D01*
X38799467Y43360760D01*
X38788386Y43335663D01*
X38771245Y43318523D01*
X38756919Y43297081D01*
X38735477Y43282755D01*
X38718337Y43265614D01*
X38693240Y43254533D01*
X38669325Y43238553D01*
X38646986Y43234110D01*
X38626888Y43225235D01*
X38568071Y43218413D01*
X38566000Y43218000D01*
X38166000Y43218000D01*
X38163931Y43218412D01*
X38105111Y43225235D01*
X38085011Y43234110D01*
X38062675Y43238553D01*
X38038761Y43254532D01*
X38013662Y43265614D01*
X37996519Y43282757D01*
X37975081Y43297081D01*
X37960756Y43318520D01*
X37943613Y43335663D01*
X37932529Y43360764D01*
X37916553Y43384675D01*
X37912110Y43407010D01*
X37903234Y43427112D01*
X37896409Y43485941D01*
X37896000Y43488000D01*
X37896000Y43888000D01*
X37896409Y43890057D01*
X37903234Y43948889D01*
X37912110Y43968993D01*
X37916553Y43991325D01*
X37932528Y44015235D01*
X37943613Y44040338D01*
X37960758Y44057484D01*
X37975081Y44078919D01*
X37996516Y44093242D01*
X38013662Y44110387D01*
X38038765Y44121472D01*
X38062675Y44137447D01*
X38085007Y44141890D01*
X38105111Y44150766D01*
X38163941Y44157591D01*
X38166000Y44158000D01*
X38566000Y44158000D01*
X38568058Y44157591D01*
G37*
G36*
X40068058Y44157591D02*
G01*
X40126888Y44150766D01*
X40146990Y44141890D01*
X40169325Y44137447D01*
X40193236Y44121471D01*
X40218337Y44110387D01*
X40235480Y44093244D01*
X40256919Y44078919D01*
X40271243Y44057481D01*
X40288386Y44040338D01*
X40299468Y44015239D01*
X40315447Y43991325D01*
X40319890Y43968989D01*
X40328765Y43948889D01*
X40335588Y43890071D01*
X40336000Y43888000D01*
X40336000Y43488000D01*
X40335588Y43485930D01*
X40328765Y43427112D01*
X40319890Y43407014D01*
X40315447Y43384675D01*
X40299467Y43360760D01*
X40288386Y43335663D01*
X40271245Y43318523D01*
X40256919Y43297081D01*
X40235477Y43282755D01*
X40218337Y43265614D01*
X40193240Y43254533D01*
X40169325Y43238553D01*
X40146986Y43234110D01*
X40126888Y43225235D01*
X40068071Y43218413D01*
X40066000Y43218000D01*
X39666000Y43218000D01*
X39663931Y43218412D01*
X39605111Y43225235D01*
X39585011Y43234110D01*
X39562675Y43238553D01*
X39538761Y43254532D01*
X39513662Y43265614D01*
X39496519Y43282757D01*
X39475081Y43297081D01*
X39460756Y43318520D01*
X39443613Y43335663D01*
X39432529Y43360764D01*
X39416553Y43384675D01*
X39412110Y43407010D01*
X39403234Y43427112D01*
X39396409Y43485941D01*
X39396000Y43488000D01*
X39396000Y43888000D01*
X39396409Y43890057D01*
X39403234Y43948889D01*
X39412110Y43968993D01*
X39416553Y43991325D01*
X39432528Y44015235D01*
X39443613Y44040338D01*
X39460758Y44057484D01*
X39475081Y44078919D01*
X39496516Y44093242D01*
X39513662Y44110387D01*
X39538765Y44121472D01*
X39562675Y44137447D01*
X39585007Y44141890D01*
X39605111Y44150766D01*
X39663941Y44157591D01*
X39666000Y44158000D01*
X40066000Y44158000D01*
X40068058Y44157591D01*
G37*
G36*
X58722326Y46528530D02*
G01*
X58796781Y46478781D01*
X58846530Y46404326D01*
X58864000Y46316500D01*
X58864000Y44071500D01*
X58846530Y43983674D01*
X58796781Y43909219D01*
X58722326Y43859470D01*
X58634500Y43842000D01*
X57189500Y43842000D01*
X57101674Y43859470D01*
X57027219Y43909219D01*
X56977470Y43983674D01*
X56960000Y44071500D01*
X56960000Y46316500D01*
X56977470Y46404326D01*
X57027219Y46478781D01*
X57101674Y46528530D01*
X57189500Y46546000D01*
X58634500Y46546000D01*
X58722326Y46528530D01*
G37*
G36*
X13659799Y45396082D02*
G01*
X13693539Y45373538D01*
X13716083Y45339798D01*
X13724000Y45299999D01*
X13724000Y44299999D01*
X13716083Y44260200D01*
X13693539Y44226460D01*
X13659799Y44203916D01*
X13620000Y44195999D01*
X10920000Y44195999D01*
X10880201Y44203916D01*
X10846461Y44226460D01*
X10823917Y44260200D01*
X10816000Y44299999D01*
X10816000Y45299999D01*
X10823917Y45339798D01*
X10846461Y45373538D01*
X10880201Y45396082D01*
X10920000Y45403999D01*
X13620000Y45403999D01*
X13659799Y45396082D01*
G37*
G36*
X64180555Y47306333D02*
G01*
X64404531Y47233558D01*
X64614366Y47126642D01*
X64804892Y46988217D01*
X64971417Y46821692D01*
X65109842Y46631166D01*
X65216758Y46421331D01*
X65289533Y46197355D01*
X65326374Y45964751D01*
X65326374Y45729249D01*
X65289533Y45496645D01*
X65216758Y45272669D01*
X65109842Y45062834D01*
X64971417Y44872308D01*
X64804892Y44705783D01*
X64614366Y44567358D01*
X64404531Y44460442D01*
X64180555Y44387667D01*
X63947951Y44350826D01*
X63712449Y44350826D01*
X63479845Y44387667D01*
X63255869Y44460442D01*
X63046034Y44567358D01*
X62855508Y44705783D01*
X62688983Y44872308D01*
X62550558Y45062834D01*
X62443642Y45272669D01*
X62370867Y45496645D01*
X62334026Y45729249D01*
X62334026Y45964751D01*
X62370867Y46197355D01*
X62443642Y46421331D01*
X62550558Y46631166D01*
X62688983Y46821692D01*
X62855508Y46988217D01*
X63046034Y47126642D01*
X63255869Y47233558D01*
X63479845Y47306333D01*
X63712449Y47343174D01*
X63947951Y47343174D01*
X64180555Y47306333D01*
G37*
G36*
X13659799Y47396080D02*
G01*
X13693539Y47373536D01*
X13716083Y47339796D01*
X13724000Y47299997D01*
X13724000Y46299997D01*
X13716083Y46260198D01*
X13693539Y46226458D01*
X13659799Y46203914D01*
X13620000Y46195997D01*
X10920000Y46195997D01*
X10880201Y46203914D01*
X10846461Y46226458D01*
X10823917Y46260198D01*
X10816000Y46299997D01*
X10816000Y47299997D01*
X10823917Y47339796D01*
X10846461Y47373536D01*
X10880201Y47396080D01*
X10920000Y47403997D01*
X13620000Y47403997D01*
X13659799Y47396080D01*
G37*
G36*
X52947034Y48215236D02*
G01*
X52980125Y48193125D01*
X53002236Y48160034D01*
X53010000Y48121000D01*
X53010000Y46621000D01*
X53002236Y46581966D01*
X52980125Y46548875D01*
X52947034Y46526764D01*
X52908000Y46519000D01*
X49708000Y46519000D01*
X49668966Y46526764D01*
X49635875Y46548875D01*
X49613764Y46581966D01*
X49606000Y46621000D01*
X49606000Y48121000D01*
X49613764Y48160034D01*
X49635875Y48193125D01*
X49668966Y48215236D01*
X49708000Y48223000D01*
X52908000Y48223000D01*
X52947034Y48215236D01*
G37*
G36*
X39009034Y48677236D02*
G01*
X39042125Y48655125D01*
X39064236Y48622034D01*
X39072000Y48583000D01*
X39072000Y47683000D01*
X39064236Y47643966D01*
X39042125Y47610875D01*
X39009034Y47588764D01*
X38970000Y47581000D01*
X38170000Y47581000D01*
X38130966Y47588764D01*
X38097875Y47610875D01*
X38075764Y47643966D01*
X38068000Y47683000D01*
X38068000Y48583000D01*
X38075764Y48622034D01*
X38097875Y48655125D01*
X38130966Y48677236D01*
X38170000Y48685000D01*
X38970000Y48685000D01*
X39009034Y48677236D01*
G37*
G36*
X40609034Y48677236D02*
G01*
X40642125Y48655125D01*
X40664236Y48622034D01*
X40672000Y48583000D01*
X40672000Y47683000D01*
X40664236Y47643966D01*
X40642125Y47610875D01*
X40609034Y47588764D01*
X40570000Y47581000D01*
X39770000Y47581000D01*
X39730966Y47588764D01*
X39697875Y47610875D01*
X39675764Y47643966D01*
X39668000Y47683000D01*
X39668000Y48583000D01*
X39675764Y48622034D01*
X39697875Y48655125D01*
X39730966Y48677236D01*
X39770000Y48685000D01*
X40570000Y48685000D01*
X40609034Y48677236D01*
G37*
G36*
X37129514Y48549485D02*
G01*
X37231430Y48490644D01*
X37314644Y48407430D01*
X37373485Y48305514D01*
X37403943Y48191841D01*
X37403943Y48074159D01*
X37373485Y47960486D01*
X37314644Y47858570D01*
X37231430Y47775356D01*
X37129514Y47716515D01*
X37015841Y47686057D01*
X36898159Y47686057D01*
X36784486Y47716515D01*
X36682570Y47775356D01*
X36599356Y47858570D01*
X36540515Y47960486D01*
X36510057Y48074159D01*
X36510057Y48191841D01*
X36540515Y48305514D01*
X36599356Y48407430D01*
X36682570Y48490644D01*
X36784486Y48549485D01*
X36898159Y48579943D01*
X37015841Y48579943D01*
X37129514Y48549485D01*
G37*
G36*
X58722326Y50628530D02*
G01*
X58796781Y50578781D01*
X58846530Y50504326D01*
X58864000Y50416500D01*
X58864000Y48171500D01*
X58846530Y48083674D01*
X58796781Y48009219D01*
X58722326Y47959470D01*
X58634500Y47942000D01*
X57189500Y47942000D01*
X57101674Y47959470D01*
X57027219Y48009219D01*
X56977470Y48083674D01*
X56960000Y48171500D01*
X56960000Y50416500D01*
X56977470Y50504326D01*
X57027219Y50578781D01*
X57101674Y50628530D01*
X57189500Y50646000D01*
X58634500Y50646000D01*
X58722326Y50628530D01*
G37*
G36*
X13659799Y49396081D02*
G01*
X13693539Y49373537D01*
X13716083Y49339797D01*
X13724000Y49299998D01*
X13724000Y48299998D01*
X13716083Y48260199D01*
X13693539Y48226459D01*
X13659799Y48203915D01*
X13620000Y48195998D01*
X10920000Y48195998D01*
X10880201Y48203915D01*
X10846461Y48226459D01*
X10823917Y48260199D01*
X10816000Y48299998D01*
X10816000Y49299998D01*
X10823917Y49339797D01*
X10846461Y49373537D01*
X10880201Y49396081D01*
X10920000Y49403998D01*
X13620000Y49403998D01*
X13659799Y49396081D01*
G37*
G36*
X64180555Y51266334D02*
G01*
X64404531Y51193559D01*
X64614366Y51086643D01*
X64804892Y50948218D01*
X64971417Y50781693D01*
X65109842Y50591167D01*
X65216758Y50381332D01*
X65289533Y50157356D01*
X65326374Y49924752D01*
X65326374Y49689250D01*
X65289533Y49456646D01*
X65216758Y49232670D01*
X65109842Y49022835D01*
X64971417Y48832309D01*
X64804892Y48665784D01*
X64614366Y48527359D01*
X64404531Y48420443D01*
X64180555Y48347668D01*
X63947951Y48310827D01*
X63712449Y48310827D01*
X63479845Y48347668D01*
X63255869Y48420443D01*
X63046034Y48527359D01*
X62855508Y48665784D01*
X62688983Y48832309D01*
X62550558Y49022835D01*
X62443642Y49232670D01*
X62370867Y49456646D01*
X62334026Y49689250D01*
X62334026Y49924752D01*
X62370867Y50157356D01*
X62443642Y50381332D01*
X62550558Y50591167D01*
X62688983Y50781693D01*
X62855508Y50948218D01*
X63046034Y51086643D01*
X63255869Y51193559D01*
X63479845Y51266334D01*
X63712449Y51303175D01*
X63947951Y51303175D01*
X64180555Y51266334D01*
G37*
G36*
X26817034Y50582236D02*
G01*
X26850125Y50560125D01*
X26872236Y50527034D01*
X26880000Y50488000D01*
X26880000Y49588000D01*
X26872236Y49548966D01*
X26850125Y49515875D01*
X26817034Y49493764D01*
X26778000Y49486000D01*
X25978000Y49486000D01*
X25938966Y49493764D01*
X25905875Y49515875D01*
X25883764Y49548966D01*
X25876000Y49588000D01*
X25876000Y50488000D01*
X25883764Y50527034D01*
X25905875Y50560125D01*
X25938966Y50582236D01*
X25978000Y50590000D01*
X26778000Y50590000D01*
X26817034Y50582236D01*
G37*
G36*
X28417034Y50582236D02*
G01*
X28450125Y50560125D01*
X28472236Y50527034D01*
X28480000Y50488000D01*
X28480000Y49588000D01*
X28472236Y49548966D01*
X28450125Y49515875D01*
X28417034Y49493764D01*
X28378000Y49486000D01*
X27578000Y49486000D01*
X27538966Y49493764D01*
X27505875Y49515875D01*
X27483764Y49548966D01*
X27476000Y49588000D01*
X27476000Y50488000D01*
X27483764Y50527034D01*
X27505875Y50560125D01*
X27538966Y50582236D01*
X27578000Y50590000D01*
X28378000Y50590000D01*
X28417034Y50582236D01*
G37*
G36*
X37485034Y50709236D02*
G01*
X37518125Y50687125D01*
X37540236Y50654034D01*
X37548000Y50615000D01*
X37548000Y49715000D01*
X37540236Y49675966D01*
X37518125Y49642875D01*
X37485034Y49620764D01*
X37446000Y49613000D01*
X36646000Y49613000D01*
X36606966Y49620764D01*
X36573875Y49642875D01*
X36551764Y49675966D01*
X36544000Y49715000D01*
X36544000Y50615000D01*
X36551764Y50654034D01*
X36573875Y50687125D01*
X36606966Y50709236D01*
X36646000Y50717000D01*
X37446000Y50717000D01*
X37485034Y50709236D01*
G37*
G36*
X39085034Y50709236D02*
G01*
X39118125Y50687125D01*
X39140236Y50654034D01*
X39148000Y50615000D01*
X39148000Y49715000D01*
X39140236Y49675966D01*
X39118125Y49642875D01*
X39085034Y49620764D01*
X39046000Y49613000D01*
X38246000Y49613000D01*
X38206966Y49620764D01*
X38173875Y49642875D01*
X38151764Y49675966D01*
X38144000Y49715000D01*
X38144000Y50615000D01*
X38151764Y50654034D01*
X38173875Y50687125D01*
X38206966Y50709236D01*
X38246000Y50717000D01*
X39046000Y50717000D01*
X39085034Y50709236D01*
G37*
G36*
X43581034Y50836236D02*
G01*
X43614125Y50814125D01*
X43636236Y50781034D01*
X43644000Y50742000D01*
X43644000Y49842000D01*
X43636236Y49802966D01*
X43614125Y49769875D01*
X43581034Y49747764D01*
X43542000Y49740000D01*
X42742000Y49740000D01*
X42702966Y49747764D01*
X42669875Y49769875D01*
X42647764Y49802966D01*
X42640000Y49842000D01*
X42640000Y50742000D01*
X42647764Y50781034D01*
X42669875Y50814125D01*
X42702966Y50836236D01*
X42742000Y50844000D01*
X43542000Y50844000D01*
X43581034Y50836236D01*
G37*
G36*
X45181034Y50836236D02*
G01*
X45214125Y50814125D01*
X45236236Y50781034D01*
X45244000Y50742000D01*
X45244000Y49842000D01*
X45236236Y49802966D01*
X45214125Y49769875D01*
X45181034Y49747764D01*
X45142000Y49740000D01*
X44342000Y49740000D01*
X44302966Y49747764D01*
X44269875Y49769875D01*
X44247764Y49802966D01*
X44240000Y49842000D01*
X44240000Y50742000D01*
X44247764Y50781034D01*
X44269875Y50814125D01*
X44302966Y50836236D01*
X44342000Y50844000D01*
X45142000Y50844000D01*
X45181034Y50836236D01*
G37*
G36*
X41574514Y50708485D02*
G01*
X41676430Y50649644D01*
X41759644Y50566430D01*
X41818485Y50464514D01*
X41848943Y50350841D01*
X41848943Y50233159D01*
X41818485Y50119486D01*
X41759644Y50017570D01*
X41676430Y49934356D01*
X41574514Y49875515D01*
X41460841Y49845057D01*
X41343159Y49845057D01*
X41229486Y49875515D01*
X41127570Y49934356D01*
X41044356Y50017570D01*
X40985515Y50119486D01*
X40955057Y50233159D01*
X40955057Y50350841D01*
X40985515Y50464514D01*
X41044356Y50566430D01*
X41127570Y50649644D01*
X41229486Y50708485D01*
X41343159Y50738943D01*
X41460841Y50738943D01*
X41574514Y50708485D01*
G37*
G36*
X13659799Y51396080D02*
G01*
X13693539Y51373536D01*
X13716083Y51339796D01*
X13724000Y51299997D01*
X13724000Y50299997D01*
X13716083Y50260198D01*
X13693539Y50226458D01*
X13659799Y50203914D01*
X13620000Y50195997D01*
X10920000Y50195997D01*
X10880201Y50203914D01*
X10846461Y50226458D01*
X10823917Y50260198D01*
X10816000Y50299997D01*
X10816000Y51299997D01*
X10823917Y51339796D01*
X10846461Y51373536D01*
X10880201Y51396080D01*
X10920000Y51403997D01*
X13620000Y51403997D01*
X13659799Y51396080D01*
G37*
G36*
X17289034Y52080236D02*
G01*
X17322125Y52058125D01*
X17344236Y52025034D01*
X17352000Y51986000D01*
X17352000Y50786000D01*
X17344236Y50746966D01*
X17322125Y50713875D01*
X17289034Y50691764D01*
X17250000Y50684000D01*
X14750000Y50684000D01*
X14710966Y50691764D01*
X14677875Y50713875D01*
X14655764Y50746966D01*
X14648000Y50786000D01*
X14648000Y51986000D01*
X14655764Y52025034D01*
X14677875Y52058125D01*
X14710966Y52080236D01*
X14750000Y52088000D01*
X17250000Y52088000D01*
X17289034Y52080236D01*
G37*
G36*
X26498634Y52272236D02*
G01*
X26531725Y52250125D01*
X26553836Y52217034D01*
X26561600Y52178000D01*
X26561600Y51378000D01*
X26553836Y51338966D01*
X26531725Y51305875D01*
X26498634Y51283764D01*
X26459600Y51276000D01*
X25559600Y51276000D01*
X25520566Y51283764D01*
X25487475Y51305875D01*
X25465364Y51338966D01*
X25457600Y51378000D01*
X25457600Y52178000D01*
X25465364Y52217034D01*
X25487475Y52250125D01*
X25520566Y52272236D01*
X25559600Y52280000D01*
X26459600Y52280000D01*
X26498634Y52272236D01*
G37*
G36*
X28708434Y52272236D02*
G01*
X28741525Y52250125D01*
X28763636Y52217034D01*
X28771400Y52178000D01*
X28771400Y51378000D01*
X28763636Y51338966D01*
X28741525Y51305875D01*
X28708434Y51283764D01*
X28669400Y51276000D01*
X27769400Y51276000D01*
X27730366Y51283764D01*
X27697275Y51305875D01*
X27675164Y51338966D01*
X27667400Y51378000D01*
X27667400Y52178000D01*
X27675164Y52217034D01*
X27697275Y52250125D01*
X27730366Y52272236D01*
X27769400Y52280000D01*
X28669400Y52280000D01*
X28708434Y52272236D01*
G37*
G36*
X30613434Y52272236D02*
G01*
X30646525Y52250125D01*
X30668636Y52217034D01*
X30676400Y52178000D01*
X30676400Y51378000D01*
X30668636Y51338966D01*
X30646525Y51305875D01*
X30613434Y51283764D01*
X30574400Y51276000D01*
X29674400Y51276000D01*
X29635366Y51283764D01*
X29602275Y51305875D01*
X29580164Y51338966D01*
X29572400Y51378000D01*
X29572400Y52178000D01*
X29580164Y52217034D01*
X29602275Y52250125D01*
X29635366Y52272236D01*
X29674400Y52280000D01*
X30574400Y52280000D01*
X30613434Y52272236D01*
G37*
G36*
X33990881Y52356866D02*
G01*
X34023842Y52334842D01*
X34045866Y52301881D01*
X34053600Y52263000D01*
X34053600Y51755000D01*
X34045866Y51716119D01*
X34023842Y51683158D01*
X33990881Y51661134D01*
X33952000Y51653400D01*
X32952000Y51653400D01*
X32913119Y51661134D01*
X32880158Y51683158D01*
X32858134Y51716119D01*
X32850400Y51755000D01*
X32850400Y52263000D01*
X32858134Y52301881D01*
X32880158Y52334842D01*
X32913119Y52356866D01*
X32952000Y52364600D01*
X33952000Y52364600D01*
X33990881Y52356866D01*
G37*
G36*
X37190881Y52356866D02*
G01*
X37223842Y52334842D01*
X37245866Y52301881D01*
X37253600Y52263000D01*
X37253600Y51755000D01*
X37245866Y51716119D01*
X37223842Y51683158D01*
X37190881Y51661134D01*
X37152000Y51653400D01*
X36152000Y51653400D01*
X36113119Y51661134D01*
X36080158Y51683158D01*
X36058134Y51716119D01*
X36050400Y51755000D01*
X36050400Y52263000D01*
X36058134Y52301881D01*
X36080158Y52334842D01*
X36113119Y52356866D01*
X36152000Y52364600D01*
X37152000Y52364600D01*
X37190881Y52356866D01*
G37*
G36*
X46400514Y52994485D02*
G01*
X46502430Y52935644D01*
X46585644Y52852430D01*
X46644485Y52750514D01*
X46674943Y52636841D01*
X46674943Y52519159D01*
X46644485Y52405486D01*
X46585644Y52303570D01*
X46502430Y52220356D01*
X46400514Y52161515D01*
X46286841Y52131057D01*
X46169159Y52131057D01*
X46055486Y52161515D01*
X45953570Y52220356D01*
X45870356Y52303570D01*
X45811515Y52405486D01*
X45781057Y52519159D01*
X45781057Y52636841D01*
X45811515Y52750514D01*
X45870356Y52852430D01*
X45953570Y52935644D01*
X46055486Y52994485D01*
X46169159Y53024943D01*
X46286841Y53024943D01*
X46400514Y52994485D01*
G37*
G36*
X13659799Y53396081D02*
G01*
X13693539Y53373537D01*
X13716083Y53339797D01*
X13724000Y53299998D01*
X13724000Y52299998D01*
X13716083Y52260199D01*
X13693539Y52226459D01*
X13659799Y52203915D01*
X13620000Y52195998D01*
X10920000Y52195998D01*
X10880201Y52203915D01*
X10846461Y52226459D01*
X10823917Y52260199D01*
X10816000Y52299998D01*
X10816000Y53299998D01*
X10823917Y53339797D01*
X10846461Y53373537D01*
X10880201Y53396081D01*
X10920000Y53403998D01*
X13620000Y53403998D01*
X13659799Y53396081D01*
G37*
G36*
X39986034Y53288236D02*
G01*
X40019125Y53266125D01*
X40041236Y53233034D01*
X40049000Y53194000D01*
X40049000Y52394000D01*
X40041236Y52354966D01*
X40019125Y52321875D01*
X39986034Y52299764D01*
X39947000Y52292000D01*
X39047000Y52292000D01*
X39007966Y52299764D01*
X38974875Y52321875D01*
X38952764Y52354966D01*
X38945000Y52394000D01*
X38945000Y53194000D01*
X38952764Y53233034D01*
X38974875Y53266125D01*
X39007966Y53288236D01*
X39047000Y53296000D01*
X39947000Y53296000D01*
X39986034Y53288236D01*
G37*
G36*
X42272034Y53288236D02*
G01*
X42305125Y53266125D01*
X42327236Y53233034D01*
X42335000Y53194000D01*
X42335000Y52394000D01*
X42327236Y52354966D01*
X42305125Y52321875D01*
X42272034Y52299764D01*
X42233000Y52292000D01*
X41333000Y52292000D01*
X41293966Y52299764D01*
X41260875Y52321875D01*
X41238764Y52354966D01*
X41231000Y52394000D01*
X41231000Y53194000D01*
X41238764Y53233034D01*
X41260875Y53266125D01*
X41293966Y53288236D01*
X41333000Y53296000D01*
X42233000Y53296000D01*
X42272034Y53288236D01*
G37*
G36*
X33990881Y53306866D02*
G01*
X34023842Y53284842D01*
X34045866Y53251881D01*
X34053600Y53213000D01*
X34053600Y52705000D01*
X34045866Y52666119D01*
X34023842Y52633158D01*
X33990881Y52611134D01*
X33952000Y52603400D01*
X32952000Y52603400D01*
X32913119Y52611134D01*
X32880158Y52633158D01*
X32858134Y52666119D01*
X32850400Y52705000D01*
X32850400Y53213000D01*
X32858134Y53251881D01*
X32880158Y53284842D01*
X32913119Y53306866D01*
X32952000Y53314600D01*
X33952000Y53314600D01*
X33990881Y53306866D01*
G37*
G36*
X37190881Y53306866D02*
G01*
X37223842Y53284842D01*
X37245866Y53251881D01*
X37253600Y53213000D01*
X37253600Y52705000D01*
X37245866Y52666119D01*
X37223842Y52633158D01*
X37190881Y52611134D01*
X37152000Y52603400D01*
X36152000Y52603400D01*
X36113119Y52611134D01*
X36080158Y52633158D01*
X36058134Y52666119D01*
X36050400Y52705000D01*
X36050400Y53213000D01*
X36058134Y53251881D01*
X36080158Y53284842D01*
X36113119Y53306866D01*
X36152000Y53314600D01*
X37152000Y53314600D01*
X37190881Y53306866D01*
G37*
G36*
X26498634Y53872236D02*
G01*
X26531725Y53850125D01*
X26553836Y53817034D01*
X26561600Y53778000D01*
X26561600Y52978000D01*
X26553836Y52938966D01*
X26531725Y52905875D01*
X26498634Y52883764D01*
X26459600Y52876000D01*
X25559600Y52876000D01*
X25520566Y52883764D01*
X25487475Y52905875D01*
X25465364Y52938966D01*
X25457600Y52978000D01*
X25457600Y53778000D01*
X25465364Y53817034D01*
X25487475Y53850125D01*
X25520566Y53872236D01*
X25559600Y53880000D01*
X26459600Y53880000D01*
X26498634Y53872236D01*
G37*
G36*
X28708434Y53872236D02*
G01*
X28741525Y53850125D01*
X28763636Y53817034D01*
X28771400Y53778000D01*
X28771400Y52978000D01*
X28763636Y52938966D01*
X28741525Y52905875D01*
X28708434Y52883764D01*
X28669400Y52876000D01*
X27769400Y52876000D01*
X27730366Y52883764D01*
X27697275Y52905875D01*
X27675164Y52938966D01*
X27667400Y52978000D01*
X27667400Y53778000D01*
X27675164Y53817034D01*
X27697275Y53850125D01*
X27730366Y53872236D01*
X27769400Y53880000D01*
X28669400Y53880000D01*
X28708434Y53872236D01*
G37*
G36*
X30613434Y53872236D02*
G01*
X30646525Y53850125D01*
X30668636Y53817034D01*
X30676400Y53778000D01*
X30676400Y52978000D01*
X30668636Y52938966D01*
X30646525Y52905875D01*
X30613434Y52883764D01*
X30574400Y52876000D01*
X29674400Y52876000D01*
X29635366Y52883764D01*
X29602275Y52905875D01*
X29580164Y52938966D01*
X29572400Y52978000D01*
X29572400Y53778000D01*
X29580164Y53817034D01*
X29602275Y53850125D01*
X29635366Y53872236D01*
X29674400Y53880000D01*
X30574400Y53880000D01*
X30613434Y53872236D01*
G37*
G36*
X49497034Y54715236D02*
G01*
X49530125Y54693125D01*
X49552236Y54660034D01*
X49560000Y54621000D01*
X49560000Y53121000D01*
X49552236Y53081966D01*
X49530125Y53048875D01*
X49497034Y53026764D01*
X49458000Y53019000D01*
X48558000Y53019000D01*
X48518966Y53026764D01*
X48485875Y53048875D01*
X48463764Y53081966D01*
X48456000Y53121000D01*
X48456000Y54621000D01*
X48463764Y54660034D01*
X48485875Y54693125D01*
X48518966Y54715236D01*
X48558000Y54723000D01*
X49458000Y54723000D01*
X49497034Y54715236D01*
G37*
G36*
X51797034Y54715236D02*
G01*
X51830125Y54693125D01*
X51852236Y54660034D01*
X51860000Y54621000D01*
X51860000Y53121000D01*
X51852236Y53081966D01*
X51830125Y53048875D01*
X51797034Y53026764D01*
X51758000Y53019000D01*
X50858000Y53019000D01*
X50818966Y53026764D01*
X50785875Y53048875D01*
X50763764Y53081966D01*
X50756000Y53121000D01*
X50756000Y54621000D01*
X50763764Y54660034D01*
X50785875Y54693125D01*
X50818966Y54715236D01*
X50858000Y54723000D01*
X51758000Y54723000D01*
X51797034Y54715236D01*
G37*
G36*
X54097034Y54715236D02*
G01*
X54130125Y54693125D01*
X54152236Y54660034D01*
X54160000Y54621000D01*
X54160000Y53121000D01*
X54152236Y53081966D01*
X54130125Y53048875D01*
X54097034Y53026764D01*
X54058000Y53019000D01*
X53158000Y53019000D01*
X53118966Y53026764D01*
X53085875Y53048875D01*
X53063764Y53081966D01*
X53056000Y53121000D01*
X53056000Y54621000D01*
X53063764Y54660034D01*
X53085875Y54693125D01*
X53118966Y54715236D01*
X53158000Y54723000D01*
X54058000Y54723000D01*
X54097034Y54715236D01*
G37*
G36*
X33990881Y54256866D02*
G01*
X34023842Y54234842D01*
X34045866Y54201881D01*
X34053600Y54163000D01*
X34053600Y53655000D01*
X34045866Y53616119D01*
X34023842Y53583158D01*
X33990881Y53561134D01*
X33952000Y53553400D01*
X32952000Y53553400D01*
X32913119Y53561134D01*
X32880158Y53583158D01*
X32858134Y53616119D01*
X32850400Y53655000D01*
X32850400Y54163000D01*
X32858134Y54201881D01*
X32880158Y54234842D01*
X32913119Y54256866D01*
X32952000Y54264600D01*
X33952000Y54264600D01*
X33990881Y54256866D01*
G37*
G36*
X37190881Y54256866D02*
G01*
X37223842Y54234842D01*
X37245866Y54201881D01*
X37253600Y54163000D01*
X37253600Y53655000D01*
X37245866Y53616119D01*
X37223842Y53583158D01*
X37190881Y53561134D01*
X37152000Y53553400D01*
X36152000Y53553400D01*
X36113119Y53561134D01*
X36080158Y53583158D01*
X36058134Y53616119D01*
X36050400Y53655000D01*
X36050400Y54163000D01*
X36058134Y54201881D01*
X36080158Y54234842D01*
X36113119Y54256866D01*
X36152000Y54264600D01*
X37152000Y54264600D01*
X37190881Y54256866D01*
G37*
G36*
X39986034Y54888236D02*
G01*
X40019125Y54866125D01*
X40041236Y54833034D01*
X40049000Y54794000D01*
X40049000Y53994000D01*
X40041236Y53954966D01*
X40019125Y53921875D01*
X39986034Y53899764D01*
X39947000Y53892000D01*
X39047000Y53892000D01*
X39007966Y53899764D01*
X38974875Y53921875D01*
X38952764Y53954966D01*
X38945000Y53994000D01*
X38945000Y54794000D01*
X38952764Y54833034D01*
X38974875Y54866125D01*
X39007966Y54888236D01*
X39047000Y54896000D01*
X39947000Y54896000D01*
X39986034Y54888236D01*
G37*
G36*
X42272034Y54888236D02*
G01*
X42305125Y54866125D01*
X42327236Y54833034D01*
X42335000Y54794000D01*
X42335000Y53994000D01*
X42327236Y53954966D01*
X42305125Y53921875D01*
X42272034Y53899764D01*
X42233000Y53892000D01*
X41333000Y53892000D01*
X41293966Y53899764D01*
X41260875Y53921875D01*
X41238764Y53954966D01*
X41231000Y53994000D01*
X41231000Y54794000D01*
X41238764Y54833034D01*
X41260875Y54866125D01*
X41293966Y54888236D01*
X41333000Y54896000D01*
X42233000Y54896000D01*
X42272034Y54888236D01*
G37*
G36*
X17289034Y55480236D02*
G01*
X17322125Y55458125D01*
X17344236Y55425034D01*
X17352000Y55386000D01*
X17352000Y54186000D01*
X17344236Y54146966D01*
X17322125Y54113875D01*
X17289034Y54091764D01*
X17250000Y54084000D01*
X14750000Y54084000D01*
X14710966Y54091764D01*
X14677875Y54113875D01*
X14655764Y54146966D01*
X14648000Y54186000D01*
X14648000Y55386000D01*
X14655764Y55425034D01*
X14677875Y55458125D01*
X14710966Y55480236D01*
X14750000Y55488000D01*
X17250000Y55488000D01*
X17289034Y55480236D01*
G37*
G36*
X13659799Y55396080D02*
G01*
X13693539Y55373536D01*
X13716083Y55339796D01*
X13724000Y55299997D01*
X13724000Y54299997D01*
X13716083Y54260198D01*
X13693539Y54226458D01*
X13659799Y54203914D01*
X13620000Y54195997D01*
X10920000Y54195997D01*
X10880201Y54203914D01*
X10846461Y54226458D01*
X10823917Y54260198D01*
X10816000Y54299997D01*
X10816000Y55299997D01*
X10823917Y55339796D01*
X10846461Y55373536D01*
X10880201Y55396080D01*
X10920000Y55403997D01*
X13620000Y55403997D01*
X13659799Y55396080D01*
G37*
G36*
X59211034Y60806236D02*
G01*
X59244125Y60784125D01*
X59266236Y60751034D01*
X59274000Y60712000D01*
X59274000Y55112000D01*
X59266236Y55072966D01*
X59244125Y55039875D01*
X59211034Y55017764D01*
X59172000Y55010000D01*
X56872000Y55010000D01*
X56832966Y55017764D01*
X56799875Y55039875D01*
X56777764Y55072966D01*
X56770000Y55112000D01*
X56770000Y60712000D01*
X56777764Y60751034D01*
X56799875Y60784125D01*
X56832966Y60806236D01*
X56872000Y60814000D01*
X59172000Y60814000D01*
X59211034Y60806236D01*
G37*
G36*
X66611034Y60806236D02*
G01*
X66644125Y60784125D01*
X66666236Y60751034D01*
X66674000Y60712000D01*
X66674000Y55112000D01*
X66666236Y55072966D01*
X66644125Y55039875D01*
X66611034Y55017764D01*
X66572000Y55010000D01*
X64272000Y55010000D01*
X64232966Y55017764D01*
X64199875Y55039875D01*
X64177764Y55072966D01*
X64170000Y55112000D01*
X64170000Y60712000D01*
X64177764Y60751034D01*
X64199875Y60784125D01*
X64232966Y60806236D01*
X64272000Y60814000D01*
X66572000Y60814000D01*
X66611034Y60806236D01*
G37*
G36*
X34691034Y56424236D02*
G01*
X34724125Y56402125D01*
X34746236Y56369034D01*
X34754000Y56330000D01*
X34754000Y55430000D01*
X34746236Y55390966D01*
X34724125Y55357875D01*
X34691034Y55335764D01*
X34652000Y55328000D01*
X33852000Y55328000D01*
X33812966Y55335764D01*
X33779875Y55357875D01*
X33757764Y55390966D01*
X33750000Y55430000D01*
X33750000Y56330000D01*
X33757764Y56369034D01*
X33779875Y56402125D01*
X33812966Y56424236D01*
X33852000Y56432000D01*
X34652000Y56432000D01*
X34691034Y56424236D01*
G37*
G36*
X36291034Y56424236D02*
G01*
X36324125Y56402125D01*
X36346236Y56369034D01*
X36354000Y56330000D01*
X36354000Y55430000D01*
X36346236Y55390966D01*
X36324125Y55357875D01*
X36291034Y55335764D01*
X36252000Y55328000D01*
X35452000Y55328000D01*
X35412966Y55335764D01*
X35379875Y55357875D01*
X35357764Y55390966D01*
X35350000Y55430000D01*
X35350000Y56330000D01*
X35357764Y56369034D01*
X35379875Y56402125D01*
X35412966Y56424236D01*
X35452000Y56432000D01*
X36252000Y56432000D01*
X36291034Y56424236D01*
G37*
G36*
X29763514Y56550485D02*
G01*
X29865430Y56491644D01*
X29948644Y56408430D01*
X30007485Y56306514D01*
X30037943Y56192841D01*
X30037943Y56075159D01*
X30007485Y55961486D01*
X29948644Y55859570D01*
X29865430Y55776356D01*
X29763514Y55717515D01*
X29649841Y55687057D01*
X29532159Y55687057D01*
X29418486Y55717515D01*
X29316570Y55776356D01*
X29233356Y55859570D01*
X29174515Y55961486D01*
X29144057Y56075159D01*
X29144057Y56192841D01*
X29174515Y56306514D01*
X29233356Y56408430D01*
X29316570Y56491644D01*
X29418486Y56550485D01*
X29532159Y56580943D01*
X29649841Y56580943D01*
X29763514Y56550485D01*
G37*
G36*
X9871551Y58198583D02*
G01*
X9905291Y58176039D01*
X9927835Y58142299D01*
X9935752Y58102500D01*
X9935752Y56197500D01*
X9927835Y56157701D01*
X9905291Y56123961D01*
X9871551Y56101417D01*
X9831752Y56093500D01*
X5920152Y56093500D01*
X5880353Y56101417D01*
X5846613Y56123961D01*
X5824069Y56157701D01*
X5816152Y56197500D01*
X5816152Y58102500D01*
X5824069Y58142299D01*
X5846613Y58176039D01*
X5880353Y58198583D01*
X5920152Y58206500D01*
X9831752Y58206500D01*
X9871551Y58198583D01*
G37*
G36*
X11259647Y57457596D02*
G01*
X11371624Y57392946D01*
X11463052Y57301518D01*
X11527702Y57189541D01*
X11561167Y57064648D01*
X11561167Y56935348D01*
X11527702Y56810455D01*
X11463052Y56698478D01*
X11371624Y56607050D01*
X11259647Y56542400D01*
X11134754Y56508935D01*
X11005454Y56508935D01*
X10880561Y56542400D01*
X10768584Y56607050D01*
X10677156Y56698478D01*
X10612506Y56810455D01*
X10579041Y56935348D01*
X10579041Y57064648D01*
X10612506Y57189541D01*
X10677156Y57301518D01*
X10768584Y57392946D01*
X10880561Y57457596D01*
X11005454Y57491061D01*
X11134754Y57491061D01*
X11259647Y57457596D01*
G37*
G36*
X45966034Y57497236D02*
G01*
X45999125Y57475125D01*
X46021236Y57442034D01*
X46029000Y57403000D01*
X46029000Y56643000D01*
X46021236Y56603966D01*
X45999125Y56570875D01*
X45966034Y56548764D01*
X45927000Y56541000D01*
X45107000Y56541000D01*
X45067966Y56548764D01*
X45034875Y56570875D01*
X45012764Y56603966D01*
X45005000Y56643000D01*
X45005000Y57403000D01*
X45012764Y57442034D01*
X45034875Y57475125D01*
X45067966Y57497236D01*
X45107000Y57505000D01*
X45927000Y57505000D01*
X45966034Y57497236D01*
G37*
G36*
X49166034Y57497236D02*
G01*
X49199125Y57475125D01*
X49221236Y57442034D01*
X49229000Y57403000D01*
X49229000Y56643000D01*
X49221236Y56603966D01*
X49199125Y56570875D01*
X49166034Y56548764D01*
X49127000Y56541000D01*
X48307000Y56541000D01*
X48267966Y56548764D01*
X48234875Y56570875D01*
X48212764Y56603966D01*
X48205000Y56643000D01*
X48205000Y57403000D01*
X48212764Y57442034D01*
X48234875Y57475125D01*
X48267966Y57497236D01*
X48307000Y57505000D01*
X49127000Y57505000D01*
X49166034Y57497236D01*
G37*
G36*
X54327034Y58504236D02*
G01*
X54360125Y58482125D01*
X54382236Y58449034D01*
X54390000Y58410000D01*
X54390000Y56920000D01*
X54382236Y56880966D01*
X54360125Y56847875D01*
X54327034Y56825764D01*
X54288000Y56818000D01*
X50868000Y56818000D01*
X50828966Y56825764D01*
X50795875Y56847875D01*
X50773764Y56880966D01*
X50766000Y56920000D01*
X50766000Y58410000D01*
X50773764Y58449034D01*
X50795875Y58482125D01*
X50828966Y58504236D01*
X50868000Y58512000D01*
X54288000Y58512000D01*
X54327034Y58504236D01*
G37*
G36*
X34168034Y65720236D02*
G01*
X34201125Y65698125D01*
X34223236Y65665034D01*
X34231000Y65626000D01*
X34231000Y58326000D01*
X34223236Y58286966D01*
X34201125Y58253875D01*
X34168034Y58231764D01*
X34129000Y58224000D01*
X31529000Y58224000D01*
X31489966Y58231764D01*
X31456875Y58253875D01*
X31434764Y58286966D01*
X31427000Y58326000D01*
X31427000Y65626000D01*
X31434764Y65665034D01*
X31456875Y65698125D01*
X31489966Y65720236D01*
X31529000Y65728000D01*
X34129000Y65728000D01*
X34168034Y65720236D01*
G37*
G36*
X38868034Y65720236D02*
G01*
X38901125Y65698125D01*
X38923236Y65665034D01*
X38931000Y65626000D01*
X38931000Y58326000D01*
X38923236Y58286966D01*
X38901125Y58253875D01*
X38868034Y58231764D01*
X38829000Y58224000D01*
X36229000Y58224000D01*
X36189966Y58231764D01*
X36156875Y58253875D01*
X36134764Y58286966D01*
X36127000Y58326000D01*
X36127000Y65626000D01*
X36134764Y65665034D01*
X36156875Y65698125D01*
X36189966Y65720236D01*
X36229000Y65728000D01*
X38829000Y65728000D01*
X38868034Y65720236D01*
G37*
G36*
X23715440Y60735740D02*
G01*
X23724996Y60735740D01*
X23762329Y60728314D01*
X23867283Y60711692D01*
X23901043Y60700723D01*
X23927031Y60695553D01*
X23963709Y60680361D01*
X24024093Y60660740D01*
X24080654Y60631921D01*
X24117344Y60616723D01*
X24139386Y60601995D01*
X24171003Y60585885D01*
X24256962Y60523433D01*
X24288620Y60502279D01*
X24295375Y60495524D01*
X24304386Y60488977D01*
X24420976Y60372387D01*
X24427522Y60363377D01*
X24434279Y60356620D01*
X24455435Y60324958D01*
X24517884Y60239004D01*
X24533992Y60207390D01*
X24548723Y60185344D01*
X24563922Y60148650D01*
X24592739Y60092094D01*
X24612357Y60031718D01*
X24627553Y59995031D01*
X24632723Y59969039D01*
X24643691Y59935284D01*
X24660312Y59830335D01*
X24667740Y59792996D01*
X24667740Y59783441D01*
X24669482Y59772442D01*
X24669482Y59607559D01*
X24667740Y59596561D01*
X24667740Y59587004D01*
X24660312Y59549662D01*
X24643691Y59444717D01*
X24632723Y59410964D01*
X24627553Y59384969D01*
X24612355Y59348280D01*
X24592739Y59287907D01*
X24563924Y59231357D01*
X24548723Y59194656D01*
X24533990Y59172608D01*
X24517884Y59140997D01*
X24455443Y59055055D01*
X24434279Y59023380D01*
X24427519Y59016621D01*
X24420976Y59007614D01*
X24304386Y58891024D01*
X24295379Y58884481D01*
X24288620Y58877721D01*
X24256945Y58856557D01*
X24171003Y58794116D01*
X24139392Y58778010D01*
X24117344Y58763277D01*
X24080643Y58748076D01*
X24024093Y58719261D01*
X23963720Y58699645D01*
X23927031Y58684447D01*
X23901036Y58679277D01*
X23867283Y58668309D01*
X23762338Y58651688D01*
X23724996Y58644260D01*
X23715440Y58644260D01*
X23704441Y58642518D01*
X23539559Y58642518D01*
X23528560Y58644260D01*
X23519004Y58644260D01*
X23481662Y58651688D01*
X23376716Y58668309D01*
X23342961Y58679277D01*
X23316969Y58684447D01*
X23280282Y58699643D01*
X23219906Y58719261D01*
X23163350Y58748078D01*
X23126656Y58763277D01*
X23104610Y58778008D01*
X23072996Y58794116D01*
X22987042Y58856565D01*
X22955380Y58877721D01*
X22948623Y58884478D01*
X22939613Y58891024D01*
X22823023Y59007614D01*
X22816476Y59016625D01*
X22809721Y59023380D01*
X22788567Y59055038D01*
X22726115Y59140997D01*
X22710005Y59172614D01*
X22695277Y59194656D01*
X22680079Y59231346D01*
X22651260Y59287907D01*
X22631639Y59348291D01*
X22616447Y59384969D01*
X22611277Y59410957D01*
X22600308Y59444717D01*
X22583686Y59549671D01*
X22576260Y59587004D01*
X22576260Y59596560D01*
X22574518Y59607559D01*
X22574518Y59772442D01*
X22576260Y59783442D01*
X22576260Y59792996D01*
X22583685Y59830326D01*
X22600308Y59935284D01*
X22611278Y59969047D01*
X22616447Y59995031D01*
X22631638Y60031706D01*
X22651260Y60092094D01*
X22680081Y60148660D01*
X22695277Y60185344D01*
X22710003Y60207384D01*
X22726115Y60239004D01*
X22788576Y60324975D01*
X22809721Y60356620D01*
X22816473Y60363373D01*
X22823023Y60372387D01*
X22939613Y60488977D01*
X22948627Y60495527D01*
X22955380Y60502279D01*
X22987025Y60523424D01*
X23072996Y60585885D01*
X23104616Y60601997D01*
X23126656Y60616723D01*
X23163340Y60631919D01*
X23219906Y60660740D01*
X23280294Y60680362D01*
X23316969Y60695553D01*
X23342953Y60700722D01*
X23376716Y60711692D01*
X23481671Y60728315D01*
X23519004Y60735740D01*
X23528560Y60735740D01*
X23539559Y60737482D01*
X23704441Y60737482D01*
X23715440Y60735740D01*
G37*
G36*
X42257440Y61116740D02*
G01*
X42266996Y61116740D01*
X42304329Y61109314D01*
X42409283Y61092692D01*
X42443043Y61081723D01*
X42469031Y61076553D01*
X42505709Y61061361D01*
X42566093Y61041740D01*
X42622654Y61012921D01*
X42659344Y60997723D01*
X42681386Y60982995D01*
X42713003Y60966885D01*
X42798962Y60904433D01*
X42830620Y60883279D01*
X42837375Y60876524D01*
X42846386Y60869977D01*
X42962976Y60753387D01*
X42969522Y60744377D01*
X42976279Y60737620D01*
X42997435Y60705958D01*
X43059884Y60620004D01*
X43075992Y60588390D01*
X43090723Y60566344D01*
X43105922Y60529650D01*
X43134739Y60473094D01*
X43154357Y60412718D01*
X43169553Y60376031D01*
X43174723Y60350039D01*
X43185691Y60316284D01*
X43202312Y60211335D01*
X43209740Y60173996D01*
X43209740Y60164441D01*
X43211482Y60153442D01*
X43211482Y59988559D01*
X43209740Y59977561D01*
X43209740Y59968004D01*
X43202312Y59930662D01*
X43185691Y59825717D01*
X43174723Y59791964D01*
X43169553Y59765969D01*
X43154355Y59729280D01*
X43134739Y59668907D01*
X43105924Y59612357D01*
X43090723Y59575656D01*
X43075990Y59553608D01*
X43059884Y59521997D01*
X42997443Y59436055D01*
X42976279Y59404380D01*
X42969519Y59397621D01*
X42962976Y59388614D01*
X42846386Y59272024D01*
X42837379Y59265481D01*
X42830620Y59258721D01*
X42798945Y59237557D01*
X42713003Y59175116D01*
X42681392Y59159010D01*
X42659344Y59144277D01*
X42622643Y59129076D01*
X42566093Y59100261D01*
X42505720Y59080645D01*
X42469031Y59065447D01*
X42443036Y59060277D01*
X42409283Y59049309D01*
X42304338Y59032688D01*
X42266996Y59025260D01*
X42257440Y59025260D01*
X42246441Y59023518D01*
X42081559Y59023518D01*
X42070560Y59025260D01*
X42061004Y59025260D01*
X42023662Y59032688D01*
X41918716Y59049309D01*
X41884961Y59060277D01*
X41858969Y59065447D01*
X41822282Y59080643D01*
X41761906Y59100261D01*
X41705350Y59129078D01*
X41668656Y59144277D01*
X41646610Y59159008D01*
X41614996Y59175116D01*
X41529042Y59237565D01*
X41497380Y59258721D01*
X41490623Y59265478D01*
X41481613Y59272024D01*
X41365023Y59388614D01*
X41358476Y59397625D01*
X41351721Y59404380D01*
X41330567Y59436038D01*
X41268115Y59521997D01*
X41252005Y59553614D01*
X41237277Y59575656D01*
X41222079Y59612346D01*
X41193260Y59668907D01*
X41173639Y59729291D01*
X41158447Y59765969D01*
X41153277Y59791957D01*
X41142308Y59825717D01*
X41125686Y59930671D01*
X41118260Y59968004D01*
X41118260Y59977560D01*
X41116518Y59988559D01*
X41116518Y60153442D01*
X41118260Y60164442D01*
X41118260Y60173996D01*
X41125685Y60211326D01*
X41142308Y60316284D01*
X41153278Y60350047D01*
X41158447Y60376031D01*
X41173638Y60412706D01*
X41193260Y60473094D01*
X41222081Y60529660D01*
X41237277Y60566344D01*
X41252003Y60588384D01*
X41268115Y60620004D01*
X41330576Y60705975D01*
X41351721Y60737620D01*
X41358473Y60744373D01*
X41365023Y60753387D01*
X41481613Y60869977D01*
X41490627Y60876527D01*
X41497380Y60883279D01*
X41529025Y60904424D01*
X41614996Y60966885D01*
X41646616Y60982997D01*
X41668656Y60997723D01*
X41705340Y61012919D01*
X41761906Y61041740D01*
X41822294Y61061362D01*
X41858969Y61076553D01*
X41884953Y61081722D01*
X41918716Y61092692D01*
X42023671Y61109315D01*
X42061004Y61116740D01*
X42070560Y61116740D01*
X42081559Y61118482D01*
X42246441Y61118482D01*
X42257440Y61116740D01*
G37*
G36*
X27071034Y60234236D02*
G01*
X27104125Y60212125D01*
X27126236Y60179034D01*
X27134000Y60140000D01*
X27134000Y59240000D01*
X27126236Y59200966D01*
X27104125Y59167875D01*
X27071034Y59145764D01*
X27032000Y59138000D01*
X26232000Y59138000D01*
X26192966Y59145764D01*
X26159875Y59167875D01*
X26137764Y59200966D01*
X26130000Y59240000D01*
X26130000Y60140000D01*
X26137764Y60179034D01*
X26159875Y60212125D01*
X26192966Y60234236D01*
X26232000Y60242000D01*
X27032000Y60242000D01*
X27071034Y60234236D01*
G37*
G36*
X28671034Y60234236D02*
G01*
X28704125Y60212125D01*
X28726236Y60179034D01*
X28734000Y60140000D01*
X28734000Y59240000D01*
X28726236Y59200966D01*
X28704125Y59167875D01*
X28671034Y59145764D01*
X28632000Y59138000D01*
X27832000Y59138000D01*
X27792966Y59145764D01*
X27759875Y59167875D01*
X27737764Y59200966D01*
X27730000Y59240000D01*
X27730000Y60140000D01*
X27737764Y60179034D01*
X27759875Y60212125D01*
X27792966Y60234236D01*
X27832000Y60242000D01*
X28632000Y60242000D01*
X28671034Y60234236D01*
G37*
G36*
X49257034Y60273236D02*
G01*
X49290125Y60251125D01*
X49312236Y60218034D01*
X49320000Y60179000D01*
X49320000Y59379000D01*
X49312236Y59339966D01*
X49290125Y59306875D01*
X49257034Y59284764D01*
X49218000Y59277000D01*
X48318000Y59277000D01*
X48278966Y59284764D01*
X48245875Y59306875D01*
X48223764Y59339966D01*
X48216000Y59379000D01*
X48216000Y60179000D01*
X48223764Y60218034D01*
X48245875Y60251125D01*
X48278966Y60273236D01*
X48318000Y60281000D01*
X49218000Y60281000D01*
X49257034Y60273236D01*
G37*
G36*
X46686034Y60843236D02*
G01*
X46719125Y60821125D01*
X46741236Y60788034D01*
X46749000Y60749000D01*
X46749000Y59749000D01*
X46741236Y59709966D01*
X46719125Y59676875D01*
X46686034Y59654764D01*
X46647000Y59647000D01*
X45047000Y59647000D01*
X45007966Y59654764D01*
X44974875Y59676875D01*
X44952764Y59709966D01*
X44945000Y59749000D01*
X44945000Y60749000D01*
X44952764Y60788034D01*
X44974875Y60821125D01*
X45007966Y60843236D01*
X45047000Y60851000D01*
X46647000Y60851000D01*
X46686034Y60843236D01*
G37*
G36*
X49257034Y61873236D02*
G01*
X49290125Y61851125D01*
X49312236Y61818034D01*
X49320000Y61779000D01*
X49320000Y60979000D01*
X49312236Y60939966D01*
X49290125Y60906875D01*
X49257034Y60884764D01*
X49218000Y60877000D01*
X48318000Y60877000D01*
X48278966Y60884764D01*
X48245875Y60906875D01*
X48223764Y60939966D01*
X48216000Y60979000D01*
X48216000Y61779000D01*
X48223764Y61818034D01*
X48245875Y61851125D01*
X48278966Y61873236D01*
X48318000Y61881000D01*
X49218000Y61881000D01*
X49257034Y61873236D01*
G37*
G36*
X54327034Y64332236D02*
G01*
X54360125Y64310125D01*
X54382236Y64277034D01*
X54390000Y64238000D01*
X54390000Y62748000D01*
X54382236Y62708966D01*
X54360125Y62675875D01*
X54327034Y62653764D01*
X54288000Y62646000D01*
X50868000Y62646000D01*
X50828966Y62653764D01*
X50795875Y62675875D01*
X50773764Y62708966D01*
X50766000Y62748000D01*
X50766000Y64238000D01*
X50773764Y64277034D01*
X50795875Y64310125D01*
X50828966Y64332236D01*
X50868000Y64340000D01*
X54288000Y64340000D01*
X54327034Y64332236D01*
G37*
G36*
X46686034Y64043236D02*
G01*
X46719125Y64021125D01*
X46741236Y63988034D01*
X46749000Y63949000D01*
X46749000Y62949000D01*
X46741236Y62909966D01*
X46719125Y62876875D01*
X46686034Y62854764D01*
X46647000Y62847000D01*
X45047000Y62847000D01*
X45007966Y62854764D01*
X44974875Y62876875D01*
X44952764Y62909966D01*
X44945000Y62949000D01*
X44945000Y63949000D01*
X44952764Y63988034D01*
X44974875Y64021125D01*
X45007966Y64043236D01*
X45047000Y64051000D01*
X46647000Y64051000D01*
X46686034Y64043236D01*
G37*
G36*
X5421876Y66638728D02*
G01*
X5643291Y66579400D01*
X5855067Y66491680D01*
X6053581Y66377067D01*
X6235438Y66237524D01*
X6397524Y66075438D01*
X6537067Y65893581D01*
X6651680Y65695067D01*
X6739400Y65483291D01*
X6798728Y65261876D01*
X6828648Y65034612D01*
X6828648Y64805388D01*
X6798728Y64578124D01*
X6739400Y64356709D01*
X6651680Y64144933D01*
X6537067Y63946419D01*
X6397524Y63764562D01*
X6235438Y63602476D01*
X6053581Y63462933D01*
X5855067Y63348320D01*
X5643291Y63260600D01*
X5421876Y63201272D01*
X5194612Y63171352D01*
X4965388Y63171352D01*
X4738124Y63201272D01*
X4516709Y63260600D01*
X4304933Y63348320D01*
X4106419Y63462933D01*
X3924562Y63602476D01*
X3762476Y63764562D01*
X3622933Y63946419D01*
X3508320Y64144933D01*
X3420600Y64356709D01*
X3361272Y64578124D01*
X3331352Y64805388D01*
X3331352Y65034612D01*
X3361272Y65261876D01*
X3420600Y65483291D01*
X3508320Y65695067D01*
X3622933Y65893581D01*
X3762476Y66075438D01*
X3924562Y66237524D01*
X4106419Y66377067D01*
X4304933Y66491680D01*
X4516709Y66579400D01*
X4738124Y66638728D01*
X4965388Y66668648D01*
X5194612Y66668648D01*
X5421876Y66638728D01*
G37*
G36*
X75261876Y66638728D02*
G01*
X75483291Y66579400D01*
X75695067Y66491680D01*
X75893581Y66377067D01*
X76075438Y66237524D01*
X76237524Y66075438D01*
X76377067Y65893581D01*
X76491680Y65695067D01*
X76579400Y65483291D01*
X76638728Y65261876D01*
X76668648Y65034612D01*
X76668648Y64805388D01*
X76638728Y64578124D01*
X76579400Y64356709D01*
X76491680Y64144933D01*
X76377067Y63946419D01*
X76237524Y63764562D01*
X76075438Y63602476D01*
X75893581Y63462933D01*
X75695067Y63348320D01*
X75483291Y63260600D01*
X75261876Y63201272D01*
X75034612Y63171352D01*
X74805388Y63171352D01*
X74578124Y63201272D01*
X74356709Y63260600D01*
X74144933Y63348320D01*
X73946419Y63462933D01*
X73764562Y63602476D01*
X73602476Y63764562D01*
X73462933Y63946419D01*
X73348320Y64144933D01*
X73260600Y64356709D01*
X73201272Y64578124D01*
X73171352Y64805388D01*
X73171352Y65034612D01*
X73201272Y65261876D01*
X73260600Y65483291D01*
X73348320Y65695067D01*
X73462933Y65893581D01*
X73602476Y66075438D01*
X73764562Y66237524D01*
X73946419Y66377067D01*
X74144933Y66491680D01*
X74356709Y66579400D01*
X74578124Y66638728D01*
X74805388Y66668648D01*
X75034612Y66668648D01*
X75261876Y66638728D01*
G37*
G36*
X27071034Y64679236D02*
G01*
X27104125Y64657125D01*
X27126236Y64624034D01*
X27134000Y64585000D01*
X27134000Y63685000D01*
X27126236Y63645966D01*
X27104125Y63612875D01*
X27071034Y63590764D01*
X27032000Y63583000D01*
X26232000Y63583000D01*
X26192966Y63590764D01*
X26159875Y63612875D01*
X26137764Y63645966D01*
X26130000Y63685000D01*
X26130000Y64585000D01*
X26137764Y64624034D01*
X26159875Y64657125D01*
X26192966Y64679236D01*
X26232000Y64687000D01*
X27032000Y64687000D01*
X27071034Y64679236D01*
G37*
G36*
X28671034Y64679236D02*
G01*
X28704125Y64657125D01*
X28726236Y64624034D01*
X28734000Y64585000D01*
X28734000Y63685000D01*
X28726236Y63645966D01*
X28704125Y63612875D01*
X28671034Y63590764D01*
X28632000Y63583000D01*
X27832000Y63583000D01*
X27792966Y63590764D01*
X27759875Y63612875D01*
X27737764Y63645966D01*
X27730000Y63685000D01*
X27730000Y64585000D01*
X27737764Y64624034D01*
X27759875Y64657125D01*
X27792966Y64679236D01*
X27832000Y64687000D01*
X28632000Y64687000D01*
X28671034Y64679236D01*
G37*
G36*
X23455058Y64604591D02*
G01*
X23513888Y64597766D01*
X23533990Y64588890D01*
X23556325Y64584447D01*
X23580236Y64568471D01*
X23605337Y64557387D01*
X23622480Y64540244D01*
X23643919Y64525919D01*
X23658243Y64504481D01*
X23675386Y64487338D01*
X23686468Y64462239D01*
X23702447Y64438325D01*
X23706890Y64415989D01*
X23715765Y64395889D01*
X23722588Y64337071D01*
X23723000Y64335000D01*
X23723000Y63935000D01*
X23722588Y63932930D01*
X23715765Y63874112D01*
X23706890Y63854014D01*
X23702447Y63831675D01*
X23686467Y63807760D01*
X23675386Y63782663D01*
X23658245Y63765523D01*
X23643919Y63744081D01*
X23622477Y63729755D01*
X23605337Y63712614D01*
X23580240Y63701533D01*
X23556325Y63685553D01*
X23533986Y63681110D01*
X23513888Y63672235D01*
X23455071Y63665413D01*
X23453000Y63665000D01*
X23053000Y63665000D01*
X23050931Y63665412D01*
X22992111Y63672235D01*
X22972011Y63681110D01*
X22949675Y63685553D01*
X22925761Y63701532D01*
X22900662Y63712614D01*
X22883519Y63729757D01*
X22862081Y63744081D01*
X22847756Y63765520D01*
X22830613Y63782663D01*
X22819529Y63807764D01*
X22803553Y63831675D01*
X22799110Y63854010D01*
X22790234Y63874112D01*
X22783409Y63932941D01*
X22783000Y63935000D01*
X22783000Y64335000D01*
X22783409Y64337057D01*
X22790234Y64395889D01*
X22799110Y64415993D01*
X22803553Y64438325D01*
X22819528Y64462235D01*
X22830613Y64487338D01*
X22847758Y64504484D01*
X22862081Y64525919D01*
X22883516Y64540242D01*
X22900662Y64557387D01*
X22925765Y64568472D01*
X22949675Y64584447D01*
X22972007Y64588890D01*
X22992111Y64597766D01*
X23050941Y64604591D01*
X23053000Y64605000D01*
X23453000Y64605000D01*
X23455058Y64604591D01*
G37*
G36*
X24955058Y64604591D02*
G01*
X25013888Y64597766D01*
X25033990Y64588890D01*
X25056325Y64584447D01*
X25080236Y64568471D01*
X25105337Y64557387D01*
X25122480Y64540244D01*
X25143919Y64525919D01*
X25158243Y64504481D01*
X25175386Y64487338D01*
X25186468Y64462239D01*
X25202447Y64438325D01*
X25206890Y64415989D01*
X25215765Y64395889D01*
X25222588Y64337071D01*
X25223000Y64335000D01*
X25223000Y63935000D01*
X25222588Y63932930D01*
X25215765Y63874112D01*
X25206890Y63854014D01*
X25202447Y63831675D01*
X25186467Y63807760D01*
X25175386Y63782663D01*
X25158245Y63765523D01*
X25143919Y63744081D01*
X25122477Y63729755D01*
X25105337Y63712614D01*
X25080240Y63701533D01*
X25056325Y63685553D01*
X25033986Y63681110D01*
X25013888Y63672235D01*
X24955071Y63665413D01*
X24953000Y63665000D01*
X24553000Y63665000D01*
X24550931Y63665412D01*
X24492111Y63672235D01*
X24472011Y63681110D01*
X24449675Y63685553D01*
X24425761Y63701532D01*
X24400662Y63712614D01*
X24383519Y63729757D01*
X24362081Y63744081D01*
X24347756Y63765520D01*
X24330613Y63782663D01*
X24319529Y63807764D01*
X24303553Y63831675D01*
X24299110Y63854010D01*
X24290234Y63874112D01*
X24283409Y63932941D01*
X24283000Y63935000D01*
X24283000Y64335000D01*
X24283409Y64337057D01*
X24290234Y64395889D01*
X24299110Y64415993D01*
X24303553Y64438325D01*
X24319528Y64462235D01*
X24330613Y64487338D01*
X24347758Y64504484D01*
X24362081Y64525919D01*
X24383516Y64540242D01*
X24400662Y64557387D01*
X24425765Y64568472D01*
X24449675Y64584447D01*
X24472007Y64588890D01*
X24492111Y64597766D01*
X24550941Y64604591D01*
X24553000Y64605000D01*
X24953000Y64605000D01*
X24955058Y64604591D01*
G37*
G36*
X48093058Y64604591D02*
G01*
X48151888Y64597766D01*
X48171990Y64588890D01*
X48194325Y64584447D01*
X48218236Y64568471D01*
X48243337Y64557387D01*
X48260480Y64540244D01*
X48281919Y64525919D01*
X48296243Y64504481D01*
X48313386Y64487338D01*
X48324468Y64462239D01*
X48340447Y64438325D01*
X48344890Y64415989D01*
X48353765Y64395889D01*
X48360588Y64337071D01*
X48361000Y64335000D01*
X48361000Y63935000D01*
X48360588Y63932930D01*
X48353765Y63874112D01*
X48344890Y63854014D01*
X48340447Y63831675D01*
X48324467Y63807760D01*
X48313386Y63782663D01*
X48296245Y63765523D01*
X48281919Y63744081D01*
X48260477Y63729755D01*
X48243337Y63712614D01*
X48218240Y63701533D01*
X48194325Y63685553D01*
X48171986Y63681110D01*
X48151888Y63672235D01*
X48093071Y63665413D01*
X48091000Y63665000D01*
X47691000Y63665000D01*
X47688931Y63665412D01*
X47630111Y63672235D01*
X47610011Y63681110D01*
X47587675Y63685553D01*
X47563761Y63701532D01*
X47538662Y63712614D01*
X47521519Y63729757D01*
X47500081Y63744081D01*
X47485756Y63765520D01*
X47468613Y63782663D01*
X47457529Y63807764D01*
X47441553Y63831675D01*
X47437110Y63854010D01*
X47428234Y63874112D01*
X47421409Y63932941D01*
X47421000Y63935000D01*
X47421000Y64335000D01*
X47421409Y64337057D01*
X47428234Y64395889D01*
X47437110Y64415993D01*
X47441553Y64438325D01*
X47457528Y64462235D01*
X47468613Y64487338D01*
X47485758Y64504484D01*
X47500081Y64525919D01*
X47521516Y64540242D01*
X47538662Y64557387D01*
X47563765Y64568472D01*
X47587675Y64584447D01*
X47610007Y64588890D01*
X47630111Y64597766D01*
X47688941Y64604591D01*
X47691000Y64605000D01*
X48091000Y64605000D01*
X48093058Y64604591D01*
G37*
G36*
X49593058Y64604591D02*
G01*
X49651888Y64597766D01*
X49671990Y64588890D01*
X49694325Y64584447D01*
X49718236Y64568471D01*
X49743337Y64557387D01*
X49760480Y64540244D01*
X49781919Y64525919D01*
X49796243Y64504481D01*
X49813386Y64487338D01*
X49824468Y64462239D01*
X49840447Y64438325D01*
X49844890Y64415989D01*
X49853765Y64395889D01*
X49860588Y64337071D01*
X49861000Y64335000D01*
X49861000Y63935000D01*
X49860588Y63932930D01*
X49853765Y63874112D01*
X49844890Y63854014D01*
X49840447Y63831675D01*
X49824467Y63807760D01*
X49813386Y63782663D01*
X49796245Y63765523D01*
X49781919Y63744081D01*
X49760477Y63729755D01*
X49743337Y63712614D01*
X49718240Y63701533D01*
X49694325Y63685553D01*
X49671986Y63681110D01*
X49651888Y63672235D01*
X49593071Y63665413D01*
X49591000Y63665000D01*
X49191000Y63665000D01*
X49188931Y63665412D01*
X49130111Y63672235D01*
X49110011Y63681110D01*
X49087675Y63685553D01*
X49063761Y63701532D01*
X49038662Y63712614D01*
X49021519Y63729757D01*
X49000081Y63744081D01*
X48985756Y63765520D01*
X48968613Y63782663D01*
X48957529Y63807764D01*
X48941553Y63831675D01*
X48937110Y63854010D01*
X48928234Y63874112D01*
X48921409Y63932941D01*
X48921000Y63935000D01*
X48921000Y64335000D01*
X48921409Y64337057D01*
X48928234Y64395889D01*
X48937110Y64415993D01*
X48941553Y64438325D01*
X48957528Y64462235D01*
X48968613Y64487338D01*
X48985758Y64504484D01*
X49000081Y64525919D01*
X49021516Y64540242D01*
X49038662Y64557387D01*
X49063765Y64568472D01*
X49087675Y64584447D01*
X49110007Y64588890D01*
X49130111Y64597766D01*
X49188941Y64604591D01*
X49191000Y64605000D01*
X49591000Y64605000D01*
X49593058Y64604591D01*
G37*
M02*
