%TF.GenerationSoftware,KiCad,Pcbnew,10.0.4*%
%TF.CreationDate,2026-08-16T22:45:16-03:00*%
%TF.ProjectId,pcb_0222,7063625f-3032-4323-922e-6b696361645f,rev?*%
%TF.SameCoordinates,PX6cb6cf8PY8381870*%
%TF.FileFunction,Copper,L2,Bot*%
%TF.FilePolarity,Positive*%
%FSLAX46Y46*%
G04 Gerber Fmt 4.6, Leading zero omitted, Abs format (unit mm)*
G04 Created by KiCad (PCBNEW 10.0.4) date 2026-08-16 22:45:16*
%MOMM*%
%LPD*%
G01*
G04 APERTURE LIST*
%TA.AperFunction,ComponentPad*%
%ADD10R,1.725000X1.725000*%
%TD*%
%TA.AperFunction,ComponentPad*%
%ADD11C,1.725000*%
%TD*%
%TA.AperFunction,ComponentPad*%
%ADD12R,1.650000X1.650000*%
%TD*%
%TA.AperFunction,ComponentPad*%
%ADD13C,1.650000*%
%TD*%
%TA.AperFunction,ComponentPad*%
%ADD14C,2.900000*%
%TD*%
%TA.AperFunction,ViaPad*%
%ADD15C,0.609600*%
%TD*%
%TA.AperFunction,Conductor*%
%ADD16C,0.200000*%
%TD*%
%TA.AperFunction,Conductor*%
%ADD17C,0.381000*%
%TD*%
%TA.AperFunction,Conductor*%
%ADD18C,0.254000*%
%TD*%
G04 APERTURE END LIST*
D10*
%TO.P,J9,1,1_1*%
%TO.N,+3V3*%
X56896000Y7620000D03*
D11*
%TO.P,J9,2,2_2*%
%TO.N,Net-(J9-Pad2)*%
X56896000Y10160000D03*
%TO.P,J9,3,3_3*%
%TO.N,Net-(J9-Pad3)*%
X56896000Y12700000D03*
%TO.P,J9,4,4_4*%
%TO.N,GND*%
X56896000Y15240000D03*
%TD*%
D12*
%TO.P,J8,1,1_1*%
%TO.N,+3V3*%
X37338000Y6096000D03*
D13*
%TO.P,J8,2,2_2*%
%TO.N,/SWCLK*%
X34798000Y6096000D03*
%TD*%
D10*
%TO.P,J7,1,1_1*%
%TO.N,+3V3*%
X56896000Y19939000D03*
D11*
%TO.P,J7,2,2_2*%
%TO.N,Net-(J7-Pad2)*%
X56896000Y22479000D03*
%TO.P,J7,3,3_3*%
%TO.N,Net-(J7-Pad3)*%
X56896000Y25019000D03*
%TO.P,J7,4,4_4*%
%TO.N,GND*%
X56896000Y27559000D03*
%TD*%
D14*
%TO.P,J1,1*%
%TO.N,GND*%
X63830200Y45847000D03*
%TO.P,J1,2*%
%TO.N,VB*%
X63830200Y49807001D03*
%TD*%
D15*
%TO.N,+3V3*%
X59182000Y12573000D03*
X21209000Y10287000D03*
X23368000Y10236200D03*
X47701200Y35306000D03*
X59182000Y25400000D03*
X22225000Y10287000D03*
X54254400Y8229600D03*
X47701200Y40132000D03*
X35179000Y42545000D03*
X54229000Y14605000D03*
X36068000Y42545000D03*
X49530000Y23723600D03*
X49930000Y11430000D03*
X59182000Y16510000D03*
X29210000Y26162000D03*
X37211000Y3683000D03*
X36100000Y43400000D03*
X35200000Y43400000D03*
X38608000Y3683000D03*
X29210000Y27051000D03*
X27051000Y27051000D03*
X49530000Y29311600D03*
%TO.N,GND*%
X63500000Y38100000D03*
X66675000Y10160000D03*
X14478000Y10160000D03*
X64770000Y26670000D03*
X69215000Y41910000D03*
X73660000Y28575000D03*
X17145000Y34290000D03*
X69215000Y40640000D03*
X74930000Y46990000D03*
X73660000Y49530000D03*
X66040000Y66040000D03*
X73660000Y41910000D03*
X43180000Y57150000D03*
X62230000Y40640000D03*
X40132000Y45466000D03*
X64770000Y27940000D03*
X12700000Y64770000D03*
X39370000Y33655000D03*
X69215000Y28575000D03*
X74930000Y49530000D03*
X35153600Y50647600D03*
X55118000Y35929000D03*
X43180000Y66040000D03*
X17780000Y62230000D03*
X41402000Y45466000D03*
X69215000Y10160000D03*
X69215000Y5080000D03*
X24434800Y49276000D03*
X35153600Y49377600D03*
X67945000Y41910000D03*
X11430000Y34290000D03*
X69215000Y7620000D03*
X39370000Y34925000D03*
X73660000Y10160000D03*
X52070000Y17780000D03*
X72390000Y55880000D03*
X17780000Y63500000D03*
X64770000Y40640000D03*
X14478000Y11684000D03*
X31648400Y53136800D03*
X17145000Y33020000D03*
X10160000Y62230000D03*
X10160000Y63500000D03*
X69215000Y12700000D03*
X25400000Y19050000D03*
X67310000Y66040000D03*
X17145000Y35560000D03*
X72390000Y41910000D03*
X59690000Y63500000D03*
X15240000Y64770000D03*
X15240000Y4064000D03*
X17780000Y64770000D03*
X50800000Y66040000D03*
X16256000Y10160000D03*
X74930000Y55880000D03*
X4318000Y9144000D03*
X73660000Y12700000D03*
X74930000Y58420000D03*
X24434800Y50546000D03*
X73660000Y46990000D03*
X41910000Y57150000D03*
X67945000Y7620000D03*
X42672000Y45466000D03*
X8890000Y34290000D03*
X32385000Y18415000D03*
X12700000Y62230000D03*
X67945000Y5080000D03*
X64770000Y66040000D03*
X52070000Y66040000D03*
X67945000Y12700000D03*
X15240000Y62230000D03*
X60960000Y5080000D03*
X66675000Y7620000D03*
X10160000Y4064000D03*
X74930000Y12700000D03*
X51435000Y26670000D03*
X33655000Y18415000D03*
X50800000Y20320000D03*
X66675000Y26670000D03*
X46380400Y43027600D03*
X11430000Y33020000D03*
X67310000Y63500000D03*
X24434800Y51816000D03*
X31115000Y19685000D03*
X45085000Y43078400D03*
X16256000Y11684000D03*
X48895000Y43180000D03*
X25400000Y20320000D03*
X66040000Y63500000D03*
X66675000Y12700000D03*
X67945000Y10160000D03*
X14605000Y35560000D03*
X52705000Y26670000D03*
X11430000Y35560000D03*
X6604000Y9144000D03*
X52070000Y20320000D03*
X53340000Y66040000D03*
X58420000Y63500000D03*
X64770000Y63500000D03*
X17780000Y10160000D03*
X41910000Y63500000D03*
X52705000Y43180000D03*
X8890000Y35560000D03*
X15240000Y63500000D03*
X41910000Y66040000D03*
X72390000Y49530000D03*
X53975000Y26670000D03*
X53848000Y35929000D03*
X17780000Y4064000D03*
X53975000Y43180000D03*
X46355000Y44450000D03*
X73660000Y58420000D03*
X14605000Y33020000D03*
X74930000Y10160000D03*
X32385000Y19685000D03*
X72390000Y10160000D03*
X63500000Y5080000D03*
X72390000Y12700000D03*
X73660000Y55880000D03*
X10160000Y64770000D03*
X14605000Y34290000D03*
X67945000Y28575000D03*
X45085000Y44450000D03*
X58420000Y66040000D03*
X12700000Y4064000D03*
X59690000Y66040000D03*
X34391600Y45364400D03*
X12700000Y63500000D03*
X50165000Y43180000D03*
X74930000Y28575000D03*
X62230000Y38100000D03*
X62230000Y5080000D03*
X50800000Y17780000D03*
X66675000Y27940000D03*
X66675000Y5080000D03*
X67945000Y40640000D03*
X17780000Y11684000D03*
X8890000Y33020000D03*
X72390000Y46990000D03*
X72390000Y58420000D03*
X64770000Y38100000D03*
X43180000Y63500000D03*
X63500000Y40640000D03*
X57150000Y66040000D03*
X57150000Y63500000D03*
%TO.N,/MCU_DIP1*%
X42214800Y8763000D03*
X35864800Y26365200D03*
%TO.N,/MCU_SW1*%
X34544000Y30784800D03*
X34505599Y22701200D03*
X62128400Y32004000D03*
X47548800Y30784800D03*
%TO.N,/SCL1*%
X48385361Y29439258D03*
X48412400Y12344400D03*
%TO.N,VB_IP*%
X45974000Y47625000D03*
X46736000Y46863000D03*
X45212000Y46863000D03*
X19558000Y46863000D03*
X45974000Y46863000D03*
X19558000Y47625000D03*
X45212000Y47625000D03*
X46736000Y47625000D03*
X20320000Y47625000D03*
X18796000Y47625000D03*
X18796000Y46863000D03*
X20320000Y46863000D03*
%TO.N,/MCU_SW2*%
X63957200Y18948400D03*
X35333448Y28965600D03*
X52628800Y28295600D03*
X33477200Y22064002D03*
%TO.N,/MCU_LED*%
X33826400Y30073600D03*
X33832569Y23372002D03*
X42062400Y39217600D03*
X41046400Y30118000D03*
%TO.N,/NRST*%
X31496000Y17246600D03*
X29262000Y18770600D03*
X31496000Y10795000D03*
X29210000Y22606000D03*
%TO.N,/MCU_RELAY*%
X30454600Y31699200D03*
X33172400Y24018002D03*
%TO.N,/MCU_BCD0*%
X57658000Y42214800D03*
X44450000Y22047200D03*
X44500800Y42164000D03*
%TO.N,/MCU_BCD1*%
X43637200Y37185600D03*
X43637200Y22701200D03*
%TO.N,/MCU_BCD2*%
X42824400Y23418800D03*
X42926000Y36118800D03*
%TO.N,/MCU_BCD3*%
X42011600Y33477200D03*
X46075600Y34550400D03*
X57658000Y34594800D03*
X42011600Y24022000D03*
%TO.N,/MCU_TEST*%
X45516800Y24638000D03*
X45516800Y19964400D03*
%TO.N,/SWDIO*%
X41103600Y26614000D03*
X39217600Y11582400D03*
%TO.N,/SWCLK*%
X34747200Y8178800D03*
X39123531Y9741600D03*
X45466000Y27190000D03*
%TO.N,/SDA1*%
X47040800Y27940000D03*
X47142400Y10515600D03*
%TO.N,Net-(J5-SWDIO)*%
X30226000Y15748000D03*
X23672800Y15748000D03*
%TO.N,Net-(J5-SWCLK)*%
X32766000Y6350000D03*
X26924000Y6350000D03*
%TD*%
%TO.N,+3V3*%
D16*
X59182000Y25400000D02*
X59182000Y23876000D01*
X47701200Y35306000D02*
X47701200Y40132000D01*
X49530000Y23723600D02*
X49530000Y29311600D01*
%TO.N,/MCU_DIP1*%
X41986200Y8763000D02*
X41859200Y8636000D01*
X38354000Y8636000D02*
X37973000Y9017000D01*
X35864800Y13766800D02*
X35864800Y26365200D01*
X36169600Y13462000D02*
X35864800Y13766800D01*
X37973000Y9017000D02*
X37973000Y13081000D01*
X42214800Y8763000D02*
X41986200Y8763000D01*
X37973000Y13081000D02*
X37592000Y13462000D01*
X41859200Y8636000D02*
X38354000Y8636000D01*
X37592000Y13462000D02*
X36169600Y13462000D01*
%TO.N,/MCU_SW1*%
X47548800Y30784800D02*
X48768000Y32004000D01*
X34544000Y30784800D02*
X34544000Y22739601D01*
X34544000Y22739601D02*
X34505599Y22701200D01*
X48768000Y32004000D02*
X62128400Y32004000D01*
%TO.N,/SCL1*%
X48385361Y29439258D02*
X48385361Y29287839D01*
X48412400Y29260800D02*
X48412400Y12344400D01*
X48385361Y29287839D02*
X48412400Y29260800D01*
%TO.N,/MCU_SW2*%
X54914800Y29819600D02*
X63500000Y29819600D01*
X35204400Y22352000D02*
X34899600Y22047200D01*
X33477200Y22064002D02*
X33602167Y22064002D01*
X34899600Y22047200D02*
X33494002Y22047200D01*
X33602167Y22064002D02*
X33606168Y22068003D01*
X63500000Y29819600D02*
X63957200Y29362400D01*
X35204400Y28143200D02*
X35204400Y22352000D01*
X52628800Y28295600D02*
X53390800Y28295600D01*
X35306000Y28938152D02*
X35306000Y28244800D01*
X33494002Y22047200D02*
X33477200Y22064002D01*
X35333448Y28965600D02*
X35306000Y28938152D01*
X63957200Y29362400D02*
X63957200Y18948400D01*
X53390800Y28295600D02*
X54914800Y29819600D01*
X35306000Y28244800D02*
X35204400Y28143200D01*
%TO.N,/MCU_LED*%
X33826400Y30073600D02*
X33826400Y29893054D01*
X33826400Y29893054D02*
X33832800Y29886654D01*
X42062400Y36169600D02*
X42062400Y39217600D01*
X33832800Y29886654D02*
X33832800Y23372233D01*
X33832800Y23372233D02*
X33832569Y23372002D01*
X41046400Y35153600D02*
X42062400Y36169600D01*
X41046400Y30118000D02*
X41046400Y35153600D01*
%TO.N,/NRST*%
D17*
X31496000Y17246600D02*
X31496000Y10795000D01*
X29260800Y22555200D02*
X29260800Y18771800D01*
X29210000Y22606000D02*
X29260800Y22555200D01*
X29260800Y18771800D02*
X29262000Y18770600D01*
%TO.N,/MCU_RELAY*%
D16*
X32766000Y31750000D02*
X30505400Y31750000D01*
X33172400Y24018002D02*
X33172400Y31343600D01*
X33172400Y31343600D02*
X32766000Y31750000D01*
X30505400Y31750000D02*
X30454600Y31699200D01*
%TO.N,/MCU_BCD0*%
X44500800Y42164000D02*
X44450000Y42113200D01*
X44500800Y42164000D02*
X44551600Y42214800D01*
X44450000Y42113200D02*
X44450000Y22047200D01*
X44551600Y42214800D02*
X57658000Y42214800D01*
%TO.N,/MCU_BCD1*%
X43637200Y37185600D02*
X43637200Y22701200D01*
%TO.N,/MCU_BCD2*%
X42824400Y36017200D02*
X42824400Y23418800D01*
X42926000Y36118800D02*
X42824400Y36017200D01*
%TO.N,/MCU_BCD3*%
X46082000Y34544000D02*
X46075600Y34550400D01*
X57658000Y34594800D02*
X57607200Y34544000D01*
X42011600Y33477200D02*
X42011600Y24022000D01*
X57607200Y34544000D02*
X46082000Y34544000D01*
%TO.N,/MCU_TEST*%
X45516800Y19964400D02*
X45516800Y24638000D01*
%TO.N,/SWDIO*%
D18*
X41103600Y26609999D02*
X41103600Y26614000D01*
X41097200Y26603599D02*
X41103600Y26609999D01*
X41097200Y11988800D02*
X41097200Y26603599D01*
X39217600Y11582400D02*
X40690800Y11582400D01*
X40690800Y11582400D02*
X41097200Y11988800D01*
%TO.N,/SWCLK*%
D16*
X46482000Y27032000D02*
X46482000Y11557000D01*
X46482000Y11557000D02*
X44666600Y9741600D01*
D17*
X34747200Y8178800D02*
X34747200Y5740400D01*
D16*
X45466000Y27190000D02*
X46324000Y27190000D01*
X44666600Y9741600D02*
X39123531Y9741600D01*
X46324000Y27190000D02*
X46482000Y27032000D01*
%TO.N,/SDA1*%
X47244000Y10414000D02*
X47142400Y10515600D01*
X47142400Y10515600D02*
X47142400Y27838400D01*
X47142400Y27838400D02*
X47040800Y27940000D01*
%TO.N,Net-(J5-SWDIO)*%
D17*
X23672800Y15748000D02*
X30226000Y15748000D01*
%TO.N,Net-(J5-SWCLK)*%
X32766000Y6350000D02*
X26924000Y6350000D01*
%TD*%
%TA.AperFunction,Conductor*%
%TO.N,+3V3*%
G36*
X36416477Y43693715D02*
G01*
X36437119Y43677081D01*
X36614481Y43499719D01*
X36647966Y43438396D01*
X36650800Y43412038D01*
X36650800Y42645762D01*
X36631115Y42578723D01*
X36626800Y42573369D01*
X36626800Y41290159D01*
X36647966Y41251396D01*
X36650800Y41225038D01*
X36650800Y32711762D01*
X36631115Y32644723D01*
X36614481Y32624081D01*
X36437119Y32446719D01*
X36375796Y32413234D01*
X36349438Y32410400D01*
X30866627Y32410400D01*
X30819175Y32419839D01*
X30689498Y32473553D01*
X30689489Y32473556D01*
X30533919Y32504500D01*
X30533915Y32504500D01*
X30375285Y32504500D01*
X30375280Y32504500D01*
X30219710Y32473556D01*
X30219701Y32473553D01*
X30090025Y32419839D01*
X30042573Y32410400D01*
X29768800Y32410400D01*
X29768800Y32159946D01*
X29749115Y32092907D01*
X29747903Y32091057D01*
X29740957Y32080662D01*
X29740948Y32080646D01*
X29680247Y31934099D01*
X29680244Y31934090D01*
X29649300Y31778520D01*
X29649300Y31619881D01*
X29680244Y31464311D01*
X29680247Y31464302D01*
X29740949Y31317752D01*
X29740951Y31317749D01*
X29740952Y31317747D01*
X29747900Y31307348D01*
X29768780Y31240673D01*
X29768800Y31238456D01*
X29768800Y25853762D01*
X29749115Y25786723D01*
X29732481Y25766081D01*
X29555119Y25588719D01*
X29493796Y25555234D01*
X29467438Y25552400D01*
X24053800Y25552400D01*
X24053500Y25302400D01*
X24043095Y16646367D01*
X24023330Y16579351D01*
X23970471Y16533660D01*
X23901300Y16523799D01*
X23894905Y16524898D01*
X23791180Y16545530D01*
X23752115Y16553300D01*
X23593485Y16553300D01*
X23593480Y16553300D01*
X23437910Y16522356D01*
X23437901Y16522353D01*
X23291353Y16461652D01*
X23291340Y16461645D01*
X23159451Y16373519D01*
X23159447Y16373516D01*
X23047284Y16261353D01*
X23047281Y16261349D01*
X22959155Y16129460D01*
X22959148Y16129447D01*
X22898447Y15982899D01*
X22898444Y15982890D01*
X22867500Y15827320D01*
X22867500Y15668681D01*
X22898444Y15513111D01*
X22898447Y15513102D01*
X22959148Y15366554D01*
X22959155Y15366541D01*
X23047281Y15234652D01*
X23047284Y15234648D01*
X23159447Y15122485D01*
X23159451Y15122482D01*
X23291340Y15034356D01*
X23291353Y15034349D01*
X23401264Y14988824D01*
X23437903Y14973647D01*
X23437905Y14973647D01*
X23437910Y14973645D01*
X23593480Y14942701D01*
X23593484Y14942700D01*
X23593485Y14942700D01*
X23752116Y14942700D01*
X23752116Y14942701D01*
X23892744Y14970673D01*
X23962334Y14964446D01*
X24017511Y14921583D01*
X24040756Y14855694D01*
X24040934Y14848907D01*
X24039530Y13681003D01*
X24036110Y13652228D01*
X24035659Y13650352D01*
X24002500Y13440994D01*
X24002500Y13229007D01*
X24036421Y13014837D01*
X24036038Y13014777D01*
X24038702Y12992149D01*
X24034897Y9826320D01*
X24015132Y9759304D01*
X23998526Y9738736D01*
X23820846Y9561267D01*
X23759503Y9527818D01*
X23733217Y9525000D01*
X20240362Y9525000D01*
X20173323Y9544685D01*
X20152681Y9561319D01*
X19975319Y9738681D01*
X19941834Y9800004D01*
X19939000Y9826362D01*
X19939000Y27633303D01*
X19958685Y27700342D01*
X19975130Y27720795D01*
X20152864Y27899284D01*
X20214116Y27932898D01*
X20240205Y27935787D01*
X23583900Y27949956D01*
X27228800Y27965400D01*
X27228800Y34141038D01*
X27248485Y34208077D01*
X27265119Y34228719D01*
X27442481Y34406081D01*
X27503804Y34439566D01*
X27530162Y34442400D01*
X34721800Y34442400D01*
X34721800Y43412038D01*
X34741485Y43479077D01*
X34758119Y43499719D01*
X34935481Y43677081D01*
X34996804Y43710566D01*
X35023162Y43713400D01*
X36349438Y43713400D01*
X36416477Y43693715D01*
G37*
%TD.AperFunction*%
%TD*%
%TA.AperFunction,Conductor*%
%TO.N,GND*%
G36*
X50848504Y18073238D02*
G01*
X50860046Y18070146D01*
X50876559Y18065721D01*
X50876564Y18065720D01*
X50904613Y18058206D01*
X50922748Y18050694D01*
X50943622Y18038643D01*
X50943629Y18038638D01*
X50947895Y18036175D01*
X50947897Y18036173D01*
X50973057Y18021647D01*
X50988627Y18009698D01*
X51029697Y17968628D01*
X51041648Y17953054D01*
X51081162Y17884614D01*
X51093600Y17863072D01*
X51093616Y17863045D01*
X51094153Y17862114D01*
X51094153Y17862112D01*
X51105006Y17843314D01*
X51105368Y17843062D01*
X51107033Y17840502D01*
X51108910Y17839238D01*
X51109897Y17837849D01*
X51120238Y17822947D01*
X51133342Y17773205D01*
X51118800Y17735201D01*
X51116559Y17732189D01*
X51105733Y17716396D01*
X51095055Y17699453D01*
X51091989Y17694142D01*
X51091975Y17694117D01*
X51041646Y17606946D01*
X51029696Y17591373D01*
X50988626Y17550303D01*
X50973052Y17538352D01*
X50922747Y17509309D01*
X50904612Y17501796D01*
X50848505Y17486762D01*
X50829042Y17484200D01*
X50770957Y17484200D01*
X50751494Y17486762D01*
X50695384Y17501797D01*
X50677253Y17509307D01*
X50626942Y17538355D01*
X50611372Y17550303D01*
X50570302Y17591373D01*
X50558352Y17606945D01*
X50543825Y17632104D01*
X50543826Y17632104D01*
X50529305Y17657254D01*
X50521795Y17675385D01*
X50510945Y17715881D01*
X50506762Y17731496D01*
X50504200Y17750957D01*
X50504200Y17809049D01*
X50506762Y17828511D01*
X50515418Y17860817D01*
X50521794Y17884614D01*
X50529306Y17902750D01*
X50551571Y17941313D01*
X50558354Y17953062D01*
X50570300Y17968630D01*
X50611370Y18009700D01*
X50626938Y18021646D01*
X50677250Y18050694D01*
X50695389Y18058207D01*
X50751491Y18073238D01*
X50770952Y18075800D01*
X50829042Y18075800D01*
X50848504Y18073238D01*
G37*
%TD.AperFunction*%
%TA.AperFunction,Conductor*%
G36*
X52118504Y18073238D02*
G01*
X52130046Y18070146D01*
X52146559Y18065721D01*
X52146564Y18065720D01*
X52174613Y18058206D01*
X52192748Y18050694D01*
X52213622Y18038643D01*
X52213629Y18038638D01*
X52217895Y18036175D01*
X52217897Y18036173D01*
X52243057Y18021647D01*
X52258627Y18009698D01*
X52299697Y17968628D01*
X52311645Y17953058D01*
X52340693Y17902747D01*
X52348203Y17884615D01*
X52361552Y17834797D01*
X52363238Y17828507D01*
X52365799Y17809049D01*
X52365800Y17809044D01*
X52365800Y17750958D01*
X52363238Y17731495D01*
X52348204Y17675388D01*
X52340691Y17657253D01*
X52315952Y17614404D01*
X52311648Y17606947D01*
X52299697Y17591374D01*
X52258626Y17550303D01*
X52243052Y17538352D01*
X52192747Y17509309D01*
X52174612Y17501796D01*
X52118505Y17486762D01*
X52099042Y17484200D01*
X52040957Y17484200D01*
X52021494Y17486762D01*
X51965384Y17501797D01*
X51947253Y17509307D01*
X51896942Y17538355D01*
X51881372Y17550303D01*
X51840302Y17591373D01*
X51828351Y17606946D01*
X51800446Y17655278D01*
X51800447Y17655278D01*
X51778063Y17694047D01*
X51777601Y17696667D01*
X51772880Y17703510D01*
X51769651Y17708617D01*
X51765457Y17715881D01*
X51763304Y17717391D01*
X51763041Y17717771D01*
X51749487Y17737417D01*
X51736518Y17787195D01*
X51750345Y17824042D01*
X51758083Y17834795D01*
X51768603Y17851236D01*
X51768602Y17851237D01*
X51770938Y17854887D01*
X51770941Y17854892D01*
X51773964Y17859617D01*
X51775253Y17861086D01*
X51777282Y17864601D01*
X51777284Y17864606D01*
X51778455Y17866635D01*
X51779384Y17868086D01*
X51779385Y17868088D01*
X51781851Y17871942D01*
X51781928Y17872518D01*
X51783444Y17875275D01*
X51828355Y17953062D01*
X51840302Y17968632D01*
X51881370Y18009700D01*
X51896938Y18021646D01*
X51947250Y18050694D01*
X51965389Y18058207D01*
X52021491Y18073238D01*
X52040952Y18075800D01*
X52099042Y18075800D01*
X52118504Y18073238D01*
G37*
%TD.AperFunction*%
%TA.AperFunction,Conductor*%
G36*
X50848504Y20613238D02*
G01*
X50860046Y20610146D01*
X50876559Y20605721D01*
X50876562Y20605721D01*
X50876567Y20605719D01*
X50904613Y20598206D01*
X50922748Y20590694D01*
X50943622Y20578643D01*
X50943629Y20578638D01*
X50947895Y20576175D01*
X50947897Y20576173D01*
X50973057Y20561647D01*
X50988627Y20549698D01*
X51029697Y20508628D01*
X51041648Y20493054D01*
X51081162Y20424614D01*
X51093600Y20403072D01*
X51093616Y20403045D01*
X51094153Y20402114D01*
X51094153Y20402112D01*
X51105006Y20383314D01*
X51105368Y20383062D01*
X51107033Y20380502D01*
X51108910Y20379238D01*
X51109897Y20377849D01*
X51120238Y20362947D01*
X51133342Y20313205D01*
X51118800Y20275201D01*
X51116559Y20272189D01*
X51105733Y20256396D01*
X51095055Y20239453D01*
X51091989Y20234142D01*
X51091975Y20234117D01*
X51041646Y20146946D01*
X51029696Y20131373D01*
X50988626Y20090303D01*
X50973052Y20078352D01*
X50922747Y20049309D01*
X50904612Y20041796D01*
X50848505Y20026762D01*
X50829042Y20024200D01*
X50770957Y20024200D01*
X50751494Y20026762D01*
X50695384Y20041797D01*
X50677253Y20049307D01*
X50626942Y20078355D01*
X50611372Y20090303D01*
X50570302Y20131373D01*
X50558352Y20146945D01*
X50543825Y20172104D01*
X50543826Y20172104D01*
X50529305Y20197254D01*
X50521795Y20215385D01*
X50510945Y20255881D01*
X50506762Y20271496D01*
X50504200Y20290957D01*
X50504200Y20349049D01*
X50506762Y20368511D01*
X50521794Y20424614D01*
X50529306Y20442750D01*
X50558353Y20493060D01*
X50570300Y20508630D01*
X50611370Y20549700D01*
X50626938Y20561646D01*
X50677250Y20590694D01*
X50695389Y20598207D01*
X50751491Y20613238D01*
X50770952Y20615800D01*
X50829042Y20615800D01*
X50848504Y20613238D01*
G37*
%TD.AperFunction*%
%TA.AperFunction,Conductor*%
G36*
X52118504Y20613239D02*
G01*
X52146559Y20605721D01*
X52146565Y20605719D01*
X52174620Y20598203D01*
X52192747Y20590695D01*
X52213632Y20578637D01*
X52213638Y20578633D01*
X52217895Y20576175D01*
X52217896Y20576174D01*
X52217898Y20576173D01*
X52243054Y20561648D01*
X52258627Y20549698D01*
X52299697Y20508628D01*
X52311645Y20493058D01*
X52340693Y20442747D01*
X52348203Y20424615D01*
X52362500Y20371259D01*
X52363238Y20368507D01*
X52365799Y20349049D01*
X52365800Y20349044D01*
X52365800Y20290958D01*
X52363238Y20271495D01*
X52348204Y20215388D01*
X52340691Y20197253D01*
X52315952Y20154404D01*
X52311648Y20146947D01*
X52299697Y20131374D01*
X52258626Y20090303D01*
X52243052Y20078352D01*
X52192747Y20049309D01*
X52174612Y20041796D01*
X52118505Y20026762D01*
X52099042Y20024200D01*
X52040957Y20024200D01*
X52021494Y20026762D01*
X51965384Y20041797D01*
X51947253Y20049307D01*
X51896942Y20078355D01*
X51881372Y20090303D01*
X51840302Y20131373D01*
X51828351Y20146946D01*
X51800446Y20195278D01*
X51800447Y20195278D01*
X51778063Y20234047D01*
X51777601Y20236667D01*
X51772880Y20243510D01*
X51769651Y20248617D01*
X51765457Y20255881D01*
X51763304Y20257391D01*
X51763041Y20257771D01*
X51749487Y20277417D01*
X51736518Y20327195D01*
X51750345Y20364042D01*
X51758083Y20374795D01*
X51768603Y20391236D01*
X51768602Y20391237D01*
X51770938Y20394887D01*
X51770941Y20394892D01*
X51773964Y20399617D01*
X51775253Y20401086D01*
X51777282Y20404601D01*
X51777284Y20404606D01*
X51778455Y20406635D01*
X51779384Y20408086D01*
X51779385Y20408088D01*
X51781851Y20411942D01*
X51781928Y20412518D01*
X51783444Y20415275D01*
X51828355Y20493062D01*
X51840302Y20508632D01*
X51881370Y20549700D01*
X51896938Y20561646D01*
X51947250Y20590694D01*
X51965389Y20598207D01*
X52021491Y20613238D01*
X52040952Y20615800D01*
X52099042Y20615800D01*
X52118504Y20613239D01*
G37*
%TD.AperFunction*%
%TA.AperFunction,Conductor*%
G36*
X77581953Y67640168D02*
G01*
X77592115Y67636469D01*
X77602274Y67627946D01*
X77614736Y67623410D01*
X77631516Y67603412D01*
X77631519Y67603410D01*
X77634626Y67598028D01*
X77644700Y67560431D01*
X77644700Y2443759D01*
X77640165Y2418042D01*
X77636468Y2407881D01*
X77603406Y2368479D01*
X77598033Y2365377D01*
X77560431Y2355300D01*
X2443759Y2355300D01*
X2418040Y2359835D01*
X2407882Y2363532D01*
X2368477Y2396596D01*
X2365369Y2401980D01*
X2355300Y2439570D01*
X2355300Y5194889D01*
X3327100Y5194889D01*
X3327100Y4965112D01*
X3357093Y4737291D01*
X3357324Y4736290D01*
X3357677Y4735114D01*
X3415929Y4517714D01*
X3416376Y4515796D01*
X3504499Y4303047D01*
X3619392Y4104047D01*
X3759253Y3921777D01*
X3759271Y3921754D01*
X3759279Y3921745D01*
X3759288Y3921735D01*
X3921739Y3759284D01*
X3921750Y3759274D01*
X3921753Y3759272D01*
X4104051Y3619390D01*
X4303049Y3504499D01*
X4515340Y3416565D01*
X4737292Y3357093D01*
X4965109Y3327100D01*
X4965112Y3327100D01*
X5194888Y3327100D01*
X5194891Y3327100D01*
X5422708Y3357093D01*
X5644660Y3416565D01*
X5856951Y3504499D01*
X6055949Y3619390D01*
X6238247Y3759272D01*
X6238255Y3759280D01*
X6293712Y3814736D01*
X6400720Y3921745D01*
X6400728Y3921753D01*
X6540610Y4104051D01*
X6655501Y4303049D01*
X6743435Y4515340D01*
X6802907Y4737292D01*
X6832900Y4965109D01*
X6832900Y4974544D01*
X35808500Y4974544D01*
X35808500Y4970065D01*
X35808500Y3359839D01*
X35816559Y3295672D01*
X35816560Y3295668D01*
X35831726Y3236247D01*
X35831729Y3236237D01*
X35855404Y3176064D01*
X35855409Y3176053D01*
X35868009Y3152977D01*
X35868013Y3152971D01*
X35868014Y3152969D01*
X35888028Y3121824D01*
X35909175Y3093573D01*
X35909184Y3093563D01*
X35909186Y3093560D01*
X35933434Y3065577D01*
X36090771Y2908240D01*
X36116167Y2888511D01*
X36141851Y2868559D01*
X36194596Y2837263D01*
X36253902Y2811447D01*
X36279144Y2804035D01*
X36291204Y2801412D01*
X36315306Y2796168D01*
X36315312Y2796168D01*
X36315326Y2796164D01*
X36350262Y2791141D01*
X36387192Y2788500D01*
X36387201Y2788500D01*
X59505298Y2788500D01*
X59505299Y2788500D01*
X59521246Y2790493D01*
X59569143Y2796477D01*
X59569145Y2796478D01*
X59569148Y2796478D01*
X59584591Y2800399D01*
X59628284Y2811489D01*
X59688205Y2834928D01*
X59701510Y2842149D01*
X59711367Y2847496D01*
X59711372Y2847500D01*
X59711379Y2847503D01*
X59742577Y2867437D01*
X59770884Y2888511D01*
X59798926Y2912680D01*
X59957590Y3070503D01*
X59997227Y3121179D01*
X60028568Y3173524D01*
X60054520Y3232393D01*
X60062082Y3257648D01*
X60070145Y3293786D01*
X60075354Y3328695D01*
X60078192Y3365613D01*
X60087923Y5194889D01*
X73167100Y5194889D01*
X73167100Y4965112D01*
X73197093Y4737291D01*
X73197324Y4736290D01*
X73197677Y4735114D01*
X73255929Y4517714D01*
X73256376Y4515796D01*
X73344499Y4303047D01*
X73459392Y4104047D01*
X73599253Y3921777D01*
X73599271Y3921754D01*
X73599279Y3921745D01*
X73599288Y3921735D01*
X73761739Y3759284D01*
X73761750Y3759274D01*
X73761753Y3759272D01*
X73944051Y3619390D01*
X74143049Y3504499D01*
X74355340Y3416565D01*
X74577292Y3357093D01*
X74805109Y3327100D01*
X74805112Y3327100D01*
X75034888Y3327100D01*
X75034891Y3327100D01*
X75262708Y3357093D01*
X75484660Y3416565D01*
X75696951Y3504499D01*
X75895949Y3619390D01*
X76078247Y3759272D01*
X76240728Y3921753D01*
X76380610Y4104051D01*
X76495501Y4303049D01*
X76583435Y4515340D01*
X76642907Y4737292D01*
X76672900Y4965109D01*
X76672900Y5194891D01*
X76642907Y5422708D01*
X76583435Y5644660D01*
X76495501Y5856951D01*
X76472096Y5897489D01*
X76380608Y6055952D01*
X76320634Y6134111D01*
X76240739Y6238233D01*
X76240727Y6238248D01*
X76240717Y6238259D01*
X76240710Y6238267D01*
X76078265Y6400712D01*
X76078257Y6400719D01*
X76078246Y6400729D01*
X76078241Y6400733D01*
X75935328Y6510394D01*
X75895953Y6540608D01*
X75696952Y6655501D01*
X75489139Y6741580D01*
X75489138Y6741581D01*
X75484663Y6743434D01*
X75484661Y6743435D01*
X75484660Y6743435D01*
X75480927Y6744436D01*
X75480925Y6744436D01*
X75262712Y6802906D01*
X75262711Y6802907D01*
X75262708Y6802907D01*
X75034891Y6832900D01*
X75034888Y6832900D01*
X74805112Y6832900D01*
X74805109Y6832900D01*
X74725600Y6822433D01*
X74577294Y6802908D01*
X74436575Y6765202D01*
X74364901Y6745997D01*
X74363000Y6745514D01*
X74356713Y6744005D01*
X74143045Y6655501D01*
X73944045Y6540608D01*
X73761768Y6400741D01*
X73761752Y6400729D01*
X73761741Y6400719D01*
X73761733Y6400712D01*
X73599288Y6238267D01*
X73599281Y6238259D01*
X73599271Y6238248D01*
X73599259Y6238232D01*
X73459392Y6055955D01*
X73344499Y5856955D01*
X73256375Y5644204D01*
X73255929Y5642288D01*
X73225901Y5530220D01*
X73197094Y5422715D01*
X73197094Y5422713D01*
X73197093Y5422708D01*
X73170326Y5219389D01*
X73167100Y5194889D01*
X60087923Y5194889D01*
X60094778Y6483522D01*
X60187310Y23879879D01*
X60179692Y23943689D01*
X60173811Y23967416D01*
X60165034Y24002830D01*
X60165030Y24002842D01*
X60165030Y24002844D01*
X60141964Y24062829D01*
X60129523Y24086083D01*
X60109772Y24117401D01*
X60088863Y24145835D01*
X60088860Y24145839D01*
X60088856Y24145844D01*
X60064864Y24174014D01*
X60064850Y24174029D01*
X60027968Y24211546D01*
X59973529Y24266923D01*
X59907776Y24333809D01*
X59907773Y24333811D01*
X59907772Y24333813D01*
X59868309Y24365063D01*
X59857394Y24373707D01*
X59835987Y24386704D01*
X59805308Y24405331D01*
X59805287Y24405342D01*
X59746658Y24431629D01*
X59743992Y24432446D01*
X59721432Y24439359D01*
X59721426Y24439361D01*
X59721424Y24439361D01*
X59685350Y24447653D01*
X59650472Y24453086D01*
X59613601Y24456159D01*
X59610805Y24456192D01*
X59562680Y24474360D01*
X59537492Y24519211D01*
X59536500Y24531387D01*
X59536500Y24919125D01*
X59541033Y24944840D01*
X59548622Y24965692D01*
X59566110Y24993142D01*
X59629551Y25056582D01*
X59703184Y25184118D01*
X59741300Y25326367D01*
X59741300Y25473633D01*
X59703184Y25615882D01*
X59703183Y25615883D01*
X59703183Y25615885D01*
X59703168Y25615919D01*
X59702895Y25616384D01*
X59629551Y25743420D01*
X59525418Y25847553D01*
X59414973Y25911318D01*
X59397889Y25921181D01*
X59397888Y25921182D01*
X59397887Y25921182D01*
X59397882Y25921184D01*
X59255633Y25959300D01*
X59255630Y25959300D01*
X59108370Y25959300D01*
X59108367Y25959300D01*
X59058437Y25945921D01*
X58966129Y25921188D01*
X58966121Y25921185D01*
X58966107Y25921180D01*
X58838580Y25847553D01*
X58734447Y25743420D01*
X58660820Y25615893D01*
X58660815Y25615879D01*
X58660812Y25615871D01*
X58635558Y25521621D01*
X58622700Y25473633D01*
X58622700Y25326367D01*
X58634972Y25280570D01*
X58634973Y25280566D01*
X58634973Y25280565D01*
X58660812Y25184131D01*
X58660814Y25184124D01*
X58660816Y25184119D01*
X58660819Y25184111D01*
X58660820Y25184109D01*
X58734444Y25056587D01*
X58796096Y24994935D01*
X58811074Y24973546D01*
X58820452Y24953438D01*
X58827500Y24921653D01*
X58827500Y24541499D01*
X58809907Y24493161D01*
X58765358Y24467441D01*
X58751415Y24466304D01*
X57994391Y24475210D01*
X57946264Y24493371D01*
X57921070Y24538219D01*
X57928274Y24584549D01*
X57931165Y24590221D01*
X57985496Y24757435D01*
X58013000Y24931090D01*
X58013000Y25106910D01*
X57985496Y25280565D01*
X57931165Y25447779D01*
X57851344Y25604436D01*
X57843022Y25615890D01*
X57771415Y25714449D01*
X57748000Y25746677D01*
X57747998Y25746679D01*
X57747991Y25746687D01*
X57623686Y25870992D01*
X57623678Y25870999D01*
X57481438Y25974344D01*
X57324782Y26054164D01*
X57324781Y26054165D01*
X57324778Y26054166D01*
X57157569Y26108495D01*
X57157557Y26108498D01*
X57157554Y26108499D01*
X57157548Y26108500D01*
X57157545Y26108501D01*
X56983916Y26136000D01*
X56983912Y26136000D01*
X56983910Y26136000D01*
X56808090Y26136000D01*
X56808087Y26136000D01*
X56808082Y26136000D01*
X56634453Y26108501D01*
X56634450Y26108500D01*
X56634442Y26108498D01*
X56634430Y26108495D01*
X56467221Y26054166D01*
X56467218Y26054165D01*
X56467216Y26054164D01*
X56310560Y25974344D01*
X56168320Y25870999D01*
X56168311Y25870991D01*
X56044009Y25746689D01*
X56044001Y25746680D01*
X55940656Y25604440D01*
X55860836Y25447784D01*
X55860835Y25447782D01*
X55860834Y25447779D01*
X55806505Y25280570D01*
X55806504Y25280566D01*
X55806504Y25280565D01*
X55806500Y25280550D01*
X55806499Y25280547D01*
X55779000Y25106918D01*
X55779000Y24931084D01*
X55806499Y24757455D01*
X55806500Y24757452D01*
X55806501Y24757446D01*
X55806502Y24757443D01*
X55806505Y24757431D01*
X55847015Y24632754D01*
X55857777Y24599631D01*
X55855981Y24548222D01*
X55821561Y24509995D01*
X55785372Y24501198D01*
X54542289Y24515821D01*
X49958815Y24569745D01*
X49910688Y24587906D01*
X49885494Y24632754D01*
X49884500Y24644940D01*
X49884500Y26459217D01*
X56503321Y26459217D01*
X56622651Y26420444D01*
X56622665Y26420441D01*
X56693354Y26409246D01*
X56804105Y26391704D01*
X56804119Y26391702D01*
X56804126Y26391701D01*
X56804137Y26391700D01*
X56987855Y26391700D01*
X56987863Y26391700D01*
X56987873Y26391701D01*
X57169334Y26420441D01*
X57169348Y26420444D01*
X57288677Y26459216D01*
X57288677Y26459217D01*
X57288677Y26459218D01*
X56914295Y26833600D01*
X56896001Y26851894D01*
X56895999Y26851894D01*
X56877705Y26833600D01*
X56877704Y26833600D01*
X56674804Y26630700D01*
X56503321Y26459217D01*
X49884500Y26459217D01*
X49884500Y27650878D01*
X55728700Y27650878D01*
X55728700Y27467124D01*
X55757439Y27285665D01*
X55757722Y27284638D01*
X55758208Y27283294D01*
X55796214Y27166323D01*
X55796215Y27166323D01*
X56170600Y27540707D01*
X56170600Y27540708D01*
X56188893Y27559000D01*
X56188893Y27559001D01*
X56170600Y27577294D01*
X56170600Y27577295D01*
X56113195Y27634700D01*
X56321000Y27634700D01*
X56321000Y27483300D01*
X56337018Y27423519D01*
X56360185Y27337056D01*
X56435884Y27205942D01*
X56542941Y27098885D01*
X56674055Y27023186D01*
X56674057Y27023186D01*
X56674058Y27023185D01*
X56820300Y26984000D01*
X56971697Y26984000D01*
X56971700Y26984000D01*
X57117942Y27023185D01*
X57157939Y27046277D01*
X57249058Y27098885D01*
X57356115Y27205942D01*
X57431814Y27337056D01*
X57443436Y27380430D01*
X57471000Y27483300D01*
X57471000Y27559001D01*
X57603106Y27559001D01*
X57603106Y27559000D01*
X57621400Y27540706D01*
X57995783Y27166323D01*
X57995784Y27166323D01*
X58034556Y27285652D01*
X58034559Y27285666D01*
X58063299Y27467127D01*
X58063300Y27467137D01*
X58063300Y27650863D01*
X58063299Y27650874D01*
X58053746Y27711188D01*
X58034558Y27832337D01*
X58034556Y27832349D01*
X57995783Y27951679D01*
X57621400Y27577296D01*
X57603106Y27559001D01*
X57471000Y27559001D01*
X57471000Y27634700D01*
X57431815Y27780942D01*
X57431814Y27780943D01*
X57431814Y27780945D01*
X57356115Y27912059D01*
X57249058Y28019116D01*
X57117944Y28094815D01*
X57059445Y28110489D01*
X56971700Y28134000D01*
X56971697Y28134000D01*
X56820303Y28134000D01*
X56820300Y28134000D01*
X56747179Y28114408D01*
X56674055Y28094815D01*
X56542941Y28019116D01*
X56435884Y27912059D01*
X56360185Y27780945D01*
X56336674Y27693197D01*
X56321000Y27634700D01*
X56113195Y27634700D01*
X55796215Y27951680D01*
X55796214Y27951680D01*
X55758208Y27834708D01*
X55757724Y27833372D01*
X55757439Y27832337D01*
X55728700Y27650878D01*
X49884500Y27650878D01*
X49884500Y28369233D01*
X52069500Y28369233D01*
X52069500Y28221967D01*
X52100047Y28107968D01*
X52100047Y28107967D01*
X52107614Y28079725D01*
X52107620Y28079709D01*
X52181247Y27952182D01*
X52285380Y27848049D01*
X52312598Y27832335D01*
X52412910Y27774420D01*
X52412913Y27774419D01*
X52412918Y27774416D01*
X52555167Y27736300D01*
X52555170Y27736300D01*
X52702430Y27736300D01*
X52702433Y27736300D01*
X52844682Y27774416D01*
X52972218Y27848049D01*
X53033872Y27909705D01*
X53055259Y27924679D01*
X53075367Y27934056D01*
X53107146Y27941100D01*
X53437469Y27941100D01*
X53437471Y27941100D01*
X53527632Y27965259D01*
X53608468Y28011929D01*
X54255325Y28658786D01*
X56503320Y28658786D01*
X56503320Y28658785D01*
X56877706Y28284400D01*
X56895999Y28266107D01*
X56896001Y28266107D01*
X57288677Y28658785D01*
X57288676Y28658786D01*
X57288677Y28658786D01*
X57171706Y28696792D01*
X57170368Y28697276D01*
X57169335Y28697561D01*
X56987876Y28726300D01*
X56987873Y28726300D01*
X56804126Y28726300D01*
X56804122Y28726300D01*
X56622663Y28697561D01*
X56621628Y28697276D01*
X56620292Y28696792D01*
X56503320Y28658786D01*
X54255325Y28658786D01*
X54339690Y28743151D01*
X55030239Y29433702D01*
X55051625Y29448677D01*
X55071738Y29458055D01*
X55103518Y29465100D01*
X63308753Y29465100D01*
X63334469Y29460566D01*
X63355318Y29452978D01*
X63382773Y29435488D01*
X63571296Y29246965D01*
X63571298Y29246964D01*
X63586277Y29225573D01*
X63595654Y29205463D01*
X63602700Y29173683D01*
X63602700Y19429277D01*
X63598164Y19403556D01*
X63590577Y19382712D01*
X63573087Y19355259D01*
X63509647Y19291820D01*
X63436020Y19164293D01*
X63436015Y19164279D01*
X63436012Y19164271D01*
X63422176Y19112631D01*
X63397900Y19022033D01*
X63397900Y18874767D01*
X63413367Y18817042D01*
X63436012Y18732531D01*
X63436014Y18732524D01*
X63436016Y18732519D01*
X63436019Y18732512D01*
X63436020Y18732509D01*
X63509647Y18604982D01*
X63613780Y18500849D01*
X63734139Y18431360D01*
X63741310Y18427220D01*
X63741313Y18427219D01*
X63741318Y18427216D01*
X63883567Y18389100D01*
X63883570Y18389100D01*
X64030830Y18389100D01*
X64030833Y18389100D01*
X64173082Y18427216D01*
X64300618Y18500849D01*
X64376418Y18576649D01*
X68502600Y18576649D01*
X68502600Y18419351D01*
X68510706Y18389101D01*
X68510706Y18389100D01*
X68543312Y18267410D01*
X68621959Y18131190D01*
X68621963Y18131184D01*
X68733182Y18019965D01*
X68733185Y18019963D01*
X68733187Y18019961D01*
X68869410Y17941313D01*
X68869412Y17941312D01*
X69021351Y17900600D01*
X69021354Y17900600D01*
X69178646Y17900600D01*
X69178649Y17900600D01*
X69330588Y17941312D01*
X69466812Y18019961D01*
X69578039Y18131188D01*
X69656688Y18267412D01*
X69697400Y18419351D01*
X69697400Y18576649D01*
X69656688Y18728588D01*
X69654419Y18732518D01*
X69654411Y18732531D01*
X69638277Y18760476D01*
X69578039Y18864813D01*
X69578037Y18864815D01*
X69578035Y18864818D01*
X69466816Y18976037D01*
X69466810Y18976041D01*
X69330590Y19054688D01*
X69292603Y19064866D01*
X69269811Y19070973D01*
X69178649Y19095400D01*
X69178646Y19095400D01*
X69021352Y19095400D01*
X69021351Y19095400D01*
X69017959Y19094491D01*
X68930186Y19070974D01*
X68930187Y19070973D01*
X68869408Y19054688D01*
X68733188Y18976041D01*
X68733182Y18976037D01*
X68621963Y18864818D01*
X68621959Y18864812D01*
X68543315Y18728597D01*
X68543313Y18728592D01*
X68543312Y18728590D01*
X68534840Y18696970D01*
X68502600Y18576649D01*
X64376418Y18576649D01*
X64404751Y18604982D01*
X64412934Y18619154D01*
X64412948Y18619178D01*
X64417718Y18627441D01*
X64477199Y18730466D01*
X64478315Y18732262D01*
X64478384Y18732519D01*
X64516500Y18874767D01*
X64516500Y19022033D01*
X64478384Y19164282D01*
X64478383Y19164283D01*
X64478383Y19164285D01*
X64478368Y19164319D01*
X64478095Y19164784D01*
X64404751Y19291820D01*
X64343103Y19353468D01*
X64328123Y19374860D01*
X64318746Y19394968D01*
X64311700Y19426750D01*
X64311700Y25981451D01*
X68350200Y25981451D01*
X68350200Y24614549D01*
X68375844Y24485621D01*
X68375845Y24485621D01*
X68375845Y24485620D01*
X68379014Y24469691D01*
X68429639Y24347473D01*
X68435537Y24333234D01*
X68461363Y24294583D01*
X68461363Y24294582D01*
X68498935Y24238353D01*
X68517594Y24210427D01*
X68517596Y24210425D01*
X68517599Y24210421D01*
X68622018Y24106002D01*
X68622024Y24105997D01*
X68622026Y24105995D01*
X68622029Y24105993D01*
X68622030Y24105992D01*
X68744836Y24023936D01*
X68881291Y23967414D01*
X68977864Y23948205D01*
X69026150Y23938600D01*
X69026151Y23938600D01*
X69173850Y23938600D01*
X69210064Y23945804D01*
X69318709Y23967414D01*
X69455164Y24023936D01*
X69577970Y24105992D01*
X69682408Y24210430D01*
X69764464Y24333236D01*
X69820986Y24469691D01*
X69849800Y24614551D01*
X69849800Y25981449D01*
X69820986Y26126309D01*
X69764464Y26262764D01*
X69682408Y26385570D01*
X69682407Y26385571D01*
X69682405Y26385574D01*
X69682403Y26385576D01*
X69682398Y26385582D01*
X69577979Y26490001D01*
X69577975Y26490004D01*
X69577973Y26490006D01*
X69552735Y26506870D01*
X69502603Y26540367D01*
X69455164Y26572064D01*
X69455162Y26572065D01*
X69433373Y26581090D01*
X69387854Y26599945D01*
X69321170Y26627567D01*
X69319181Y26628475D01*
X69313404Y26629839D01*
X69311442Y26630032D01*
X69232887Y26645658D01*
X69173851Y26657400D01*
X69173850Y26657400D01*
X69173849Y26657400D01*
X69026151Y26657400D01*
X69026150Y26657400D01*
X69026149Y26657400D01*
X68881287Y26628586D01*
X68880382Y26628276D01*
X68878828Y26627566D01*
X68744838Y26572066D01*
X68622020Y26490002D01*
X68517598Y26385580D01*
X68435534Y26262762D01*
X68380034Y26128772D01*
X68379324Y26127218D01*
X68379014Y26126313D01*
X68350200Y25981451D01*
X64311700Y25981451D01*
X64311700Y29409070D01*
X64310606Y29413153D01*
X64287541Y29499232D01*
X64240871Y29580068D01*
X64240869Y29580070D01*
X64240867Y29580073D01*
X64240864Y29580076D01*
X64240861Y29580080D01*
X64171770Y29649171D01*
X64171635Y29649303D01*
X63717668Y30103271D01*
X63702486Y30112036D01*
X63669796Y30130910D01*
X63669793Y30130911D01*
X63665635Y30133312D01*
X63636833Y30149941D01*
X63606778Y30157994D01*
X63601897Y30159302D01*
X63601892Y30159304D01*
X63569339Y30168026D01*
X63546671Y30174100D01*
X63546669Y30174100D01*
X54868130Y30174100D01*
X54868128Y30174100D01*
X54826948Y30163066D01*
X54787699Y30152549D01*
X54787697Y30152548D01*
X54777968Y30149941D01*
X54777967Y30149941D01*
X54777965Y30149940D01*
X54698281Y30103935D01*
X54697404Y30103458D01*
X54697388Y30103456D01*
X54697124Y30103266D01*
X54664129Y30070271D01*
X54664130Y30070270D01*
X54631129Y30037268D01*
X54631128Y30037268D01*
X53275364Y28681504D01*
X53259463Y28669365D01*
X53256770Y28667829D01*
X53251110Y28665189D01*
X53248909Y28663343D01*
X53243030Y28659987D01*
X53223951Y28656722D01*
X53205763Y28650100D01*
X53109676Y28650100D01*
X53083957Y28654635D01*
X53063111Y28662222D01*
X53035656Y28679713D01*
X52972213Y28743156D01*
X52858554Y28808776D01*
X52844689Y28816781D01*
X52844688Y28816782D01*
X52844687Y28816782D01*
X52844682Y28816784D01*
X52702433Y28854900D01*
X52702430Y28854900D01*
X52555170Y28854900D01*
X52555167Y28854900D01*
X52493576Y28838397D01*
X52412929Y28816788D01*
X52412921Y28816785D01*
X52412907Y28816780D01*
X52285380Y28743153D01*
X52181247Y28639020D01*
X52107620Y28511493D01*
X52107615Y28511479D01*
X52107612Y28511471D01*
X52087984Y28438216D01*
X52069500Y28369233D01*
X49884500Y28369233D01*
X49884500Y28830725D01*
X49889033Y28856440D01*
X49896622Y28877292D01*
X49914110Y28904742D01*
X49977551Y28968182D01*
X50051184Y29095718D01*
X50089300Y29237967D01*
X50089300Y29385233D01*
X50051184Y29527482D01*
X50051183Y29527483D01*
X50051183Y29527485D01*
X50051168Y29527519D01*
X50050895Y29527984D01*
X49977551Y29655020D01*
X49873418Y29759153D01*
X49747235Y29832004D01*
X49745889Y29832781D01*
X49745888Y29832782D01*
X49745887Y29832782D01*
X49745882Y29832784D01*
X49603633Y29870900D01*
X49603630Y29870900D01*
X49456370Y29870900D01*
X49456367Y29870900D01*
X49394776Y29854397D01*
X49314129Y29832788D01*
X49314121Y29832785D01*
X49314107Y29832780D01*
X49186580Y29759153D01*
X49082448Y29655021D01*
X49059730Y29615671D01*
X49042941Y29595663D01*
X49036311Y29590100D01*
X48987973Y29572508D01*
X48939651Y29590090D01*
X48939637Y29590102D01*
X48939636Y29590102D01*
X48939635Y29590104D01*
X48937605Y29591806D01*
X48913291Y29629963D01*
X48906548Y29655130D01*
X48906546Y29655134D01*
X48906545Y29655140D01*
X48906543Y29655144D01*
X48906541Y29655148D01*
X48897707Y29670449D01*
X48832912Y29782678D01*
X48728779Y29886811D01*
X48618334Y29950576D01*
X48601250Y29960439D01*
X48601249Y29960440D01*
X48601248Y29960440D01*
X48601243Y29960442D01*
X48458994Y29998558D01*
X48458991Y29998558D01*
X48311731Y29998558D01*
X48311728Y29998558D01*
X48252902Y29982796D01*
X48179720Y29963187D01*
X48179720Y29963186D01*
X48175973Y29962183D01*
X48169481Y29960443D01*
X48169468Y29960438D01*
X48041941Y29886811D01*
X47937808Y29782678D01*
X47864181Y29655151D01*
X47864176Y29655137D01*
X47864173Y29655129D01*
X47841664Y29571122D01*
X47826061Y29512891D01*
X47826061Y29365625D01*
X47860369Y29237588D01*
X47860370Y29237585D01*
X47860370Y29237584D01*
X47864169Y29223403D01*
X47864176Y29223381D01*
X47864181Y29223367D01*
X47937807Y29095842D01*
X47937808Y29095841D01*
X47937809Y29095840D01*
X48026498Y29007151D01*
X48040156Y28987647D01*
X48041475Y28985763D01*
X48049673Y28968183D01*
X48050853Y28965654D01*
X48057900Y28933870D01*
X48057900Y12825277D01*
X48053364Y12799556D01*
X48045777Y12778712D01*
X48028287Y12751259D01*
X47964847Y12687820D01*
X47891220Y12560293D01*
X47891215Y12560279D01*
X47891212Y12560271D01*
X47865958Y12466021D01*
X47853100Y12418033D01*
X47853100Y12270767D01*
X47857085Y12255896D01*
X47891212Y12128531D01*
X47891215Y12128523D01*
X47891220Y12128509D01*
X47964847Y12000982D01*
X48068980Y11896849D01*
X48151889Y11848982D01*
X48196510Y11823220D01*
X48196513Y11823219D01*
X48196518Y11823216D01*
X48338767Y11785100D01*
X48338770Y11785100D01*
X48486030Y11785100D01*
X48486033Y11785100D01*
X48628282Y11823216D01*
X48660031Y11841546D01*
X48755818Y11896849D01*
X48767239Y11908271D01*
X48774585Y11912839D01*
X48791801Y11916461D01*
X48807746Y11923896D01*
X48816278Y11921610D01*
X48824923Y11923428D01*
X48840440Y11915136D01*
X48857433Y11910582D01*
X48862498Y11903348D01*
X48870291Y11899183D01*
X48876847Y11882856D01*
X48886938Y11868445D01*
X48889036Y11852503D01*
X48889460Y11851448D01*
X48889257Y11850828D01*
X48889500Y11848982D01*
X48889500Y6819602D01*
X48871907Y6771264D01*
X48827358Y6745544D01*
X48814300Y6744402D01*
X38492699Y6744402D01*
X38444361Y6761995D01*
X38418641Y6806544D01*
X38417499Y6819602D01*
X38417499Y6946069D01*
X38405387Y7006961D01*
X38402734Y7020301D01*
X38346484Y7104484D01*
X38290490Y7141899D01*
X38262303Y7160733D01*
X38262299Y7160735D01*
X38188068Y7175500D01*
X38188067Y7175500D01*
X36487932Y7175500D01*
X36485431Y7175500D01*
X36480664Y7174054D01*
X36413700Y7160735D01*
X36413695Y7160733D01*
X36329517Y7104486D01*
X36273266Y7020303D01*
X36273265Y7020301D01*
X36258500Y6946069D01*
X36258500Y5441971D01*
X36240907Y5393633D01*
X36196358Y5367913D01*
X36179284Y5366878D01*
X36168253Y5367468D01*
X36168244Y5367468D01*
X36069725Y5344181D01*
X36069712Y5344176D01*
X36006165Y5315151D01*
X35965967Y5292256D01*
X35965963Y5292253D01*
X35895663Y5219389D01*
X35895660Y5219384D01*
X35857893Y5160610D01*
X35857891Y5160608D01*
X35828228Y5095588D01*
X35827170Y5093269D01*
X35826889Y5092311D01*
X35824029Y5082569D01*
X35816162Y5046396D01*
X35811141Y5011469D01*
X35808500Y4974544D01*
X6832900Y4974544D01*
X6832900Y5194891D01*
X6802907Y5422708D01*
X6743435Y5644660D01*
X6655501Y5856951D01*
X6632096Y5897489D01*
X6540608Y6055952D01*
X6480634Y6134111D01*
X6400739Y6238233D01*
X6400727Y6238248D01*
X6400717Y6238259D01*
X6400710Y6238267D01*
X6238265Y6400712D01*
X6238257Y6400719D01*
X6238246Y6400729D01*
X6238241Y6400733D01*
X6208397Y6423633D01*
X26364700Y6423633D01*
X26364700Y6276367D01*
X26380167Y6218642D01*
X26402812Y6134131D01*
X26402814Y6134124D01*
X26402816Y6134119D01*
X26402819Y6134111D01*
X26402820Y6134109D01*
X26476447Y6006582D01*
X26580580Y5902449D01*
X26683175Y5843216D01*
X26708110Y5828820D01*
X26708113Y5828819D01*
X26708118Y5828816D01*
X26850367Y5790700D01*
X26850370Y5790700D01*
X26997630Y5790700D01*
X26997633Y5790700D01*
X27139882Y5828816D01*
X27164824Y5843216D01*
X27245821Y5889980D01*
X27263944Y5897487D01*
X27279679Y5901703D01*
X27282430Y5902439D01*
X27301889Y5905000D01*
X32388111Y5905000D01*
X32407570Y5902440D01*
X32426055Y5897487D01*
X32444183Y5889978D01*
X32550110Y5828820D01*
X32550113Y5828819D01*
X32550118Y5828816D01*
X32692367Y5790700D01*
X32692370Y5790700D01*
X32839630Y5790700D01*
X32839633Y5790700D01*
X32981882Y5828816D01*
X33109418Y5902449D01*
X33213551Y6006582D01*
X33287184Y6134118D01*
X33299737Y6180966D01*
X33718500Y6180966D01*
X33718500Y6011036D01*
X33745076Y5843236D01*
X33745077Y5843233D01*
X33745078Y5843226D01*
X33745079Y5843224D01*
X33745082Y5843212D01*
X33749813Y5828652D01*
X33797586Y5681618D01*
X33816650Y5644204D01*
X33874728Y5530219D01*
X33947293Y5430343D01*
X33947292Y5430343D01*
X33951991Y5423877D01*
X33952837Y5422712D01*
X33974605Y5392752D01*
X33974612Y5392744D01*
X34094743Y5272613D01*
X34094751Y5272606D01*
X34094753Y5272604D01*
X34131464Y5245932D01*
X34232217Y5172730D01*
X34234240Y5171699D01*
X34383616Y5095588D01*
X34545216Y5043081D01*
X34713042Y5016500D01*
X34713046Y5016500D01*
X34882954Y5016500D01*
X34882958Y5016500D01*
X35050784Y5043081D01*
X35212384Y5095588D01*
X35363781Y5172729D01*
X35501247Y5272604D01*
X35621396Y5392753D01*
X35721271Y5530219D01*
X35798412Y5681616D01*
X35850919Y5843216D01*
X35877500Y6011042D01*
X35877500Y6180958D01*
X35850919Y6348784D01*
X35798412Y6510384D01*
X35770129Y6565893D01*
X35748360Y6608617D01*
X35746610Y6612051D01*
X35737837Y6634753D01*
X35723611Y6657187D01*
X35721271Y6661781D01*
X35718172Y6666046D01*
X35715497Y6669983D01*
X35700636Y6693419D01*
X35404315Y7160734D01*
X35203891Y7476814D01*
X35192200Y7517084D01*
X35192200Y7800912D01*
X35194761Y7820372D01*
X35194762Y7820376D01*
X35199714Y7838858D01*
X35207221Y7856981D01*
X35267186Y7960844D01*
X35268314Y7962660D01*
X35268382Y7962916D01*
X35268384Y7962918D01*
X35306500Y8105167D01*
X35306500Y8252433D01*
X35268384Y8394682D01*
X35268383Y8394683D01*
X35268383Y8394685D01*
X35268368Y8394719D01*
X35268095Y8395184D01*
X35194751Y8522220D01*
X35090618Y8626353D01*
X34980173Y8690118D01*
X34963089Y8699981D01*
X34963088Y8699982D01*
X34963087Y8699982D01*
X34963082Y8699984D01*
X34820833Y8738100D01*
X34820830Y8738100D01*
X34673570Y8738100D01*
X34673567Y8738100D01*
X34611976Y8721597D01*
X34531329Y8699988D01*
X34531321Y8699985D01*
X34531307Y8699980D01*
X34403780Y8626353D01*
X34299647Y8522220D01*
X34226020Y8394693D01*
X34226015Y8394679D01*
X34226012Y8394671D01*
X34214667Y8352329D01*
X34187900Y8252433D01*
X34187900Y8105167D01*
X34212404Y8013719D01*
X34226016Y7962919D01*
X34226019Y7962912D01*
X34226020Y7962909D01*
X34287174Y7856989D01*
X34294687Y7838853D01*
X34299638Y7820376D01*
X34302200Y7800912D01*
X34302200Y7504010D01*
X34293595Y7469080D01*
X33845806Y6615353D01*
X33839756Y6595635D01*
X33834869Y6583558D01*
X33797591Y6510394D01*
X33797583Y6510374D01*
X33745083Y6348794D01*
X33745077Y6348769D01*
X33745076Y6348766D01*
X33718500Y6180966D01*
X33299737Y6180966D01*
X33325300Y6276367D01*
X33325300Y6423633D01*
X33287184Y6565882D01*
X33287183Y6565883D01*
X33287183Y6565885D01*
X33287168Y6565919D01*
X33286895Y6566384D01*
X33213551Y6693420D01*
X33109418Y6797553D01*
X32998973Y6861318D01*
X32981889Y6871181D01*
X32981888Y6871182D01*
X32981887Y6871182D01*
X32981882Y6871184D01*
X32839633Y6909300D01*
X32839630Y6909300D01*
X32692370Y6909300D01*
X32692367Y6909300D01*
X32630776Y6892797D01*
X32550129Y6871188D01*
X32550121Y6871185D01*
X32550107Y6871180D01*
X32444187Y6810026D01*
X32426052Y6802514D01*
X32407576Y6797563D01*
X32388111Y6795000D01*
X28876847Y6795000D01*
X28851131Y6799534D01*
X28846803Y6801109D01*
X28807396Y6834172D01*
X28798461Y6884829D01*
X28824176Y6929377D01*
X28826772Y6931556D01*
X28851868Y6945462D01*
X28853738Y6946069D01*
X29041153Y7006964D01*
X29230025Y7103199D01*
X29401516Y7227795D01*
X29551405Y7377684D01*
X29676001Y7549175D01*
X29772236Y7738047D01*
X29837740Y7939647D01*
X29870900Y8149012D01*
X29870900Y8360988D01*
X29837740Y8570353D01*
X29772236Y8771953D01*
X29676001Y8960825D01*
X29551405Y9132316D01*
X29551403Y9132318D01*
X29551396Y9132326D01*
X29401525Y9282197D01*
X29401517Y9282204D01*
X29401511Y9282209D01*
X29385214Y9294050D01*
X29385214Y9294051D01*
X29230029Y9406799D01*
X29041154Y9503036D01*
X29041141Y9503041D01*
X29039268Y9503672D01*
X29038661Y9503846D01*
X29034598Y9505166D01*
X28872784Y9557743D01*
X28839561Y9568538D01*
X28839549Y9568541D01*
X28839545Y9568542D01*
X28839543Y9568543D01*
X28839536Y9568544D01*
X28839533Y9568545D01*
X28630194Y9601700D01*
X28630190Y9601700D01*
X28630188Y9601700D01*
X28418212Y9601700D01*
X28418209Y9601700D01*
X28418204Y9601700D01*
X28208865Y9568545D01*
X28208862Y9568544D01*
X28208854Y9568542D01*
X28208842Y9568539D01*
X28148818Y9549037D01*
X28013796Y9505166D01*
X28013785Y9505162D01*
X28007257Y9503040D01*
X28007249Y9503037D01*
X28007247Y9503036D01*
X28007243Y9503035D01*
X28007243Y9503034D01*
X27990982Y9494749D01*
X27990939Y9494729D01*
X27818374Y9406801D01*
X27646881Y9282204D01*
X27646872Y9282196D01*
X27497004Y9132328D01*
X27496996Y9132319D01*
X27372402Y8960830D01*
X27276166Y8771959D01*
X27276160Y8771944D01*
X27276155Y8771932D01*
X27210662Y8570363D01*
X27210656Y8570338D01*
X27210655Y8570335D01*
X27177500Y8360996D01*
X27177500Y8149006D01*
X27210655Y7939667D01*
X27210656Y7939664D01*
X27210657Y7939658D01*
X27210658Y7939655D01*
X27210661Y7939643D01*
X27261866Y7782049D01*
X27261866Y7782048D01*
X27276162Y7738052D01*
X27276165Y7738044D01*
X27291260Y7708417D01*
X27291261Y7708417D01*
X27372400Y7549173D01*
X27430592Y7469080D01*
X27496996Y7377683D01*
X27497003Y7377675D01*
X27646874Y7227804D01*
X27646882Y7227797D01*
X27646884Y7227795D01*
X27818375Y7103199D01*
X28007247Y7006964D01*
X28194662Y6946069D01*
X28195428Y6945821D01*
X28198128Y6943711D01*
X28201553Y6943533D01*
X28218492Y6933561D01*
X28222124Y6930723D01*
X28229148Y6919484D01*
X28235967Y6914158D01*
X28240540Y6901256D01*
X28249385Y6887102D01*
X28242228Y6836162D01*
X28236108Y6830651D01*
X28235791Y6829271D01*
X28228323Y6823639D01*
X28204015Y6801745D01*
X28200891Y6800482D01*
X28196485Y6799626D01*
X28194723Y6798296D01*
X28190720Y6798504D01*
X28172705Y6795000D01*
X27301889Y6795000D01*
X27282426Y6797562D01*
X27269188Y6801109D01*
X27263947Y6802514D01*
X27245813Y6810025D01*
X27139889Y6871181D01*
X27139888Y6871182D01*
X27139887Y6871182D01*
X27139882Y6871184D01*
X26997633Y6909300D01*
X26997630Y6909300D01*
X26850370Y6909300D01*
X26850367Y6909300D01*
X26788776Y6892797D01*
X26708129Y6871188D01*
X26708121Y6871185D01*
X26708107Y6871180D01*
X26580580Y6797553D01*
X26476447Y6693420D01*
X26402820Y6565893D01*
X26402815Y6565879D01*
X26402812Y6565871D01*
X26387945Y6510384D01*
X26364700Y6423633D01*
X6208397Y6423633D01*
X6095328Y6510394D01*
X6055953Y6540608D01*
X5856952Y6655501D01*
X5649139Y6741580D01*
X5649138Y6741581D01*
X5644663Y6743434D01*
X5644661Y6743435D01*
X5644660Y6743435D01*
X5640927Y6744436D01*
X5640925Y6744436D01*
X5422712Y6802906D01*
X5422711Y6802907D01*
X5422708Y6802907D01*
X5194891Y6832900D01*
X5194888Y6832900D01*
X4965112Y6832900D01*
X4965109Y6832900D01*
X4885600Y6822433D01*
X4737294Y6802908D01*
X4596575Y6765202D01*
X4524901Y6745997D01*
X4523000Y6745514D01*
X4516713Y6744005D01*
X4303045Y6655501D01*
X4104045Y6540608D01*
X3921768Y6400741D01*
X3921752Y6400729D01*
X3921741Y6400719D01*
X3921733Y6400712D01*
X3759288Y6238267D01*
X3759281Y6238259D01*
X3759271Y6238248D01*
X3759259Y6238232D01*
X3619392Y6055955D01*
X3504499Y5856955D01*
X3416375Y5644204D01*
X3415929Y5642288D01*
X3385901Y5530220D01*
X3357094Y5422715D01*
X3357094Y5422713D01*
X3357093Y5422708D01*
X3330326Y5219389D01*
X3327100Y5194889D01*
X2355300Y5194889D01*
X2355300Y8360996D01*
X24002500Y8360996D01*
X24002500Y8149006D01*
X24035655Y7939667D01*
X24035656Y7939664D01*
X24035657Y7939658D01*
X24035658Y7939655D01*
X24035661Y7939643D01*
X24086866Y7782049D01*
X24086866Y7782048D01*
X24101162Y7738052D01*
X24101165Y7738044D01*
X24116260Y7708417D01*
X24116261Y7708417D01*
X24197400Y7549173D01*
X24255592Y7469080D01*
X24321996Y7377683D01*
X24322003Y7377675D01*
X24471874Y7227804D01*
X24471882Y7227797D01*
X24471884Y7227795D01*
X24643375Y7103199D01*
X24832247Y7006964D01*
X25033847Y6941460D01*
X25243212Y6908300D01*
X25243216Y6908300D01*
X25455184Y6908300D01*
X25455188Y6908300D01*
X25664553Y6941460D01*
X25866153Y7006964D01*
X26055025Y7103199D01*
X26226516Y7227795D01*
X26376405Y7377684D01*
X26501001Y7549175D01*
X26597236Y7738047D01*
X26662740Y7939647D01*
X26695900Y8149012D01*
X26695900Y8360988D01*
X26662740Y8570353D01*
X26597236Y8771953D01*
X26501001Y8960825D01*
X26376405Y9132316D01*
X26376403Y9132318D01*
X26376396Y9132326D01*
X26226525Y9282197D01*
X26226517Y9282204D01*
X26226511Y9282209D01*
X26210214Y9294050D01*
X26210214Y9294051D01*
X26055029Y9406799D01*
X25866154Y9503036D01*
X25866141Y9503041D01*
X25864268Y9503672D01*
X25863661Y9503846D01*
X25859598Y9505166D01*
X25697784Y9557743D01*
X25664561Y9568538D01*
X25664549Y9568541D01*
X25664545Y9568542D01*
X25664543Y9568543D01*
X25664536Y9568544D01*
X25664533Y9568545D01*
X25455194Y9601700D01*
X25455190Y9601700D01*
X25455188Y9601700D01*
X25243212Y9601700D01*
X25243209Y9601700D01*
X25243204Y9601700D01*
X25033865Y9568545D01*
X25033862Y9568544D01*
X25033854Y9568542D01*
X25033842Y9568539D01*
X24973818Y9549037D01*
X24838796Y9505166D01*
X24838785Y9505162D01*
X24832257Y9503040D01*
X24832249Y9503037D01*
X24832247Y9503036D01*
X24832243Y9503035D01*
X24832243Y9503034D01*
X24815982Y9494749D01*
X24815939Y9494729D01*
X24643374Y9406801D01*
X24471881Y9282204D01*
X24471872Y9282196D01*
X24322004Y9132328D01*
X24321996Y9132319D01*
X24197402Y8960830D01*
X24101166Y8771959D01*
X24101160Y8771944D01*
X24101155Y8771932D01*
X24035662Y8570363D01*
X24035656Y8570338D01*
X24035655Y8570335D01*
X24002500Y8360996D01*
X2355300Y8360996D01*
X2355300Y12613449D01*
X10320200Y12613449D01*
X10320200Y11246549D01*
X10349014Y11101687D01*
X10349323Y11100785D01*
X10350031Y11099234D01*
X10397732Y10984073D01*
X10400801Y10976664D01*
X10405537Y10965232D01*
X10470083Y10868632D01*
X10476506Y10859020D01*
X10487594Y10842425D01*
X10487596Y10842423D01*
X10487599Y10842419D01*
X10592018Y10738000D01*
X10592024Y10737995D01*
X10592026Y10737993D01*
X10592029Y10737991D01*
X10592030Y10737990D01*
X10714836Y10655934D01*
X10851291Y10599412D01*
X10904748Y10588779D01*
X10996149Y10570598D01*
X11143850Y10570598D01*
X11143851Y10570598D01*
X11165248Y10574855D01*
X11186647Y10579111D01*
X11288709Y10599412D01*
X11425164Y10655934D01*
X11547970Y10737990D01*
X11652408Y10842428D01*
X11734464Y10965234D01*
X11790986Y11101689D01*
X11819800Y11246549D01*
X11819800Y12613447D01*
X11790986Y12758307D01*
X11734464Y12894762D01*
X11652408Y13017568D01*
X11652407Y13017569D01*
X11652405Y13017572D01*
X11652401Y13017576D01*
X11652398Y13017580D01*
X11547979Y13121999D01*
X11547975Y13122002D01*
X11547973Y13122004D01*
X11518758Y13141525D01*
X11463676Y13178330D01*
X11463675Y13178330D01*
X11425166Y13204061D01*
X11425161Y13204063D01*
X11391921Y13217832D01*
X11295237Y13257881D01*
X11295229Y13257884D01*
X11288709Y13260584D01*
X11288707Y13260585D01*
X11288706Y13260585D01*
X11163739Y13285442D01*
X11143851Y13289398D01*
X11143850Y13289398D01*
X11143849Y13289398D01*
X10996151Y13289398D01*
X10996150Y13289398D01*
X10996149Y13289398D01*
X10851287Y13260584D01*
X10850382Y13260274D01*
X10848828Y13259564D01*
X10714838Y13204064D01*
X10592020Y13122000D01*
X10487598Y13017578D01*
X10487594Y13017572D01*
X10405535Y12894761D01*
X10371262Y12812018D01*
X10350034Y12760770D01*
X10349324Y12759216D01*
X10349014Y12758311D01*
X10320200Y12613449D01*
X2355300Y12613449D01*
X2355300Y27633305D01*
X19433500Y27633305D01*
X19433500Y9826357D01*
X19436397Y9772318D01*
X19439231Y9745965D01*
X19439234Y9745946D01*
X19447886Y9692551D01*
X19447888Y9692544D01*
X19498167Y9557745D01*
X19498168Y9557742D01*
X19528040Y9503036D01*
X19531653Y9496420D01*
X19617877Y9381239D01*
X19617879Y9381237D01*
X19617882Y9381233D01*
X19795222Y9203893D01*
X19795231Y9203885D01*
X19795239Y9203877D01*
X19835500Y9167712D01*
X19856142Y9151078D01*
X19900026Y9119433D01*
X20030903Y9059662D01*
X20097942Y9039977D01*
X20097946Y9039976D01*
X20240362Y9019500D01*
X23733201Y9019500D01*
X23733217Y9019500D01*
X23787101Y9022380D01*
X23813387Y9025198D01*
X23866664Y9033807D01*
X24001502Y9084009D01*
X24062845Y9117458D01*
X24178076Y9203612D01*
X24355756Y9381081D01*
X24391837Y9421188D01*
X24408443Y9441756D01*
X24440058Y9485500D01*
X24499985Y9616307D01*
X24519750Y9683323D01*
X24540397Y9825712D01*
X24540418Y9842844D01*
X29781000Y9842844D01*
X29781000Y9715158D01*
X29805909Y9589931D01*
X29805911Y9589924D01*
X29832506Y9525719D01*
X29841899Y9503041D01*
X29854772Y9471964D01*
X29925712Y9365794D01*
X29925713Y9365793D01*
X29925716Y9365789D01*
X30015985Y9275520D01*
X30015990Y9275516D01*
X30015993Y9275513D01*
X30015996Y9275511D01*
X30015997Y9275510D01*
X30122162Y9204573D01*
X30240127Y9155710D01*
X30334050Y9137028D01*
X30365357Y9130800D01*
X30365358Y9130800D01*
X30493043Y9130800D01*
X30518088Y9135782D01*
X30618273Y9155710D01*
X30736238Y9204573D01*
X30842403Y9275510D01*
X30932690Y9365797D01*
X31003627Y9471962D01*
X31052490Y9589927D01*
X31077400Y9715158D01*
X31077400Y9842842D01*
X31052490Y9968073D01*
X31003627Y10086038D01*
X30932690Y10192203D01*
X30932689Y10192204D01*
X30932687Y10192207D01*
X30932684Y10192210D01*
X30932680Y10192215D01*
X30842412Y10282483D01*
X30842408Y10282486D01*
X30842406Y10282488D01*
X30801481Y10309833D01*
X30801480Y10309834D01*
X30801480Y10309835D01*
X30736239Y10353427D01*
X30667747Y10381797D01*
X30618273Y10402290D01*
X30618270Y10402291D01*
X30618269Y10402291D01*
X30618264Y10402293D01*
X30618108Y10402345D01*
X30616957Y10402553D01*
X30493045Y10427200D01*
X30493043Y10427200D01*
X30493042Y10427200D01*
X30365358Y10427200D01*
X30365357Y10427200D01*
X30365356Y10427200D01*
X30240131Y10402292D01*
X30240127Y10402290D01*
X30122165Y10353430D01*
X30015987Y10282484D01*
X29925716Y10192213D01*
X29854770Y10086035D01*
X29805910Y9968073D01*
X29805908Y9968069D01*
X29781000Y9842844D01*
X24540418Y9842844D01*
X24541327Y10599413D01*
X24541638Y10858844D01*
X24701000Y10858844D01*
X24701000Y10731156D01*
X24721730Y10626934D01*
X24721731Y10626934D01*
X24725910Y10605926D01*
X24725911Y10605924D01*
X24737014Y10579120D01*
X24737014Y10579118D01*
X24737015Y10579118D01*
X24774772Y10487964D01*
X24845712Y10381794D01*
X24845713Y10381793D01*
X24845716Y10381789D01*
X24935985Y10291520D01*
X24935990Y10291516D01*
X24935993Y10291513D01*
X24935996Y10291511D01*
X24935997Y10291510D01*
X25042162Y10220573D01*
X25160127Y10171710D01*
X25254050Y10153028D01*
X25285357Y10146800D01*
X25285358Y10146800D01*
X25413043Y10146800D01*
X25438088Y10151782D01*
X25538273Y10171710D01*
X25656238Y10220573D01*
X25762403Y10291510D01*
X25852690Y10381797D01*
X25923627Y10487962D01*
X25972490Y10605927D01*
X25997400Y10731158D01*
X25997400Y10858842D01*
X25995452Y10868633D01*
X25991172Y10890150D01*
X25972490Y10984073D01*
X25923627Y11102038D01*
X25852690Y11208203D01*
X25852689Y11208204D01*
X25852687Y11208207D01*
X25852684Y11208210D01*
X25852680Y11208215D01*
X25762412Y11298483D01*
X25762408Y11298486D01*
X25762406Y11298488D01*
X25737484Y11315140D01*
X25690487Y11346543D01*
X25690481Y11346547D01*
X25688075Y11348154D01*
X25656238Y11369427D01*
X25635939Y11377835D01*
X25559561Y11409472D01*
X25538273Y11418290D01*
X25538270Y11418291D01*
X25538269Y11418291D01*
X25531321Y11419673D01*
X25531313Y11419676D01*
X25413045Y11443200D01*
X25413043Y11443200D01*
X25413042Y11443200D01*
X25285358Y11443200D01*
X25285357Y11443200D01*
X25285356Y11443200D01*
X25160131Y11418292D01*
X25160127Y11418290D01*
X25042165Y11369430D01*
X24935987Y11298484D01*
X24845716Y11208213D01*
X24774770Y11102035D01*
X24742197Y11023395D01*
X24725910Y10984073D01*
X24725910Y10984072D01*
X24725908Y10984071D01*
X24701000Y10858844D01*
X24541638Y10858844D01*
X24541643Y10862627D01*
X24541881Y11061053D01*
X24542859Y11874844D01*
X29781000Y11874844D01*
X29781000Y11874843D01*
X29781000Y11747158D01*
X29793657Y11683524D01*
X29795506Y11674227D01*
X29805909Y11621929D01*
X29805910Y11621927D01*
X29854773Y11503962D01*
X29895373Y11443200D01*
X29925712Y11397794D01*
X29925714Y11397792D01*
X29925717Y11397788D01*
X30015985Y11307520D01*
X30015990Y11307516D01*
X30015993Y11307513D01*
X30015996Y11307511D01*
X30015997Y11307510D01*
X30122162Y11236573D01*
X30240127Y11187710D01*
X30334050Y11169028D01*
X30365357Y11162800D01*
X30365358Y11162800D01*
X30493043Y11162800D01*
X30518088Y11167782D01*
X30618273Y11187710D01*
X30736238Y11236573D01*
X30842403Y11307510D01*
X30874225Y11339332D01*
X30913253Y11378360D01*
X30913256Y11378361D01*
X30934641Y11393335D01*
X30942485Y11396994D01*
X30955697Y11398150D01*
X30959872Y11400096D01*
X30964319Y11398905D01*
X30993729Y11401478D01*
X31035865Y11371976D01*
X31037401Y11369783D01*
X31051000Y11326652D01*
X31051000Y11172890D01*
X31048438Y11153426D01*
X31043487Y11134949D01*
X31035974Y11116813D01*
X30974820Y11010893D01*
X30974815Y11010879D01*
X30974812Y11010871D01*
X30956375Y10942060D01*
X30936700Y10868633D01*
X30936700Y10721367D01*
X30974682Y10579619D01*
X30974683Y10579616D01*
X30974683Y10579614D01*
X30974811Y10579133D01*
X30974815Y10579123D01*
X30974816Y10579119D01*
X30974819Y10579111D01*
X31048447Y10451582D01*
X31152580Y10347449D01*
X31265105Y10282483D01*
X31280110Y10273820D01*
X31280113Y10273819D01*
X31280118Y10273816D01*
X31422367Y10235700D01*
X31422370Y10235700D01*
X31569630Y10235700D01*
X31569633Y10235700D01*
X31711882Y10273816D01*
X31839418Y10347449D01*
X31943551Y10451582D01*
X32017184Y10579118D01*
X32055300Y10721367D01*
X32055300Y10868633D01*
X32017184Y11010882D01*
X32017183Y11010883D01*
X32017183Y11010885D01*
X32017168Y11010919D01*
X32016895Y11011384D01*
X32003552Y11034495D01*
X31956023Y11116818D01*
X31948513Y11134949D01*
X31943560Y11153431D01*
X31941000Y11172890D01*
X31941000Y16868712D01*
X31943561Y16888172D01*
X31943562Y16888176D01*
X31948514Y16906658D01*
X31956021Y16924781D01*
X32017180Y17030711D01*
X32017180Y17030712D01*
X32017184Y17030718D01*
X32055300Y17172967D01*
X32055300Y17320233D01*
X32017184Y17462482D01*
X32017183Y17462483D01*
X32017183Y17462485D01*
X32017168Y17462519D01*
X32016895Y17462984D01*
X31943551Y17590020D01*
X31839418Y17694153D01*
X31728224Y17758350D01*
X31711889Y17767781D01*
X31711888Y17767782D01*
X31711887Y17767782D01*
X31711882Y17767784D01*
X31569633Y17805900D01*
X31569630Y17805900D01*
X31422370Y17805900D01*
X31422367Y17805900D01*
X31360776Y17789397D01*
X31280129Y17767788D01*
X31280121Y17767785D01*
X31280107Y17767780D01*
X31152580Y17694153D01*
X31048447Y17590020D01*
X30974820Y17462493D01*
X30974815Y17462479D01*
X30974812Y17462471D01*
X30949558Y17368221D01*
X30936700Y17320233D01*
X30936700Y17172967D01*
X30964478Y17069300D01*
X30964478Y17069299D01*
X30964477Y17069299D01*
X30974808Y17030745D01*
X30974814Y17030725D01*
X30974816Y17030719D01*
X30974819Y17030712D01*
X30974820Y17030709D01*
X31035974Y16924789D01*
X31043487Y16906653D01*
X31048438Y16888176D01*
X31051000Y16868712D01*
X31051000Y12300701D01*
X31046464Y12274980D01*
X31043504Y12266848D01*
X31010439Y12227443D01*
X30959780Y12218512D01*
X30959779Y12218512D01*
X30957148Y12218976D01*
X30917036Y12239858D01*
X30842406Y12314488D01*
X30842405Y12314489D01*
X30842402Y12314492D01*
X30778617Y12357111D01*
X30736239Y12385427D01*
X30657525Y12418031D01*
X30618273Y12434290D01*
X30618270Y12434291D01*
X30618269Y12434291D01*
X30618264Y12434293D01*
X30618108Y12434345D01*
X30616957Y12434553D01*
X30493045Y12459200D01*
X30493043Y12459200D01*
X30493042Y12459200D01*
X30365358Y12459200D01*
X30365357Y12459200D01*
X30365356Y12459200D01*
X30240131Y12434292D01*
X30240127Y12434290D01*
X30122165Y12385430D01*
X30015987Y12314484D01*
X29925716Y12224213D01*
X29854770Y12118035D01*
X29805910Y12000073D01*
X29805908Y12000069D01*
X29781000Y11874844D01*
X24542859Y11874844D01*
X24543143Y12111647D01*
X24560795Y12159962D01*
X24605374Y12185628D01*
X24652480Y12178560D01*
X24832247Y12086964D01*
X25033847Y12021460D01*
X25243212Y11988300D01*
X25243216Y11988300D01*
X25455184Y11988300D01*
X25455188Y11988300D01*
X25664553Y12021460D01*
X25866153Y12086964D01*
X26055025Y12183199D01*
X26226516Y12307795D01*
X26376405Y12457684D01*
X26501001Y12629175D01*
X26597236Y12818047D01*
X26662740Y13019647D01*
X26695900Y13229012D01*
X26695900Y13440988D01*
X26695899Y13440996D01*
X27177500Y13440996D01*
X27177500Y13440992D01*
X27177500Y13440991D01*
X27177500Y13229010D01*
X27185527Y13178330D01*
X27210655Y13019667D01*
X27210656Y13019664D01*
X27210662Y13019639D01*
X27251237Y12894762D01*
X27276160Y12818057D01*
X27276166Y12818043D01*
X27372399Y12629174D01*
X27383825Y12613448D01*
X27466711Y12499367D01*
X27496996Y12457683D01*
X27497003Y12457675D01*
X27646874Y12307804D01*
X27646882Y12307797D01*
X27646884Y12307795D01*
X27818375Y12183199D01*
X28007247Y12086964D01*
X28208847Y12021460D01*
X28418212Y11988300D01*
X28418216Y11988300D01*
X28630184Y11988300D01*
X28630188Y11988300D01*
X28839553Y12021460D01*
X29041153Y12086964D01*
X29230025Y12183199D01*
X29401516Y12307795D01*
X29551405Y12457684D01*
X29676001Y12629175D01*
X29772236Y12818047D01*
X29837740Y13019647D01*
X29870900Y13229012D01*
X29870900Y13440988D01*
X29837740Y13650353D01*
X29772236Y13851953D01*
X29676001Y14040825D01*
X29551405Y14212316D01*
X29551403Y14212318D01*
X29551396Y14212326D01*
X29401525Y14362197D01*
X29401517Y14362204D01*
X29364474Y14389118D01*
X29364473Y14389119D01*
X29364473Y14389120D01*
X29230029Y14486799D01*
X29041154Y14583036D01*
X29041141Y14583041D01*
X29039268Y14583672D01*
X29038661Y14583846D01*
X29034598Y14585166D01*
X28979549Y14603053D01*
X28839561Y14648538D01*
X28839549Y14648541D01*
X28839545Y14648542D01*
X28839543Y14648543D01*
X28839536Y14648544D01*
X28839533Y14648545D01*
X28630194Y14681700D01*
X28630190Y14681700D01*
X28630188Y14681700D01*
X28418212Y14681700D01*
X28418209Y14681700D01*
X28418204Y14681700D01*
X28208865Y14648545D01*
X28208862Y14648544D01*
X28208854Y14648542D01*
X28208842Y14648539D01*
X28148818Y14629037D01*
X28013796Y14585166D01*
X28013785Y14585162D01*
X28007257Y14583040D01*
X28007249Y14583037D01*
X28007247Y14583036D01*
X28007243Y14583035D01*
X28007243Y14583034D01*
X27990982Y14574749D01*
X27990939Y14574729D01*
X27818374Y14486801D01*
X27646881Y14362204D01*
X27646872Y14362196D01*
X27497004Y14212328D01*
X27496996Y14212319D01*
X27372400Y14040829D01*
X27276166Y13851959D01*
X27276160Y13851944D01*
X27276155Y13851932D01*
X27210662Y13650363D01*
X27210656Y13650338D01*
X27210655Y13650335D01*
X27177500Y13440996D01*
X26695899Y13440996D01*
X26662740Y13650353D01*
X26597236Y13851953D01*
X26501001Y14040825D01*
X26376405Y14212316D01*
X26376403Y14212318D01*
X26376396Y14212326D01*
X26226525Y14362197D01*
X26226517Y14362204D01*
X26189474Y14389118D01*
X26189473Y14389119D01*
X26189473Y14389120D01*
X26055029Y14486799D01*
X25866154Y14583036D01*
X25866141Y14583041D01*
X25864268Y14583672D01*
X25863661Y14583846D01*
X25859598Y14585166D01*
X25804549Y14603053D01*
X25664561Y14648538D01*
X25664549Y14648541D01*
X25664545Y14648542D01*
X25664543Y14648543D01*
X25664536Y14648544D01*
X25664533Y14648545D01*
X25455194Y14681700D01*
X25455190Y14681700D01*
X25455188Y14681700D01*
X25243212Y14681700D01*
X25243209Y14681700D01*
X25243204Y14681700D01*
X25033865Y14648545D01*
X25033862Y14648544D01*
X25033854Y14648542D01*
X25033842Y14648539D01*
X24973818Y14629037D01*
X24838796Y14585166D01*
X24838785Y14585162D01*
X24832257Y14583040D01*
X24832249Y14583037D01*
X24832247Y14583036D01*
X24832243Y14583035D01*
X24832243Y14583034D01*
X24815980Y14574748D01*
X24815948Y14574733D01*
X24655427Y14492942D01*
X24604371Y14486673D01*
X24561230Y14514689D01*
X24546087Y14560037D01*
X24546116Y14583672D01*
X24546434Y14848299D01*
X24546260Y14862160D01*
X24546082Y14868947D01*
X24545531Y14882755D01*
X24517460Y15023871D01*
X24494215Y15089760D01*
X24440239Y15192945D01*
X24433424Y15243930D01*
X24460977Y15287369D01*
X24506874Y15303000D01*
X29848111Y15303000D01*
X29867570Y15300440D01*
X29886055Y15295487D01*
X29904183Y15287978D01*
X29980475Y15243930D01*
X30009615Y15227106D01*
X30010084Y15226831D01*
X30010115Y15226817D01*
X30010117Y15226817D01*
X30010118Y15226816D01*
X30152367Y15188700D01*
X30152370Y15188700D01*
X30299630Y15188700D01*
X30299633Y15188700D01*
X30441882Y15226816D01*
X30569418Y15300449D01*
X30673551Y15404582D01*
X30747184Y15532118D01*
X30785300Y15674367D01*
X30785300Y15821633D01*
X30747184Y15963882D01*
X30747183Y15963883D01*
X30747183Y15963885D01*
X30747168Y15963919D01*
X30746895Y15964384D01*
X30673551Y16091420D01*
X30569418Y16195553D01*
X30458973Y16259318D01*
X30441889Y16269181D01*
X30441888Y16269182D01*
X30441887Y16269182D01*
X30441882Y16269184D01*
X30299633Y16307300D01*
X30299630Y16307300D01*
X30152370Y16307300D01*
X30152367Y16307300D01*
X30090776Y16290797D01*
X30010129Y16269188D01*
X30010121Y16269185D01*
X30010107Y16269180D01*
X29904187Y16208026D01*
X29886052Y16200514D01*
X29867576Y16195563D01*
X29848111Y16193000D01*
X24513651Y16193000D01*
X24465313Y16210593D01*
X24439593Y16255142D01*
X24447499Y16299978D01*
X24446016Y16300657D01*
X24456779Y16324152D01*
X24508183Y16436354D01*
X24527948Y16503370D01*
X24548595Y16645759D01*
X24549740Y17598376D01*
X24555849Y22679633D01*
X28650700Y22679633D01*
X28650700Y22532367D01*
X28664498Y22480874D01*
X28688812Y22390131D01*
X28688814Y22390124D01*
X28688816Y22390119D01*
X28688819Y22390111D01*
X28688820Y22390109D01*
X28762444Y22262587D01*
X28784396Y22240635D01*
X28799374Y22219246D01*
X28808752Y22199138D01*
X28815800Y22167353D01*
X28815800Y19146411D01*
X28813238Y19126947D01*
X28808287Y19108470D01*
X28800774Y19090334D01*
X28740820Y18986493D01*
X28740815Y18986479D01*
X28740812Y18986471D01*
X28715558Y18892221D01*
X28702700Y18844233D01*
X28702700Y18844231D01*
X28702700Y18696967D01*
X28723543Y18619181D01*
X28723543Y18619179D01*
X28723544Y18619179D01*
X28740816Y18554719D01*
X28740817Y18554718D01*
X28740820Y18554709D01*
X28814447Y18427182D01*
X28918580Y18323049D01*
X29014947Y18267412D01*
X29046110Y18249420D01*
X29046113Y18249419D01*
X29046118Y18249416D01*
X29188367Y18211300D01*
X29188370Y18211300D01*
X29335630Y18211300D01*
X29335633Y18211300D01*
X29477882Y18249416D01*
X29509049Y18267410D01*
X29605418Y18323049D01*
X29709551Y18427182D01*
X29783180Y18554711D01*
X29783180Y18554712D01*
X29783184Y18554718D01*
X29821300Y18696967D01*
X29821300Y18844233D01*
X29783184Y18986482D01*
X29783183Y18986483D01*
X29783183Y18986485D01*
X29783168Y18986519D01*
X29782895Y18986984D01*
X29743806Y19054688D01*
X29720823Y19094496D01*
X29713313Y19112624D01*
X29708360Y19131109D01*
X29705800Y19150568D01*
X29705800Y22316102D01*
X29708362Y22335562D01*
X29713311Y22354035D01*
X29720821Y22372171D01*
X29731184Y22390118D01*
X29769300Y22532367D01*
X29769300Y22679633D01*
X29731184Y22821882D01*
X29731183Y22821883D01*
X29731183Y22821885D01*
X29731168Y22821919D01*
X29730895Y22822384D01*
X29657551Y22949420D01*
X29553418Y23053553D01*
X29442973Y23117318D01*
X29425889Y23127181D01*
X29425888Y23127182D01*
X29425887Y23127182D01*
X29425882Y23127184D01*
X29283633Y23165300D01*
X29283630Y23165300D01*
X29136370Y23165300D01*
X29136367Y23165300D01*
X29074776Y23148797D01*
X28994129Y23127188D01*
X28994121Y23127185D01*
X28994107Y23127180D01*
X28866580Y23053553D01*
X28762447Y22949420D01*
X28688820Y22821893D01*
X28688815Y22821879D01*
X28688812Y22821871D01*
X28669705Y22750560D01*
X28650700Y22679633D01*
X24555849Y22679633D01*
X24555855Y22684652D01*
X24558604Y24971790D01*
X24576256Y25020107D01*
X24620835Y25045773D01*
X24633804Y25046900D01*
X29467434Y25046900D01*
X29467438Y25046900D01*
X29521478Y25049797D01*
X29547836Y25052631D01*
X29601248Y25061286D01*
X29736057Y25111568D01*
X29797380Y25145053D01*
X29912561Y25231277D01*
X30089923Y25408639D01*
X30126088Y25448900D01*
X30142722Y25469542D01*
X30174367Y25513426D01*
X30234138Y25644303D01*
X30253823Y25711342D01*
X30253824Y25711346D01*
X30274300Y25853762D01*
X30274300Y31070479D01*
X30291893Y31118817D01*
X30336442Y31144537D01*
X30368960Y31143118D01*
X30380967Y31139900D01*
X30380970Y31139900D01*
X30528230Y31139900D01*
X30528233Y31139900D01*
X30670482Y31178016D01*
X30685463Y31186665D01*
X30798018Y31251649D01*
X30905636Y31359266D01*
X30905896Y31359006D01*
X30910813Y31364144D01*
X30927218Y31377908D01*
X30927883Y31378150D01*
X30975554Y31395500D01*
X32574753Y31395500D01*
X32600472Y31390965D01*
X32621318Y31383378D01*
X32648773Y31365888D01*
X32786498Y31228164D01*
X32801477Y31206773D01*
X32810854Y31186663D01*
X32817900Y31154883D01*
X32817900Y24498879D01*
X32813364Y24473158D01*
X32805777Y24452314D01*
X32788287Y24424861D01*
X32724847Y24361422D01*
X32651220Y24233895D01*
X32651215Y24233881D01*
X32651212Y24233873D01*
X32631032Y24158559D01*
X32613100Y24091635D01*
X32613100Y23944369D01*
X32649576Y23808240D01*
X32651214Y23802127D01*
X32651214Y23802126D01*
X32651219Y23802113D01*
X32724847Y23674584D01*
X32828980Y23570451D01*
X32947394Y23502085D01*
X32956510Y23496822D01*
X32956513Y23496821D01*
X32956518Y23496818D01*
X33098767Y23458702D01*
X33098770Y23458702D01*
X33184810Y23458702D01*
X33210522Y23454170D01*
X33220684Y23450471D01*
X33260088Y23417412D01*
X33263195Y23412030D01*
X33273269Y23374433D01*
X33273269Y23298369D01*
X33290409Y23234403D01*
X33298979Y23202419D01*
X33298978Y23202419D01*
X33311377Y23156147D01*
X33311384Y23156125D01*
X33311389Y23156111D01*
X33385016Y23028584D01*
X33489149Y22924451D01*
X33601648Y22859500D01*
X33616679Y22850822D01*
X33616682Y22850821D01*
X33616687Y22850818D01*
X33758936Y22812702D01*
X33758939Y22812702D01*
X33857840Y22812702D01*
X33883552Y22808170D01*
X33893714Y22804471D01*
X33933118Y22771412D01*
X33936225Y22766030D01*
X33946299Y22728433D01*
X33946299Y22627567D01*
X33947442Y22623302D01*
X33957655Y22585184D01*
X33958696Y22581301D01*
X33960971Y22555276D01*
X33960315Y22547787D01*
X33954712Y22535776D01*
X33954212Y22530057D01*
X33950151Y22525997D01*
X33938571Y22501169D01*
X33891948Y22479434D01*
X33847802Y22489224D01*
X33844887Y22490907D01*
X33829313Y22502858D01*
X33820618Y22511553D01*
X33810753Y22517249D01*
X33810753Y22517250D01*
X33699813Y22581301D01*
X33693089Y22585183D01*
X33693088Y22585184D01*
X33693087Y22585184D01*
X33693082Y22585186D01*
X33550833Y22623302D01*
X33550830Y22623302D01*
X33403570Y22623302D01*
X33403567Y22623302D01*
X33341976Y22606799D01*
X33261329Y22585190D01*
X33261321Y22585187D01*
X33261307Y22585182D01*
X33133780Y22511555D01*
X33029647Y22407422D01*
X32956020Y22279895D01*
X32956015Y22279881D01*
X32956012Y22279873D01*
X32948986Y22253649D01*
X32917900Y22137635D01*
X32917900Y21990369D01*
X32933367Y21932644D01*
X32956012Y21848133D01*
X32956014Y21848126D01*
X32956015Y21848123D01*
X32956020Y21848111D01*
X33029647Y21720584D01*
X33133780Y21616451D01*
X33254139Y21546962D01*
X33261310Y21542822D01*
X33261313Y21542821D01*
X33261318Y21542818D01*
X33403567Y21504702D01*
X33403570Y21504702D01*
X33550830Y21504702D01*
X33550833Y21504702D01*
X33693082Y21542818D01*
X33820618Y21616451D01*
X33865470Y21661305D01*
X33886857Y21676279D01*
X33906965Y21685656D01*
X33938744Y21692700D01*
X34946269Y21692700D01*
X34946271Y21692700D01*
X35036432Y21716859D01*
X35117268Y21763529D01*
X35247303Y21893564D01*
X35372551Y22018812D01*
X35393941Y22033789D01*
X35401785Y22037448D01*
X35453029Y22041932D01*
X35495165Y22012430D01*
X35496701Y22010237D01*
X35510300Y21967106D01*
X35510300Y13813471D01*
X35510300Y13720129D01*
X35521037Y13680058D01*
X35526406Y13660021D01*
X35526405Y13660021D01*
X35534458Y13629968D01*
X35534459Y13629967D01*
X35571266Y13566215D01*
X35581129Y13549132D01*
X35885929Y13244332D01*
X35951932Y13178329D01*
X36015685Y13141522D01*
X36031657Y13132300D01*
X36032768Y13131659D01*
X36122929Y13107500D01*
X37400753Y13107500D01*
X37419462Y13104201D01*
X37426472Y13102965D01*
X37447318Y13095378D01*
X37474773Y13077888D01*
X37587098Y12965564D01*
X37602077Y12944173D01*
X37611454Y12924063D01*
X37618500Y12892283D01*
X37618500Y9063671D01*
X37618500Y8970329D01*
X37621047Y8960825D01*
X37642659Y8880168D01*
X37642659Y8880166D01*
X37667795Y8836630D01*
X37689328Y8799334D01*
X37689332Y8799328D01*
X38067076Y8421585D01*
X38067077Y8421585D01*
X38067702Y8420960D01*
X38067723Y8420937D01*
X38136327Y8352333D01*
X38136330Y8352331D01*
X38136332Y8352329D01*
X38217168Y8305659D01*
X38307329Y8281500D01*
X38307331Y8281500D01*
X41900134Y8281500D01*
X41919595Y8278938D01*
X41938067Y8273989D01*
X41956207Y8266476D01*
X41998918Y8241816D01*
X42141167Y8203700D01*
X42141170Y8203700D01*
X42288430Y8203700D01*
X42288433Y8203700D01*
X42430682Y8241816D01*
X42558218Y8315449D01*
X42604106Y8361336D01*
X42662351Y8419582D01*
X42735980Y8547111D01*
X42735980Y8547112D01*
X42735984Y8547118D01*
X42774100Y8689367D01*
X42774100Y8836633D01*
X42735984Y8978882D01*
X42735983Y8978883D01*
X42735983Y8978885D01*
X42735968Y8978919D01*
X42735695Y8979384D01*
X42662351Y9106420D01*
X42592859Y9175912D01*
X42592855Y9175915D01*
X42558218Y9210552D01*
X42558219Y9210552D01*
X42503247Y9242290D01*
X42499800Y9244843D01*
X42497853Y9247788D01*
X42486956Y9256931D01*
X42482124Y9262689D01*
X42474925Y9282465D01*
X42471429Y9287752D01*
X42471804Y9291036D01*
X42464528Y9311025D01*
X42482119Y9359364D01*
X42520273Y9383669D01*
X42523525Y9384540D01*
X42542980Y9387100D01*
X44713269Y9387100D01*
X44713271Y9387100D01*
X44803432Y9411259D01*
X44884268Y9457929D01*
X45736172Y10309833D01*
X46650151Y11223812D01*
X46671539Y11238788D01*
X46677595Y11241612D01*
X46679385Y11242448D01*
X46730629Y11246932D01*
X46772765Y11217430D01*
X46774301Y11215237D01*
X46787900Y11172106D01*
X46787900Y10996477D01*
X46783364Y10970756D01*
X46775777Y10949912D01*
X46758287Y10922459D01*
X46694847Y10859020D01*
X46621220Y10731493D01*
X46621215Y10731479D01*
X46621212Y10731471D01*
X46600973Y10655934D01*
X46583100Y10589233D01*
X46583100Y10441967D01*
X46593732Y10402290D01*
X46621212Y10299731D01*
X46621214Y10299724D01*
X46621216Y10299719D01*
X46621219Y10299712D01*
X46621220Y10299709D01*
X46694847Y10172182D01*
X46798980Y10068049D01*
X46919339Y9998560D01*
X46926510Y9994420D01*
X46926513Y9994419D01*
X46926518Y9994416D01*
X47068767Y9956300D01*
X47068770Y9956300D01*
X47216030Y9956300D01*
X47216033Y9956300D01*
X47358282Y9994416D01*
X47485818Y10068049D01*
X47589951Y10172182D01*
X47601510Y10192203D01*
X47657088Y10288465D01*
X47662391Y10297653D01*
X47663514Y10299459D01*
X47663582Y10299717D01*
X47663584Y10299718D01*
X47701700Y10441967D01*
X47701700Y10589233D01*
X47663584Y10731482D01*
X47663583Y10731483D01*
X47663583Y10731485D01*
X47663568Y10731519D01*
X47663295Y10731984D01*
X47589951Y10859020D01*
X47528303Y10920668D01*
X47513323Y10942060D01*
X47503946Y10962168D01*
X47496900Y10993950D01*
X47496900Y27581340D01*
X47499462Y27600803D01*
X47504412Y27619277D01*
X47512008Y27637548D01*
X47512004Y27637550D01*
X47554514Y27711180D01*
X47561984Y27724118D01*
X47600100Y27866367D01*
X47600100Y28013633D01*
X47561984Y28155882D01*
X47561983Y28155883D01*
X47561983Y28155885D01*
X47561968Y28155919D01*
X47561695Y28156384D01*
X47488351Y28283420D01*
X47384218Y28387553D01*
X47266614Y28455451D01*
X47256689Y28461181D01*
X47256688Y28461182D01*
X47256687Y28461182D01*
X47256682Y28461184D01*
X47114433Y28499300D01*
X47114430Y28499300D01*
X46967170Y28499300D01*
X46967167Y28499300D01*
X46906313Y28482994D01*
X46824929Y28461188D01*
X46824921Y28461185D01*
X46824907Y28461180D01*
X46697380Y28387553D01*
X46593247Y28283420D01*
X46519620Y28155893D01*
X46519615Y28155879D01*
X46519612Y28155871D01*
X46499208Y28079719D01*
X46481500Y28013633D01*
X46481500Y28013631D01*
X46481500Y27866367D01*
X46514173Y27744429D01*
X46514174Y27744426D01*
X46516352Y27736300D01*
X46519616Y27724119D01*
X46519619Y27724111D01*
X46579261Y27620807D01*
X46579943Y27619513D01*
X46580231Y27617396D01*
X46587459Y27597542D01*
X46588765Y27590138D01*
X46586050Y27574738D01*
X46586895Y27568545D01*
X46584207Y27564283D01*
X46579835Y27539479D01*
X46540432Y27506412D01*
X46495242Y27504439D01*
X46491990Y27505310D01*
X46473859Y27512820D01*
X46460832Y27520341D01*
X46370671Y27544500D01*
X46370669Y27544500D01*
X45946876Y27544500D01*
X45921157Y27549035D01*
X45900311Y27556622D01*
X45872856Y27574113D01*
X45809413Y27637556D01*
X45695754Y27703176D01*
X45681889Y27711181D01*
X45681888Y27711182D01*
X45681887Y27711182D01*
X45681882Y27711184D01*
X45539633Y27749300D01*
X45539630Y27749300D01*
X45392370Y27749300D01*
X45392367Y27749300D01*
X45330776Y27732797D01*
X45250129Y27711188D01*
X45250121Y27711185D01*
X45250107Y27711180D01*
X45122580Y27637553D01*
X45018451Y27533424D01*
X45018447Y27533418D01*
X44951454Y27417383D01*
X44943327Y27410564D01*
X44934669Y27397379D01*
X44928911Y27392547D01*
X44916449Y27388011D01*
X44912049Y27384318D01*
X44903775Y27381835D01*
X44897146Y27380254D01*
X44895624Y27380430D01*
X44880575Y27374951D01*
X44851533Y27385520D01*
X44846045Y27386153D01*
X44844077Y27388233D01*
X44832236Y27392542D01*
X44816231Y27417665D01*
X44810692Y27423519D01*
X44810505Y27426653D01*
X44807933Y27430690D01*
X44807062Y27433941D01*
X44804500Y27453402D01*
X44804500Y30858433D01*
X46989500Y30858433D01*
X46989500Y30711167D01*
X47000429Y30670382D01*
X47027612Y30568931D01*
X47027614Y30568924D01*
X47027616Y30568919D01*
X47027619Y30568911D01*
X47027620Y30568909D01*
X47101247Y30441382D01*
X47205380Y30337249D01*
X47325739Y30267760D01*
X47332910Y30263620D01*
X47332913Y30263619D01*
X47332918Y30263616D01*
X47475167Y30225500D01*
X47475170Y30225500D01*
X47622430Y30225500D01*
X47622433Y30225500D01*
X47764682Y30263616D01*
X47892218Y30337249D01*
X47996351Y30441382D01*
X48069984Y30568918D01*
X48108100Y30711167D01*
X48108100Y30768649D01*
X68502600Y30768649D01*
X68502600Y30611351D01*
X68520523Y30544460D01*
X68523743Y30532444D01*
X68543312Y30459410D01*
X68582448Y30391625D01*
X68615779Y30333893D01*
X68621959Y30323190D01*
X68621963Y30323184D01*
X68733182Y30211965D01*
X68733185Y30211963D01*
X68733187Y30211961D01*
X68840611Y30149940D01*
X68869412Y30133312D01*
X69021351Y30092600D01*
X69021354Y30092600D01*
X69178646Y30092600D01*
X69178649Y30092600D01*
X69330588Y30133312D01*
X69466812Y30211961D01*
X69578039Y30323188D01*
X69656688Y30459412D01*
X69697400Y30611351D01*
X69697400Y30768649D01*
X69656688Y30920588D01*
X69610441Y31000690D01*
X69578039Y31056813D01*
X69578037Y31056815D01*
X69578035Y31056818D01*
X69466816Y31168037D01*
X69466810Y31168041D01*
X69330590Y31246688D01*
X69292603Y31256866D01*
X69269811Y31262973D01*
X69178649Y31287400D01*
X69178646Y31287400D01*
X69021352Y31287400D01*
X69021351Y31287400D01*
X69005447Y31283139D01*
X68930186Y31262974D01*
X68930187Y31262973D01*
X68869408Y31246688D01*
X68733188Y31168041D01*
X68733182Y31168037D01*
X68621963Y31056818D01*
X68621959Y31056812D01*
X68543312Y30920592D01*
X68530393Y30872374D01*
X68526657Y30858431D01*
X68502600Y30768649D01*
X48108100Y30768649D01*
X48108100Y30798355D01*
X48112633Y30824070D01*
X48120222Y30844922D01*
X48137710Y30872372D01*
X48883438Y31618100D01*
X48904826Y31633077D01*
X48924939Y31642455D01*
X48956719Y31649500D01*
X61647524Y31649500D01*
X61673239Y31644967D01*
X61694089Y31637378D01*
X61721543Y31619888D01*
X61780158Y31561273D01*
X61784982Y31556449D01*
X61784985Y31556446D01*
X61907248Y31485858D01*
X61912510Y31482820D01*
X61912513Y31482819D01*
X61912518Y31482816D01*
X62054767Y31444700D01*
X62054770Y31444700D01*
X62202030Y31444700D01*
X62202033Y31444700D01*
X62344282Y31482816D01*
X62344923Y31483186D01*
X62345156Y31483320D01*
X62471818Y31556449D01*
X62575953Y31660584D01*
X62648373Y31786021D01*
X62649580Y31788111D01*
X62649580Y31788112D01*
X62649584Y31788118D01*
X62687700Y31930367D01*
X62687700Y32077633D01*
X62649584Y32219882D01*
X62649583Y32219883D01*
X62649583Y32219885D01*
X62649568Y32219919D01*
X62649295Y32220384D01*
X62575951Y32347420D01*
X62471818Y32451553D01*
X62361373Y32515318D01*
X62344289Y32525181D01*
X62344288Y32525182D01*
X62344287Y32525182D01*
X62344282Y32525184D01*
X62202033Y32563300D01*
X62202030Y32563300D01*
X62054770Y32563300D01*
X62054767Y32563300D01*
X61993176Y32546797D01*
X61912529Y32525188D01*
X61912521Y32525185D01*
X61912507Y32525180D01*
X61784984Y32451555D01*
X61767227Y32433798D01*
X61749470Y32416040D01*
X61749469Y32416039D01*
X61723330Y32389901D01*
X61701943Y32374925D01*
X61681833Y32365547D01*
X61650053Y32358500D01*
X48721329Y32358500D01*
X48679973Y32347420D01*
X48679974Y32347419D01*
X48631164Y32334341D01*
X48550353Y32287685D01*
X48550324Y32287667D01*
X47638167Y31375508D01*
X47638167Y31375506D01*
X47616774Y31360525D01*
X47596665Y31351147D01*
X47564881Y31344100D01*
X47475167Y31344100D01*
X47413576Y31327597D01*
X47332929Y31305988D01*
X47332921Y31305985D01*
X47332907Y31305980D01*
X47205380Y31232353D01*
X47101247Y31128220D01*
X47027620Y31000693D01*
X47027619Y31000689D01*
X47027612Y31000671D01*
X47002358Y30906421D01*
X46989500Y30858433D01*
X44804500Y30858433D01*
X44804500Y34624033D01*
X45516300Y34624033D01*
X45516300Y34476767D01*
X45542519Y34378919D01*
X45554412Y34334531D01*
X45554415Y34334523D01*
X45554420Y34334509D01*
X45628047Y34206982D01*
X45732180Y34102849D01*
X45847101Y34036500D01*
X45859710Y34029220D01*
X45859713Y34029219D01*
X45859718Y34029216D01*
X46001967Y33991100D01*
X46001970Y33991100D01*
X46149230Y33991100D01*
X46149233Y33991100D01*
X46291482Y34029216D01*
X46419018Y34102849D01*
X46474272Y34158105D01*
X46495659Y34173079D01*
X46515767Y34182456D01*
X46547546Y34189500D01*
X57227924Y34189500D01*
X57253639Y34184967D01*
X57274489Y34177378D01*
X57301942Y34159889D01*
X57314582Y34147249D01*
X57314584Y34147248D01*
X57314591Y34147244D01*
X57315002Y34146947D01*
X57316524Y34146128D01*
X57442110Y34073620D01*
X57442113Y34073619D01*
X57442118Y34073616D01*
X57584367Y34035500D01*
X57584370Y34035500D01*
X57731630Y34035500D01*
X57731633Y34035500D01*
X57873882Y34073616D01*
X58001418Y34147249D01*
X58105551Y34251382D01*
X58179184Y34378918D01*
X58217300Y34521167D01*
X58217300Y34668433D01*
X58179184Y34810682D01*
X58179183Y34810683D01*
X58179183Y34810685D01*
X58179168Y34810719D01*
X58178895Y34811184D01*
X58105551Y34938220D01*
X58001418Y35042353D01*
X57884768Y35109700D01*
X57873889Y35115981D01*
X57873888Y35115982D01*
X57873887Y35115982D01*
X57873882Y35115984D01*
X57731633Y35154100D01*
X57731630Y35154100D01*
X57584370Y35154100D01*
X57584367Y35154100D01*
X57522776Y35137597D01*
X57442129Y35115988D01*
X57442121Y35115985D01*
X57442107Y35115980D01*
X57314580Y35042353D01*
X57207825Y34935597D01*
X57207678Y34935744D01*
X57202209Y34930213D01*
X57185385Y34916095D01*
X57137048Y34898500D01*
X48255263Y34898500D01*
X48229544Y34903035D01*
X48221411Y34905995D01*
X48182006Y34939059D01*
X48173072Y34989714D01*
X48174577Y34998246D01*
X48183505Y35022778D01*
X48222380Y35090111D01*
X48222380Y35090112D01*
X48222384Y35090118D01*
X48260500Y35232367D01*
X48260500Y35379633D01*
X48222384Y35521882D01*
X48222383Y35521883D01*
X48222383Y35521885D01*
X48222368Y35521919D01*
X48222095Y35522384D01*
X48148751Y35649420D01*
X48087103Y35711068D01*
X48072123Y35732460D01*
X48062746Y35752568D01*
X48055700Y35784350D01*
X48055700Y38173451D01*
X68350200Y38173451D01*
X68350200Y36806549D01*
X68356866Y36773037D01*
X68360199Y36756279D01*
X68379014Y36661691D01*
X68392583Y36628935D01*
X68398406Y36614877D01*
X68398406Y36614876D01*
X68434262Y36528310D01*
X68435535Y36525238D01*
X68517594Y36402427D01*
X68517595Y36402426D01*
X68517598Y36402422D01*
X68622018Y36298002D01*
X68622024Y36297997D01*
X68622026Y36297995D01*
X68622029Y36297993D01*
X68622030Y36297992D01*
X68744836Y36215936D01*
X68881291Y36159414D01*
X68977864Y36140205D01*
X69026150Y36130600D01*
X69026151Y36130600D01*
X69173850Y36130600D01*
X69210064Y36137804D01*
X69318709Y36159414D01*
X69455164Y36215936D01*
X69577970Y36297992D01*
X69682408Y36402430D01*
X69764464Y36525236D01*
X69820986Y36661691D01*
X69849800Y36806551D01*
X69849800Y38173449D01*
X69820986Y38318309D01*
X69764464Y38454764D01*
X69682408Y38577570D01*
X69682407Y38577571D01*
X69682405Y38577574D01*
X69577973Y38682006D01*
X69577969Y38682009D01*
X69577967Y38682011D01*
X69576345Y38683094D01*
X69576328Y38683105D01*
X69455166Y38764063D01*
X69455161Y38764065D01*
X69436292Y38771882D01*
X69325237Y38817883D01*
X69325229Y38817886D01*
X69318709Y38820586D01*
X69318707Y38820587D01*
X69318706Y38820587D01*
X69231754Y38837883D01*
X69173851Y38849400D01*
X69173850Y38849400D01*
X69173849Y38849400D01*
X69026151Y38849400D01*
X69026150Y38849400D01*
X69026149Y38849400D01*
X68881287Y38820586D01*
X68880382Y38820276D01*
X68878828Y38819566D01*
X68744838Y38764066D01*
X68622020Y38682002D01*
X68517598Y38577580D01*
X68435534Y38454762D01*
X68380034Y38320772D01*
X68379324Y38319218D01*
X68379014Y38318313D01*
X68350200Y38173451D01*
X48055700Y38173451D01*
X48055700Y39651125D01*
X48060233Y39676840D01*
X48067822Y39697692D01*
X48085310Y39725142D01*
X48148751Y39788582D01*
X48222384Y39916118D01*
X48260500Y40058367D01*
X48260500Y40205633D01*
X48222384Y40347882D01*
X48222383Y40347883D01*
X48222383Y40347885D01*
X48222368Y40347919D01*
X48222095Y40348384D01*
X48148751Y40475420D01*
X48044618Y40579553D01*
X47934173Y40643318D01*
X47917089Y40653181D01*
X47917088Y40653182D01*
X47917087Y40653182D01*
X47917082Y40653184D01*
X47774833Y40691300D01*
X47774830Y40691300D01*
X47627570Y40691300D01*
X47627567Y40691300D01*
X47565976Y40674797D01*
X47485329Y40653188D01*
X47485321Y40653185D01*
X47485307Y40653180D01*
X47357780Y40579553D01*
X47253647Y40475420D01*
X47180020Y40347893D01*
X47180015Y40347879D01*
X47180012Y40347871D01*
X47154758Y40253621D01*
X47141900Y40205633D01*
X47141900Y40058367D01*
X47168419Y39959398D01*
X47168419Y39959397D01*
X47168418Y39959397D01*
X47180008Y39916145D01*
X47180014Y39916125D01*
X47180016Y39916119D01*
X47180019Y39916111D01*
X47180020Y39916109D01*
X47253644Y39788587D01*
X47315296Y39726935D01*
X47330274Y39705546D01*
X47339652Y39685438D01*
X47346700Y39653653D01*
X47346700Y35786877D01*
X47342164Y35761156D01*
X47334577Y35740312D01*
X47317087Y35712859D01*
X47253647Y35649420D01*
X47180020Y35521893D01*
X47180015Y35521879D01*
X47180012Y35521871D01*
X47157543Y35438013D01*
X47141900Y35379633D01*
X47141900Y35232367D01*
X47173086Y35115981D01*
X47180016Y35090119D01*
X47180019Y35090111D01*
X47220338Y35020277D01*
X47221590Y35017663D01*
X47221897Y35014525D01*
X47227823Y34998244D01*
X47229326Y34989722D01*
X47226109Y34971478D01*
X47226600Y34966468D01*
X47224750Y34963769D01*
X47220396Y34939064D01*
X47180995Y34905998D01*
X47176683Y34904429D01*
X47172860Y34903037D01*
X47147136Y34898500D01*
X46562876Y34898500D01*
X46537157Y34903035D01*
X46516311Y34910622D01*
X46488856Y34928113D01*
X46419013Y34997956D01*
X46305354Y35063576D01*
X46291489Y35071581D01*
X46291488Y35071582D01*
X46291487Y35071582D01*
X46291482Y35071584D01*
X46149233Y35109700D01*
X46149230Y35109700D01*
X46001970Y35109700D01*
X46001967Y35109700D01*
X45940376Y35093197D01*
X45859729Y35071588D01*
X45859721Y35071585D01*
X45859707Y35071580D01*
X45732180Y34997953D01*
X45628047Y34893820D01*
X45554420Y34766293D01*
X45554415Y34766279D01*
X45554412Y34766271D01*
X45529158Y34672021D01*
X45516300Y34624033D01*
X44804500Y34624033D01*
X44804500Y41636844D01*
X44809033Y41662558D01*
X44815144Y41679348D01*
X44841951Y41711297D01*
X44840303Y41713445D01*
X44844215Y41716448D01*
X44844218Y41716449D01*
X44896008Y41768239D01*
X44951836Y41824066D01*
X44952096Y41823806D01*
X44957013Y41828944D01*
X44973418Y41842708D01*
X45021754Y41860300D01*
X57177124Y41860300D01*
X57202839Y41855767D01*
X57223689Y41848178D01*
X57251143Y41830688D01*
X57281472Y41800359D01*
X57313592Y41768239D01*
X57314584Y41767247D01*
X57402569Y41716449D01*
X57442110Y41693620D01*
X57442113Y41693619D01*
X57442118Y41693616D01*
X57584367Y41655500D01*
X57584370Y41655500D01*
X57731630Y41655500D01*
X57731633Y41655500D01*
X57873882Y41693616D01*
X58001418Y41767249D01*
X58105551Y41871382D01*
X58179184Y41998918D01*
X58217300Y42141167D01*
X58217300Y42288433D01*
X58179184Y42430682D01*
X58179183Y42430683D01*
X58179183Y42430685D01*
X58179168Y42430719D01*
X58178895Y42431184D01*
X58105551Y42558220D01*
X58001418Y42662353D01*
X57890973Y42726118D01*
X57873889Y42735981D01*
X57873888Y42735982D01*
X57873887Y42735982D01*
X57873882Y42735984D01*
X57731633Y42774100D01*
X57731630Y42774100D01*
X57584370Y42774100D01*
X57584367Y42774100D01*
X57522776Y42757597D01*
X57442129Y42735988D01*
X57442121Y42735985D01*
X57442107Y42735980D01*
X57314584Y42662355D01*
X57297996Y42645766D01*
X57279070Y42626840D01*
X57279069Y42626839D01*
X57252930Y42600701D01*
X57231543Y42585725D01*
X57211433Y42576347D01*
X57179653Y42569300D01*
X44930876Y42569300D01*
X44905157Y42573835D01*
X44884311Y42581422D01*
X44856856Y42598913D01*
X44844218Y42611551D01*
X44844215Y42611553D01*
X44844199Y42611563D01*
X44844193Y42611566D01*
X44756224Y42662355D01*
X44716689Y42685181D01*
X44716688Y42685182D01*
X44716687Y42685182D01*
X44716682Y42685184D01*
X44574433Y42723300D01*
X44574430Y42723300D01*
X44427170Y42723300D01*
X44427167Y42723300D01*
X44365576Y42706797D01*
X44284929Y42685188D01*
X44284921Y42685185D01*
X44284907Y42685180D01*
X44157380Y42611553D01*
X44053247Y42507420D01*
X43979620Y42379893D01*
X43979615Y42379879D01*
X43979612Y42379871D01*
X43955112Y42288433D01*
X43941500Y42237633D01*
X43941500Y42237631D01*
X43941500Y42090367D01*
X43959332Y42023818D01*
X43959332Y42023816D01*
X43959333Y42023816D01*
X43979612Y41948131D01*
X43979615Y41948123D01*
X43979620Y41948109D01*
X44051072Y41824351D01*
X44051073Y41824351D01*
X44051074Y41824349D01*
X44051388Y41823806D01*
X44053250Y41820580D01*
X44064090Y41809740D01*
X44064092Y41809739D01*
X44079074Y41788346D01*
X44088452Y41768239D01*
X44095500Y41736453D01*
X44095500Y37710334D01*
X44090964Y37684613D01*
X44088004Y37676481D01*
X44054939Y37637076D01*
X44004280Y37628145D01*
X43995757Y37629648D01*
X43971217Y37638580D01*
X43869900Y37697075D01*
X43853089Y37706781D01*
X43853088Y37706782D01*
X43853087Y37706782D01*
X43853082Y37706784D01*
X43710833Y37744900D01*
X43710830Y37744900D01*
X43563570Y37744900D01*
X43563567Y37744900D01*
X43501976Y37728397D01*
X43421329Y37706788D01*
X43421321Y37706785D01*
X43421307Y37706780D01*
X43293780Y37633153D01*
X43189647Y37529020D01*
X43116020Y37401493D01*
X43116015Y37401479D01*
X43116012Y37401471D01*
X43095773Y37325934D01*
X43077900Y37259233D01*
X43077900Y37111967D01*
X43093367Y37054242D01*
X43116012Y36969731D01*
X43116015Y36969723D01*
X43116020Y36969709D01*
X43189646Y36842184D01*
X43189648Y36842183D01*
X43251296Y36780535D01*
X43266275Y36759146D01*
X43267611Y36756280D01*
X43270260Y36752123D01*
X43268178Y36750797D01*
X43269627Y36746823D01*
X43278165Y36736648D01*
X43282684Y36711014D01*
X43282700Y36710972D01*
X43282700Y36702193D01*
X43278164Y36676472D01*
X43275204Y36668340D01*
X43266682Y36658186D01*
X43265107Y36653855D01*
X43261116Y36651551D01*
X43242139Y36628935D01*
X43191481Y36620004D01*
X43182963Y36621506D01*
X43158424Y36630437D01*
X43141903Y36639975D01*
X43141895Y36639979D01*
X43141893Y36639980D01*
X43141889Y36639982D01*
X43141884Y36639984D01*
X43141303Y36640217D01*
X43141192Y36640242D01*
X43141063Y36640227D01*
X43140961Y36640295D01*
X43139285Y36640680D01*
X43120243Y36645783D01*
X42999633Y36678100D01*
X42999630Y36678100D01*
X42852370Y36678100D01*
X42852367Y36678100D01*
X42712402Y36640596D01*
X42712400Y36640596D01*
X42710138Y36639991D01*
X42710121Y36639985D01*
X42710107Y36639980D01*
X42582582Y36566354D01*
X42554648Y36538420D01*
X42540210Y36528310D01*
X42533260Y36523443D01*
X42525417Y36519785D01*
X42474174Y36515298D01*
X42432036Y36544798D01*
X42431199Y36545992D01*
X42430486Y36547012D01*
X42416900Y36590125D01*
X42416900Y38736725D01*
X42421433Y38762440D01*
X42429022Y38783292D01*
X42446510Y38810742D01*
X42509951Y38874182D01*
X42583584Y39001718D01*
X42621700Y39143967D01*
X42621700Y39291233D01*
X42583584Y39433482D01*
X42583583Y39433483D01*
X42583583Y39433485D01*
X42583568Y39433519D01*
X42583295Y39433984D01*
X42509951Y39561020D01*
X42405818Y39665153D01*
X42295373Y39728918D01*
X42278289Y39738781D01*
X42278288Y39738782D01*
X42278287Y39738782D01*
X42278282Y39738784D01*
X42136033Y39776900D01*
X42136030Y39776900D01*
X41988770Y39776900D01*
X41988767Y39776900D01*
X41927176Y39760397D01*
X41846529Y39738788D01*
X41846521Y39738785D01*
X41846507Y39738780D01*
X41718980Y39665153D01*
X41614847Y39561020D01*
X41541220Y39433493D01*
X41541215Y39433479D01*
X41541212Y39433471D01*
X41515958Y39339221D01*
X41503100Y39291233D01*
X41503100Y39143967D01*
X41518567Y39086242D01*
X41541212Y39001731D01*
X41541214Y39001724D01*
X41541216Y39001719D01*
X41541219Y39001711D01*
X41541220Y39001709D01*
X41614844Y38874187D01*
X41676496Y38812535D01*
X41691474Y38791146D01*
X41700852Y38771038D01*
X41707900Y38739253D01*
X41707900Y36360846D01*
X41703365Y36335126D01*
X41695778Y36314281D01*
X41678287Y36286827D01*
X40829472Y35438013D01*
X40829436Y35437976D01*
X40828732Y35437271D01*
X40795730Y35404270D01*
X40762729Y35371269D01*
X40762728Y35371267D01*
X40757175Y35361650D01*
X40757172Y35361646D01*
X40716059Y35290437D01*
X40701563Y35236336D01*
X40691900Y35200270D01*
X40691900Y35200268D01*
X40691900Y30598876D01*
X40687364Y30573156D01*
X40679777Y30552312D01*
X40662287Y30524859D01*
X40598847Y30461420D01*
X40525220Y30333893D01*
X40525215Y30333879D01*
X40525212Y30333871D01*
X40506728Y30264885D01*
X40487100Y30191633D01*
X40487100Y30191631D01*
X40487100Y30044367D01*
X40499374Y29998560D01*
X40499374Y29998558D01*
X40499375Y29998558D01*
X40525212Y29902131D01*
X40525215Y29902123D01*
X40525220Y29902109D01*
X40598847Y29774582D01*
X40702980Y29670449D01*
X40797859Y29615671D01*
X40830510Y29596820D01*
X40830513Y29596819D01*
X40830518Y29596816D01*
X40972767Y29558700D01*
X40972770Y29558700D01*
X41120030Y29558700D01*
X41120033Y29558700D01*
X41262282Y29596816D01*
X41389818Y29670449D01*
X41493951Y29774582D01*
X41498625Y29782677D01*
X41510147Y29802634D01*
X41526927Y29822633D01*
X41532690Y29827468D01*
X41545149Y29832004D01*
X41549550Y29835696D01*
X41555293Y29835696D01*
X41581024Y29845063D01*
X41629363Y29827472D01*
X41653661Y29789345D01*
X41654533Y29786094D01*
X41657100Y29766612D01*
X41657100Y27046277D01*
X41657099Y27046276D01*
X41657100Y27046275D01*
X41655915Y27039555D01*
X41652564Y27020556D01*
X41649604Y27012424D01*
X41616539Y26973019D01*
X41565880Y26964088D01*
X41565879Y26964088D01*
X41563248Y26964552D01*
X41523136Y26985434D01*
X41447018Y27061552D01*
X41447017Y27061553D01*
X41447016Y27061554D01*
X41339216Y27123792D01*
X41319489Y27135181D01*
X41319488Y27135182D01*
X41319487Y27135182D01*
X41319482Y27135184D01*
X41177233Y27173300D01*
X41177230Y27173300D01*
X41029970Y27173300D01*
X41029967Y27173300D01*
X40968376Y27156797D01*
X40887729Y27135188D01*
X40887721Y27135185D01*
X40887707Y27135180D01*
X40760180Y27061553D01*
X40656047Y26957420D01*
X40582420Y26829893D01*
X40582415Y26829879D01*
X40582412Y26829871D01*
X40567270Y26773358D01*
X40544300Y26687633D01*
X40544300Y26540367D01*
X40557796Y26490002D01*
X40582412Y26398131D01*
X40582415Y26398123D01*
X40582420Y26398109D01*
X40656044Y26270587D01*
X40684296Y26242335D01*
X40699274Y26220946D01*
X40708652Y26200838D01*
X40715700Y26169053D01*
X40715700Y12191230D01*
X40711165Y12165512D01*
X40703990Y12145798D01*
X40703578Y12144665D01*
X40686087Y12117211D01*
X40564183Y11995308D01*
X40564183Y11995306D01*
X40542790Y11980325D01*
X40522681Y11970947D01*
X40490897Y11963900D01*
X39671476Y11963900D01*
X39645757Y11968435D01*
X39624911Y11976022D01*
X39597456Y11993513D01*
X39561013Y12029956D01*
X39447354Y12095576D01*
X39433489Y12103581D01*
X39433488Y12103582D01*
X39433487Y12103582D01*
X39433482Y12103584D01*
X39291233Y12141700D01*
X39291230Y12141700D01*
X39143970Y12141700D01*
X39143967Y12141700D01*
X39082376Y12125197D01*
X39001729Y12103588D01*
X39001721Y12103585D01*
X39001707Y12103580D01*
X38874180Y12029953D01*
X38770047Y11925820D01*
X38696420Y11798293D01*
X38696415Y11798279D01*
X38696412Y11798271D01*
X38679757Y11736111D01*
X38658300Y11656033D01*
X38658300Y11508767D01*
X38695637Y11369427D01*
X38696416Y11366519D01*
X38696419Y11366511D01*
X38707018Y11348153D01*
X38770047Y11238982D01*
X38874180Y11134849D01*
X38935878Y11099228D01*
X39001710Y11061220D01*
X39001713Y11061219D01*
X39001718Y11061216D01*
X39143967Y11023100D01*
X39143970Y11023100D01*
X39291230Y11023100D01*
X39291233Y11023100D01*
X39433482Y11061216D01*
X39561018Y11134849D01*
X39595673Y11169505D01*
X39617059Y11184479D01*
X39637167Y11193856D01*
X39668946Y11200900D01*
X40741022Y11200900D01*
X40741025Y11200900D01*
X40838054Y11226899D01*
X40925047Y11277124D01*
X40996076Y11348153D01*
X40996076Y11348154D01*
X41325253Y11677333D01*
X41325263Y11677340D01*
X41402472Y11754549D01*
X41402476Y11754553D01*
X41452701Y11841546D01*
X41478700Y11938575D01*
X41478700Y23569124D01*
X41483233Y23594838D01*
X41486194Y23602973D01*
X41519253Y23642378D01*
X41569908Y23651315D01*
X41572552Y23650849D01*
X41612662Y23629968D01*
X41647792Y23594838D01*
X41668182Y23574448D01*
X41786814Y23505956D01*
X41795710Y23500820D01*
X41795713Y23500819D01*
X41795718Y23500816D01*
X41937967Y23462700D01*
X41937970Y23462700D01*
X42085233Y23462700D01*
X42085234Y23462700D01*
X42153710Y23481049D01*
X42157629Y23482100D01*
X42183644Y23484376D01*
X42194414Y23483434D01*
X42241017Y23461712D01*
X42242538Y23460192D01*
X42262795Y23423290D01*
X42263314Y23420951D01*
X42265100Y23404661D01*
X42265100Y23345167D01*
X42302209Y23206677D01*
X42303216Y23202919D01*
X42303219Y23202911D01*
X42303220Y23202909D01*
X42376847Y23075382D01*
X42480980Y22971249D01*
X42562037Y22924451D01*
X42608510Y22897620D01*
X42608513Y22897619D01*
X42608518Y22897616D01*
X42750767Y22859500D01*
X42750770Y22859500D01*
X42898030Y22859500D01*
X42898031Y22859500D01*
X42898033Y22859500D01*
X42977636Y22880830D01*
X43003653Y22883106D01*
X43008761Y22882660D01*
X43012272Y22882352D01*
X43058892Y22860613D01*
X43080631Y22813999D01*
X43081386Y22805378D01*
X43079111Y22779357D01*
X43077900Y22774838D01*
X43077900Y22774833D01*
X43077900Y22627567D01*
X43089257Y22585184D01*
X43116012Y22485331D01*
X43116015Y22485323D01*
X43116020Y22485309D01*
X43189647Y22357782D01*
X43293780Y22253649D01*
X43413311Y22184638D01*
X43421310Y22180020D01*
X43421313Y22180019D01*
X43421318Y22180016D01*
X43563567Y22141900D01*
X43563570Y22141900D01*
X43710833Y22141900D01*
X43710834Y22141900D01*
X43750613Y22152560D01*
X43783237Y22161302D01*
X43809250Y22163575D01*
X43814618Y22163106D01*
X43820021Y22162632D01*
X43866635Y22140893D01*
X43866640Y22140888D01*
X43868155Y22139373D01*
X43888396Y22102483D01*
X43888916Y22100138D01*
X43890700Y22083859D01*
X43890700Y21973567D01*
X43924314Y21848121D01*
X43928816Y21831319D01*
X43928817Y21831318D01*
X43928820Y21831309D01*
X44002447Y21703782D01*
X44106580Y21599649D01*
X44202817Y21544087D01*
X44234110Y21526020D01*
X44234113Y21526019D01*
X44234118Y21526016D01*
X44376367Y21487900D01*
X44376370Y21487900D01*
X44523630Y21487900D01*
X44523633Y21487900D01*
X44665882Y21526016D01*
X44793418Y21599649D01*
X44897551Y21703782D01*
X44971184Y21831318D01*
X45009300Y21973567D01*
X45009300Y22120833D01*
X44971184Y22263082D01*
X44971183Y22263083D01*
X44971183Y22263085D01*
X44971168Y22263119D01*
X44970895Y22263584D01*
X44897551Y22390620D01*
X44835903Y22452268D01*
X44820923Y22473660D01*
X44811546Y22493768D01*
X44804500Y22525550D01*
X44804500Y26923243D01*
X44808132Y26933224D01*
X44809035Y26948962D01*
X44810232Y26952249D01*
X44811606Y26956027D01*
X44820128Y26966184D01*
X44822093Y26971581D01*
X44827996Y26977849D01*
X44832945Y26982535D01*
X44834365Y26983151D01*
X44844670Y26995432D01*
X44875057Y27000791D01*
X44880141Y27002994D01*
X44882900Y27002174D01*
X44895329Y27004365D01*
X44921714Y26990629D01*
X44929447Y26988329D01*
X44931183Y26985700D01*
X44935445Y26983481D01*
X44937823Y26981103D01*
X44949774Y26965529D01*
X44995469Y26886382D01*
X45018447Y26846584D01*
X45018451Y26846578D01*
X45122580Y26742449D01*
X45181174Y26708620D01*
X45250110Y26668820D01*
X45250113Y26668819D01*
X45250118Y26668816D01*
X45392367Y26630700D01*
X45392370Y26630700D01*
X45539630Y26630700D01*
X45539633Y26630700D01*
X45681882Y26668816D01*
X45809418Y26742449D01*
X45871071Y26804104D01*
X45886974Y26816242D01*
X45889646Y26817767D01*
X45895321Y26820413D01*
X45897524Y26822262D01*
X45903403Y26825616D01*
X45922480Y26828880D01*
X45940671Y26835500D01*
X46039041Y26835500D01*
X46064753Y26830968D01*
X46074915Y26827269D01*
X46114319Y26794210D01*
X46117426Y26788828D01*
X46127500Y26751231D01*
X46127500Y24992747D01*
X46123865Y24982761D01*
X46122963Y24967022D01*
X46120391Y24959957D01*
X46111870Y24949804D01*
X46109907Y24944409D01*
X46104010Y24938147D01*
X46099061Y24933460D01*
X46097636Y24932843D01*
X46087324Y24920554D01*
X46056951Y24915201D01*
X46051867Y24912996D01*
X46049103Y24913818D01*
X46036665Y24911625D01*
X46010302Y24925354D01*
X46002560Y24927655D01*
X46000818Y24930293D01*
X45996544Y24932518D01*
X45994164Y24934899D01*
X45982227Y24950458D01*
X45965465Y24979488D01*
X45964350Y24981420D01*
X45964349Y24981421D01*
X45964348Y24981423D01*
X45860218Y25085553D01*
X45749773Y25149318D01*
X45732689Y25159181D01*
X45732688Y25159182D01*
X45732687Y25159182D01*
X45732682Y25159184D01*
X45590433Y25197300D01*
X45590430Y25197300D01*
X45443170Y25197300D01*
X45443167Y25197300D01*
X45381576Y25180797D01*
X45300929Y25159188D01*
X45300921Y25159185D01*
X45300907Y25159180D01*
X45173380Y25085553D01*
X45069247Y24981420D01*
X44995620Y24853893D01*
X44995615Y24853879D01*
X44995612Y24853871D01*
X44970358Y24759621D01*
X44957500Y24711633D01*
X44957500Y24564367D01*
X44963628Y24541499D01*
X44992846Y24432455D01*
X44992849Y24432446D01*
X44995614Y24422125D01*
X44995620Y24422109D01*
X45069244Y24294587D01*
X45130896Y24232935D01*
X45145874Y24211546D01*
X45155252Y24191438D01*
X45162300Y24159653D01*
X45162300Y20445277D01*
X45157764Y20419556D01*
X45150177Y20398712D01*
X45132687Y20371259D01*
X45069247Y20307820D01*
X44995620Y20180293D01*
X44995615Y20180279D01*
X44995612Y20180271D01*
X44971506Y20090303D01*
X44957500Y20038033D01*
X44957500Y19890767D01*
X44972967Y19833042D01*
X44995612Y19748531D01*
X44995615Y19748523D01*
X44995620Y19748509D01*
X45069247Y19620982D01*
X45173380Y19516849D01*
X45293739Y19447360D01*
X45300910Y19443220D01*
X45300913Y19443219D01*
X45300918Y19443216D01*
X45443167Y19405100D01*
X45443170Y19405100D01*
X45590430Y19405100D01*
X45590433Y19405100D01*
X45732682Y19443216D01*
X45860218Y19516849D01*
X45964351Y19620982D01*
X45965466Y19622913D01*
X45980546Y19649032D01*
X45988671Y19655851D01*
X45997328Y19669034D01*
X46003090Y19673868D01*
X46015547Y19678403D01*
X46019949Y19682096D01*
X46028227Y19684580D01*
X46034857Y19686161D01*
X46036377Y19685986D01*
X46051424Y19691463D01*
X46080467Y19680894D01*
X46085957Y19680260D01*
X46087924Y19678181D01*
X46099763Y19673872D01*
X46115785Y19648731D01*
X46121309Y19642892D01*
X46121495Y19639772D01*
X46124061Y19635745D01*
X46124933Y19632494D01*
X46127500Y19613012D01*
X46127500Y11748246D01*
X46122965Y11722526D01*
X46115378Y11701681D01*
X46097887Y11674227D01*
X44551167Y10127508D01*
X44551167Y10127506D01*
X44529774Y10112525D01*
X44509665Y10103147D01*
X44477881Y10096100D01*
X39604407Y10096100D01*
X39578688Y10100635D01*
X39557842Y10108222D01*
X39530387Y10125713D01*
X39466944Y10189156D01*
X39353285Y10254776D01*
X39339420Y10262781D01*
X39339419Y10262782D01*
X39339418Y10262782D01*
X39339413Y10262784D01*
X39197164Y10300900D01*
X39197161Y10300900D01*
X39049901Y10300900D01*
X39049898Y10300900D01*
X39003491Y10288465D01*
X38907660Y10262788D01*
X38907652Y10262785D01*
X38907638Y10262780D01*
X38780111Y10189153D01*
X38675978Y10085020D01*
X38602351Y9957493D01*
X38602346Y9957479D01*
X38602343Y9957471D01*
X38577089Y9863221D01*
X38564231Y9815233D01*
X38564231Y9667967D01*
X38578072Y9616312D01*
X38590873Y9568540D01*
X38602345Y9525726D01*
X38602346Y9525723D01*
X38602351Y9525709D01*
X38675978Y9398182D01*
X38780111Y9294049D01*
X38844402Y9256931D01*
X38907641Y9220420D01*
X38907644Y9220419D01*
X38907649Y9220416D01*
X39049898Y9182300D01*
X39049901Y9182300D01*
X39197161Y9182300D01*
X39197164Y9182300D01*
X39339413Y9220416D01*
X39466949Y9294049D01*
X39528603Y9355705D01*
X39549990Y9370679D01*
X39570098Y9380056D01*
X39601877Y9387100D01*
X41883263Y9387100D01*
X41908982Y9382565D01*
X41916046Y9379994D01*
X41955452Y9346930D01*
X41964385Y9296271D01*
X41943501Y9256155D01*
X41941124Y9253778D01*
X41925550Y9241827D01*
X41871382Y9210553D01*
X41871376Y9210549D01*
X41767253Y9106426D01*
X41767235Y9106397D01*
X41728661Y9039583D01*
X41711876Y9019579D01*
X41698190Y9008095D01*
X41649854Y8990500D01*
X38545246Y8990500D01*
X38519527Y8995035D01*
X38498681Y9002622D01*
X38471225Y9020113D01*
X38358900Y9132439D01*
X38343921Y9153832D01*
X38334546Y9173937D01*
X38327500Y9205718D01*
X38327500Y13127672D01*
X38326907Y13129882D01*
X38326431Y13131660D01*
X38303341Y13217832D01*
X38296887Y13229010D01*
X38264309Y13285438D01*
X38256671Y13298668D01*
X38256669Y13298670D01*
X38256667Y13298673D01*
X38256664Y13298676D01*
X38256661Y13298680D01*
X38187508Y13367833D01*
X38187415Y13367924D01*
X37809672Y13745668D01*
X37809669Y13745670D01*
X37809668Y13745671D01*
X37792585Y13755534D01*
X37792584Y13755535D01*
X37728834Y13792341D01*
X37698778Y13800394D01*
X37698777Y13800395D01*
X37664074Y13809694D01*
X37638671Y13816500D01*
X37638669Y13816500D01*
X36360848Y13816500D01*
X36341013Y13819163D01*
X36338031Y13819979D01*
X36332159Y13822116D01*
X36329299Y13822367D01*
X36322761Y13824154D01*
X36306971Y13835332D01*
X36289422Y13843517D01*
X36250703Y13882236D01*
X36235723Y13903629D01*
X36226346Y13923738D01*
X36219300Y13955519D01*
X36219300Y25884325D01*
X36223833Y25910040D01*
X36231422Y25930892D01*
X36248910Y25958342D01*
X36312351Y26021782D01*
X36385984Y26149318D01*
X36424100Y26291567D01*
X36424100Y26438833D01*
X36385984Y26581082D01*
X36385983Y26581083D01*
X36385983Y26581085D01*
X36385968Y26581119D01*
X36385695Y26581584D01*
X36312351Y26708620D01*
X36208218Y26812753D01*
X36080687Y26886382D01*
X36080682Y26886384D01*
X35938433Y26924500D01*
X35938430Y26924500D01*
X35791169Y26924500D01*
X35791167Y26924500D01*
X35727797Y26907521D01*
X35696111Y26899031D01*
X35666370Y26891061D01*
X35666366Y26891061D01*
X35666366Y26891060D01*
X35640349Y26888786D01*
X35629579Y26889729D01*
X35582964Y26911468D01*
X35582961Y26911471D01*
X35581444Y26912988D01*
X35561197Y26949905D01*
X35560676Y26952255D01*
X35558900Y26968502D01*
X35558900Y27951955D01*
X35563433Y27977669D01*
X35571022Y27998522D01*
X35586727Y28023168D01*
X35586666Y28023215D01*
X35587208Y28023922D01*
X35588521Y28025983D01*
X35589671Y28027132D01*
X35636341Y28107968D01*
X35660500Y28198129D01*
X35660500Y28291471D01*
X35660500Y28457276D01*
X35665033Y28482990D01*
X35672622Y28503843D01*
X35690112Y28531294D01*
X35780995Y28622178D01*
X35780994Y28622178D01*
X35780999Y28622182D01*
X35854628Y28749711D01*
X35854628Y28749712D01*
X35854632Y28749718D01*
X35892748Y28891967D01*
X35892748Y29039233D01*
X35854632Y29181482D01*
X35854631Y29181483D01*
X35854631Y29181485D01*
X35854616Y29181519D01*
X35854343Y29181984D01*
X35780999Y29309020D01*
X35676866Y29413153D01*
X35549335Y29486782D01*
X35549330Y29486784D01*
X35407081Y29524900D01*
X35407078Y29524900D01*
X35259818Y29524900D01*
X35259815Y29524900D01*
X35131647Y29490557D01*
X35117566Y29486784D01*
X35117558Y29486781D01*
X35021357Y29431239D01*
X35019861Y29430461D01*
X35017552Y29430159D01*
X34998244Y29423130D01*
X34992313Y29422084D01*
X34989722Y29421628D01*
X34973820Y29424431D01*
X34968857Y29423780D01*
X34965553Y29425888D01*
X34939064Y29430557D01*
X34905997Y29469960D01*
X34905994Y29469968D01*
X34903034Y29478102D01*
X34898500Y29503818D01*
X34898500Y30303925D01*
X34903033Y30329640D01*
X34910622Y30350492D01*
X34928110Y30377942D01*
X34991551Y30441382D01*
X35065184Y30568918D01*
X35103300Y30711167D01*
X35103300Y30858433D01*
X35065184Y31000682D01*
X35065183Y31000683D01*
X35065183Y31000685D01*
X35065168Y31000719D01*
X35064895Y31001184D01*
X34991551Y31128220D01*
X34887418Y31232353D01*
X34776973Y31296118D01*
X34759889Y31305981D01*
X34759888Y31305982D01*
X34759887Y31305982D01*
X34759882Y31305984D01*
X34617633Y31344100D01*
X34617630Y31344100D01*
X34470370Y31344100D01*
X34470367Y31344100D01*
X34408776Y31327597D01*
X34328129Y31305988D01*
X34328121Y31305985D01*
X34328107Y31305980D01*
X34200580Y31232353D01*
X34096447Y31128220D01*
X34022820Y31000693D01*
X34022819Y31000689D01*
X34022812Y31000671D01*
X33997558Y30906421D01*
X33984700Y30858433D01*
X33984700Y30858431D01*
X33984700Y30720761D01*
X33980165Y30695045D01*
X33976468Y30684884D01*
X33943402Y30645479D01*
X33943399Y30645478D01*
X33939245Y30643080D01*
X33903296Y30633025D01*
X33898412Y30632918D01*
X33896765Y30632900D01*
X33752767Y30632900D01*
X33672357Y30611354D01*
X33634371Y30601176D01*
X33608348Y30598901D01*
X33597579Y30599844D01*
X33585565Y30605447D01*
X33583127Y30605660D01*
X33581395Y30607392D01*
X33550965Y30621583D01*
X33549445Y30623103D01*
X33529200Y30660007D01*
X33528681Y30662349D01*
X33526900Y30678619D01*
X33526900Y31390271D01*
X33526199Y31392885D01*
X33525499Y31395500D01*
X33502741Y31480432D01*
X33501363Y31482818D01*
X33456073Y31561264D01*
X33456071Y31561268D01*
X33456069Y31561270D01*
X33456067Y31561273D01*
X33456064Y31561276D01*
X33456061Y31561280D01*
X33386949Y31630392D01*
X33386814Y31630524D01*
X33240813Y31776526D01*
X33219074Y31823146D01*
X33232388Y31872833D01*
X33274525Y31902338D01*
X33293988Y31904900D01*
X36349434Y31904900D01*
X36349438Y31904900D01*
X36403478Y31907797D01*
X36429836Y31910631D01*
X36483248Y31919286D01*
X36618057Y31969568D01*
X36679380Y32003053D01*
X36794561Y32089277D01*
X36971923Y32266639D01*
X37008088Y32306900D01*
X37024722Y32327542D01*
X37056367Y32371426D01*
X37116138Y32502303D01*
X37135823Y32569342D01*
X37135824Y32569346D01*
X37156300Y32711762D01*
X37156300Y41225038D01*
X37153403Y41279078D01*
X37150569Y41305436D01*
X37141914Y41358846D01*
X37137041Y41371912D01*
X37132300Y41398191D01*
X37132300Y42480532D01*
X37135348Y42501724D01*
X37135822Y42503339D01*
X37135823Y42503342D01*
X37135824Y42503346D01*
X37156300Y42645762D01*
X37156300Y43412038D01*
X37153403Y43466078D01*
X37150569Y43492436D01*
X37141914Y43545848D01*
X37138703Y43554456D01*
X37091632Y43680656D01*
X37091631Y43680659D01*
X37058148Y43741978D01*
X37050365Y43752375D01*
X36971923Y43857161D01*
X36971919Y43857165D01*
X36971917Y43857168D01*
X36794577Y44034508D01*
X36794566Y44034518D01*
X36794561Y44034523D01*
X36754300Y44070688D01*
X36733658Y44087322D01*
X36733655Y44087325D01*
X36733649Y44087329D01*
X36689774Y44118967D01*
X36558902Y44178736D01*
X36558898Y44178738D01*
X36491855Y44198424D01*
X36349439Y44218900D01*
X36349438Y44218900D01*
X35023162Y44218900D01*
X35023156Y44218900D01*
X34969117Y44216003D01*
X34942764Y44213169D01*
X34942745Y44213166D01*
X34889350Y44204514D01*
X34889343Y44204512D01*
X34754544Y44154233D01*
X34754541Y44154232D01*
X34693222Y44120749D01*
X34578032Y44034518D01*
X34400692Y43857178D01*
X34364515Y43816904D01*
X34347871Y43796250D01*
X34316233Y43752375D01*
X34256464Y43621503D01*
X34256462Y43621499D01*
X34236776Y43554456D01*
X34216300Y43412040D01*
X34216300Y35023100D01*
X34198707Y34974762D01*
X34154158Y34949042D01*
X34141100Y34947900D01*
X27530156Y34947900D01*
X27476117Y34945003D01*
X27449764Y34942169D01*
X27449745Y34942166D01*
X27396350Y34933514D01*
X27396343Y34933512D01*
X27261544Y34883233D01*
X27261541Y34883232D01*
X27200222Y34849749D01*
X27085032Y34763518D01*
X26907692Y34586178D01*
X26871515Y34545904D01*
X26854871Y34525250D01*
X26823233Y34481375D01*
X26763464Y34350503D01*
X26763462Y34350499D01*
X26743776Y34283456D01*
X26723300Y34141040D01*
X26723300Y28543645D01*
X26705707Y28495307D01*
X26661158Y28469587D01*
X26648419Y28468446D01*
X23581758Y28455451D01*
X20238078Y28441283D01*
X20238057Y28441282D01*
X20184566Y28438216D01*
X20171617Y28436782D01*
X20158479Y28435327D01*
X20158474Y28435327D01*
X20158472Y28435326D01*
X20105621Y28426618D01*
X19970928Y28376056D01*
X19970925Y28376055D01*
X19970921Y28376053D01*
X19958490Y28369231D01*
X19909676Y28342444D01*
X19909656Y28342432D01*
X19909655Y28342431D01*
X19794668Y28255972D01*
X19794657Y28255961D01*
X19616945Y28077494D01*
X19616936Y28077485D01*
X19616931Y28077479D01*
X19599054Y28057514D01*
X19581164Y28037533D01*
X19581162Y28037531D01*
X19564751Y28017119D01*
X19564731Y28017093D01*
X19533432Y27973640D01*
X19533432Y27973639D01*
X19473664Y27842768D01*
X19473662Y27842764D01*
X19453976Y27775721D01*
X19433500Y27633305D01*
X2355300Y27633305D01*
X2355300Y30408647D01*
X10472704Y30408647D01*
X10472704Y30251349D01*
X10483257Y30211965D01*
X10493403Y30174100D01*
X10513416Y30099408D01*
X10530239Y30070270D01*
X10592063Y29963187D01*
X10592067Y29963182D01*
X10703286Y29851963D01*
X10703289Y29851961D01*
X10703291Y29851959D01*
X10745704Y29827472D01*
X10833967Y29776513D01*
X10833968Y29776513D01*
X10839516Y29773310D01*
X10991455Y29732598D01*
X10991458Y29732598D01*
X11148750Y29732598D01*
X11148753Y29732598D01*
X11300692Y29773310D01*
X11436916Y29851959D01*
X11548143Y29963186D01*
X11548144Y29963186D01*
X11609968Y30070270D01*
X11626792Y30099410D01*
X11667504Y30251349D01*
X11667504Y30408647D01*
X11626792Y30560586D01*
X11597481Y30611354D01*
X11548143Y30696811D01*
X11548141Y30696813D01*
X11548139Y30696816D01*
X11436920Y30808035D01*
X11436914Y30808039D01*
X11300694Y30886686D01*
X11262707Y30896864D01*
X11239915Y30902971D01*
X11148753Y30927398D01*
X11148750Y30927398D01*
X10991456Y30927398D01*
X10991455Y30927398D01*
X10975551Y30923137D01*
X10900290Y30902972D01*
X10900291Y30902971D01*
X10839512Y30886686D01*
X10703292Y30808039D01*
X10703286Y30808035D01*
X10592067Y30696816D01*
X10592063Y30696810D01*
X10513419Y30560595D01*
X10513416Y30560590D01*
X10513416Y30560588D01*
X10513415Y30560586D01*
X10513414Y30560582D01*
X10507170Y30537281D01*
X10507171Y30537280D01*
X10472704Y30408647D01*
X2355300Y30408647D01*
X2355300Y39283447D01*
X10320200Y39283447D01*
X10320200Y37916549D01*
X10349014Y37771689D01*
X10388451Y37676481D01*
X10405536Y37635234D01*
X10413700Y37623015D01*
X10413699Y37623015D01*
X10487590Y37512429D01*
X10487598Y37512420D01*
X10592018Y37408000D01*
X10592024Y37407995D01*
X10592026Y37407993D01*
X10592029Y37407991D01*
X10592030Y37407990D01*
X10714836Y37325934D01*
X10851291Y37269412D01*
X10947864Y37250203D01*
X10996150Y37240598D01*
X10996151Y37240598D01*
X11143850Y37240598D01*
X11180064Y37247802D01*
X11288709Y37269412D01*
X11425164Y37325934D01*
X11547970Y37407990D01*
X11652408Y37512428D01*
X11734464Y37635234D01*
X11790986Y37771689D01*
X11819800Y37916549D01*
X11819800Y39283447D01*
X11790986Y39428307D01*
X11734464Y39564762D01*
X11652408Y39687568D01*
X11652407Y39687569D01*
X11652405Y39687572D01*
X11547973Y39792004D01*
X11547969Y39792007D01*
X11547967Y39792009D01*
X11546345Y39793092D01*
X11546328Y39793103D01*
X11425166Y39874061D01*
X11425161Y39874063D01*
X11406292Y39881880D01*
X11295237Y39927881D01*
X11295229Y39927884D01*
X11288709Y39930584D01*
X11288707Y39930585D01*
X11288706Y39930585D01*
X11201754Y39947881D01*
X11143851Y39959398D01*
X11143850Y39959398D01*
X11143849Y39959398D01*
X10996151Y39959398D01*
X10996150Y39959398D01*
X10996149Y39959398D01*
X10851287Y39930584D01*
X10850382Y39930274D01*
X10848828Y39929564D01*
X10714838Y39874064D01*
X10592020Y39792000D01*
X10487598Y39687578D01*
X10405534Y39564760D01*
X10350034Y39430770D01*
X10349328Y39429224D01*
X10349014Y39428307D01*
X10349013Y39428305D01*
X10321748Y39291231D01*
X10320200Y39283447D01*
X2355300Y39283447D01*
X2355300Y47704686D01*
X17782500Y47704686D01*
X17782500Y46783357D01*
X17785397Y46729318D01*
X17788231Y46702965D01*
X17788234Y46702946D01*
X17796886Y46649551D01*
X17796888Y46649544D01*
X17847167Y46514745D01*
X17847168Y46514742D01*
X17880651Y46453423D01*
X17880653Y46453420D01*
X17966877Y46338239D01*
X17966879Y46338237D01*
X17966882Y46338233D01*
X18144222Y46160893D01*
X18144231Y46160885D01*
X18144239Y46160877D01*
X18184500Y46124712D01*
X18205142Y46108078D01*
X18205147Y46108075D01*
X18205150Y46108072D01*
X18223042Y46095170D01*
X18249026Y46076433D01*
X18379903Y46016662D01*
X18446942Y45996977D01*
X18446946Y45996976D01*
X18589362Y45976500D01*
X47196634Y45976500D01*
X47196638Y45976500D01*
X47250678Y45979397D01*
X47277036Y45982231D01*
X47330448Y45990886D01*
X47465257Y46041168D01*
X47526580Y46074653D01*
X47641761Y46160877D01*
X47819123Y46338239D01*
X47855288Y46378500D01*
X47871922Y46399142D01*
X47903567Y46443026D01*
X47963338Y46573903D01*
X47983023Y46640942D01*
X47983024Y46640946D01*
X48003500Y46783362D01*
X48003500Y47882001D01*
X47991947Y47989457D01*
X47980741Y48040968D01*
X47946613Y48143505D01*
X47868825Y48264544D01*
X47868823Y48264546D01*
X47868823Y48264548D01*
X47823073Y48317345D01*
X47811737Y48327168D01*
X47714340Y48411565D01*
X47714338Y48411566D01*
X47714337Y48411567D01*
X47583468Y48471335D01*
X47583455Y48471340D01*
X47519061Y48490249D01*
X47517789Y48490674D01*
X47516422Y48491024D01*
X47516418Y48491025D01*
X47397917Y48508063D01*
X47374003Y48511501D01*
X47374002Y48511501D01*
X47046828Y48511501D01*
X18589364Y48511545D01*
X18589354Y48511545D01*
X18535313Y48508648D01*
X18508961Y48505814D01*
X18508942Y48505812D01*
X18455556Y48497160D01*
X18320743Y48446879D01*
X18262554Y48415106D01*
X18261475Y48414581D01*
X18259414Y48413392D01*
X18144239Y48327171D01*
X17966867Y48149798D01*
X17966863Y48149794D01*
X17930718Y48109553D01*
X17930708Y48109541D01*
X17930701Y48109533D01*
X17925035Y48102501D01*
X17914064Y48088887D01*
X17882435Y48045024D01*
X17882432Y48045018D01*
X17822664Y47914149D01*
X17822662Y47914145D01*
X17802976Y47847102D01*
X17782500Y47704686D01*
X2355300Y47704686D01*
X2355300Y52022640D01*
X60708500Y52022640D01*
X60708500Y48307357D01*
X60711397Y48253318D01*
X60714231Y48226965D01*
X60714234Y48226946D01*
X60722886Y48173551D01*
X60722888Y48173544D01*
X60773167Y48038745D01*
X60773168Y48038742D01*
X60806651Y47977423D01*
X60806653Y47977420D01*
X60892877Y47862239D01*
X60892879Y47862237D01*
X60892882Y47862233D01*
X61070222Y47684893D01*
X61070231Y47684885D01*
X61070239Y47684877D01*
X61110500Y47648712D01*
X61131142Y47632078D01*
X61175026Y47600433D01*
X61305903Y47540662D01*
X61372942Y47520977D01*
X61372946Y47520976D01*
X61515362Y47500500D01*
X61515366Y47500500D01*
X62927187Y47500500D01*
X62975525Y47482907D01*
X63001245Y47438358D01*
X62993884Y47396615D01*
X62993884Y47390421D01*
X63561787Y46822518D01*
X63583527Y46775898D01*
X63570213Y46726211D01*
X63537391Y46699868D01*
X63403891Y46644571D01*
X63256480Y46546074D01*
X63256477Y46546072D01*
X63131128Y46420723D01*
X63131126Y46420720D01*
X63032629Y46273309D01*
X62977332Y46139809D01*
X62942579Y46101884D01*
X62891580Y46095170D01*
X62854682Y46115413D01*
X62286779Y46683316D01*
X62286778Y46683316D01*
X62286777Y46683316D01*
X62271096Y46656156D01*
X62252990Y46624794D01*
X62164966Y46412284D01*
X62164965Y46412281D01*
X62164964Y46412278D01*
X62105426Y46190082D01*
X62075400Y45962014D01*
X62075400Y45731987D01*
X62105426Y45503919D01*
X62164964Y45281723D01*
X62252991Y45069206D01*
X62286777Y45010686D01*
X62286779Y45010686D01*
X62854682Y45578590D01*
X62901301Y45600329D01*
X62950988Y45587015D01*
X62977331Y45554193D01*
X63032630Y45420690D01*
X63131124Y45273283D01*
X63131126Y45273281D01*
X63131128Y45273278D01*
X63256477Y45147929D01*
X63256480Y45147927D01*
X63256483Y45147924D01*
X63403890Y45049430D01*
X63537390Y44994133D01*
X63575315Y44959381D01*
X63582029Y44908381D01*
X63561786Y44871483D01*
X62993884Y44303582D01*
X62993884Y44303581D01*
X62993884Y44303579D01*
X63052405Y44269792D01*
X63264922Y44181765D01*
X63264927Y44181764D01*
X63264929Y44181763D01*
X63487101Y44122231D01*
X63487106Y44122231D01*
X63487118Y44122227D01*
X63715187Y44092200D01*
X63945210Y44092200D01*
X63945213Y44092200D01*
X64173281Y44122227D01*
X64173294Y44122231D01*
X64173297Y44122231D01*
X64321411Y44161919D01*
X64395477Y44181765D01*
X64607994Y44269792D01*
X64666514Y44303579D01*
X64666514Y44303581D01*
X64098612Y44871483D01*
X64076872Y44918103D01*
X64090186Y44967790D01*
X64123006Y44994132D01*
X64256510Y45049430D01*
X64403917Y45147924D01*
X64529276Y45273283D01*
X64627770Y45420690D01*
X64683068Y45554193D01*
X64717819Y45592117D01*
X64768819Y45598832D01*
X64805717Y45578588D01*
X65373619Y45010686D01*
X65373620Y45010686D01*
X65373621Y45010686D01*
X65407408Y45069206D01*
X65495435Y45281723D01*
X65532672Y45420692D01*
X65554969Y45503903D01*
X65554969Y45503906D01*
X65554973Y45503919D01*
X65585000Y45731987D01*
X65585000Y45962014D01*
X65554973Y46190082D01*
X65554969Y46190094D01*
X65554969Y46190099D01*
X65495437Y46412271D01*
X65495436Y46412273D01*
X65495435Y46412278D01*
X65407408Y46624795D01*
X65373621Y46683316D01*
X65373619Y46683316D01*
X64805717Y46115415D01*
X64759097Y46093675D01*
X64709410Y46106989D01*
X64683067Y46139811D01*
X64674339Y46160883D01*
X64627770Y46273310D01*
X64529276Y46420717D01*
X64529273Y46420720D01*
X64529271Y46420723D01*
X64403922Y46546072D01*
X64403919Y46546074D01*
X64403917Y46546076D01*
X64256510Y46644570D01*
X64244482Y46649552D01*
X64230849Y46655199D01*
X64123005Y46699870D01*
X64085082Y46734620D01*
X64078367Y46785620D01*
X64098609Y46822517D01*
X64666514Y47390421D01*
X64666514Y47390423D01*
X64666514Y47396619D01*
X64659153Y47438357D01*
X64684872Y47482906D01*
X64733210Y47500500D01*
X65992634Y47500500D01*
X65992638Y47500500D01*
X66046678Y47503397D01*
X66073036Y47506231D01*
X66126448Y47514886D01*
X66261257Y47565168D01*
X66322580Y47598653D01*
X66437761Y47684877D01*
X66615123Y47862239D01*
X66651288Y47902500D01*
X66667922Y47923142D01*
X66699567Y47967026D01*
X66759338Y48097903D01*
X66779023Y48164942D01*
X66779024Y48164946D01*
X66799500Y48307362D01*
X66799500Y52022638D01*
X66796603Y52076678D01*
X66793769Y52103036D01*
X66785114Y52156448D01*
X66781903Y52165056D01*
X66734832Y52291256D01*
X66734831Y52291259D01*
X66701348Y52352578D01*
X66693565Y52362975D01*
X66615123Y52467761D01*
X66615119Y52467765D01*
X66615117Y52467768D01*
X66437777Y52645108D01*
X66437766Y52645118D01*
X66437761Y52645123D01*
X66397500Y52681288D01*
X66376858Y52697922D01*
X66376855Y52697925D01*
X66376849Y52697929D01*
X66332974Y52729567D01*
X66202102Y52789336D01*
X66202098Y52789338D01*
X66135055Y52809024D01*
X65992639Y52829500D01*
X65992638Y52829500D01*
X61515362Y52829500D01*
X61515356Y52829500D01*
X61461317Y52826603D01*
X61434964Y52823769D01*
X61434945Y52823766D01*
X61381550Y52815114D01*
X61381543Y52815112D01*
X61246744Y52764833D01*
X61246741Y52764832D01*
X61185422Y52731349D01*
X61070232Y52645118D01*
X60892892Y52467778D01*
X60856715Y52427504D01*
X60840071Y52406850D01*
X60808433Y52362975D01*
X60748664Y52232103D01*
X60748662Y52232099D01*
X60728976Y52165056D01*
X60708500Y52022640D01*
X2355300Y52022640D01*
X2355300Y57078647D01*
X10472704Y57078647D01*
X10472704Y56921349D01*
X10503238Y56807395D01*
X10513416Y56769408D01*
X10592063Y56633188D01*
X10592067Y56633182D01*
X10703286Y56521963D01*
X10703289Y56521961D01*
X10703291Y56521959D01*
X10839514Y56443311D01*
X10839516Y56443310D01*
X10991455Y56402598D01*
X10991458Y56402598D01*
X11148750Y56402598D01*
X11148753Y56402598D01*
X11300692Y56443310D01*
X11436916Y56521959D01*
X11548143Y56633186D01*
X11626792Y56769410D01*
X11667504Y56921349D01*
X11667504Y57078647D01*
X11626792Y57230586D01*
X11626791Y57230588D01*
X11548143Y57366811D01*
X11548141Y57366813D01*
X11548139Y57366816D01*
X11436920Y57478035D01*
X11436914Y57478039D01*
X11300694Y57556686D01*
X11262707Y57566864D01*
X11239915Y57572971D01*
X11148753Y57597398D01*
X11148750Y57597398D01*
X10991456Y57597398D01*
X10991455Y57597398D01*
X10975551Y57593137D01*
X10900290Y57572972D01*
X10900291Y57572971D01*
X10839512Y57556686D01*
X10703292Y57478039D01*
X10703286Y57478035D01*
X10592067Y57366816D01*
X10592063Y57366810D01*
X10513416Y57230590D01*
X10493060Y57154617D01*
X10472704Y57078647D01*
X2355300Y57078647D01*
X2355300Y65034889D01*
X3327100Y65034889D01*
X3327100Y64805112D01*
X3357093Y64577291D01*
X3357324Y64576290D01*
X3357677Y64575114D01*
X3415929Y64357714D01*
X3416376Y64355796D01*
X3504499Y64143047D01*
X3619392Y63944047D01*
X3759259Y63761770D01*
X3759271Y63761754D01*
X3759281Y63761743D01*
X3759288Y63761735D01*
X3921739Y63599284D01*
X3921750Y63599274D01*
X3921753Y63599272D01*
X4104051Y63459390D01*
X4303049Y63344499D01*
X4515340Y63256565D01*
X4737292Y63197093D01*
X4965109Y63167100D01*
X4965112Y63167100D01*
X5194888Y63167100D01*
X5194891Y63167100D01*
X5422708Y63197093D01*
X5644660Y63256565D01*
X5856951Y63344499D01*
X6055949Y63459390D01*
X6238247Y63599272D01*
X6400728Y63761753D01*
X6540610Y63944051D01*
X6655501Y64143049D01*
X6743435Y64355340D01*
X6802907Y64577292D01*
X6832900Y64805109D01*
X6832900Y65034889D01*
X73167100Y65034889D01*
X73167100Y64805112D01*
X73197093Y64577291D01*
X73197324Y64576290D01*
X73197677Y64575114D01*
X73255929Y64357714D01*
X73256376Y64355796D01*
X73344499Y64143047D01*
X73459392Y63944047D01*
X73599259Y63761770D01*
X73599271Y63761754D01*
X73599281Y63761743D01*
X73599288Y63761735D01*
X73761739Y63599284D01*
X73761750Y63599274D01*
X73761753Y63599272D01*
X73944051Y63459390D01*
X74143049Y63344499D01*
X74355340Y63256565D01*
X74577292Y63197093D01*
X74805109Y63167100D01*
X74805112Y63167100D01*
X75034888Y63167100D01*
X75034891Y63167100D01*
X75262708Y63197093D01*
X75484660Y63256565D01*
X75696951Y63344499D01*
X75895949Y63459390D01*
X76078247Y63599272D01*
X76240728Y63761753D01*
X76380610Y63944051D01*
X76495501Y64143049D01*
X76583435Y64355340D01*
X76642907Y64577292D01*
X76672900Y64805109D01*
X76672900Y65034891D01*
X76642907Y65262708D01*
X76583435Y65484660D01*
X76495501Y65696951D01*
X76380610Y65895949D01*
X76380608Y65895952D01*
X76240727Y66078249D01*
X76240719Y66078258D01*
X76078265Y66240712D01*
X76078257Y66240719D01*
X76078246Y66240729D01*
X76078241Y66240733D01*
X75995881Y66303930D01*
X75895953Y66380608D01*
X75696952Y66495501D01*
X75489139Y66581580D01*
X75489138Y66581581D01*
X75484663Y66583434D01*
X75484661Y66583435D01*
X75484660Y66583435D01*
X75480927Y66584436D01*
X75480925Y66584436D01*
X75262712Y66642906D01*
X75262711Y66642907D01*
X75262708Y66642907D01*
X75034891Y66672900D01*
X75034888Y66672900D01*
X74805112Y66672900D01*
X74805109Y66672900D01*
X74725600Y66662433D01*
X74577294Y66642908D01*
X74436575Y66605202D01*
X74364901Y66585997D01*
X74363000Y66585514D01*
X74356713Y66584005D01*
X74143045Y66495501D01*
X73944045Y66380608D01*
X73761768Y66240741D01*
X73761752Y66240729D01*
X73761741Y66240719D01*
X73761733Y66240712D01*
X73599288Y66078267D01*
X73599281Y66078259D01*
X73599271Y66078248D01*
X73599259Y66078232D01*
X73459392Y65895955D01*
X73344499Y65696955D01*
X73256375Y65484204D01*
X73255929Y65482288D01*
X73197094Y65262713D01*
X73197094Y65262712D01*
X73167100Y65034889D01*
X6832900Y65034889D01*
X6832900Y65034891D01*
X6802907Y65262708D01*
X6743435Y65484660D01*
X6655501Y65696951D01*
X6540610Y65895949D01*
X6540608Y65895952D01*
X6400727Y66078249D01*
X6400719Y66078258D01*
X6238265Y66240712D01*
X6238257Y66240719D01*
X6238246Y66240729D01*
X6238241Y66240733D01*
X6155881Y66303930D01*
X6055953Y66380608D01*
X5856952Y66495501D01*
X5649139Y66581580D01*
X5649138Y66581581D01*
X5644663Y66583434D01*
X5644661Y66583435D01*
X5644660Y66583435D01*
X5640927Y66584436D01*
X5640925Y66584436D01*
X5422712Y66642906D01*
X5422711Y66642907D01*
X5422708Y66642907D01*
X5194891Y66672900D01*
X5194888Y66672900D01*
X4965112Y66672900D01*
X4965109Y66672900D01*
X4885600Y66662433D01*
X4737294Y66642908D01*
X4596575Y66605202D01*
X4524901Y66585997D01*
X4523000Y66585514D01*
X4516713Y66584005D01*
X4303045Y66495501D01*
X4104045Y66380608D01*
X3921768Y66240741D01*
X3921752Y66240729D01*
X3921741Y66240719D01*
X3921733Y66240712D01*
X3759288Y66078267D01*
X3759281Y66078259D01*
X3759271Y66078248D01*
X3759259Y66078232D01*
X3619392Y65895955D01*
X3504499Y65696955D01*
X3416375Y65484204D01*
X3415929Y65482288D01*
X3357094Y65262713D01*
X3357094Y65262712D01*
X3327100Y65034889D01*
X2355300Y65034889D01*
X2355300Y67556242D01*
X2359832Y67581953D01*
X2363531Y67592118D01*
X2396589Y67631519D01*
X2401980Y67634632D01*
X2439569Y67644700D01*
X77556241Y67644700D01*
X77581953Y67640168D01*
G37*
%TD.AperFunction*%
%TD*%
%TA.AperFunction,Conductor*%
%TO.N,VB*%
G36*
X66059677Y52304315D02*
G01*
X66080319Y52287681D01*
X66257681Y52110319D01*
X66291166Y52048996D01*
X66294000Y52022638D01*
X66294000Y48307362D01*
X66274315Y48240323D01*
X66257681Y48219681D01*
X66080319Y48042319D01*
X66018996Y48008834D01*
X65992638Y48006000D01*
X64673550Y48006000D01*
X64606511Y48025685D01*
X64560756Y48078489D01*
X64550812Y48147647D01*
X64579837Y48211203D01*
X64611550Y48237387D01*
X64663001Y48267093D01*
X64663001Y48267094D01*
X64005798Y48924298D01*
X64092720Y48941587D01*
X64256510Y49009431D01*
X64403917Y49107925D01*
X64529276Y49233284D01*
X64627770Y49380691D01*
X64695614Y49544481D01*
X64712903Y49631404D01*
X65370107Y48974200D01*
X65370108Y48974200D01*
X65403091Y49031328D01*
X65403096Y49031339D01*
X65490881Y49243271D01*
X65550257Y49464864D01*
X65580198Y49692291D01*
X65580200Y49692307D01*
X65580200Y49921696D01*
X65580198Y49921712D01*
X65550257Y50149139D01*
X65490881Y50370732D01*
X65403097Y50582661D01*
X65403095Y50582666D01*
X65370107Y50639803D01*
X64712903Y49982599D01*
X64695614Y50069521D01*
X64627770Y50233311D01*
X64529276Y50380718D01*
X64403917Y50506077D01*
X64256510Y50604571D01*
X64092720Y50672415D01*
X64005797Y50689705D01*
X64663001Y51346910D01*
X64605867Y51379895D01*
X64605856Y51379901D01*
X64393930Y51467683D01*
X64172337Y51527059D01*
X63944910Y51557000D01*
X63944894Y51557001D01*
X63715506Y51557001D01*
X63715489Y51557000D01*
X63488062Y51527059D01*
X63266469Y51467683D01*
X63054536Y51379897D01*
X63054522Y51379890D01*
X62997398Y51346911D01*
X62997397Y51346911D01*
X63654603Y50689705D01*
X63567680Y50672415D01*
X63403890Y50604571D01*
X63256483Y50506077D01*
X63131124Y50380718D01*
X63032630Y50233311D01*
X62964786Y50069521D01*
X62947496Y49982599D01*
X62290290Y50639804D01*
X62290290Y50639803D01*
X62257311Y50582679D01*
X62257304Y50582665D01*
X62169518Y50370732D01*
X62110142Y50149139D01*
X62080201Y49921712D01*
X62080200Y49921696D01*
X62080200Y49692307D01*
X62080201Y49692291D01*
X62110142Y49464864D01*
X62169518Y49243271D01*
X62257300Y49031345D01*
X62257306Y49031334D01*
X62290291Y48974201D01*
X62947496Y49631405D01*
X62964786Y49544481D01*
X63032630Y49380691D01*
X63131124Y49233284D01*
X63256483Y49107925D01*
X63403890Y49009431D01*
X63567680Y48941587D01*
X63654602Y48924298D01*
X62997398Y48267094D01*
X63048850Y48237388D01*
X63097066Y48186821D01*
X63110290Y48118214D01*
X63084322Y48053349D01*
X63027408Y48012820D01*
X62986851Y48006000D01*
X61515362Y48006000D01*
X61448323Y48025685D01*
X61427681Y48042319D01*
X61250319Y48219681D01*
X61216834Y48281004D01*
X61214000Y48307362D01*
X61214000Y52022638D01*
X61233685Y52089677D01*
X61250319Y52110319D01*
X61427681Y52287681D01*
X61489004Y52321166D01*
X61515362Y52324000D01*
X65992638Y52324000D01*
X66059677Y52304315D01*
G37*
%TD.AperFunction*%
%TD*%
%TA.AperFunction,Conductor*%
%TO.N,+3V3*%
G36*
X54539236Y24256339D02*
G01*
X56034708Y24238746D01*
X56069580Y24233313D01*
X56094977Y24225530D01*
X56146326Y24194653D01*
X56170923Y24170056D01*
X56170927Y24170053D01*
X56170930Y24170050D01*
X56170935Y24170046D01*
X56258870Y24106158D01*
X56312661Y24067077D01*
X56409052Y24017963D01*
X56462304Y23990829D01*
X56463911Y23989888D01*
X56467634Y23988085D01*
X56469608Y23987105D01*
X56473362Y23986046D01*
X56635372Y23933405D01*
X56734008Y23917783D01*
X56808401Y23906000D01*
X56808405Y23906000D01*
X56983598Y23906000D01*
X56983599Y23906000D01*
X57050704Y23916629D01*
X57156628Y23933405D01*
X57323244Y23987542D01*
X57479339Y24067077D01*
X57621071Y24170051D01*
X57621077Y24170058D01*
X57624767Y24173208D01*
X57624981Y24172958D01*
X57649231Y24191114D01*
X57672106Y24203606D01*
X57732990Y24218766D01*
X59610538Y24196677D01*
X59645404Y24191246D01*
X59670627Y24183517D01*
X59722721Y24151889D01*
X59788475Y24085002D01*
X59879802Y23992102D01*
X59900711Y23963668D01*
X59913152Y23940414D01*
X59927814Y23881259D01*
X59835282Y6484902D01*
X59818696Y3366993D01*
X59813487Y3332084D01*
X59805925Y3306829D01*
X59774584Y3254484D01*
X59615920Y3096661D01*
X59587613Y3075587D01*
X59564439Y3063012D01*
X59505298Y3048000D01*
X36387192Y3048000D01*
X36352256Y3053023D01*
X36327014Y3060435D01*
X36274269Y3091731D01*
X36116926Y3249074D01*
X36116921Y3249079D01*
X36095774Y3277330D01*
X36083167Y3300419D01*
X36068000Y3359844D01*
X36068000Y4974544D01*
X36073021Y5009471D01*
X36075881Y5019213D01*
X36076207Y5020326D01*
X36113977Y5079105D01*
X36177531Y5108134D01*
X36246686Y5098196D01*
X36253672Y5095006D01*
X36289843Y5069892D01*
X36340520Y5019215D01*
X36340525Y5019212D01*
X36443123Y4973911D01*
X36468206Y4971001D01*
X36837999Y4971001D01*
X36838000Y4971002D01*
X36838000Y5534816D01*
X36857685Y5601855D01*
X36910489Y5647610D01*
X36979647Y5657554D01*
X37023997Y5642204D01*
X37125708Y5583482D01*
X37265591Y5546000D01*
X37410406Y5546000D01*
X37410409Y5546000D01*
X37550292Y5583482D01*
X37652001Y5642204D01*
X37719900Y5658676D01*
X37785927Y5635823D01*
X37829118Y5580902D01*
X37838000Y5534816D01*
X37838000Y4971001D01*
X38207786Y4971001D01*
X38207791Y4971001D01*
X38207791Y4971002D01*
X38207808Y4971003D01*
X38207808Y4971004D01*
X38207824Y4971004D01*
X38228922Y4973452D01*
X38232869Y4973909D01*
X38232873Y4973910D01*
X38335474Y5019212D01*
X38335479Y5019215D01*
X38414785Y5098521D01*
X38414788Y5098526D01*
X38460089Y5201123D01*
X38460089Y5201125D01*
X38460660Y5203830D01*
X38460915Y5208239D01*
X38462673Y5223398D01*
X38463000Y5225752D01*
X38463000Y5596000D01*
X37899185Y5596000D01*
X37832146Y5615685D01*
X37786391Y5668489D01*
X37776447Y5737647D01*
X37791797Y5781999D01*
X37850518Y5883708D01*
X37888000Y6023591D01*
X37888000Y6168409D01*
X37850518Y6308292D01*
X37850516Y6308295D01*
X37850515Y6308300D01*
X37848381Y6313453D01*
X37840914Y6382922D01*
X37872191Y6445400D01*
X37932280Y6481051D01*
X37962943Y6484902D01*
X49149000Y6484902D01*
X49149000Y8527295D01*
X55733500Y8527295D01*
X55733500Y8524604D01*
X55733500Y8120000D01*
X56305948Y8120000D01*
X56372987Y8100315D01*
X56418742Y8047511D01*
X56428686Y7978353D01*
X56413335Y7934000D01*
X56360186Y7841945D01*
X56360185Y7841942D01*
X56321000Y7695700D01*
X56321000Y7544301D01*
X56360185Y7398059D01*
X56360186Y7398056D01*
X56413335Y7306000D01*
X56429808Y7238100D01*
X56406956Y7172073D01*
X56352034Y7128882D01*
X56305948Y7120000D01*
X55733501Y7120000D01*
X55733501Y6712695D01*
X55736408Y6687628D01*
X55781710Y6585028D01*
X55781710Y6585026D01*
X55781715Y6585019D01*
X55861017Y6505717D01*
X55861020Y6505715D01*
X55861025Y6505712D01*
X55963623Y6460411D01*
X55988706Y6457501D01*
X56395999Y6457501D01*
X56396000Y6457502D01*
X56396000Y7029948D01*
X56415685Y7096987D01*
X56468489Y7142742D01*
X56537647Y7152686D01*
X56581999Y7137336D01*
X56674058Y7084185D01*
X56820300Y7045000D01*
X56971698Y7045000D01*
X56971700Y7045000D01*
X57117942Y7084185D01*
X57210000Y7137336D01*
X57277900Y7153808D01*
X57343927Y7130956D01*
X57387118Y7076034D01*
X57396000Y7029948D01*
X57396000Y6457501D01*
X57803286Y6457501D01*
X57803291Y6457501D01*
X57803291Y6457502D01*
X57803308Y6457503D01*
X57803308Y6457504D01*
X57803324Y6457504D01*
X57824422Y6459952D01*
X57828369Y6460409D01*
X57828373Y6460410D01*
X57930974Y6505712D01*
X57930979Y6505715D01*
X58010285Y6585021D01*
X58010288Y6585026D01*
X58055589Y6687623D01*
X58055589Y6687625D01*
X58056160Y6690330D01*
X58056415Y6694739D01*
X58058173Y6709898D01*
X58058500Y6712252D01*
X58058500Y7120000D01*
X57486052Y7120000D01*
X57419013Y7139685D01*
X57373258Y7192489D01*
X57363314Y7261647D01*
X57378665Y7306000D01*
X57431815Y7398058D01*
X57471000Y7544300D01*
X57471000Y7695700D01*
X57431815Y7841942D01*
X57378664Y7934001D01*
X57362192Y8001900D01*
X57385044Y8067927D01*
X57439966Y8111118D01*
X57486052Y8120000D01*
X58058499Y8120000D01*
X58058499Y8527286D01*
X58058497Y8527309D01*
X58055591Y8552370D01*
X58055590Y8552374D01*
X58010288Y8654975D01*
X58010288Y8654976D01*
X58010283Y8654983D01*
X57930981Y8734285D01*
X57930975Y8734289D01*
X57828376Y8779590D01*
X57803295Y8782500D01*
X57803294Y8782500D01*
X57396000Y8782500D01*
X57396000Y8210053D01*
X57376315Y8143014D01*
X57323511Y8097259D01*
X57254353Y8087315D01*
X57210001Y8102666D01*
X57117948Y8155812D01*
X57117944Y8155814D01*
X57117942Y8155815D01*
X56971700Y8195000D01*
X56971699Y8195000D01*
X56820300Y8195000D01*
X56674058Y8155815D01*
X56674051Y8155812D01*
X56581999Y8102666D01*
X56514099Y8086193D01*
X56448072Y8109046D01*
X56404882Y8163967D01*
X56396000Y8210053D01*
X56396000Y8782500D01*
X55988714Y8782500D01*
X55988702Y8782500D01*
X55963626Y8779592D01*
X55861026Y8734290D01*
X55861024Y8734290D01*
X55861017Y8734285D01*
X55781716Y8654984D01*
X55781714Y8654980D01*
X55781711Y8654975D01*
X55781711Y8654974D01*
X55781708Y8654968D01*
X55736409Y8552379D01*
X55735839Y8549673D01*
X55735738Y8547930D01*
X55735776Y8547028D01*
X55735681Y8546099D01*
X55733500Y8527295D01*
X49149000Y8527295D01*
X49149000Y10247606D01*
X55783000Y10247606D01*
X55783000Y10072396D01*
X55810404Y9899372D01*
X55842724Y9799902D01*
X55864543Y9732752D01*
X55864544Y9732751D01*
X55864545Y9732746D01*
X55944075Y9576664D01*
X55944080Y9576655D01*
X56040674Y9443704D01*
X56047045Y9434936D01*
X56047049Y9434931D01*
X56047054Y9434925D01*
X56170923Y9311056D01*
X56170926Y9311054D01*
X56170930Y9311050D01*
X56170935Y9311046D01*
X56290549Y9224142D01*
X56312661Y9208077D01*
X56312668Y9208074D01*
X56312672Y9208071D01*
X56402726Y9162186D01*
X56402734Y9162182D01*
X56462304Y9131829D01*
X56463900Y9130894D01*
X56467598Y9129103D01*
X56469614Y9128102D01*
X56473380Y9127039D01*
X56635364Y9074407D01*
X56635367Y9074407D01*
X56635372Y9074405D01*
X56734090Y9058770D01*
X56808401Y9047000D01*
X56808405Y9047000D01*
X56983598Y9047000D01*
X56983599Y9047000D01*
X57050704Y9057629D01*
X57156628Y9074405D01*
X57323244Y9128542D01*
X57479339Y9208077D01*
X57621071Y9311051D01*
X57744949Y9434929D01*
X57847923Y9576661D01*
X57927458Y9732756D01*
X57981595Y9899372D01*
X57998371Y10005296D01*
X58009000Y10072401D01*
X58009000Y10247600D01*
X57995714Y10331482D01*
X57981595Y10420628D01*
X57981595Y10420629D01*
X57981594Y10420633D01*
X57930067Y10579216D01*
X57930063Y10579225D01*
X57927458Y10587244D01*
X57927456Y10587247D01*
X57927456Y10587249D01*
X57925223Y10591632D01*
X57924911Y10592431D01*
X57924169Y10593699D01*
X57898600Y10643879D01*
X57898600Y10643880D01*
X57898598Y10643882D01*
X57847923Y10743339D01*
X57765662Y10856562D01*
X57765660Y10856565D01*
X57744971Y10885043D01*
X57744950Y10885070D01*
X57744942Y10885079D01*
X57621075Y11008946D01*
X57621070Y11008950D01*
X57621069Y11008951D01*
X57621064Y11008955D01*
X57479342Y11111921D01*
X57479341Y11111922D01*
X57479339Y11111923D01*
X57428064Y11138049D01*
X57428064Y11138050D01*
X57428062Y11138050D01*
X57323253Y11191455D01*
X57323250Y11191456D01*
X57323248Y11191457D01*
X57256098Y11213276D01*
X57156628Y11245596D01*
X56983604Y11273000D01*
X56983599Y11273000D01*
X56983595Y11273000D01*
X56808405Y11273000D01*
X56808401Y11273000D01*
X56808396Y11273000D01*
X56635370Y11245596D01*
X56468752Y11191458D01*
X56468744Y11191455D01*
X56312662Y11111925D01*
X56312653Y11111920D01*
X56170952Y11008968D01*
X56170923Y11008946D01*
X56047054Y10885077D01*
X56047032Y10885048D01*
X55944080Y10743347D01*
X55944075Y10743338D01*
X55864545Y10587256D01*
X55864543Y10587251D01*
X55864543Y10587249D01*
X55861933Y10579216D01*
X55810404Y10420630D01*
X55783000Y10247606D01*
X49149000Y10247606D01*
X49149000Y12787606D01*
X55783000Y12787606D01*
X55783000Y12612396D01*
X55810404Y12439372D01*
X55842724Y12339902D01*
X55864543Y12272752D01*
X55864544Y12272751D01*
X55864545Y12272746D01*
X55944075Y12116664D01*
X55944080Y12116655D01*
X56040674Y11983704D01*
X56047045Y11974936D01*
X56047049Y11974931D01*
X56047054Y11974925D01*
X56170921Y11851058D01*
X56170929Y11851051D01*
X56170930Y11851050D01*
X56170935Y11851046D01*
X56294553Y11761234D01*
X56312661Y11748077D01*
X56402734Y11702182D01*
X56462304Y11671829D01*
X56463900Y11670894D01*
X56467598Y11669103D01*
X56469614Y11668102D01*
X56473380Y11667039D01*
X56635364Y11614407D01*
X56635367Y11614407D01*
X56635372Y11614405D01*
X56734090Y11598770D01*
X56808401Y11587000D01*
X56808405Y11587000D01*
X56983598Y11587000D01*
X56983599Y11587000D01*
X57050704Y11597629D01*
X57156628Y11614405D01*
X57323244Y11668542D01*
X57479339Y11748077D01*
X57621071Y11851051D01*
X57744949Y11974929D01*
X57847923Y12116661D01*
X57927458Y12272756D01*
X57981595Y12439372D01*
X58000500Y12558738D01*
X58009000Y12612401D01*
X58009000Y12787600D01*
X57985524Y12935819D01*
X57981595Y12960628D01*
X57928471Y13124126D01*
X57928022Y13125638D01*
X57928021Y13125949D01*
X57927896Y13126390D01*
X57926911Y13128372D01*
X57925104Y13132102D01*
X57924168Y13133702D01*
X57882087Y13216288D01*
X57882086Y13216290D01*
X57847927Y13283331D01*
X57847923Y13283339D01*
X57834766Y13301447D01*
X57744954Y13425065D01*
X57744950Y13425070D01*
X57744942Y13425079D01*
X57621075Y13548946D01*
X57621070Y13548950D01*
X57621069Y13548951D01*
X57621064Y13548955D01*
X57479342Y13651921D01*
X57479341Y13651922D01*
X57479339Y13651923D01*
X57429707Y13677212D01*
X57429707Y13677213D01*
X57429705Y13677213D01*
X57323253Y13731455D01*
X57323250Y13731456D01*
X57323248Y13731457D01*
X57256098Y13753276D01*
X57156628Y13785596D01*
X56983604Y13813000D01*
X56983599Y13813000D01*
X56983595Y13813000D01*
X56808405Y13813000D01*
X56808401Y13813000D01*
X56808396Y13813000D01*
X56635370Y13785596D01*
X56468752Y13731458D01*
X56468744Y13731455D01*
X56312662Y13651925D01*
X56312653Y13651920D01*
X56170952Y13548968D01*
X56170923Y13548946D01*
X56047054Y13425077D01*
X56047032Y13425048D01*
X55944080Y13283347D01*
X55944075Y13283338D01*
X55864545Y13127256D01*
X55864543Y13127251D01*
X55864543Y13127249D01*
X55864264Y13126390D01*
X55810404Y12960630D01*
X55783000Y12787606D01*
X49149000Y12787606D01*
X49149000Y15327606D01*
X55783000Y15327606D01*
X55783000Y15152396D01*
X55810404Y14979372D01*
X55842724Y14879902D01*
X55864543Y14812752D01*
X55864544Y14812751D01*
X55864545Y14812746D01*
X55944075Y14656664D01*
X55944080Y14656655D01*
X56040674Y14523704D01*
X56047045Y14514936D01*
X56047049Y14514931D01*
X56047054Y14514925D01*
X56170921Y14391058D01*
X56170929Y14391051D01*
X56170930Y14391050D01*
X56170935Y14391046D01*
X56294553Y14301234D01*
X56312661Y14288077D01*
X56412121Y14237400D01*
X56462306Y14211829D01*
X56463908Y14210890D01*
X56467622Y14209091D01*
X56469613Y14208102D01*
X56473374Y14207041D01*
X56635364Y14154407D01*
X56635367Y14154407D01*
X56635372Y14154405D01*
X56734090Y14138770D01*
X56808401Y14127000D01*
X56808405Y14127000D01*
X56983598Y14127000D01*
X56983599Y14127000D01*
X57050704Y14137629D01*
X57156628Y14154405D01*
X57323244Y14208542D01*
X57324322Y14209091D01*
X57329699Y14211831D01*
X57479339Y14288077D01*
X57621071Y14391051D01*
X57744949Y14514929D01*
X57847923Y14656661D01*
X57927458Y14812756D01*
X57981595Y14979372D01*
X57998371Y15085296D01*
X58009000Y15152401D01*
X58009000Y15327600D01*
X57995714Y15411482D01*
X57981595Y15500628D01*
X57981595Y15500629D01*
X57981594Y15500633D01*
X57930067Y15659216D01*
X57930063Y15659225D01*
X57927458Y15667244D01*
X57927456Y15667247D01*
X57927456Y15667249D01*
X57925223Y15671632D01*
X57924911Y15672431D01*
X57924169Y15673699D01*
X57898600Y15723879D01*
X57898600Y15723880D01*
X57898598Y15723882D01*
X57847927Y15823331D01*
X57847923Y15823339D01*
X57834766Y15841447D01*
X57744954Y15965065D01*
X57744950Y15965070D01*
X57744942Y15965079D01*
X57621075Y16088946D01*
X57621070Y16088950D01*
X57621069Y16088951D01*
X57621064Y16088955D01*
X57479342Y16191921D01*
X57479341Y16191922D01*
X57479339Y16191923D01*
X57473216Y16195043D01*
X57430596Y16216760D01*
X57430595Y16216760D01*
X57323248Y16271457D01*
X57257618Y16292782D01*
X57156628Y16325596D01*
X56983604Y16353000D01*
X56983599Y16353000D01*
X56983595Y16353000D01*
X56808405Y16353000D01*
X56808401Y16353000D01*
X56808396Y16353000D01*
X56635370Y16325596D01*
X56468752Y16271458D01*
X56468744Y16271455D01*
X56312662Y16191925D01*
X56312653Y16191920D01*
X56170952Y16088968D01*
X56170923Y16088946D01*
X56047054Y15965077D01*
X56047032Y15965048D01*
X55944080Y15823347D01*
X55944075Y15823338D01*
X55864545Y15667256D01*
X55864543Y15667251D01*
X55864543Y15667249D01*
X55861933Y15659216D01*
X55810404Y15500630D01*
X55783000Y15327606D01*
X49149000Y15327606D01*
X49149000Y17853109D01*
X50244700Y17853109D01*
X50244700Y17706893D01*
X50282541Y17565661D01*
X50319094Y17502351D01*
X50319095Y17502350D01*
X50355649Y17439038D01*
X50459038Y17335649D01*
X50585662Y17262542D01*
X50726893Y17224700D01*
X50726895Y17224700D01*
X50873105Y17224700D01*
X50873107Y17224700D01*
X51014338Y17262542D01*
X51140962Y17335649D01*
X51244351Y17439038D01*
X51317458Y17565662D01*
X51317459Y17565665D01*
X51317459Y17565667D01*
X51319771Y17569670D01*
X51330599Y17585466D01*
X51338720Y17595546D01*
X51396111Y17635395D01*
X51465936Y17637891D01*
X51526022Y17602245D01*
X51531637Y17596215D01*
X51550350Y17569092D01*
X51550509Y17569183D01*
X51551645Y17567215D01*
X51552106Y17566547D01*
X51552537Y17565673D01*
X51552540Y17565665D01*
X51575713Y17525528D01*
X51625649Y17439038D01*
X51729038Y17335649D01*
X51855662Y17262542D01*
X51996893Y17224700D01*
X51996895Y17224700D01*
X52143105Y17224700D01*
X52143107Y17224700D01*
X52284338Y17262542D01*
X52410962Y17335649D01*
X52514351Y17439038D01*
X52587458Y17565662D01*
X52625300Y17706893D01*
X52625300Y17853107D01*
X52587458Y17994338D01*
X52514351Y18120962D01*
X52410962Y18224351D01*
X52374407Y18245457D01*
X52347649Y18260906D01*
X52347649Y18260907D01*
X52284339Y18297459D01*
X52213722Y18316379D01*
X52143107Y18335300D01*
X52143106Y18335300D01*
X51996891Y18335300D01*
X51855658Y18297458D01*
X51729035Y18224350D01*
X51729034Y18224349D01*
X51729029Y18224345D01*
X51625655Y18120971D01*
X51625652Y18120967D01*
X51625651Y18120965D01*
X51625649Y18120962D01*
X51552540Y17994336D01*
X51552538Y17994332D01*
X51550509Y17990817D01*
X51550020Y17991099D01*
X51539500Y17974658D01*
X51531282Y17964459D01*
X51473891Y17924608D01*
X51404066Y17922110D01*
X51343975Y17957759D01*
X51343973Y17957762D01*
X51338377Y17963772D01*
X51318218Y17992819D01*
X51317463Y17994329D01*
X51317457Y17994339D01*
X51317457Y17994340D01*
X51244351Y18120962D01*
X51140962Y18224351D01*
X51104407Y18245457D01*
X51077649Y18260906D01*
X51077649Y18260907D01*
X51014339Y18297459D01*
X50943722Y18316379D01*
X50873107Y18335300D01*
X50873106Y18335300D01*
X50726891Y18335300D01*
X50585658Y18297458D01*
X50459035Y18224350D01*
X50459034Y18224349D01*
X50459029Y18224345D01*
X50355655Y18120971D01*
X50355651Y18120966D01*
X50355650Y18120965D01*
X50282542Y17994342D01*
X50244700Y17853109D01*
X49149000Y17853109D01*
X49149000Y20393109D01*
X50244700Y20393109D01*
X50244700Y20246893D01*
X50282541Y20105661D01*
X50319094Y20042351D01*
X50319095Y20042350D01*
X50355649Y19979038D01*
X50459038Y19875649D01*
X50585662Y19802542D01*
X50726893Y19764700D01*
X50726895Y19764700D01*
X50873105Y19764700D01*
X50873107Y19764700D01*
X51014338Y19802542D01*
X51140962Y19875649D01*
X51244351Y19979038D01*
X51317458Y20105662D01*
X51317459Y20105665D01*
X51317459Y20105667D01*
X51319771Y20109670D01*
X51330599Y20125466D01*
X51338720Y20135546D01*
X51396111Y20175395D01*
X51465936Y20177891D01*
X51526022Y20142245D01*
X51531637Y20136215D01*
X51550350Y20109092D01*
X51550509Y20109183D01*
X51551645Y20107215D01*
X51552106Y20106547D01*
X51552537Y20105673D01*
X51552540Y20105665D01*
X51575713Y20065528D01*
X51625649Y19979038D01*
X51729038Y19875649D01*
X51855662Y19802542D01*
X51996893Y19764700D01*
X51996895Y19764700D01*
X52143105Y19764700D01*
X52143107Y19764700D01*
X52284338Y19802542D01*
X52410962Y19875649D01*
X52514351Y19979038D01*
X52587458Y20105662D01*
X52625300Y20246893D01*
X52625300Y20393107D01*
X52587458Y20534338D01*
X52514351Y20660962D01*
X52413117Y20762196D01*
X52413115Y20762199D01*
X52410964Y20764350D01*
X52347649Y20800906D01*
X52347649Y20800907D01*
X52284339Y20837459D01*
X52251360Y20846295D01*
X55733500Y20846295D01*
X55733500Y20843604D01*
X55733500Y20439000D01*
X56305948Y20439000D01*
X56372987Y20419315D01*
X56418742Y20366511D01*
X56428686Y20297353D01*
X56413335Y20253000D01*
X56360186Y20160945D01*
X56360185Y20160942D01*
X56321000Y20014700D01*
X56321000Y19863300D01*
X56347420Y19764701D01*
X56360185Y19717059D01*
X56360186Y19717056D01*
X56413335Y19625000D01*
X56429808Y19557100D01*
X56406956Y19491073D01*
X56352034Y19447882D01*
X56305948Y19439000D01*
X55733501Y19439000D01*
X55733501Y19031695D01*
X55736408Y19006628D01*
X55781710Y18904028D01*
X55781710Y18904026D01*
X55781715Y18904019D01*
X55861017Y18824717D01*
X55861020Y18824715D01*
X55861025Y18824712D01*
X55963623Y18779411D01*
X55988706Y18776501D01*
X56395999Y18776501D01*
X56396000Y18776502D01*
X56396000Y19348948D01*
X56415685Y19415987D01*
X56468489Y19461742D01*
X56537647Y19471686D01*
X56581999Y19456336D01*
X56674058Y19403185D01*
X56820300Y19364000D01*
X56971698Y19364000D01*
X56971700Y19364000D01*
X57117942Y19403185D01*
X57210000Y19456336D01*
X57277900Y19472808D01*
X57343927Y19449956D01*
X57387118Y19395034D01*
X57396000Y19348948D01*
X57396000Y18776501D01*
X57803286Y18776501D01*
X57803291Y18776501D01*
X57803291Y18776502D01*
X57803308Y18776503D01*
X57803308Y18776504D01*
X57803324Y18776504D01*
X57824422Y18778952D01*
X57828369Y18779409D01*
X57828373Y18779410D01*
X57930974Y18824712D01*
X57930979Y18824715D01*
X58010285Y18904021D01*
X58010288Y18904026D01*
X58055589Y19006623D01*
X58055589Y19006625D01*
X58056160Y19009330D01*
X58056415Y19013739D01*
X58058173Y19028898D01*
X58058500Y19031252D01*
X58058500Y19439000D01*
X57486052Y19439000D01*
X57419013Y19458685D01*
X57373258Y19511489D01*
X57363314Y19580647D01*
X57378665Y19625000D01*
X57431815Y19717058D01*
X57471000Y19863300D01*
X57471000Y20014700D01*
X57431815Y20160942D01*
X57378664Y20253001D01*
X57362192Y20320900D01*
X57385044Y20386927D01*
X57439966Y20430118D01*
X57486052Y20439000D01*
X58058499Y20439000D01*
X58058499Y20846286D01*
X58058497Y20846309D01*
X58055591Y20871370D01*
X58055590Y20871374D01*
X58010288Y20973975D01*
X58010288Y20973976D01*
X58010283Y20973983D01*
X57930981Y21053285D01*
X57930975Y21053289D01*
X57828376Y21098590D01*
X57803295Y21101500D01*
X57803294Y21101500D01*
X57396000Y21101500D01*
X57396000Y20529053D01*
X57376315Y20462014D01*
X57323511Y20416259D01*
X57254353Y20406315D01*
X57210001Y20421666D01*
X57117948Y20474812D01*
X57117944Y20474814D01*
X57117942Y20474815D01*
X56971700Y20514000D01*
X56971699Y20514000D01*
X56820300Y20514000D01*
X56674058Y20474815D01*
X56674051Y20474812D01*
X56581999Y20421666D01*
X56514099Y20405193D01*
X56448072Y20428046D01*
X56404882Y20482967D01*
X56396000Y20529053D01*
X56396000Y21101500D01*
X55988714Y21101500D01*
X55988702Y21101500D01*
X55963626Y21098592D01*
X55861026Y21053290D01*
X55861024Y21053290D01*
X55861017Y21053285D01*
X55781716Y20973984D01*
X55781714Y20973980D01*
X55781711Y20973975D01*
X55781711Y20973974D01*
X55781708Y20973968D01*
X55736409Y20871379D01*
X55735839Y20868673D01*
X55735738Y20866930D01*
X55735776Y20866028D01*
X55735681Y20865099D01*
X55733500Y20846295D01*
X52251360Y20846295D01*
X52213722Y20856379D01*
X52143107Y20875300D01*
X52143106Y20875300D01*
X51996891Y20875300D01*
X51855658Y20837458D01*
X51729035Y20764350D01*
X51729034Y20764349D01*
X51729029Y20764345D01*
X51625655Y20660971D01*
X51625652Y20660967D01*
X51625651Y20660965D01*
X51625649Y20660962D01*
X51552540Y20534336D01*
X51552538Y20534332D01*
X51550509Y20530817D01*
X51550020Y20531099D01*
X51539500Y20514658D01*
X51531282Y20504459D01*
X51473891Y20464608D01*
X51404066Y20462110D01*
X51343975Y20497759D01*
X51343973Y20497762D01*
X51338377Y20503772D01*
X51318218Y20532819D01*
X51317463Y20534329D01*
X51317457Y20534339D01*
X51317457Y20534340D01*
X51244351Y20660962D01*
X51140962Y20764351D01*
X51104407Y20785457D01*
X51077649Y20800906D01*
X51077649Y20800907D01*
X51014339Y20837459D01*
X50943722Y20856379D01*
X50873107Y20875300D01*
X50873106Y20875300D01*
X50726891Y20875300D01*
X50585658Y20837458D01*
X50459035Y20764350D01*
X50459034Y20764349D01*
X50459029Y20764345D01*
X50355655Y20660971D01*
X50355651Y20660966D01*
X50355650Y20660965D01*
X50282542Y20534342D01*
X50244700Y20393109D01*
X49149000Y20393109D01*
X49149000Y22566606D01*
X55783000Y22566606D01*
X55783000Y22391396D01*
X55810404Y22218372D01*
X55842724Y22118902D01*
X55864543Y22051752D01*
X55864544Y22051751D01*
X55864545Y22051746D01*
X55944075Y21895664D01*
X55944080Y21895655D01*
X56040674Y21762704D01*
X56047045Y21753936D01*
X56047049Y21753931D01*
X56047054Y21753925D01*
X56170921Y21630058D01*
X56170930Y21630050D01*
X56170954Y21630032D01*
X56208365Y21602851D01*
X56208369Y21602849D01*
X56312661Y21527077D01*
X56412121Y21476400D01*
X56462306Y21450829D01*
X56463908Y21449890D01*
X56467622Y21448091D01*
X56469613Y21447102D01*
X56473374Y21446041D01*
X56635364Y21393407D01*
X56635367Y21393407D01*
X56635372Y21393405D01*
X56734090Y21377770D01*
X56808401Y21366000D01*
X56808405Y21366000D01*
X56983598Y21366000D01*
X56983599Y21366000D01*
X57050704Y21376629D01*
X57156628Y21393405D01*
X57323244Y21447542D01*
X57324322Y21448091D01*
X57329699Y21450831D01*
X57479339Y21527077D01*
X57621071Y21630051D01*
X57744949Y21753929D01*
X57847923Y21895661D01*
X57927458Y22051756D01*
X57981595Y22218372D01*
X58004064Y22360238D01*
X58009000Y22391401D01*
X58009000Y22566600D01*
X57995714Y22650482D01*
X57981595Y22739628D01*
X57981594Y22739630D01*
X57968091Y22781188D01*
X57927458Y22906244D01*
X57927456Y22906247D01*
X57927456Y22906249D01*
X57925224Y22910629D01*
X57924913Y22911427D01*
X57924174Y22912690D01*
X57897827Y22964397D01*
X57847923Y23062339D01*
X57794396Y23136013D01*
X57794395Y23136015D01*
X57794394Y23136017D01*
X57744968Y23204046D01*
X57744950Y23204070D01*
X57744942Y23204079D01*
X57621075Y23327946D01*
X57621070Y23327950D01*
X57621069Y23327951D01*
X57621064Y23327955D01*
X57479342Y23430921D01*
X57479341Y23430922D01*
X57479339Y23430923D01*
X57473216Y23434043D01*
X57430596Y23455760D01*
X57430595Y23455760D01*
X57323248Y23510457D01*
X57257618Y23531782D01*
X57156628Y23564596D01*
X56983604Y23592000D01*
X56983599Y23592000D01*
X56983595Y23592000D01*
X56808405Y23592000D01*
X56808401Y23592000D01*
X56808396Y23592000D01*
X56635370Y23564596D01*
X56468752Y23510458D01*
X56468744Y23510455D01*
X56312662Y23430925D01*
X56312653Y23430920D01*
X56170952Y23327968D01*
X56170923Y23327946D01*
X56047054Y23204077D01*
X56047032Y23204048D01*
X55944080Y23062347D01*
X55944075Y23062338D01*
X55864545Y22906256D01*
X55864543Y22906251D01*
X55864543Y22906249D01*
X55853226Y22871421D01*
X55810404Y22739630D01*
X55783000Y22566606D01*
X49149000Y22566606D01*
X49149000Y24000136D01*
X49153323Y24032594D01*
X49153650Y24033800D01*
X49157742Y24047736D01*
X49159212Y24054310D01*
X49159929Y24056951D01*
X49176812Y24084462D01*
X49192430Y24112676D01*
X49349470Y24267879D01*
X49377840Y24288857D01*
X49400898Y24301273D01*
X49461138Y24316081D01*
X54539236Y24256339D01*
G37*
%TD.AperFunction*%
%TD*%
%TA.AperFunction,Conductor*%
%TO.N,VB_IP*%
G36*
X47046827Y48006001D02*
G01*
X47374002Y48006001D01*
X47441039Y47986316D01*
X47486794Y47933512D01*
X47498000Y47882001D01*
X47498000Y46783362D01*
X47478315Y46716323D01*
X47461681Y46695681D01*
X47284319Y46518319D01*
X47222996Y46484834D01*
X47196638Y46482000D01*
X18589362Y46482000D01*
X18522323Y46501685D01*
X18501681Y46518319D01*
X18324319Y46695681D01*
X18290834Y46757004D01*
X18288000Y46783362D01*
X18288000Y47704684D01*
X18307685Y47771723D01*
X18324315Y47792361D01*
X18501680Y47969727D01*
X18563003Y48003211D01*
X18589360Y48006045D01*
X47046827Y48006001D01*
G37*
%TD.AperFunction*%
%TD*%
%TA.AperFunction,Conductor*%
%TO.N,/SWCLK*%
G36*
X34939538Y7408600D02*
G01*
X34941146Y7406592D01*
X35518682Y6495788D01*
X35520218Y6486966D01*
X35515066Y6479642D01*
X35514084Y6479083D01*
X34752872Y6093898D01*
X34743942Y6093221D01*
X34741704Y6094226D01*
X34080091Y6479271D01*
X34074664Y6486394D01*
X34075614Y6494816D01*
X34553414Y7405762D01*
X34560291Y7411496D01*
X34563775Y7412027D01*
X34931265Y7412027D01*
X34939538Y7408600D01*
G37*
%TD.AperFunction*%
%TD*%
M02*
