%TF.GenerationSoftware,KiCad,Pcbnew,10.0.4*%
%TF.CreationDate,2026-08-16T22:45:47-03:00*%
%TF.ProjectId,pcb_0222,7063625f-3032-4323-922e-6b696361645f,rev?*%
%TF.SameCoordinates,PX6cb6cf8PY8381870*%
%TF.FileFunction,Plated,1,2,PTH,Drill*%
%TF.FilePolarity,Positive*%
%FSLAX46Y46*%
G04 Gerber Fmt 4.6, Leading zero omitted, Abs format (unit mm)*
G04 Created by KiCad (PCBNEW 10.0.4) date 2026-08-16 22:45:47*
%MOMM*%
%LPD*%
G01*
G04 APERTURE LIST*
%TA.AperFunction,ViaDrill*%
%ADD10C,0.304800*%
%TD*%
%TA.AperFunction,ComponentDrill*%
%ADD11C,1.100000*%
%TD*%
%TA.AperFunction,ComponentDrill*%
%ADD12C,1.150000*%
%TD*%
%TA.AperFunction,ComponentDrill*%
%ADD13C,1.800000*%
%TD*%
G04 APERTURE END LIST*
D10*
X4318000Y9144000D03*
X6604000Y9144000D03*
X8890000Y35560000D03*
X8890000Y34290000D03*
X8890000Y33020000D03*
X10160000Y64770000D03*
X10160000Y63500000D03*
X10160000Y62230000D03*
X10160000Y4064000D03*
X11430000Y35560000D03*
X11430000Y34290000D03*
X11430000Y33020000D03*
X12700000Y64770000D03*
X12700000Y63500000D03*
X12700000Y62230000D03*
X12700000Y4064000D03*
X14478000Y11684000D03*
X14478000Y10160000D03*
X14605000Y35560000D03*
X14605000Y34290000D03*
X14605000Y33020000D03*
X15240000Y64770000D03*
X15240000Y63500000D03*
X15240000Y62230000D03*
X15240000Y4064000D03*
X16256000Y11684000D03*
X16256000Y10160000D03*
X17145000Y35560000D03*
X17145000Y34290000D03*
X17145000Y33020000D03*
X17780000Y64770000D03*
X17780000Y63500000D03*
X17780000Y62230000D03*
X17780000Y11684000D03*
X17780000Y10160000D03*
X17780000Y4064000D03*
X18796000Y47625000D03*
X18796000Y46863000D03*
X19558000Y47625000D03*
X19558000Y46863000D03*
X20320000Y47625000D03*
X20320000Y46863000D03*
X21209000Y10287000D03*
X22225000Y10287000D03*
X23368000Y10236200D03*
X23672800Y15748000D03*
X24434800Y51816000D03*
X24434800Y50546000D03*
X24434800Y49276000D03*
X25400000Y20320000D03*
X25400000Y19050000D03*
X26924000Y6350000D03*
X27051000Y27051000D03*
X29210000Y27051000D03*
X29210000Y26162000D03*
X29210000Y22606000D03*
X29262000Y18770600D03*
X30226000Y15748000D03*
X30454600Y31699200D03*
X31115000Y19685000D03*
X31496000Y17246600D03*
X31496000Y10795000D03*
X31648400Y53136800D03*
X32385000Y19685000D03*
X32385000Y18415000D03*
X32766000Y6350000D03*
X33172400Y24018002D03*
X33477200Y22064002D03*
X33655000Y18415000D03*
X33826400Y30073600D03*
X33832569Y23372002D03*
X34391600Y45364400D03*
X34505599Y22701200D03*
X34544000Y30784800D03*
X34747200Y8178800D03*
X35153600Y50647600D03*
X35153600Y49377600D03*
X35179000Y42545000D03*
X35200000Y43400000D03*
X35333448Y28965600D03*
X35864800Y26365200D03*
X36068000Y42545000D03*
X36100000Y43400000D03*
X37211000Y3683000D03*
X38608000Y3683000D03*
X39123531Y9741600D03*
X39217600Y11582400D03*
X39370000Y34925000D03*
X39370000Y33655000D03*
X40132000Y45466000D03*
X41046400Y30118000D03*
X41103600Y26614000D03*
X41402000Y45466000D03*
X41910000Y66040000D03*
X41910000Y63500000D03*
X41910000Y57150000D03*
X42011600Y33477200D03*
X42011600Y24022000D03*
X42062400Y39217600D03*
X42214800Y8763000D03*
X42672000Y45466000D03*
X42824400Y23418800D03*
X42926000Y36118800D03*
X43180000Y66040000D03*
X43180000Y63500000D03*
X43180000Y57150000D03*
X43637200Y37185600D03*
X43637200Y22701200D03*
X44450000Y22047200D03*
X44500800Y42164000D03*
X45085000Y44450000D03*
X45085000Y43078400D03*
X45212000Y47625000D03*
X45212000Y46863000D03*
X45466000Y27190000D03*
X45516800Y24638000D03*
X45516800Y19964400D03*
X45974000Y47625000D03*
X45974000Y46863000D03*
X46075600Y34550400D03*
X46355000Y44450000D03*
X46380400Y43027600D03*
X46736000Y47625000D03*
X46736000Y46863000D03*
X47040800Y27940000D03*
X47142400Y10515600D03*
X47548800Y30784800D03*
X47701200Y40132000D03*
X47701200Y35306000D03*
X48385361Y29439258D03*
X48412400Y12344400D03*
X48895000Y43180000D03*
X49530000Y29311600D03*
X49530000Y23723600D03*
X49930000Y11430000D03*
X50165000Y43180000D03*
X50800000Y66040000D03*
X50800000Y20320000D03*
X50800000Y17780000D03*
X51435000Y26670000D03*
X52070000Y66040000D03*
X52070000Y20320000D03*
X52070000Y17780000D03*
X52628800Y28295600D03*
X52705000Y43180000D03*
X52705000Y26670000D03*
X53340000Y66040000D03*
X53848000Y35929000D03*
X53975000Y43180000D03*
X53975000Y26670000D03*
X54229000Y14605000D03*
X54254400Y8229600D03*
X55118000Y35929000D03*
X57150000Y66040000D03*
X57150000Y63500000D03*
X57658000Y42214800D03*
X57658000Y34594800D03*
X58420000Y66040000D03*
X58420000Y63500000D03*
X59182000Y25400000D03*
X59182000Y16510000D03*
X59182000Y12573000D03*
X59690000Y66040000D03*
X59690000Y63500000D03*
X60960000Y5080000D03*
X62128400Y32004000D03*
X62230000Y40640000D03*
X62230000Y38100000D03*
X62230000Y5080000D03*
X63500000Y40640000D03*
X63500000Y38100000D03*
X63500000Y5080000D03*
X63957200Y18948400D03*
X64770000Y66040000D03*
X64770000Y63500000D03*
X64770000Y40640000D03*
X64770000Y38100000D03*
X64770000Y27940000D03*
X64770000Y26670000D03*
X66040000Y66040000D03*
X66040000Y63500000D03*
X66675000Y27940000D03*
X66675000Y26670000D03*
X66675000Y12700000D03*
X66675000Y10160000D03*
X66675000Y7620000D03*
X66675000Y5080000D03*
X67310000Y66040000D03*
X67310000Y63500000D03*
X67945000Y41910000D03*
X67945000Y40640000D03*
X67945000Y28575000D03*
X67945000Y12700000D03*
X67945000Y10160000D03*
X67945000Y7620000D03*
X67945000Y5080000D03*
X69215000Y41910000D03*
X69215000Y40640000D03*
X69215000Y28575000D03*
X69215000Y12700000D03*
X69215000Y10160000D03*
X69215000Y7620000D03*
X69215000Y5080000D03*
X72390000Y58420000D03*
X72390000Y55880000D03*
X72390000Y49530000D03*
X72390000Y46990000D03*
X72390000Y41910000D03*
X72390000Y12700000D03*
X72390000Y10160000D03*
X73660000Y58420000D03*
X73660000Y55880000D03*
X73660000Y49530000D03*
X73660000Y46990000D03*
X73660000Y41910000D03*
X73660000Y28575000D03*
X73660000Y12700000D03*
X73660000Y10160000D03*
X74930000Y58420000D03*
X74930000Y55880000D03*
X74930000Y49530000D03*
X74930000Y46990000D03*
X74930000Y28575000D03*
X74930000Y12700000D03*
X74930000Y10160000D03*
D11*
%TO.C,J8*%
X34798000Y6096000D03*
X37338000Y6096000D03*
D12*
%TO.C,J7*%
X56896000Y27559000D03*
X56896000Y25019000D03*
X56896000Y22479000D03*
X56896000Y19939000D03*
%TO.C,J9*%
X56896000Y15240000D03*
X56896000Y12700000D03*
X56896000Y10160000D03*
X56896000Y7620000D03*
D13*
%TO.C,J1*%
X63830200Y49807001D03*
X63830200Y45847000D03*
M02*
