M48
; DRILL file KiCad 10.0.4 date 2026-08-16T22:45:44
; FORMAT={-:-/ absolute / metric / decimal}
; #@! TF.CreationDate,2026-08-16T22:45:44-03:00
; #@! TF.GenerationSoftware,Kicad,Pcbnew,10.0.4
; #@! TF.FileFunction,Plated,1,2,PTH
FMAT,2
METRIC
; #@! TA.AperFunction,Plated,PTH,ViaDrill
T1C0.305
; #@! TA.AperFunction,Plated,PTH,ComponentDrill
T2C1.100
; #@! TA.AperFunction,Plated,PTH,ComponentDrill
T3C1.150
; #@! TA.AperFunction,Plated,PTH,ComponentDrill
T4C1.800
%
G90
G05
T1
X4.318Y9.144
X6.604Y9.144
X8.89Y35.56
X8.89Y34.29
X8.89Y33.02
X10.16Y64.77
X10.16Y63.5
X10.16Y62.23
X10.16Y4.064
X11.43Y35.56
X11.43Y34.29
X11.43Y33.02
X12.7Y64.77
X12.7Y63.5
X12.7Y62.23
X12.7Y4.064
X14.478Y11.684
X14.478Y10.16
X14.605Y35.56
X14.605Y34.29
X14.605Y33.02
X15.24Y64.77
X15.24Y63.5
X15.24Y62.23
X15.24Y4.064
X16.256Y11.684
X16.256Y10.16
X17.145Y35.56
X17.145Y34.29
X17.145Y33.02
X17.78Y64.77
X17.78Y63.5
X17.78Y62.23
X17.78Y11.684
X17.78Y10.16
X17.78Y4.064
X18.796Y47.625
X18.796Y46.863
X19.558Y47.625
X19.558Y46.863
X20.32Y47.625
X20.32Y46.863
X21.209Y10.287
X22.225Y10.287
X23.368Y10.236
X23.673Y15.748
X24.435Y51.816
X24.435Y50.546
X24.435Y49.276
X25.4Y20.32
X25.4Y19.05
X26.924Y6.35
X27.051Y27.051
X29.21Y27.051
X29.21Y26.162
X29.21Y22.606
X29.262Y18.771
X30.226Y15.748
X30.455Y31.699
X31.115Y19.685
X31.496Y17.247
X31.496Y10.795
X31.648Y53.137
X32.385Y19.685
X32.385Y18.415
X32.766Y6.35
X33.172Y24.018
X33.477Y22.064
X33.655Y18.415
X33.826Y30.074
X33.833Y23.372
X34.392Y45.364
X34.506Y22.701
X34.544Y30.785
X34.747Y8.179
X35.154Y50.648
X35.154Y49.378
X35.179Y42.545
X35.2Y43.4
X35.333Y28.966
X35.865Y26.365
X36.068Y42.545
X36.1Y43.4
X37.211Y3.683
X38.608Y3.683
X39.124Y9.742
X39.218Y11.582
X39.37Y34.925
X39.37Y33.655
X40.132Y45.466
X41.046Y30.118
X41.104Y26.614
X41.402Y45.466
X41.91Y66.04
X41.91Y63.5
X41.91Y57.15
X42.012Y33.477
X42.012Y24.022
X42.062Y39.218
X42.215Y8.763
X42.672Y45.466
X42.824Y23.419
X42.926Y36.119
X43.18Y66.04
X43.18Y63.5
X43.18Y57.15
X43.637Y37.186
X43.637Y22.701
X44.45Y22.047
X44.501Y42.164
X45.085Y44.45
X45.085Y43.078
X45.212Y47.625
X45.212Y46.863
X45.466Y27.19
X45.517Y24.638
X45.517Y19.964
X45.974Y47.625
X45.974Y46.863
X46.076Y34.55
X46.355Y44.45
X46.38Y43.028
X46.736Y47.625
X46.736Y46.863
X47.041Y27.94
X47.142Y10.516
X47.549Y30.785
X47.701Y40.132
X47.701Y35.306
X48.385Y29.439
X48.412Y12.344
X48.895Y43.18
X49.53Y29.312
X49.53Y23.724
X49.93Y11.43
X50.165Y43.18
X50.8Y66.04
X50.8Y20.32
X50.8Y17.78
X51.435Y26.67
X52.07Y66.04
X52.07Y20.32
X52.07Y17.78
X52.629Y28.296
X52.705Y43.18
X52.705Y26.67
X53.34Y66.04
X53.848Y35.929
X53.975Y43.18
X53.975Y26.67
X54.229Y14.605
X54.254Y8.23
X55.118Y35.929
X57.15Y66.04
X57.15Y63.5
X57.658Y42.215
X57.658Y34.595
X58.42Y66.04
X58.42Y63.5
X59.182Y25.4
X59.182Y16.51
X59.182Y12.573
X59.69Y66.04
X59.69Y63.5
X60.96Y5.08
X62.128Y32.004
X62.23Y40.64
X62.23Y38.1
X62.23Y5.08
X63.5Y40.64
X63.5Y38.1
X63.5Y5.08
X63.957Y18.948
X64.77Y66.04
X64.77Y63.5
X64.77Y40.64
X64.77Y38.1
X64.77Y27.94
X64.77Y26.67
X66.04Y66.04
X66.04Y63.5
X66.675Y27.94
X66.675Y26.67
X66.675Y12.7
X66.675Y10.16
X66.675Y7.62
X66.675Y5.08
X67.31Y66.04
X67.31Y63.5
X67.945Y41.91
X67.945Y40.64
X67.945Y28.575
X67.945Y12.7
X67.945Y10.16
X67.945Y7.62
X67.945Y5.08
X69.215Y41.91
X69.215Y40.64
X69.215Y28.575
X69.215Y12.7
X69.215Y10.16
X69.215Y7.62
X69.215Y5.08
X72.39Y58.42
X72.39Y55.88
X72.39Y49.53
X72.39Y46.99
X72.39Y41.91
X72.39Y12.7
X72.39Y10.16
X73.66Y58.42
X73.66Y55.88
X73.66Y49.53
X73.66Y46.99
X73.66Y41.91
X73.66Y28.575
X73.66Y12.7
X73.66Y10.16
X74.93Y58.42
X74.93Y55.88
X74.93Y49.53
X74.93Y46.99
X74.93Y28.575
X74.93Y12.7
X74.93Y10.16
T2
X34.798Y6.096
X37.338Y6.096
T3
X56.896Y27.559
X56.896Y25.019
X56.896Y22.479
X56.896Y19.939
X56.896Y15.24
X56.896Y12.7
X56.896Y10.16
X56.896Y7.62
T4
X63.83Y49.807
X63.83Y45.847
M30
