%TF.GenerationSoftware,KiCad,Pcbnew,10.0.4*%
%TF.CreationDate,2026-08-16T22:49:51-03:00*%
%TF.ProjectId,pcb_0222,7063625f-3032-4323-922e-6b696361645f,rev?*%
%TF.SameCoordinates,PX6cb6cf8PY8381870*%
%TF.FileFunction,Component,L1,Top*%
%TF.FilePolarity,Positive*%
%FSLAX46Y46*%
G04 Gerber Fmt 4.6, Leading zero omitted, Abs format (unit mm)*
G04 Created by KiCad (PCBNEW 10.0.4) date 2026-08-16 22:49:51*
%MOMM*%
%LPD*%
G01*
G04 APERTURE LIST*
%TA.AperFunction,ComponentMain*%
%ADD10C,0.300000*%
%TD*%
%TA.AperFunction,ComponentOutline,Courtyard*%
%ADD11C,0.100000*%
%TD*%
%TA.AperFunction,ComponentPin*%
%ADD12P,0.360000X4X0.000000*%
%TD*%
%TA.AperFunction,ComponentPin*%
%ADD13C,0.100000*%
%TD*%
%TA.AperFunction,ComponentOutline,Footprint*%
%ADD14C,0.100000*%
%TD*%
%TA.AperFunction,Profile*%
%ADD15C,0.050000*%
%TD*%
G04 APERTURE END LIST*
D10*
%TO.C,TP6*%
%TO.CFtp,TP_SMD_0.8mm*%
%TO.CVal,~*%
%TO.CLbN,testpoints*%
%TO.CMnt,SMD*%
%TO.CRot,0*%
X41402000Y50292000D03*
D11*
X41467992Y50708653D02*
X41593513Y50667868D01*
X41700290Y50590291D01*
X41777867Y50483514D01*
X41818684Y50357897D01*
X41821260Y50292000D01*
X41818684Y50226104D01*
X41777867Y50100487D01*
X41700290Y49993710D01*
X41593513Y49916133D01*
X41467992Y49875347D01*
X41336008Y49875347D01*
X41210486Y49916133D01*
X41103709Y49993710D01*
X41026132Y50100487D01*
X40985347Y50226008D01*
X40985347Y50357993D01*
X41026132Y50483514D01*
X41103709Y50590291D01*
X41210486Y50667868D01*
X41336008Y50708653D01*
X41467992Y50708653D01*
D12*
%TO.P,TP6,1*%
X41402000Y50292000D03*
%TD*%
D10*
%TO.C,J9*%
%TO.CFtp,61300411121*%
%TO.CVal,HEADER_MALE_THT_0.1"_4x1*%
%TO.CLbN,connectors_headers*%
%TO.CMnt,TH*%
%TO.CRot,90*%
X56896000Y7620000D03*
D11*
X58511000Y16905000D02*
X58511000Y5955000D01*
X55281000Y5955000D01*
X55281000Y16905000D01*
X58511000Y16905000D01*
D12*
%TO.P,J9,1,1_1*%
X56896000Y7620000D03*
D13*
%TO.P,J9,2,2_2*%
X56896000Y10160000D03*
%TO.P,J9,3,3_3*%
X56896000Y12700000D03*
%TO.P,J9,4,4_4*%
X56896000Y15240000D03*
%TD*%
D10*
%TO.C,R18*%
%TO.CFtp,R_0603*%
%TO.CVal,10K*%
%TO.CLbN,passives_smd*%
%TO.CMnt,SMD*%
%TO.CRot,90*%
X40792400Y6146800D03*
D11*
X41502400Y7606800D02*
X41502400Y4686800D01*
X40082400Y4686800D01*
X40082400Y7606800D01*
X41502400Y7606800D01*
D12*
%TO.P,R18,1*%
X40792400Y5346800D03*
D13*
%TO.P,R18,2*%
X40792400Y6946800D03*
%TD*%
D10*
%TO.C,C10*%
%TO.CFtp,C_0603*%
%TO.CVal,10nF*%
%TO.CLbN,passives_smd*%
%TO.CMnt,SMD*%
%TO.CRot,-90*%
X62357000Y34163000D03*
D11*
X62927000Y35533000D02*
X62927000Y32793000D01*
X61737000Y32793000D01*
X61737000Y35533000D01*
X62927000Y35533000D01*
D12*
%TO.P,C10,1*%
X62357000Y34963000D03*
D13*
%TO.P,C10,2*%
X62357000Y33363000D03*
%TD*%
D10*
%TO.C,R23*%
%TO.CFtp,R_0603*%
%TO.CVal,4K7*%
%TO.CLbN,passives_smd*%
%TO.CMnt,SMD*%
%TO.CRot,0*%
X52222400Y14605000D03*
D11*
X53682400Y15315000D02*
X53682400Y13895000D01*
X50762400Y13895000D01*
X50762400Y15315000D01*
X53682400Y15315000D01*
D12*
%TO.P,R23,1*%
X51422400Y14605000D03*
D13*
%TO.P,R23,2*%
X53022400Y14605000D03*
%TD*%
D10*
%TO.C,TP5*%
%TO.CFtp,TP_SMD_0.8mm*%
%TO.CVal,~*%
%TO.CLbN,testpoints*%
%TO.CMnt,SMD*%
%TO.CRot,0*%
X46228000Y52578000D03*
D11*
X46293992Y52994653D02*
X46419513Y52953868D01*
X46526290Y52876291D01*
X46603867Y52769514D01*
X46644684Y52643897D01*
X46647260Y52578000D01*
X46644684Y52512104D01*
X46603867Y52386487D01*
X46526290Y52279710D01*
X46419513Y52202133D01*
X46293992Y52161347D01*
X46162008Y52161347D01*
X46036486Y52202133D01*
X45929709Y52279710D01*
X45852132Y52386487D01*
X45811347Y52512008D01*
X45811347Y52643993D01*
X45852132Y52769514D01*
X45929709Y52876291D01*
X46036486Y52953868D01*
X46162008Y52994653D01*
X46293992Y52994653D01*
D12*
%TO.P,TP5,1*%
X46228000Y52578000D03*
%TD*%
D10*
%TO.C,TP11*%
%TO.CFtp,TP_SMD_0.8mm*%
%TO.CVal,~*%
%TO.CLbN,testpoints*%
%TO.CMnt,SMD*%
%TO.CRot,0*%
X67462400Y16662400D03*
D11*
X67528392Y17079053D02*
X67653913Y17038268D01*
X67760690Y16960691D01*
X67838267Y16853914D01*
X67879084Y16728297D01*
X67881660Y16662400D01*
X67879084Y16596504D01*
X67838267Y16470887D01*
X67760690Y16364110D01*
X67653913Y16286533D01*
X67528392Y16245747D01*
X67396408Y16245747D01*
X67270886Y16286533D01*
X67164109Y16364110D01*
X67086532Y16470887D01*
X67045747Y16596408D01*
X67045747Y16728393D01*
X67086532Y16853914D01*
X67164109Y16960691D01*
X67270886Y17038268D01*
X67396408Y17079053D01*
X67528392Y17079053D01*
D12*
%TO.P,TP11,1*%
X67462400Y16662400D03*
%TD*%
D10*
%TO.C,R20*%
%TO.CFtp,R_0603*%
%TO.CVal,120R*%
%TO.CLbN,passives_smd*%
%TO.CMnt,SMD*%
%TO.CRot,90*%
X42062400Y41859200D03*
D11*
X42772400Y43319200D02*
X42772400Y40399200D01*
X41352400Y40399200D01*
X41352400Y43319200D01*
X42772400Y43319200D01*
D12*
%TO.P,R20,1*%
X42062400Y41059200D03*
D13*
%TO.P,R20,2*%
X42062400Y42659200D03*
%TD*%
D10*
%TO.C,C1*%
%TO.CFtp,C_0603*%
%TO.CVal,100nF*%
%TO.CLbN,passives_smd*%
%TO.CMnt,SMD*%
%TO.CRot,0*%
X35052000Y55880000D03*
D11*
X36422000Y56450000D02*
X36422000Y55260000D01*
X33682000Y55260000D01*
X33682000Y56450000D01*
X36422000Y56450000D01*
D12*
%TO.P,C1,1*%
X34252000Y55880000D03*
D13*
%TO.P,C1,2*%
X35852000Y55880000D03*
%TD*%
D10*
%TO.C,C15*%
%TO.CFtp,C_0603*%
%TO.CVal,4.7uF*%
%TO.CLbN,passives_smd*%
%TO.CMnt,SMD*%
%TO.CRot,90*%
X27940000Y25438000D03*
D11*
X28560000Y26808000D02*
X28560000Y24068000D01*
X27370000Y24068000D01*
X27370000Y26808000D01*
X28560000Y26808000D01*
D12*
%TO.P,C15,1*%
X27940000Y24638000D03*
D13*
%TO.P,C15,2*%
X27940000Y26238000D03*
%TD*%
D10*
%TO.C,TP8*%
%TO.CFtp,TP_SMD_0.8mm*%
%TO.CVal,~*%
%TO.CLbN,testpoints*%
%TO.CMnt,SMD*%
%TO.CRot,0*%
X36957000Y48133000D03*
D11*
X37022992Y48549653D02*
X37148513Y48508868D01*
X37255290Y48431291D01*
X37332867Y48324514D01*
X37373684Y48198897D01*
X37376260Y48133000D01*
X37373684Y48067104D01*
X37332867Y47941487D01*
X37255290Y47834710D01*
X37148513Y47757133D01*
X37022992Y47716347D01*
X36891008Y47716347D01*
X36765486Y47757133D01*
X36658709Y47834710D01*
X36581132Y47941487D01*
X36540347Y48067008D01*
X36540347Y48198993D01*
X36581132Y48324514D01*
X36658709Y48431291D01*
X36765486Y48508868D01*
X36891008Y48549653D01*
X37022992Y48549653D01*
D12*
%TO.P,TP8,1*%
X36957000Y48133000D03*
%TD*%
D10*
%TO.C,TP12*%
%TO.CFtp,TP_SMD_0.8mm*%
%TO.CVal,~*%
%TO.CLbN,testpoints*%
%TO.CMnt,SMD*%
%TO.CRot,180*%
X64008000Y31242000D03*
D11*
X64073992Y31658653D02*
X64199513Y31617868D01*
X64306290Y31540291D01*
X64383867Y31433514D01*
X64424684Y31307897D01*
X64427260Y31242000D01*
X64424684Y31176104D01*
X64383867Y31050487D01*
X64306290Y30943710D01*
X64199513Y30866133D01*
X64073992Y30825347D01*
X63942008Y30825347D01*
X63816486Y30866133D01*
X63709709Y30943710D01*
X63632132Y31050487D01*
X63591347Y31176008D01*
X63591347Y31307993D01*
X63632132Y31433514D01*
X63709709Y31540291D01*
X63816486Y31617868D01*
X63942008Y31658653D01*
X64073992Y31658653D01*
D12*
%TO.P,TP12,1*%
X64008000Y31242000D03*
%TD*%
D10*
%TO.C,C4*%
%TO.CFtp,C_0603*%
%TO.CVal,100nF*%
%TO.CLbN,passives_smd*%
%TO.CMnt,SMD*%
%TO.CRot,-90*%
X39497000Y53594000D03*
D11*
X40067000Y54964000D02*
X40067000Y52224000D01*
X38877000Y52224000D01*
X38877000Y54964000D01*
X40067000Y54964000D01*
D12*
%TO.P,C4,1*%
X39497000Y54394000D03*
D13*
%TO.P,C4,2*%
X39497000Y52794000D03*
%TD*%
D10*
%TO.C,R9*%
%TO.CFtp,R_0603*%
%TO.CVal,22.1K*%
%TO.CLbN,passives_smd*%
%TO.CMnt,SMD*%
%TO.CRot,0*%
X27178000Y50038000D03*
D11*
X28638000Y50748000D02*
X28638000Y49328000D01*
X25718000Y49328000D01*
X25718000Y50748000D01*
X28638000Y50748000D01*
D12*
%TO.P,R9,1*%
X26378000Y50038000D03*
D13*
%TO.P,R9,2*%
X27978000Y50038000D03*
%TD*%
D10*
%TO.C,L1*%
%TO.CFtp,L_44.88mm3_6.8x6.8mm_Bourns_SRR6038-120Y*%
%TO.CVal,12uH*%
%TO.CLbN,passives_smd*%
%TO.CMnt,SMD*%
%TO.CRot,180*%
X35179000Y61976000D03*
D11*
X39674000Y66471000D02*
X39674000Y57481000D01*
X30684000Y57481000D01*
X30684000Y66471000D01*
X39674000Y66471000D01*
D12*
%TO.P,L1,1*%
X37529000Y61976000D03*
D13*
%TO.P,L1,2*%
X32829000Y61976000D03*
%TD*%
D10*
%TO.C,TVS3*%
%TO.CFtp,2-DFN_(1.6x1)*%
%TO.CVal,3V3*%
%TO.CLbN,diodes_smd*%
%TO.CMnt,SMD*%
%TO.CRot,90*%
X64770000Y21896000D03*
D11*
X65806400Y23415000D02*
X65806400Y19869000D01*
X63759000Y19869000D01*
X63759000Y23415000D01*
X65806400Y23415000D01*
D13*
%TO.P,TVS3,A*%
X64770000Y22456000D03*
%TO.P,TVS3,C*%
X64770000Y21336000D03*
%TD*%
D10*
%TO.C,R7*%
%TO.CFtp,R_2512*%
%TO.CVal,1K*%
%TO.CLbN,passives_smd*%
%TO.CMnt,SMD*%
%TO.CRot,-90*%
X52578000Y60579000D03*
D11*
X54531000Y64482000D02*
X54531000Y56676000D01*
X50625000Y56676000D01*
X50625000Y64482000D01*
X54531000Y64482000D01*
D12*
%TO.P,R7,1*%
X52578000Y63493000D03*
D13*
%TO.P,R7,2*%
X52578000Y57665000D03*
%TD*%
D10*
%TO.C,C7*%
%TO.CFtp,C_1210_TDK_CGA6_2.8mm_Tall*%
%TO.CVal,10uF*%
%TO.CLbN,passives_smd*%
%TO.CMnt,SMD*%
%TO.CRot,90*%
X16000000Y53086000D03*
D11*
X17485000Y55621000D02*
X17485000Y50541000D01*
X14515000Y50541000D01*
X14515000Y55621000D01*
X17485000Y55621000D01*
D12*
%TO.P,C7,1*%
X16000000Y51386000D03*
D13*
%TO.P,C7,2*%
X16000000Y54786000D03*
%TD*%
D10*
%TO.C,TVS7*%
%TO.CFtp,SOT-23-6 [2.8x2.93x1.1\u002CP=0.95]mm*%
%TO.CVal,USBLC6-2SC6*%
%TO.CLbN,packages_smd*%
%TO.CMnt,SMD*%
%TO.CRot,180*%
X52578000Y23749000D03*
D11*
X53677900Y25547400D02*
X53677900Y25201960D01*
X54573000Y25201960D01*
X54573000Y22296040D01*
X53677900Y22296040D01*
X53677900Y21950600D01*
X51478100Y21950600D01*
X51478100Y22296040D01*
X50583000Y22296040D01*
X50583000Y25201960D01*
X51478100Y25201960D01*
X51478100Y25547400D01*
X53677900Y25547400D01*
D12*
%TO.P,TVS7,1,I/O1_1*%
X53728000Y22799000D03*
D13*
%TO.P,TVS7,2,GND_2*%
X53728000Y23749000D03*
%TO.P,TVS7,3,I/O2_3*%
X53728000Y24699000D03*
%TO.P,TVS7,4,I/O2_4*%
X51428000Y24699000D03*
%TO.P,TVS7,5,VBUS_5*%
X51428000Y23749000D03*
%TO.P,TVS7,6,I/O1_6*%
X51428000Y22799000D03*
%TD*%
D10*
%TO.C,TVS1*%
%TO.CFtp,DO-214AC*%
%TO.CVal,26V*%
%TO.CLbN,packages_smd*%
%TO.CMnt,SMD*%
%TO.CRot,-90*%
X57912000Y47244000D03*
D11*
X59707000Y50739000D02*
X59707000Y43749000D01*
X56117000Y43749000D01*
X56117000Y50739000D01*
X59707000Y50739000D01*
D13*
%TO.P,TVS1,A,A_A*%
X57912000Y45194000D03*
%TO.P,TVS1,C,C_C*%
X57912000Y49294000D03*
%TD*%
D10*
%TO.C,R15*%
%TO.CFtp,R_0603*%
%TO.CVal,10K*%
%TO.CLbN,passives_smd*%
%TO.CMnt,SMD*%
%TO.CRot,-90*%
X62274000Y17526000D03*
D11*
X62984000Y18986000D02*
X62984000Y16066000D01*
X61564000Y16066000D01*
X61564000Y18986000D01*
X62984000Y18986000D01*
D12*
%TO.P,R15,1*%
X62274000Y18326000D03*
D13*
%TO.P,R15,2*%
X62274000Y16726000D03*
%TD*%
D10*
%TO.C,TP14*%
%TO.CFtp,TP_SMD_0.8mm*%
%TO.CVal,~*%
%TO.CLbN,testpoints*%
%TO.CMnt,SMD*%
%TO.CRot,180*%
X40741600Y3606800D03*
D11*
X40807592Y4023453D02*
X40933113Y3982668D01*
X41039890Y3905091D01*
X41117467Y3798314D01*
X41158284Y3672697D01*
X41160860Y3606800D01*
X41158284Y3540904D01*
X41117467Y3415287D01*
X41039890Y3308510D01*
X40933113Y3230933D01*
X40807592Y3190147D01*
X40675608Y3190147D01*
X40550086Y3230933D01*
X40443309Y3308510D01*
X40365732Y3415287D01*
X40324947Y3540808D01*
X40324947Y3672793D01*
X40365732Y3798314D01*
X40443309Y3905091D01*
X40550086Y3982668D01*
X40675608Y4023453D01*
X40807592Y4023453D01*
D12*
%TO.P,TP14,1*%
X40741600Y3606800D03*
%TD*%
D10*
%TO.C,D2*%
%TO.CFtp,B5819W*%
%TO.CVal,40V 1A*%
%TO.CLbN,diodes_smd*%
%TO.CMnt,SMD*%
%TO.CRot,90*%
X34290000Y39370000D03*
D11*
X35185000Y41665000D02*
X35185000Y37075000D01*
X33395000Y37075000D01*
X33395000Y41665000D01*
X35185000Y41665000D01*
D13*
%TO.P,D2,A*%
X34290000Y37750000D03*
%TO.P,D2,C*%
X34290000Y40990000D03*
%TD*%
D10*
%TO.C,TP7*%
%TO.CFtp,TP_SMD_0.8mm*%
%TO.CVal,~*%
%TO.CLbN,testpoints*%
%TO.CMnt,SMD*%
%TO.CRot,0*%
X29591000Y56134000D03*
D11*
X29656992Y56550653D02*
X29782513Y56509868D01*
X29889290Y56432291D01*
X29966867Y56325514D01*
X30007684Y56199897D01*
X30010260Y56134000D01*
X30007684Y56068104D01*
X29966867Y55942487D01*
X29889290Y55835710D01*
X29782513Y55758133D01*
X29656992Y55717347D01*
X29525008Y55717347D01*
X29399486Y55758133D01*
X29292709Y55835710D01*
X29215132Y55942487D01*
X29174347Y56068008D01*
X29174347Y56199993D01*
X29215132Y56325514D01*
X29292709Y56432291D01*
X29399486Y56509868D01*
X29525008Y56550653D01*
X29656992Y56550653D01*
D12*
%TO.P,TP7,1*%
X29591000Y56134000D03*
%TD*%
D10*
%TO.C,J4*%
%TO.CFtp,SM08B-PASS-TBT*%
%TO.CVal,SM08B-PASS-TBT*%
%TO.CLbN,connectors_headers*%
%TO.CMnt,SMD*%
%TO.CRot,-90*%
X12270000Y54799997D03*
D11*
X13965000Y58351499D02*
X13965000Y37248497D01*
X2675000Y37248497D01*
X2675000Y58351499D01*
X13965000Y58351499D01*
D12*
%TO.P,J4,1*%
X12270000Y54799997D03*
D13*
%TO.P,J4,*%
X11070104Y56999998D03*
X11070000Y38599998D03*
%TO.P,J4,2*%
X12270000Y52799998D03*
%TO.P,J4,3*%
X12270000Y50799997D03*
%TO.P,J4,4*%
X12270000Y48799998D03*
%TO.P,J4,5*%
X12270000Y46799997D03*
%TO.P,J4,6*%
X12270000Y44799999D03*
%TO.P,J4,7*%
X12270000Y42799998D03*
%TO.P,J4,8*%
X12270000Y40799997D03*
%TO.P,J4,MCH1,Mechanical_MCH1*%
X7875952Y57150000D03*
%TO.P,J4,MCH2,Mechanical_MCH2*%
X7875952Y38449996D03*
%TD*%
D10*
%TO.C,R17*%
%TO.CFtp,R_0603*%
%TO.CVal,10K*%
%TO.CLbN,passives_smd*%
%TO.CMnt,SMD*%
%TO.CRot,-90*%
X40767000Y11531600D03*
D11*
X41477000Y12991600D02*
X41477000Y10071600D01*
X40057000Y10071600D01*
X40057000Y12991600D01*
X41477000Y12991600D01*
D12*
%TO.P,R17,1*%
X40767000Y12331600D03*
D13*
%TO.P,R17,2*%
X40767000Y10731600D03*
%TD*%
D10*
%TO.C,U2*%
%TO.CFtp,TSSOP-20 [6.4x4.4x1.2\u002CP=0.65]mm*%
%TO.CVal,STM32C011F6P6*%
%TO.CLbN,packages_smd*%
%TO.CMnt,SMD*%
%TO.CRot,0*%
X34544000Y24993001D03*
D11*
X37282200Y28798001D02*
X37282200Y28598801D01*
X38907800Y28598801D01*
X38907800Y21387201D01*
X37282200Y21387201D01*
X37282200Y21188001D01*
X31805800Y21188001D01*
X31805800Y21387201D01*
X30180200Y21387201D01*
X30180200Y28598801D01*
X31805800Y28598801D01*
X31805800Y28798001D01*
X37282200Y28798001D01*
D12*
%TO.P,U2,1,PB7_1*%
X31572200Y27918001D03*
D13*
%TO.P,U2,2,PC14-OSCX_IN_2*%
X31572200Y27268000D03*
%TO.P,U2,3,PC15-OSCX_OUT_3*%
X31572200Y26618002D03*
%TO.P,U2,4,VDD/VDDA_4*%
X31572200Y25968000D03*
%TO.P,U2,5,VSS/VSSA_5*%
X31572200Y25318002D03*
%TO.P,U2,6,PF2-NRST_6*%
X31572200Y24668003D03*
%TO.P,U2,7,PA0_7*%
X31572200Y24018002D03*
%TO.P,U2,8,PA1_8*%
X31572200Y23368003D03*
%TO.P,U2,9,PA2_9*%
X31572200Y22718002D03*
%TO.P,U2,10,PA3_10*%
X31572200Y22068003D03*
%TO.P,U2,11,PA4_11*%
X37515800Y22068001D03*
%TO.P,U2,12,PA5_12*%
X37515800Y22717999D03*
%TO.P,U2,13,PA6_13*%
X37515800Y23368000D03*
%TO.P,U2,14,PA7_14*%
X37515800Y24017999D03*
%TO.P,U2,15,PA8_15*%
X37515800Y24668000D03*
%TO.P,U2,16,PA11[PA9]_16*%
X37515800Y25317999D03*
%TO.P,U2,17,PA12[PA10]_17*%
X37515800Y25968000D03*
%TO.P,U2,18,PA13_18*%
X37515800Y26617999D03*
%TO.P,U2,19,PA14-BOOT0_19*%
X37515800Y27268000D03*
%TO.P,U2,20,PB6_20*%
X37515800Y27917999D03*
%TD*%
D10*
%TO.C,J6*%
%TO.CFtp,SM08B-PASS-TBT*%
%TO.CVal,SM08B-PASS-TBT*%
%TO.CLbN,connectors_headers*%
%TO.CMnt,SMD*%
%TO.CRot,-90*%
X12270000Y28129997D03*
D11*
X13965000Y31681499D02*
X13965000Y10578497D01*
X2675000Y10578497D01*
X2675000Y31681499D01*
X13965000Y31681499D01*
D12*
%TO.P,J6,1*%
X12270000Y28129997D03*
D13*
%TO.P,J6,*%
X11070104Y30329998D03*
X11070000Y11929998D03*
%TO.P,J6,2*%
X12270000Y26129998D03*
%TO.P,J6,3*%
X12270000Y24129997D03*
%TO.P,J6,4*%
X12270000Y22129998D03*
%TO.P,J6,5*%
X12270000Y20129997D03*
%TO.P,J6,6*%
X12270000Y18129999D03*
%TO.P,J6,7*%
X12270000Y16129998D03*
%TO.P,J6,8*%
X12270000Y14129997D03*
%TO.P,J6,MCH1,Mechanical_MCH1*%
X7875952Y30480000D03*
%TO.P,J6,MCH2,Mechanical_MCH2*%
X7875952Y11779996D03*
%TD*%
D10*
%TO.C,R22*%
%TO.CFtp,R_0603*%
%TO.CVal,4K7*%
%TO.CLbN,passives_smd*%
%TO.CMnt,SMD*%
%TO.CRot,0*%
X52222400Y8229600D03*
D11*
X53682400Y8939600D02*
X53682400Y7519600D01*
X50762400Y7519600D01*
X50762400Y8939600D01*
X53682400Y8939600D01*
D12*
%TO.P,R22,1*%
X51422400Y8229600D03*
D13*
%TO.P,R22,2*%
X53022400Y8229600D03*
%TD*%
D10*
%TO.C,J8*%
%TO.CFtp,77311-118-02LF*%
%TO.CVal,HEADER_MALE_THT_0.1"_2x1*%
%TO.CLbN,connectors_headers*%
%TO.CMnt,TH*%
%TO.CRot,180*%
X36068000Y6096000D03*
D11*
X38853000Y7541000D02*
X38853000Y4651000D01*
X33283000Y4651000D01*
X33283000Y7541000D01*
X38853000Y7541000D01*
D12*
%TO.P,J8,1,1_1*%
X37338000Y6096000D03*
D13*
%TO.P,J8,2,2_2*%
X34798000Y6096000D03*
%TD*%
D10*
%TO.C,F1*%
%TO.CFtp,0ZCF0100AF2A*%
%TO.CVal,60V 1A*%
%TO.CLbN,fuses_holders*%
%TO.CMnt,SMD*%
%TO.CRot,0*%
X61722000Y57912000D03*
D11*
X66817000Y60957000D02*
X66817000Y54867000D01*
X56627000Y54867000D01*
X56627000Y60957000D01*
X66817000Y60957000D01*
D12*
%TO.P,F1,1*%
X58022000Y57912000D03*
D13*
%TO.P,F1,2*%
X65422000Y57912000D03*
%TD*%
D10*
%TO.C,TP15*%
%TO.CFtp,TP_SMD_0.8mm*%
%TO.CVal,~*%
%TO.CLbN,testpoints*%
%TO.CMnt,SMD*%
%TO.CRot,180*%
X49479200Y34391600D03*
D11*
X49545192Y34808253D02*
X49670713Y34767468D01*
X49777490Y34689891D01*
X49855067Y34583114D01*
X49895884Y34457497D01*
X49898460Y34391600D01*
X49895884Y34325704D01*
X49855067Y34200087D01*
X49777490Y34093310D01*
X49670713Y34015733D01*
X49545192Y33974947D01*
X49413208Y33974947D01*
X49287686Y34015733D01*
X49180909Y34093310D01*
X49103332Y34200087D01*
X49062547Y34325608D01*
X49062547Y34457593D01*
X49103332Y34583114D01*
X49180909Y34689891D01*
X49287686Y34767468D01*
X49413208Y34808253D01*
X49545192Y34808253D01*
D12*
%TO.P,TP15,1*%
X49479200Y34391600D03*
%TD*%
D10*
%TO.C,C13*%
%TO.CFtp,C_0603*%
%TO.CVal,100nF*%
%TO.CLbN,passives_smd*%
%TO.CMnt,SMD*%
%TO.CRot,90*%
X27940000Y21590000D03*
D11*
X28560000Y22960000D02*
X28560000Y20220000D01*
X27370000Y20220000D01*
X27370000Y22960000D01*
X28560000Y22960000D01*
D12*
%TO.P,C13,1*%
X27940000Y20790000D03*
D13*
%TO.P,C13,2*%
X27940000Y22390000D03*
%TD*%
D10*
%TO.C,M3*%
%TO.CFtp,mounting_hole_M3_NPTH*%
%TO.CVal,~*%
%TO.CLbN,mechanical*%
%TO.CMnt,SMD*%
%TO.CRot,0*%
X74920000Y64920000D03*
D11*
X75085886Y67662491D02*
X75415251Y67622500D01*
X75737394Y67543099D01*
X76047611Y67425449D01*
X76341387Y67271263D01*
X76614433Y67082794D01*
X76862778Y66862779D01*
X77082793Y66614434D01*
X77271262Y66341388D01*
X77425448Y66047612D01*
X77543098Y65737395D01*
X77622499Y65415252D01*
X77662496Y65085845D01*
X77664999Y64920000D01*
X77662496Y64754156D01*
X77622499Y64424749D01*
X77543098Y64102606D01*
X77425448Y63792389D01*
X77271262Y63498613D01*
X77082793Y63225567D01*
X76862778Y62977222D01*
X76614433Y62757207D01*
X76341387Y62568738D01*
X76047611Y62414552D01*
X75737394Y62296902D01*
X75415251Y62217501D01*
X75085886Y62177509D01*
X74754114Y62177509D01*
X74424748Y62217501D01*
X74102605Y62296902D01*
X73792388Y62414552D01*
X73498612Y62568738D01*
X73225566Y62757207D01*
X72977221Y62977222D01*
X72757206Y63225567D01*
X72568737Y63498613D01*
X72414551Y63792389D01*
X72296901Y64102606D01*
X72217500Y64424749D01*
X72177509Y64754114D01*
X72177509Y65085887D01*
X72217500Y65415252D01*
X72296901Y65737395D01*
X72414551Y66047612D01*
X72568737Y66341388D01*
X72757206Y66614434D01*
X72977221Y66862779D01*
X73225566Y67082794D01*
X73498612Y67271263D01*
X73792388Y67425449D01*
X74102605Y67543099D01*
X74424748Y67622500D01*
X74754114Y67662491D01*
X75085886Y67662491D01*
D13*
%TO.P,M3,*%
X74920000Y64920000D03*
%TD*%
D10*
%TO.C,Q1*%
%TO.CFtp,SOT-223-4*%
%TO.CVal,BSP170PH6327XTSA1*%
%TO.CLbN,packages_smd*%
%TO.CMnt,SMD*%
%TO.CRot,-90*%
X51308000Y50621000D03*
D11*
X54903000Y54866000D02*
X54903000Y46376000D01*
X47713000Y46376000D01*
X47713000Y54866000D01*
X54903000Y54866000D01*
D12*
%TO.P,Q1,1,1_1*%
X53608000Y53871000D03*
D13*
%TO.P,Q1,2,D_2*%
X51308000Y53871000D03*
%TO.P,Q1,3,S_3*%
X49008000Y53871000D03*
%TO.P,Q1,4,D_4*%
X51308000Y47371000D03*
%TD*%
D10*
%TO.C,R16*%
%TO.CFtp,R_0603*%
%TO.CVal,10K*%
%TO.CLbN,passives_smd*%
%TO.CMnt,SMD*%
%TO.CRot,-90*%
X62357000Y29845000D03*
D11*
X63067000Y31305000D02*
X63067000Y28385000D01*
X61647000Y28385000D01*
X61647000Y31305000D01*
X63067000Y31305000D01*
D12*
%TO.P,R16,1*%
X62357000Y30645000D03*
D13*
%TO.P,R16,2*%
X62357000Y29045000D03*
%TD*%
D10*
%TO.C,TP19*%
%TO.CFtp,TP_SMD_0.8mm*%
%TO.CVal,~*%
%TO.CLbN,testpoints*%
%TO.CMnt,SMD*%
%TO.CRot,90*%
X29210000Y31699200D03*
D11*
X29275992Y32115853D02*
X29401513Y32075068D01*
X29508290Y31997491D01*
X29585867Y31890714D01*
X29626684Y31765097D01*
X29629260Y31699200D01*
X29626684Y31633304D01*
X29585867Y31507687D01*
X29508290Y31400910D01*
X29401513Y31323333D01*
X29275992Y31282547D01*
X29144008Y31282547D01*
X29018486Y31323333D01*
X28911709Y31400910D01*
X28834132Y31507687D01*
X28793347Y31633208D01*
X28793347Y31765193D01*
X28834132Y31890714D01*
X28911709Y31997491D01*
X29018486Y32075068D01*
X29144008Y32115853D01*
X29275992Y32115853D01*
D12*
%TO.P,TP19,1*%
X29210000Y31699200D03*
%TD*%
D10*
%TO.C,M1*%
%TO.CFtp,mounting_hole_M3_NPTH*%
%TO.CVal,~*%
%TO.CLbN,mechanical*%
%TO.CMnt,SMD*%
%TO.CRot,0*%
X5080000Y5080000D03*
D11*
X5245886Y7822491D02*
X5575251Y7782500D01*
X5897394Y7703099D01*
X6207611Y7585449D01*
X6501387Y7431263D01*
X6774433Y7242794D01*
X7022778Y7022779D01*
X7242793Y6774434D01*
X7431262Y6501388D01*
X7585448Y6207612D01*
X7703098Y5897395D01*
X7782499Y5575252D01*
X7822496Y5245845D01*
X7824999Y5080000D01*
X7822496Y4914156D01*
X7782499Y4584749D01*
X7703098Y4262606D01*
X7585448Y3952389D01*
X7431262Y3658613D01*
X7242793Y3385567D01*
X7022778Y3137222D01*
X6774433Y2917207D01*
X6501387Y2728738D01*
X6207611Y2574552D01*
X5897394Y2456902D01*
X5575251Y2377501D01*
X5245886Y2337509D01*
X4914114Y2337509D01*
X4584748Y2377501D01*
X4262605Y2456902D01*
X3952388Y2574552D01*
X3658612Y2728738D01*
X3385566Y2917207D01*
X3137221Y3137222D01*
X2917206Y3385567D01*
X2728737Y3658613D01*
X2574551Y3952389D01*
X2456901Y4262606D01*
X2377500Y4584749D01*
X2337509Y4914114D01*
X2337509Y5245887D01*
X2377500Y5575252D01*
X2456901Y5897395D01*
X2574551Y6207612D01*
X2728737Y6501388D01*
X2917206Y6774434D01*
X3137221Y7022779D01*
X3385566Y7242794D01*
X3658612Y7431263D01*
X3952388Y7585449D01*
X4262605Y7703099D01*
X4584748Y7782500D01*
X4914114Y7822491D01*
X5245886Y7822491D01*
D13*
%TO.P,M1,*%
X5080000Y5080000D03*
%TD*%
D10*
%TO.C,LED1*%
%TO.CFtp,LED_0603*%
%TO.CVal,LTST-C190GKT*%
%TO.CLbN,leds_smd*%
%TO.CMnt,SMD*%
%TO.CRot,180*%
X48641000Y64135000D03*
D11*
X49936000Y64730000D02*
X49936000Y63540000D01*
X47346000Y63540000D01*
X47346000Y64730000D01*
X49936000Y64730000D01*
D13*
%TO.P,LED1,A*%
X47891000Y64135000D03*
%TO.P,LED1,K*%
X49391000Y64135000D03*
%TD*%
D10*
%TO.C,R14*%
%TO.CFtp,R_0603*%
%TO.CVal,10K*%
%TO.CLbN,passives_smd*%
%TO.CMnt,SMD*%
%TO.CRot,-90*%
X47650400Y17576800D03*
D11*
X48360400Y19036800D02*
X48360400Y16116800D01*
X46940400Y16116800D01*
X46940400Y19036800D01*
X48360400Y19036800D01*
D12*
%TO.P,R14,1*%
X47650400Y18376800D03*
D13*
%TO.P,R14,2*%
X47650400Y16776800D03*
%TD*%
D10*
%TO.C,LED2*%
%TO.CFtp,LED_0603*%
%TO.CVal,LTST-C190GKT*%
%TO.CLbN,leds_smd*%
%TO.CMnt,SMD*%
%TO.CRot,0*%
X24003000Y64135000D03*
D11*
X25298000Y64730000D02*
X25298000Y63540000D01*
X22708000Y63540000D01*
X22708000Y64730000D01*
X25298000Y64730000D01*
D13*
%TO.P,LED2,A*%
X24753000Y64135000D03*
%TO.P,LED2,K*%
X23253000Y64135000D03*
%TD*%
D10*
%TO.C,M4*%
%TO.CFtp,mounting_hole_M3_NPTH*%
%TO.CVal,~*%
%TO.CLbN,mechanical*%
%TO.CMnt,SMD*%
%TO.CRot,0*%
X74920000Y5080000D03*
D11*
X75085886Y7822491D02*
X75415251Y7782500D01*
X75737394Y7703099D01*
X76047611Y7585449D01*
X76341387Y7431263D01*
X76614433Y7242794D01*
X76862778Y7022779D01*
X77082793Y6774434D01*
X77271262Y6501388D01*
X77425448Y6207612D01*
X77543098Y5897395D01*
X77622499Y5575252D01*
X77662496Y5245845D01*
X77664999Y5080000D01*
X77662496Y4914156D01*
X77622499Y4584749D01*
X77543098Y4262606D01*
X77425448Y3952389D01*
X77271262Y3658613D01*
X77082793Y3385567D01*
X76862778Y3137222D01*
X76614433Y2917207D01*
X76341387Y2728738D01*
X76047611Y2574552D01*
X75737394Y2456902D01*
X75415251Y2377501D01*
X75085886Y2337509D01*
X74754114Y2337509D01*
X74424748Y2377501D01*
X74102605Y2456902D01*
X73792388Y2574552D01*
X73498612Y2728738D01*
X73225566Y2917207D01*
X72977221Y3137222D01*
X72757206Y3385567D01*
X72568737Y3658613D01*
X72414551Y3952389D01*
X72296901Y4262606D01*
X72217500Y4584749D01*
X72177509Y4914114D01*
X72177509Y5245887D01*
X72217500Y5575252D01*
X72296901Y5897395D01*
X72414551Y6207612D01*
X72568737Y6501388D01*
X72757206Y6774434D01*
X72977221Y7022779D01*
X73225566Y7242794D01*
X73498612Y7431263D01*
X73792388Y7585449D01*
X74102605Y7703099D01*
X74424748Y7782500D01*
X74754114Y7822491D01*
X75085886Y7822491D01*
D13*
%TO.P,M4,*%
X74920000Y5080000D03*
%TD*%
D10*
%TO.C,TVS5*%
%TO.CFtp,SOT-23-6 [2.8x2.93x1.1\u002CP=0.95]mm*%
%TO.CVal,USBLC6-2SC6*%
%TO.CLbN,packages_smd*%
%TO.CMnt,SMD*%
%TO.CRot,0*%
X35382200Y10668000D03*
D11*
X36482100Y12466400D02*
X36482100Y12120960D01*
X37377200Y12120960D01*
X37377200Y9215040D01*
X36482100Y9215040D01*
X36482100Y8869600D01*
X34282300Y8869600D01*
X34282300Y9215040D01*
X33387200Y9215040D01*
X33387200Y12120960D01*
X34282300Y12120960D01*
X34282300Y12466400D01*
X36482100Y12466400D01*
D12*
%TO.P,TVS5,1,I/O1_1*%
X34232200Y11618000D03*
D13*
%TO.P,TVS5,2,GND_2*%
X34232200Y10668000D03*
%TO.P,TVS5,3,I/O2_3*%
X34232200Y9718000D03*
%TO.P,TVS5,4,I/O2_4*%
X36532200Y9718000D03*
%TO.P,TVS5,5,VBUS_5*%
X36532200Y10668000D03*
%TO.P,TVS5,6,I/O1_6*%
X36532200Y11618000D03*
%TD*%
D10*
%TO.C,R11*%
%TO.CFtp,R_0603*%
%TO.CVal,10K*%
%TO.CLbN,passives_smd*%
%TO.CMnt,SMD*%
%TO.CRot,-90*%
X49530000Y32054800D03*
D11*
X50240000Y33514800D02*
X50240000Y30594800D01*
X48820000Y30594800D01*
X48820000Y33514800D01*
X50240000Y33514800D01*
D12*
%TO.P,R11,1*%
X49530000Y32854800D03*
D13*
%TO.P,R11,2*%
X49530000Y31254800D03*
%TD*%
D10*
%TO.C,Q2*%
%TO.CFtp,SOT-23-3*%
%TO.CVal,BC817-16*%
%TO.CLbN,packages_smd*%
%TO.CMnt,SMD*%
%TO.CRot,90*%
X35941000Y34417000D03*
D11*
X37587300Y35936000D02*
X37587300Y32897720D01*
X34295000Y32897720D01*
X34295000Y35936000D01*
X37587300Y35936000D01*
D12*
%TO.P,Q2,1,B_1*%
X36957000Y33528000D03*
D13*
%TO.P,Q2,2,E_2*%
X36957000Y35306000D03*
%TO.P,Q2,3,C_3*%
X34925000Y34417000D03*
%TD*%
D10*
%TO.C,C12*%
%TO.CFtp,C_1210_TDK_CGA6_2.8mm_Tall*%
%TO.CVal,10uF*%
%TO.CLbN,passives_smd*%
%TO.CMnt,SMD*%
%TO.CRot,90*%
X16000000Y26209998D03*
D11*
X17485000Y28744998D02*
X17485000Y23664998D01*
X14515000Y23664998D01*
X14515000Y28744998D01*
X17485000Y28744998D01*
D12*
%TO.P,C12,1*%
X16000000Y24509998D03*
D13*
%TO.P,C12,2*%
X16000000Y27909998D03*
%TD*%
D10*
%TO.C,R10*%
%TO.CFtp,R_0603*%
%TO.CVal,10K*%
%TO.CLbN,passives_smd*%
%TO.CMnt,SMD*%
%TO.CRot,-90*%
X46075600Y32613600D03*
D11*
X46785600Y34073600D02*
X46785600Y31153600D01*
X45365600Y31153600D01*
X45365600Y34073600D01*
X46785600Y34073600D01*
D12*
%TO.P,R10,1*%
X46075600Y33413600D03*
D13*
%TO.P,R10,2*%
X46075600Y31813600D03*
%TD*%
D10*
%TO.C,TP2*%
%TO.CFtp,TP_SMD_2mm*%
%TO.CVal,~*%
%TO.CLbN,testpoints*%
%TO.CMnt,SMD*%
%TO.CRot,90*%
X62230000Y8255000D03*
D11*
X62450052Y9432158D02*
X62662602Y9371683D01*
X62860430Y9273176D01*
X63036784Y9139999D01*
X63185664Y8976686D01*
X63302002Y8788793D01*
X63381832Y8582728D01*
X63422451Y8365440D01*
X63424998Y8255000D01*
X63422451Y8144561D01*
X63381832Y7927273D01*
X63302002Y7721208D01*
X63185664Y7533315D01*
X63036784Y7370002D01*
X62860430Y7236825D01*
X62662602Y7138318D01*
X62450052Y7077843D01*
X62230000Y7057451D01*
X62009947Y7077843D01*
X61797397Y7138318D01*
X61599569Y7236825D01*
X61423215Y7370002D01*
X61274335Y7533315D01*
X61157997Y7721208D01*
X61078167Y7927273D01*
X61037559Y8144506D01*
X61037559Y8365495D01*
X61078167Y8582728D01*
X61157997Y8788793D01*
X61274335Y8976686D01*
X61423215Y9139999D01*
X61599569Y9273176D01*
X61797397Y9371683D01*
X62009947Y9432158D01*
X62230000Y9452549D01*
X62450052Y9432158D01*
D12*
%TO.P,TP2,1*%
X62230000Y8255000D03*
%TD*%
D10*
%TO.C,M2*%
%TO.CFtp,mounting_hole_M3_NPTH*%
%TO.CVal,~*%
%TO.CLbN,mechanical*%
%TO.CMnt,SMD*%
%TO.CRot,0*%
X5080000Y64920000D03*
D11*
X5245886Y67662491D02*
X5575251Y67622500D01*
X5897394Y67543099D01*
X6207611Y67425449D01*
X6501387Y67271263D01*
X6774433Y67082794D01*
X7022778Y66862779D01*
X7242793Y66614434D01*
X7431262Y66341388D01*
X7585448Y66047612D01*
X7703098Y65737395D01*
X7782499Y65415252D01*
X7822496Y65085845D01*
X7824999Y64920000D01*
X7822496Y64754156D01*
X7782499Y64424749D01*
X7703098Y64102606D01*
X7585448Y63792389D01*
X7431262Y63498613D01*
X7242793Y63225567D01*
X7022778Y62977222D01*
X6774433Y62757207D01*
X6501387Y62568738D01*
X6207611Y62414552D01*
X5897394Y62296902D01*
X5575251Y62217501D01*
X5245886Y62177509D01*
X4914114Y62177509D01*
X4584748Y62217501D01*
X4262605Y62296902D01*
X3952388Y62414552D01*
X3658612Y62568738D01*
X3385566Y62757207D01*
X3137221Y62977222D01*
X2917206Y63225567D01*
X2728737Y63498613D01*
X2574551Y63792389D01*
X2456901Y64102606D01*
X2377500Y64424749D01*
X2337509Y64754114D01*
X2337509Y65085887D01*
X2377500Y65415252D01*
X2456901Y65737395D01*
X2574551Y66047612D01*
X2728737Y66341388D01*
X2917206Y66614434D01*
X3137221Y66862779D01*
X3385566Y67082794D01*
X3658612Y67271263D01*
X3952388Y67425449D01*
X4262605Y67543099D01*
X4584748Y67622500D01*
X4914114Y67662491D01*
X5245886Y67662491D01*
D13*
%TO.P,M2,*%
X5080000Y64920000D03*
%TD*%
D10*
%TO.C,C9*%
%TO.CFtp,C_0603*%
%TO.CVal,10nF*%
%TO.CLbN,passives_smd*%
%TO.CMnt,SMD*%
%TO.CRot,-90*%
X62274000Y22039000D03*
D11*
X62844000Y23409000D02*
X62844000Y20669000D01*
X61654000Y20669000D01*
X61654000Y23409000D01*
X62844000Y23409000D01*
D12*
%TO.P,C9,1*%
X62274000Y22839000D03*
D13*
%TO.P,C9,2*%
X62274000Y21239000D03*
%TD*%
D10*
%TO.C,LED3*%
%TO.CFtp,LED_0603*%
%TO.CVal,LTST-C190KSKT*%
%TO.CLbN,leds_smd*%
%TO.CMnt,SMD*%
%TO.CRot,180*%
X39116000Y43688000D03*
D11*
X40411000Y44283000D02*
X40411000Y43093000D01*
X37821000Y43093000D01*
X37821000Y44283000D01*
X40411000Y44283000D01*
D13*
%TO.P,LED3,A*%
X38366000Y43688000D03*
%TO.P,LED3,K*%
X39866000Y43688000D03*
%TD*%
D10*
%TO.C,TP16*%
%TO.CFtp,TP_SMD_0.8mm*%
%TO.CVal,~*%
%TO.CLbN,testpoints*%
%TO.CMnt,SMD*%
%TO.CRot,180*%
X40767000Y13970000D03*
D11*
X40832992Y14386653D02*
X40958513Y14345868D01*
X41065290Y14268291D01*
X41142867Y14161514D01*
X41183684Y14035897D01*
X41186260Y13970000D01*
X41183684Y13904104D01*
X41142867Y13778487D01*
X41065290Y13671710D01*
X40958513Y13594133D01*
X40832992Y13553347D01*
X40701008Y13553347D01*
X40575486Y13594133D01*
X40468709Y13671710D01*
X40391132Y13778487D01*
X40350347Y13904008D01*
X40350347Y14035993D01*
X40391132Y14161514D01*
X40468709Y14268291D01*
X40575486Y14345868D01*
X40701008Y14386653D01*
X40832992Y14386653D01*
D12*
%TO.P,TP16,1*%
X40767000Y13970000D03*
%TD*%
D10*
%TO.C,R12*%
%TO.CFtp,R_0603*%
%TO.CVal,10K*%
%TO.CLbN,passives_smd*%
%TO.CMnt,SMD*%
%TO.CRot,90*%
X49428400Y39827200D03*
D11*
X50138400Y41287200D02*
X50138400Y38367200D01*
X48718400Y38367200D01*
X48718400Y41287200D01*
X50138400Y41287200D01*
D12*
%TO.P,R12,1*%
X49428400Y39027200D03*
D13*
%TO.P,R12,2*%
X49428400Y40627200D03*
%TD*%
D10*
%TO.C,TP1*%
%TO.CFtp,TP_SMD_2mm*%
%TO.CVal,~*%
%TO.CLbN,testpoints*%
%TO.CMnt,SMD*%
%TO.CRot,90*%
X42164000Y60071000D03*
D11*
X42384052Y61248158D02*
X42596602Y61187683D01*
X42794430Y61089176D01*
X42970784Y60955999D01*
X43119664Y60792686D01*
X43236002Y60604793D01*
X43315832Y60398728D01*
X43356451Y60181440D01*
X43358998Y60071000D01*
X43356451Y59960561D01*
X43315832Y59743273D01*
X43236002Y59537208D01*
X43119664Y59349315D01*
X42970784Y59186002D01*
X42794430Y59052825D01*
X42596602Y58954318D01*
X42384052Y58893843D01*
X42164000Y58873451D01*
X41943947Y58893843D01*
X41731397Y58954318D01*
X41533569Y59052825D01*
X41357215Y59186002D01*
X41208335Y59349315D01*
X41091997Y59537208D01*
X41012167Y59743273D01*
X40971559Y59960506D01*
X40971559Y60181495D01*
X41012167Y60398728D01*
X41091997Y60604793D01*
X41208335Y60792686D01*
X41357215Y60955999D01*
X41533569Y61089176D01*
X41731397Y61187683D01*
X41943947Y61248158D01*
X42164000Y61268549D01*
X42384052Y61248158D01*
D12*
%TO.P,TP1,1*%
X42164000Y60071000D03*
%TD*%
D10*
%TO.C,K1*%
%TO.CFtp,EE23NUH*%
%TO.CVal,EE2-3NUH*%
%TO.CLbN,relays*%
%TO.CMnt,SMD*%
%TO.CRot,180*%
X24030000Y38705000D03*
D11*
X32525000Y44600000D02*
X32525000Y33566000D01*
X15535000Y33566000D01*
X15535000Y44600000D01*
X32525000Y44600000D01*
D12*
%TO.P,K1,1,COIL+_1*%
X30480000Y41850000D03*
D13*
%TO.P,K1,3,NC_1_3*%
X25400000Y41850000D03*
%TO.P,K1,4,COM_1_4*%
X22860000Y41850000D03*
%TO.P,K1,5,NO_1_5*%
X20320000Y41850000D03*
%TO.P,K1,8,NO_2_8*%
X20320000Y35560000D03*
%TO.P,K1,9,COM_2_9*%
X22860000Y35560000D03*
%TO.P,K1,10,NC_2_10*%
X25400000Y35560000D03*
%TO.P,K1,12,COIL-_12*%
X30480000Y35560000D03*
%TD*%
D10*
%TO.C,R5*%
%TO.CFtp,R_0603*%
%TO.CVal,69.8K*%
%TO.CLbN,passives_smd*%
%TO.CMnt,SMD*%
%TO.CRot,90*%
X28219400Y52578000D03*
D11*
X28929400Y54038000D02*
X28929400Y51118000D01*
X27509400Y51118000D01*
X27509400Y54038000D01*
X28929400Y54038000D01*
D12*
%TO.P,R5,1*%
X28219400Y51778000D03*
D13*
%TO.P,R5,2*%
X28219400Y53378000D03*
%TD*%
D10*
%TO.C,C5*%
%TO.CFtp,C_0603*%
%TO.CVal,10uF*%
%TO.CLbN,passives_smd*%
%TO.CMnt,SMD*%
%TO.CRot,90*%
X26009600Y52578000D03*
D11*
X26629600Y53948000D02*
X26629600Y51208000D01*
X25439600Y51208000D01*
X25439600Y53948000D01*
X26629600Y53948000D01*
D12*
%TO.P,C5,1*%
X26009600Y51778000D03*
D13*
%TO.P,C5,2*%
X26009600Y53378000D03*
%TD*%
D10*
%TO.C,TP3*%
%TO.CFtp,TP_SMD_2mm*%
%TO.CVal,~*%
%TO.CLbN,testpoints*%
%TO.CMnt,SMD*%
%TO.CRot,90*%
X23622000Y59690000D03*
D11*
X23842052Y60867158D02*
X24054602Y60806683D01*
X24252430Y60708176D01*
X24428784Y60574999D01*
X24577664Y60411686D01*
X24694002Y60223793D01*
X24773832Y60017728D01*
X24814451Y59800440D01*
X24816998Y59690000D01*
X24814451Y59579561D01*
X24773832Y59362273D01*
X24694002Y59156208D01*
X24577664Y58968315D01*
X24428784Y58805002D01*
X24252430Y58671825D01*
X24054602Y58573318D01*
X23842052Y58512843D01*
X23622000Y58492451D01*
X23401947Y58512843D01*
X23189397Y58573318D01*
X22991569Y58671825D01*
X22815215Y58805002D01*
X22666335Y58968315D01*
X22549997Y59156208D01*
X22470167Y59362273D01*
X22429559Y59579506D01*
X22429559Y59800495D01*
X22470167Y60017728D01*
X22549997Y60223793D01*
X22666335Y60411686D01*
X22815215Y60574999D01*
X22991569Y60708176D01*
X23189397Y60806683D01*
X23401947Y60867158D01*
X23622000Y60887549D01*
X23842052Y60867158D01*
D12*
%TO.P,TP3,1*%
X23622000Y59690000D03*
%TD*%
D10*
%TO.C,R13*%
%TO.CFtp,R_0603*%
%TO.CVal,10K*%
%TO.CLbN,passives_smd*%
%TO.CMnt,SMD*%
%TO.CRot,90*%
X46228000Y39370000D03*
D11*
X46938000Y40830000D02*
X46938000Y37910000D01*
X45518000Y37910000D01*
X45518000Y40830000D01*
X46938000Y40830000D01*
D12*
%TO.P,R13,1*%
X46228000Y38570000D03*
D13*
%TO.P,R13,2*%
X46228000Y40170000D03*
%TD*%
D10*
%TO.C,C11*%
%TO.CFtp,C_0603*%
%TO.CVal,100nF*%
%TO.CLbN,passives_smd*%
%TO.CMnt,SMD*%
%TO.CRot,-90*%
X21666200Y12573000D03*
D11*
X22236200Y13943000D02*
X22236200Y11203000D01*
X21046200Y11203000D01*
X21046200Y13943000D01*
X22236200Y13943000D01*
D12*
%TO.P,C11,1*%
X21666200Y13373000D03*
D13*
%TO.P,C11,2*%
X21666200Y11773000D03*
%TD*%
D10*
%TO.C,C14*%
%TO.CFtp,C_0603*%
%TO.CVal,100nF*%
%TO.CLbN,passives_smd*%
%TO.CMnt,SMD*%
%TO.CRot,90*%
X26035000Y25438000D03*
D11*
X26655000Y26808000D02*
X26655000Y24068000D01*
X25465000Y24068000D01*
X25465000Y26808000D01*
X26655000Y26808000D01*
D12*
%TO.P,C14,1*%
X26035000Y24638000D03*
D13*
%TO.P,C14,2*%
X26035000Y26238000D03*
%TD*%
D10*
%TO.C,R3*%
%TO.CFtp,R_1206*%
%TO.CVal,2.2K*%
%TO.CLbN,passives_smd*%
%TO.CMnt,SMD*%
%TO.CRot,-90*%
X45847000Y61849000D03*
D11*
X46782000Y64079200D02*
X46782000Y59618800D01*
X44912200Y59618800D01*
X44912000Y64079200D01*
X46782000Y64079200D01*
D12*
%TO.P,R3,1*%
X45847000Y63449000D03*
D13*
%TO.P,R3,2*%
X45847000Y60249000D03*
%TD*%
D10*
%TO.C,PB1*%
%TO.CFtp,7914J-1-000*%
%TO.CVal,~*%
%TO.CLbN,switches_smd*%
%TO.CMnt,SMD*%
%TO.CRot,-90*%
X39141400Y17932400D03*
D11*
X42181400Y20677400D02*
X42181400Y15187400D01*
X36101400Y15187400D01*
X36101400Y20677400D01*
X42181400Y20677400D01*
D12*
%TO.P,PB1,1,1_1*%
X41046400Y19202400D03*
D13*
%TO.P,PB1,2,2_2*%
X37236400Y19202400D03*
%TO.P,PB1,3,3_3*%
X37236400Y16662400D03*
%TO.P,PB1,4,4_4*%
X41046400Y16662400D03*
%TD*%
D10*
%TO.C,S2*%
%TO.CFtp,1-1825013-0*%
%TO.CVal,1-1825013-0*%
%TO.CLbN,switches_smd*%
%TO.CMnt,SMD*%
%TO.CRot,-90*%
X55118000Y35929000D03*
D14*
X58408000Y41224000D02*
X51828000Y41224000D01*
X51828000Y30634000D01*
X58408000Y30634000D01*
X58408000Y41224000D01*
D12*
%TO.P,S2,1*%
X57658000Y39854000D03*
D13*
%TO.P,S2,2*%
X52578000Y39854000D03*
%TO.P,S2,4*%
X52578000Y32004000D03*
%TO.P,S2,8*%
X57658000Y32004000D03*
%TO.P,S2,C1*%
X55118000Y39854000D03*
%TO.P,S2,C2*%
X55118000Y32004000D03*
%TD*%
D10*
%TO.C,R19*%
%TO.CFtp,R_0603*%
%TO.CVal,120R*%
%TO.CLbN,passives_smd*%
%TO.CMnt,SMD*%
%TO.CRot,0*%
X39116000Y37719000D03*
D11*
X40576000Y38429000D02*
X40576000Y37009000D01*
X37656000Y37009000D01*
X37656000Y38429000D01*
X40576000Y38429000D01*
D12*
%TO.P,R19,1*%
X38316000Y37719000D03*
D13*
%TO.P,R19,2*%
X39916000Y37719000D03*
%TD*%
D10*
%TO.C,TVS6*%
%TO.CFtp,2-DFN_(1.6x1)*%
%TO.CVal,3V3*%
%TO.CLbN,diodes_smd*%
%TO.CMnt,SMD*%
%TO.CRot,180*%
X28702000Y17272000D03*
D11*
X30729000Y18308400D02*
X30729000Y16261000D01*
X27183000Y16261000D01*
X27183000Y18308400D01*
X30729000Y18308400D01*
D13*
%TO.P,TVS6,A*%
X28142000Y17272000D03*
%TO.P,TVS6,C*%
X29262000Y17272000D03*
%TD*%
D10*
%TO.C,J7*%
%TO.CFtp,61300411121*%
%TO.CVal,HEADER_MALE_THT_0.1"_4x1*%
%TO.CLbN,connectors_headers*%
%TO.CMnt,TH*%
%TO.CRot,90*%
X56896000Y19939000D03*
D11*
X58511000Y29224000D02*
X58511000Y18274000D01*
X55281000Y18274000D01*
X55281000Y29224000D01*
X58511000Y29224000D01*
D12*
%TO.P,J7,1,1_1*%
X56896000Y19939000D03*
D13*
%TO.P,J7,2,2_2*%
X56896000Y22479000D03*
%TO.P,J7,3,3_3*%
X56896000Y25019000D03*
%TO.P,J7,4,4_4*%
X56896000Y27559000D03*
%TD*%
D10*
%TO.C,J2*%
%TO.CFtp,SM02B-PASS-TBT*%
%TO.CVal,SM02B-PASS-TBT*%
%TO.CLbN,connectors_headers*%
%TO.CMnt,SMD*%
%TO.CRot,90*%
X72500000Y22048000D03*
D14*
X66550000Y17698000D02*
X74450000Y17698000D01*
X74450000Y26398000D01*
X66550000Y26398000D01*
X66550000Y17698000D01*
D12*
%TO.P,J2,1*%
X67900000Y21048000D03*
D13*
%TO.P,J2,*%
X69100000Y18498000D03*
X69100000Y25298000D03*
%TO.P,J2,2*%
X67900000Y23048000D03*
%TO.P,J2,MCH1,Mechanical_MCH1*%
X72500000Y18648000D03*
%TO.P,J2,MCH2,Mechanical_MCH2*%
X72500000Y25448000D03*
%TD*%
D10*
%TO.C,LED4*%
%TO.CFtp,LED_0603*%
%TO.CVal,LTST-C190KSKT*%
%TO.CLbN,leds_smd*%
%TO.CMnt,SMD*%
%TO.CRot,180*%
X39116000Y41021000D03*
D11*
X40411000Y41616000D02*
X40411000Y40426000D01*
X37821000Y40426000D01*
X37821000Y41616000D01*
X40411000Y41616000D01*
D13*
%TO.P,LED4,A*%
X38366000Y41021000D03*
%TO.P,LED4,K*%
X39866000Y41021000D03*
%TD*%
D10*
%TO.C,D1*%
%TO.CFtp,SOD-123F*%
%TO.CVal,NZH5V1B\u002C115*%
%TO.CLbN,diodes_smd*%
%TO.CMnt,SMD*%
%TO.CRot,0*%
X47117000Y57023000D03*
D11*
X49272000Y58018000D02*
X49272000Y56028000D01*
X44962000Y56028000D01*
X44962000Y58018000D01*
X49272000Y58018000D01*
D13*
%TO.P,D1,A*%
X48717000Y57023000D03*
%TO.P,D1,C*%
X45517000Y57023000D03*
%TD*%
D10*
%TO.C,TP13*%
%TO.CFtp,TP_SMD_0.8mm*%
%TO.CVal,~*%
%TO.CLbN,testpoints*%
%TO.CMnt,SMD*%
%TO.CRot,180*%
X49428400Y37134800D03*
D11*
X49494392Y37551453D02*
X49619913Y37510668D01*
X49726690Y37433091D01*
X49804267Y37326314D01*
X49845084Y37200697D01*
X49847660Y37134800D01*
X49845084Y37068904D01*
X49804267Y36943287D01*
X49726690Y36836510D01*
X49619913Y36758933D01*
X49494392Y36718147D01*
X49362408Y36718147D01*
X49236886Y36758933D01*
X49130109Y36836510D01*
X49052532Y36943287D01*
X49011747Y37068808D01*
X49011747Y37200793D01*
X49052532Y37326314D01*
X49130109Y37433091D01*
X49236886Y37510668D01*
X49362408Y37551453D01*
X49494392Y37551453D01*
D12*
%TO.P,TP13,1*%
X49428400Y37134800D03*
%TD*%
D10*
%TO.C,C6*%
%TO.CFtp,C_0603*%
%TO.CVal,100nF*%
%TO.CLbN,passives_smd*%
%TO.CMnt,SMD*%
%TO.CRot,-90*%
X48768000Y60579000D03*
D11*
X49338000Y61949000D02*
X49338000Y59209000D01*
X48148000Y59209000D01*
X48148000Y61949000D01*
X49338000Y61949000D01*
D12*
%TO.P,C6,1*%
X48768000Y61379000D03*
D13*
%TO.P,C6,2*%
X48768000Y59779000D03*
%TD*%
D10*
%TO.C,R4*%
%TO.CFtp,R_0603*%
%TO.CVal,2.87M*%
%TO.CLbN,passives_smd*%
%TO.CMnt,SMD*%
%TO.CRot,0*%
X37846000Y50165000D03*
D11*
X39306000Y50875000D02*
X39306000Y49455000D01*
X36386000Y49455000D01*
X36386000Y50875000D01*
X39306000Y50875000D01*
D12*
%TO.P,R4,1*%
X37046000Y50165000D03*
D13*
%TO.P,R4,2*%
X38646000Y50165000D03*
%TD*%
D10*
%TO.C,R1*%
%TO.CFtp,R_0603*%
%TO.CVal,0R*%
%TO.CLbN,passives_smd*%
%TO.CMnt,SMD*%
%TO.CRot,180*%
X43942000Y50292000D03*
D11*
X45402000Y51002000D02*
X45402000Y49582000D01*
X42482000Y49582000D01*
X42482000Y51002000D01*
X45402000Y51002000D01*
D12*
%TO.P,R1,1*%
X44742000Y50292000D03*
D13*
%TO.P,R1,2*%
X43142000Y50292000D03*
%TD*%
D10*
%TO.C,R21*%
%TO.CFtp,R_0603*%
%TO.CVal,1K*%
%TO.CLbN,passives_smd*%
%TO.CMnt,SMD*%
%TO.CRot,0*%
X32613600Y31699200D03*
D11*
X34073600Y32409200D02*
X34073600Y30989200D01*
X31153600Y30989200D01*
X31153600Y32409200D01*
X34073600Y32409200D01*
D12*
%TO.P,R21,1*%
X31813600Y31699200D03*
D13*
%TO.P,R21,2*%
X33413600Y31699200D03*
%TD*%
D10*
%TO.C,TP4*%
%TO.CFtp,TP_SMD_2mm*%
%TO.CVal,~*%
%TO.CLbN,testpoints*%
%TO.CMnt,SMD*%
%TO.CRot,90*%
X62230000Y12700000D03*
D11*
X62450052Y13877158D02*
X62662602Y13816683D01*
X62860430Y13718176D01*
X63036784Y13584999D01*
X63185664Y13421686D01*
X63302002Y13233793D01*
X63381832Y13027728D01*
X63422451Y12810440D01*
X63424998Y12700000D01*
X63422451Y12589561D01*
X63381832Y12372273D01*
X63302002Y12166208D01*
X63185664Y11978315D01*
X63036784Y11815002D01*
X62860430Y11681825D01*
X62662602Y11583318D01*
X62450052Y11522843D01*
X62230000Y11502451D01*
X62009947Y11522843D01*
X61797397Y11583318D01*
X61599569Y11681825D01*
X61423215Y11815002D01*
X61274335Y11978315D01*
X61157997Y12166208D01*
X61078167Y12372273D01*
X61037559Y12589506D01*
X61037559Y12810495D01*
X61078167Y13027728D01*
X61157997Y13233793D01*
X61274335Y13421686D01*
X61423215Y13584999D01*
X61599569Y13718176D01*
X61797397Y13816683D01*
X62009947Y13877158D01*
X62230000Y13897549D01*
X62450052Y13877158D01*
D12*
%TO.P,TP4,1*%
X62230000Y12700000D03*
%TD*%
D10*
%TO.C,R6*%
%TO.CFtp,R_0603*%
%TO.CVal,120R*%
%TO.CLbN,passives_smd*%
%TO.CMnt,SMD*%
%TO.CRot,0*%
X27432000Y64135000D03*
D11*
X28892000Y64845000D02*
X28892000Y63425000D01*
X25972000Y63425000D01*
X25972000Y64845000D01*
X28892000Y64845000D01*
D12*
%TO.P,R6,1*%
X26632000Y64135000D03*
D13*
%TO.P,R6,2*%
X28232000Y64135000D03*
%TD*%
D10*
%TO.C,U1*%
%TO.CFtp,SOT-23-6*%
%TO.CVal,LMR54406DBVR*%
%TO.CLbN,packages_smd*%
%TO.CMnt,SMD*%
%TO.CRot,0*%
X35052000Y52959000D03*
D11*
X36151900Y54757400D02*
X36151900Y54411960D01*
X37347000Y54411960D01*
X37347000Y51506040D01*
X36151900Y51506040D01*
X36151900Y51160600D01*
X33952100Y51160600D01*
X33952100Y51506040D01*
X32757000Y51506040D01*
X32757000Y54411960D01*
X33952100Y54411960D01*
X33952100Y54757400D01*
X36151900Y54757400D01*
D12*
%TO.P,U1,1,CB_1*%
X33452000Y53909000D03*
D13*
%TO.P,U1,2,GND_2*%
X33452000Y52959000D03*
%TO.P,U1,3,FB_3*%
X33452000Y52009000D03*
%TO.P,U1,4,EN_4*%
X36652000Y52009000D03*
%TO.P,U1,5,VIN_5*%
X36652000Y52959000D03*
%TO.P,U1,6,SW_6*%
X36652000Y53909000D03*
%TD*%
D10*
%TO.C,TP9*%
%TO.CFtp,TP_SMD_0.8mm*%
%TO.CVal,~*%
%TO.CLbN,testpoints*%
%TO.CMnt,SMD*%
%TO.CRot,180*%
X44450000Y38557200D03*
D11*
X44515992Y38973853D02*
X44641513Y38933068D01*
X44748290Y38855491D01*
X44825867Y38748714D01*
X44866684Y38623097D01*
X44869260Y38557200D01*
X44866684Y38491304D01*
X44825867Y38365687D01*
X44748290Y38258910D01*
X44641513Y38181333D01*
X44515992Y38140547D01*
X44384008Y38140547D01*
X44258486Y38181333D01*
X44151709Y38258910D01*
X44074132Y38365687D01*
X44033347Y38491208D01*
X44033347Y38623193D01*
X44074132Y38748714D01*
X44151709Y38855491D01*
X44258486Y38933068D01*
X44384008Y38973853D01*
X44515992Y38973853D01*
D12*
%TO.P,TP9,1*%
X44450000Y38557200D03*
%TD*%
D10*
%TO.C,R8*%
%TO.CFtp,R_0603*%
%TO.CVal,200K*%
%TO.CLbN,passives_smd*%
%TO.CMnt,SMD*%
%TO.CRot,180*%
X39370000Y48133000D03*
D11*
X40830000Y48843000D02*
X40830000Y47423000D01*
X37910000Y47423000D01*
X37910000Y48843000D01*
X40830000Y48843000D01*
D12*
%TO.P,R8,1*%
X40170000Y48133000D03*
D13*
%TO.P,R8,2*%
X38570000Y48133000D03*
%TD*%
D10*
%TO.C,C3*%
%TO.CFtp,C_0603*%
%TO.CVal,4.7uF*%
%TO.CLbN,passives_smd*%
%TO.CMnt,SMD*%
%TO.CRot,-90*%
X41783000Y53594000D03*
D11*
X42353000Y54964000D02*
X42353000Y52224000D01*
X41163000Y52224000D01*
X41163000Y54964000D01*
X42353000Y54964000D01*
D12*
%TO.P,C3,1*%
X41783000Y54394000D03*
D13*
%TO.P,C3,2*%
X41783000Y52794000D03*
%TD*%
D10*
%TO.C,TP17*%
%TO.CFtp,TP_SMD_0.8mm*%
%TO.CVal,~*%
%TO.CLbN,testpoints*%
%TO.CMnt,SMD*%
%TO.CRot,180*%
X44348400Y33426400D03*
D11*
X44414392Y33843053D02*
X44539913Y33802268D01*
X44646690Y33724691D01*
X44724267Y33617914D01*
X44765084Y33492297D01*
X44767660Y33426400D01*
X44765084Y33360504D01*
X44724267Y33234887D01*
X44646690Y33128110D01*
X44539913Y33050533D01*
X44414392Y33009747D01*
X44282408Y33009747D01*
X44156886Y33050533D01*
X44050109Y33128110D01*
X43972532Y33234887D01*
X43931747Y33360408D01*
X43931747Y33492393D01*
X43972532Y33617914D01*
X44050109Y33724691D01*
X44156886Y33802268D01*
X44282408Y33843053D01*
X44414392Y33843053D01*
D12*
%TO.P,TP17,1*%
X44348400Y33426400D03*
%TD*%
D10*
%TO.C,TP10*%
%TO.CFtp,TP_SMD_0.8mm*%
%TO.CVal,~*%
%TO.CLbN,testpoints*%
%TO.CMnt,SMD*%
%TO.CRot,180*%
X43535600Y20269200D03*
D11*
X43601592Y20685853D02*
X43727113Y20645068D01*
X43833890Y20567491D01*
X43911467Y20460714D01*
X43952284Y20335097D01*
X43954860Y20269200D01*
X43952284Y20203304D01*
X43911467Y20077687D01*
X43833890Y19970910D01*
X43727113Y19893333D01*
X43601592Y19852547D01*
X43469608Y19852547D01*
X43344086Y19893333D01*
X43237309Y19970910D01*
X43159732Y20077687D01*
X43118947Y20203208D01*
X43118947Y20335193D01*
X43159732Y20460714D01*
X43237309Y20567491D01*
X43344086Y20645068D01*
X43469608Y20685853D01*
X43601592Y20685853D01*
D12*
%TO.P,TP10,1*%
X43535600Y20269200D03*
%TD*%
D10*
%TO.C,R2*%
%TO.CFtp,R_0603*%
%TO.CVal,0R*%
%TO.CLbN,passives_smd*%
%TO.CMnt,SMD*%
%TO.CRot,180*%
X27432000Y59690000D03*
D11*
X28892000Y60400000D02*
X28892000Y58980000D01*
X25972000Y58980000D01*
X25972000Y60400000D01*
X28892000Y60400000D01*
D12*
%TO.P,R2,1*%
X28232000Y59690000D03*
D13*
%TO.P,R2,2*%
X26632000Y59690000D03*
%TD*%
D10*
%TO.C,C8*%
%TO.CFtp,C_0603*%
%TO.CVal,10nF*%
%TO.CLbN,passives_smd*%
%TO.CMnt,SMD*%
%TO.CRot,90*%
X45770800Y17526000D03*
D11*
X46390800Y18896000D02*
X46390800Y16156000D01*
X45200800Y16156000D01*
X45200800Y18896000D01*
X46390800Y18896000D01*
D12*
%TO.P,C8,1*%
X45770800Y16726000D03*
D13*
%TO.P,C8,2*%
X45770800Y18326000D03*
%TD*%
D10*
%TO.C,J3*%
%TO.CFtp,SM02B-PASS-TBT*%
%TO.CVal,SM02B-PASS-TBT*%
%TO.CLbN,connectors_headers*%
%TO.CMnt,SMD*%
%TO.CRot,90*%
X72500000Y34240000D03*
D14*
X66550000Y29890000D02*
X74450000Y29890000D01*
X74450000Y38590000D01*
X66550000Y38590000D01*
X66550000Y29890000D01*
D12*
%TO.P,J3,1*%
X67900000Y33240000D03*
D13*
%TO.P,J3,*%
X69100000Y30690000D03*
X69100000Y37490000D03*
%TO.P,J3,2*%
X67900000Y35240000D03*
%TO.P,J3,MCH1,Mechanical_MCH1*%
X72500000Y30840000D03*
%TO.P,J3,MCH2,Mechanical_MCH2*%
X72500000Y37640000D03*
%TD*%
D10*
%TO.C,TVS2*%
%TO.CFtp,2-DFN_(1.6x1)*%
%TO.CVal,3V3*%
%TO.CLbN,diodes_smd*%
%TO.CMnt,SMD*%
%TO.CRot,-90*%
X43586400Y17628400D03*
D11*
X44597400Y19655400D02*
X44597400Y16109400D01*
X42550000Y16109400D01*
X42550000Y19655400D01*
X44597400Y19655400D01*
D13*
%TO.P,TVS2,A*%
X43586400Y17068400D03*
%TO.P,TVS2,C*%
X43586400Y18188400D03*
%TD*%
D10*
%TO.C,TP18*%
%TO.CFtp,TP_SMD_0.8mm*%
%TO.CVal,~*%
%TO.CLbN,testpoints*%
%TO.CMnt,SMD*%
%TO.CRot,90*%
X36449000Y37719000D03*
D11*
X36514992Y38135653D02*
X36640513Y38094868D01*
X36747290Y38017291D01*
X36824867Y37910514D01*
X36865684Y37784897D01*
X36868260Y37719000D01*
X36865684Y37653104D01*
X36824867Y37527487D01*
X36747290Y37420710D01*
X36640513Y37343133D01*
X36514992Y37302347D01*
X36383008Y37302347D01*
X36257486Y37343133D01*
X36150709Y37420710D01*
X36073132Y37527487D01*
X36032347Y37653008D01*
X36032347Y37784993D01*
X36073132Y37910514D01*
X36150709Y38017291D01*
X36257486Y38094868D01*
X36383008Y38135653D01*
X36514992Y38135653D01*
D12*
%TO.P,TP18,1*%
X36449000Y37719000D03*
%TD*%
D10*
%TO.C,S1*%
%TO.CFtp,DS04-254-2-02BK-SMT-TR*%
%TO.CVal,DS04-254-2-02BK-SMT-TR*%
%TO.CLbN,switches_smd*%
%TO.CMnt,SMD*%
%TO.CRot,0*%
X45770800Y8890000D03*
D11*
X49805800Y14885000D02*
X49805800Y2895000D01*
X41735800Y2895000D01*
X41735800Y14885000D01*
X49805800Y14885000D01*
D12*
%TO.P,S1,1*%
X44500800Y4440000D03*
D13*
%TO.P,S1,2*%
X47040800Y4440000D03*
%TO.P,S1,3*%
X44500800Y13340000D03*
%TO.P,S1,4*%
X47040800Y13340000D03*
%TD*%
D10*
%TO.C,J1*%
%TO.CFtp,S2P-VH*%
%TO.CVal,S2P-VH*%
%TO.CLbN,connectors_headers*%
%TO.CMnt,TH*%
%TO.CRot,90*%
X63830200Y45847000D03*
D11*
X77541200Y52065000D02*
X77541200Y43566000D01*
X61295200Y43566000D01*
X61295200Y52065000D01*
X77541200Y52065000D01*
D12*
%TO.P,J1,1*%
X63830200Y45847000D03*
D13*
%TO.P,J1,2*%
X63830200Y49807001D03*
%TD*%
D10*
%TO.C,TVS8*%
%TO.CFtp,SOT-23-6 [2.8x2.93x1.1\u002CP=0.95]mm*%
%TO.CVal,USBLC6-2SC6*%
%TO.CLbN,packages_smd*%
%TO.CMnt,SMD*%
%TO.CRot,180*%
X52578000Y11430000D03*
D11*
X53677900Y13228400D02*
X53677900Y12882960D01*
X54573000Y12882960D01*
X54573000Y9977040D01*
X53677900Y9977040D01*
X53677900Y9631600D01*
X51478100Y9631600D01*
X51478100Y9977040D01*
X50583000Y9977040D01*
X50583000Y12882960D01*
X51478100Y12882960D01*
X51478100Y13228400D01*
X53677900Y13228400D01*
D12*
%TO.P,TVS8,1,I/O1_1*%
X53728000Y10480000D03*
D13*
%TO.P,TVS8,2,GND_2*%
X53728000Y11430000D03*
%TO.P,TVS8,3,I/O2_3*%
X53728000Y12380000D03*
%TO.P,TVS8,4,I/O2_4*%
X51428000Y12380000D03*
%TO.P,TVS8,5,VBUS_5*%
X51428000Y11430000D03*
%TO.P,TVS8,6,I/O1_6*%
X51428000Y10480000D03*
%TD*%
D10*
%TO.C,J5*%
%TO.CFtp,TC2030-IDC*%
%TO.CVal,TC-2030-IDC*%
%TO.CLbN,connectors_prog*%
%TO.CMnt,SMD*%
%TO.CRot,0*%
X27889200Y10795000D03*
D11*
X26792000Y14777800D02*
X26792000Y14092000D01*
X27081400Y14092000D01*
X27081400Y14777800D01*
X29967000Y14777800D01*
X29967000Y14092000D01*
X33091200Y14092000D01*
X33091200Y7498000D01*
X29967000Y7498000D01*
X29967000Y6812200D01*
X27081400Y6812200D01*
X27081400Y7498000D01*
X26792000Y7498000D01*
X26792000Y6812200D01*
X23906400Y6812200D01*
X23906400Y7498000D01*
X22687200Y7498000D01*
X22687200Y14092000D01*
X23906400Y14092000D01*
X23906400Y14777800D01*
X26792000Y14777800D01*
D12*
%TO.P,J5,1,VREF_1*%
X26619200Y10160000D03*
D13*
%TO.P,J5,*%
X25349200Y13335000D03*
X25349200Y10795000D03*
X25349200Y8255000D03*
X28524200Y13335000D03*
X28524200Y8255000D03*
X30429200Y11811000D03*
X30429200Y9779000D03*
%TO.P,J5,2,SWDIO_2*%
X26619200Y11430000D03*
%TO.P,J5,3,SWCLK_3*%
X27889200Y10160000D03*
%TO.P,J5,4,GND_4*%
X27889200Y11430000D03*
%TO.P,J5,5,SWDO_5*%
X29159200Y10160000D03*
%TO.P,J5,6,NRST_6*%
X29159200Y11430000D03*
%TD*%
D10*
%TO.C,TVS4*%
%TO.CFtp,2-DFN_(1.6x1)*%
%TO.CVal,3V3*%
%TO.CLbN,diodes_smd*%
%TO.CMnt,SMD*%
%TO.CRot,90*%
X64770000Y34036000D03*
D11*
X65806400Y35555000D02*
X65806400Y32009000D01*
X63759000Y32009000D01*
X63759000Y35555000D01*
X65806400Y35555000D01*
D13*
%TO.P,TVS4,A*%
X64770000Y34596000D03*
%TO.P,TVS4,C*%
X64770000Y33476000D03*
%TD*%
D10*
%TO.C,C2*%
%TO.CFtp,C_0603*%
%TO.CVal,1pF*%
%TO.CLbN,passives_smd*%
%TO.CMnt,SMD*%
%TO.CRot,90*%
X30124400Y52578000D03*
D11*
X30744400Y53948000D02*
X30744400Y51208000D01*
X29554400Y51208000D01*
X29554400Y53948000D01*
X30744400Y53948000D01*
D12*
%TO.P,C2,1*%
X30124400Y51778000D03*
D13*
%TO.P,C2,2*%
X30124400Y53378000D03*
%TD*%
D15*
X0Y70000000D02*
X80000000Y70000000D01*
X80000000Y0D01*
X0Y0D01*
X0Y70000000D01*
M02*
