%TF.GenerationSoftware,KiCad,Pcbnew,10.0.4*%
%TF.CreationDate,2026-08-27T19:17:39-03:00*%
%TF.ProjectId,pcb_0222,7063625f-3032-4323-922e-6b696361645f,20260827*%
%TF.SameCoordinates,Original*%
%TF.FileFunction,Soldermask,Bot*%
%TF.FilePolarity,Negative*%
%FSLAX46Y46*%
G04 Gerber Fmt 4.6, Leading zero omitted, Abs format (unit mm)*
G04 Created by KiCad (PCBNEW 10.0.4) date 2026-08-27 19:17:39*
%MOMM*%
%LPD*%
G01*
G04 APERTURE LIST*
%ADD10C,0.150000*%
%ADD11C,0.300000*%
%ADD12C,0.400000*%
G04 APERTURE END LIST*
D10*
X177002200Y-166007200D02*
X285002200Y-166007200D01*
X285002200Y-198007200D01*
X177002200Y-198007200D01*
X177002200Y-166007200D01*
X10000000Y-10000000D02*
X287002200Y-10000000D01*
X287002200Y-200007200D01*
X10000000Y-200007200D01*
X10000000Y-10000000D01*
X12000000Y-12000000D02*
X285002200Y-12000000D01*
X285002200Y-198007200D01*
X12000000Y-198007200D01*
X12000000Y-12000000D01*
X60000000Y-12000000D02*
X60000000Y-10000000D01*
X110000000Y-12000000D02*
X110000000Y-10000000D01*
X160000000Y-12000000D02*
X160000000Y-10000000D01*
X210000000Y-12000000D02*
X210000000Y-10000000D01*
X260000000Y-12000000D02*
X260000000Y-10000000D01*
X36089160Y-11593604D02*
X35346303Y-11593604D01*
X35717731Y-11593604D02*
X35717731Y-10293604D01*
X35717731Y-10293604D02*
X35593922Y-10479319D01*
X35593922Y-10479319D02*
X35470112Y-10603128D01*
X35470112Y-10603128D02*
X35346303Y-10665033D01*
X85346303Y-10417414D02*
X85408207Y-10355509D01*
X85408207Y-10355509D02*
X85532017Y-10293604D01*
X85532017Y-10293604D02*
X85841541Y-10293604D01*
X85841541Y-10293604D02*
X85965350Y-10355509D01*
X85965350Y-10355509D02*
X86027255Y-10417414D01*
X86027255Y-10417414D02*
X86089160Y-10541223D01*
X86089160Y-10541223D02*
X86089160Y-10665033D01*
X86089160Y-10665033D02*
X86027255Y-10850747D01*
X86027255Y-10850747D02*
X85284398Y-11593604D01*
X85284398Y-11593604D02*
X86089160Y-11593604D01*
X135284398Y-10293604D02*
X136089160Y-10293604D01*
X136089160Y-10293604D02*
X135655826Y-10788842D01*
X135655826Y-10788842D02*
X135841541Y-10788842D01*
X135841541Y-10788842D02*
X135965350Y-10850747D01*
X135965350Y-10850747D02*
X136027255Y-10912652D01*
X136027255Y-10912652D02*
X136089160Y-11036461D01*
X136089160Y-11036461D02*
X136089160Y-11345985D01*
X136089160Y-11345985D02*
X136027255Y-11469795D01*
X136027255Y-11469795D02*
X135965350Y-11531700D01*
X135965350Y-11531700D02*
X135841541Y-11593604D01*
X135841541Y-11593604D02*
X135470112Y-11593604D01*
X135470112Y-11593604D02*
X135346303Y-11531700D01*
X135346303Y-11531700D02*
X135284398Y-11469795D01*
X185965350Y-10726938D02*
X185965350Y-11593604D01*
X185655826Y-10231700D02*
X185346303Y-11160271D01*
X185346303Y-11160271D02*
X186151064Y-11160271D01*
X236027255Y-10293604D02*
X235408207Y-10293604D01*
X235408207Y-10293604D02*
X235346303Y-10912652D01*
X235346303Y-10912652D02*
X235408207Y-10850747D01*
X235408207Y-10850747D02*
X235532017Y-10788842D01*
X235532017Y-10788842D02*
X235841541Y-10788842D01*
X235841541Y-10788842D02*
X235965350Y-10850747D01*
X235965350Y-10850747D02*
X236027255Y-10912652D01*
X236027255Y-10912652D02*
X236089160Y-11036461D01*
X236089160Y-11036461D02*
X236089160Y-11345985D01*
X236089160Y-11345985D02*
X236027255Y-11469795D01*
X236027255Y-11469795D02*
X235965350Y-11531700D01*
X235965350Y-11531700D02*
X235841541Y-11593604D01*
X235841541Y-11593604D02*
X235532017Y-11593604D01*
X235532017Y-11593604D02*
X235408207Y-11531700D01*
X235408207Y-11531700D02*
X235346303Y-11469795D01*
X285965350Y-10293604D02*
X285717731Y-10293604D01*
X285717731Y-10293604D02*
X285593922Y-10355509D01*
X285593922Y-10355509D02*
X285532017Y-10417414D01*
X285532017Y-10417414D02*
X285408207Y-10603128D01*
X285408207Y-10603128D02*
X285346303Y-10850747D01*
X285346303Y-10850747D02*
X285346303Y-11345985D01*
X285346303Y-11345985D02*
X285408207Y-11469795D01*
X285408207Y-11469795D02*
X285470112Y-11531700D01*
X285470112Y-11531700D02*
X285593922Y-11593604D01*
X285593922Y-11593604D02*
X285841541Y-11593604D01*
X285841541Y-11593604D02*
X285965350Y-11531700D01*
X285965350Y-11531700D02*
X286027255Y-11469795D01*
X286027255Y-11469795D02*
X286089160Y-11345985D01*
X286089160Y-11345985D02*
X286089160Y-11036461D01*
X286089160Y-11036461D02*
X286027255Y-10912652D01*
X286027255Y-10912652D02*
X285965350Y-10850747D01*
X285965350Y-10850747D02*
X285841541Y-10788842D01*
X285841541Y-10788842D02*
X285593922Y-10788842D01*
X285593922Y-10788842D02*
X285470112Y-10850747D01*
X285470112Y-10850747D02*
X285408207Y-10912652D01*
X285408207Y-10912652D02*
X285346303Y-11036461D01*
X60000000Y-198007200D02*
X60000000Y-200007200D01*
X110000000Y-198007200D02*
X110000000Y-200007200D01*
X160000000Y-198007200D02*
X160000000Y-200007200D01*
X210000000Y-198007200D02*
X210000000Y-200007200D01*
X260000000Y-198007200D02*
X260000000Y-200007200D01*
X36089160Y-199600804D02*
X35346303Y-199600804D01*
X35717731Y-199600804D02*
X35717731Y-198300804D01*
X35717731Y-198300804D02*
X35593922Y-198486519D01*
X35593922Y-198486519D02*
X35470112Y-198610328D01*
X35470112Y-198610328D02*
X35346303Y-198672233D01*
X85346303Y-198424614D02*
X85408207Y-198362709D01*
X85408207Y-198362709D02*
X85532017Y-198300804D01*
X85532017Y-198300804D02*
X85841541Y-198300804D01*
X85841541Y-198300804D02*
X85965350Y-198362709D01*
X85965350Y-198362709D02*
X86027255Y-198424614D01*
X86027255Y-198424614D02*
X86089160Y-198548423D01*
X86089160Y-198548423D02*
X86089160Y-198672233D01*
X86089160Y-198672233D02*
X86027255Y-198857947D01*
X86027255Y-198857947D02*
X85284398Y-199600804D01*
X85284398Y-199600804D02*
X86089160Y-199600804D01*
X135284398Y-198300804D02*
X136089160Y-198300804D01*
X136089160Y-198300804D02*
X135655826Y-198796042D01*
X135655826Y-198796042D02*
X135841541Y-198796042D01*
X135841541Y-198796042D02*
X135965350Y-198857947D01*
X135965350Y-198857947D02*
X136027255Y-198919852D01*
X136027255Y-198919852D02*
X136089160Y-199043661D01*
X136089160Y-199043661D02*
X136089160Y-199353185D01*
X136089160Y-199353185D02*
X136027255Y-199476995D01*
X136027255Y-199476995D02*
X135965350Y-199538900D01*
X135965350Y-199538900D02*
X135841541Y-199600804D01*
X135841541Y-199600804D02*
X135470112Y-199600804D01*
X135470112Y-199600804D02*
X135346303Y-199538900D01*
X135346303Y-199538900D02*
X135284398Y-199476995D01*
X185965350Y-198734138D02*
X185965350Y-199600804D01*
X185655826Y-198238900D02*
X185346303Y-199167471D01*
X185346303Y-199167471D02*
X186151064Y-199167471D01*
X236027255Y-198300804D02*
X235408207Y-198300804D01*
X235408207Y-198300804D02*
X235346303Y-198919852D01*
X235346303Y-198919852D02*
X235408207Y-198857947D01*
X235408207Y-198857947D02*
X235532017Y-198796042D01*
X235532017Y-198796042D02*
X235841541Y-198796042D01*
X235841541Y-198796042D02*
X235965350Y-198857947D01*
X235965350Y-198857947D02*
X236027255Y-198919852D01*
X236027255Y-198919852D02*
X236089160Y-199043661D01*
X236089160Y-199043661D02*
X236089160Y-199353185D01*
X236089160Y-199353185D02*
X236027255Y-199476995D01*
X236027255Y-199476995D02*
X235965350Y-199538900D01*
X235965350Y-199538900D02*
X235841541Y-199600804D01*
X235841541Y-199600804D02*
X235532017Y-199600804D01*
X235532017Y-199600804D02*
X235408207Y-199538900D01*
X235408207Y-199538900D02*
X235346303Y-199476995D01*
X285965350Y-198300804D02*
X285717731Y-198300804D01*
X285717731Y-198300804D02*
X285593922Y-198362709D01*
X285593922Y-198362709D02*
X285532017Y-198424614D01*
X285532017Y-198424614D02*
X285408207Y-198610328D01*
X285408207Y-198610328D02*
X285346303Y-198857947D01*
X285346303Y-198857947D02*
X285346303Y-199353185D01*
X285346303Y-199353185D02*
X285408207Y-199476995D01*
X285408207Y-199476995D02*
X285470112Y-199538900D01*
X285470112Y-199538900D02*
X285593922Y-199600804D01*
X285593922Y-199600804D02*
X285841541Y-199600804D01*
X285841541Y-199600804D02*
X285965350Y-199538900D01*
X285965350Y-199538900D02*
X286027255Y-199476995D01*
X286027255Y-199476995D02*
X286089160Y-199353185D01*
X286089160Y-199353185D02*
X286089160Y-199043661D01*
X286089160Y-199043661D02*
X286027255Y-198919852D01*
X286027255Y-198919852D02*
X285965350Y-198857947D01*
X285965350Y-198857947D02*
X285841541Y-198796042D01*
X285841541Y-198796042D02*
X285593922Y-198796042D01*
X285593922Y-198796042D02*
X285470112Y-198857947D01*
X285470112Y-198857947D02*
X285408207Y-198919852D01*
X285408207Y-198919852D02*
X285346303Y-199043661D01*
X10000000Y-60000000D02*
X12000000Y-60000000D01*
X10000000Y-110000000D02*
X12000000Y-110000000D01*
X10000000Y-160000000D02*
X12000000Y-160000000D01*
X10690476Y-35222176D02*
X11309523Y-35222176D01*
X10566666Y-35593604D02*
X10999999Y-34293604D01*
X10999999Y-34293604D02*
X11433333Y-35593604D01*
X11092857Y-84912652D02*
X11278571Y-84974557D01*
X11278571Y-84974557D02*
X11340476Y-85036461D01*
X11340476Y-85036461D02*
X11402380Y-85160271D01*
X11402380Y-85160271D02*
X11402380Y-85345985D01*
X11402380Y-85345985D02*
X11340476Y-85469795D01*
X11340476Y-85469795D02*
X11278571Y-85531700D01*
X11278571Y-85531700D02*
X11154761Y-85593604D01*
X11154761Y-85593604D02*
X10659523Y-85593604D01*
X10659523Y-85593604D02*
X10659523Y-84293604D01*
X10659523Y-84293604D02*
X11092857Y-84293604D01*
X11092857Y-84293604D02*
X11216666Y-84355509D01*
X11216666Y-84355509D02*
X11278571Y-84417414D01*
X11278571Y-84417414D02*
X11340476Y-84541223D01*
X11340476Y-84541223D02*
X11340476Y-84665033D01*
X11340476Y-84665033D02*
X11278571Y-84788842D01*
X11278571Y-84788842D02*
X11216666Y-84850747D01*
X11216666Y-84850747D02*
X11092857Y-84912652D01*
X11092857Y-84912652D02*
X10659523Y-84912652D01*
X11402380Y-135469795D02*
X11340476Y-135531700D01*
X11340476Y-135531700D02*
X11154761Y-135593604D01*
X11154761Y-135593604D02*
X11030952Y-135593604D01*
X11030952Y-135593604D02*
X10845238Y-135531700D01*
X10845238Y-135531700D02*
X10721428Y-135407890D01*
X10721428Y-135407890D02*
X10659523Y-135284080D01*
X10659523Y-135284080D02*
X10597619Y-135036461D01*
X10597619Y-135036461D02*
X10597619Y-134850747D01*
X10597619Y-134850747D02*
X10659523Y-134603128D01*
X10659523Y-134603128D02*
X10721428Y-134479319D01*
X10721428Y-134479319D02*
X10845238Y-134355509D01*
X10845238Y-134355509D02*
X11030952Y-134293604D01*
X11030952Y-134293604D02*
X11154761Y-134293604D01*
X11154761Y-134293604D02*
X11340476Y-134355509D01*
X11340476Y-134355509D02*
X11402380Y-134417414D01*
X10659523Y-185593604D02*
X10659523Y-184293604D01*
X10659523Y-184293604D02*
X10969047Y-184293604D01*
X10969047Y-184293604D02*
X11154761Y-184355509D01*
X11154761Y-184355509D02*
X11278571Y-184479319D01*
X11278571Y-184479319D02*
X11340476Y-184603128D01*
X11340476Y-184603128D02*
X11402380Y-184850747D01*
X11402380Y-184850747D02*
X11402380Y-185036461D01*
X11402380Y-185036461D02*
X11340476Y-185284080D01*
X11340476Y-185284080D02*
X11278571Y-185407890D01*
X11278571Y-185407890D02*
X11154761Y-185531700D01*
X11154761Y-185531700D02*
X10969047Y-185593604D01*
X10969047Y-185593604D02*
X10659523Y-185593604D01*
X287002200Y-60000000D02*
X285002200Y-60000000D01*
X287002200Y-110000000D02*
X285002200Y-110000000D01*
X287002200Y-160000000D02*
X285002200Y-160000000D01*
X285692676Y-35222176D02*
X286311723Y-35222176D01*
X285568866Y-35593604D02*
X286002199Y-34293604D01*
X286002199Y-34293604D02*
X286435533Y-35593604D01*
X286095057Y-84912652D02*
X286280771Y-84974557D01*
X286280771Y-84974557D02*
X286342676Y-85036461D01*
X286342676Y-85036461D02*
X286404580Y-85160271D01*
X286404580Y-85160271D02*
X286404580Y-85345985D01*
X286404580Y-85345985D02*
X286342676Y-85469795D01*
X286342676Y-85469795D02*
X286280771Y-85531700D01*
X286280771Y-85531700D02*
X286156961Y-85593604D01*
X286156961Y-85593604D02*
X285661723Y-85593604D01*
X285661723Y-85593604D02*
X285661723Y-84293604D01*
X285661723Y-84293604D02*
X286095057Y-84293604D01*
X286095057Y-84293604D02*
X286218866Y-84355509D01*
X286218866Y-84355509D02*
X286280771Y-84417414D01*
X286280771Y-84417414D02*
X286342676Y-84541223D01*
X286342676Y-84541223D02*
X286342676Y-84665033D01*
X286342676Y-84665033D02*
X286280771Y-84788842D01*
X286280771Y-84788842D02*
X286218866Y-84850747D01*
X286218866Y-84850747D02*
X286095057Y-84912652D01*
X286095057Y-84912652D02*
X285661723Y-84912652D01*
X286404580Y-135469795D02*
X286342676Y-135531700D01*
X286342676Y-135531700D02*
X286156961Y-135593604D01*
X286156961Y-135593604D02*
X286033152Y-135593604D01*
X286033152Y-135593604D02*
X285847438Y-135531700D01*
X285847438Y-135531700D02*
X285723628Y-135407890D01*
X285723628Y-135407890D02*
X285661723Y-135284080D01*
X285661723Y-135284080D02*
X285599819Y-135036461D01*
X285599819Y-135036461D02*
X285599819Y-134850747D01*
X285599819Y-134850747D02*
X285661723Y-134603128D01*
X285661723Y-134603128D02*
X285723628Y-134479319D01*
X285723628Y-134479319D02*
X285847438Y-134355509D01*
X285847438Y-134355509D02*
X286033152Y-134293604D01*
X286033152Y-134293604D02*
X286156961Y-134293604D01*
X286156961Y-134293604D02*
X286342676Y-134355509D01*
X286342676Y-134355509D02*
X286404580Y-134417414D01*
X285661723Y-185593604D02*
X285661723Y-184293604D01*
X285661723Y-184293604D02*
X285971247Y-184293604D01*
X285971247Y-184293604D02*
X286156961Y-184355509D01*
X286156961Y-184355509D02*
X286280771Y-184479319D01*
X286280771Y-184479319D02*
X286342676Y-184603128D01*
X286342676Y-184603128D02*
X286404580Y-184850747D01*
X286404580Y-184850747D02*
X286404580Y-185036461D01*
X286404580Y-185036461D02*
X286342676Y-185284080D01*
X286342676Y-185284080D02*
X286280771Y-185407890D01*
X286280771Y-185407890D02*
X286156961Y-185531700D01*
X286156961Y-185531700D02*
X285971247Y-185593604D01*
X285971247Y-185593604D02*
X285661723Y-185593604D01*
X200458026Y-193793328D02*
X200458026Y-192293328D01*
X200458026Y-192293328D02*
X200815169Y-192293328D01*
X200815169Y-192293328D02*
X201029455Y-192364757D01*
X201029455Y-192364757D02*
X201172312Y-192507614D01*
X201172312Y-192507614D02*
X201243741Y-192650471D01*
X201243741Y-192650471D02*
X201315169Y-192936185D01*
X201315169Y-192936185D02*
X201315169Y-193150471D01*
X201315169Y-193150471D02*
X201243741Y-193436185D01*
X201243741Y-193436185D02*
X201172312Y-193579042D01*
X201172312Y-193579042D02*
X201029455Y-193721900D01*
X201029455Y-193721900D02*
X200815169Y-193793328D01*
X200815169Y-193793328D02*
X200458026Y-193793328D01*
X202600884Y-193793328D02*
X202600884Y-193007614D01*
X202600884Y-193007614D02*
X202529455Y-192864757D01*
X202529455Y-192864757D02*
X202386598Y-192793328D01*
X202386598Y-192793328D02*
X202100884Y-192793328D01*
X202100884Y-192793328D02*
X201958026Y-192864757D01*
X202600884Y-193721900D02*
X202458026Y-193793328D01*
X202458026Y-193793328D02*
X202100884Y-193793328D01*
X202100884Y-193793328D02*
X201958026Y-193721900D01*
X201958026Y-193721900D02*
X201886598Y-193579042D01*
X201886598Y-193579042D02*
X201886598Y-193436185D01*
X201886598Y-193436185D02*
X201958026Y-193293328D01*
X201958026Y-193293328D02*
X202100884Y-193221900D01*
X202100884Y-193221900D02*
X202458026Y-193221900D01*
X202458026Y-193221900D02*
X202600884Y-193150471D01*
X203100884Y-192793328D02*
X203672312Y-192793328D01*
X203315169Y-192293328D02*
X203315169Y-193579042D01*
X203315169Y-193579042D02*
X203386598Y-193721900D01*
X203386598Y-193721900D02*
X203529455Y-193793328D01*
X203529455Y-193793328D02*
X203672312Y-193793328D01*
X204743741Y-193721900D02*
X204600884Y-193793328D01*
X204600884Y-193793328D02*
X204315170Y-193793328D01*
X204315170Y-193793328D02*
X204172312Y-193721900D01*
X204172312Y-193721900D02*
X204100884Y-193579042D01*
X204100884Y-193579042D02*
X204100884Y-193007614D01*
X204100884Y-193007614D02*
X204172312Y-192864757D01*
X204172312Y-192864757D02*
X204315170Y-192793328D01*
X204315170Y-192793328D02*
X204600884Y-192793328D01*
X204600884Y-192793328D02*
X204743741Y-192864757D01*
X204743741Y-192864757D02*
X204815170Y-193007614D01*
X204815170Y-193007614D02*
X204815170Y-193150471D01*
X204815170Y-193150471D02*
X204100884Y-193293328D01*
X205458026Y-193650471D02*
X205529455Y-193721900D01*
X205529455Y-193721900D02*
X205458026Y-193793328D01*
X205458026Y-193793328D02*
X205386598Y-193721900D01*
X205386598Y-193721900D02*
X205458026Y-193650471D01*
X205458026Y-193650471D02*
X205458026Y-193793328D01*
X205458026Y-192864757D02*
X205529455Y-192936185D01*
X205529455Y-192936185D02*
X205458026Y-193007614D01*
X205458026Y-193007614D02*
X205386598Y-192936185D01*
X205386598Y-192936185D02*
X205458026Y-192864757D01*
X205458026Y-192864757D02*
X205458026Y-193007614D01*
X207243741Y-192436185D02*
X207315169Y-192364757D01*
X207315169Y-192364757D02*
X207458027Y-192293328D01*
X207458027Y-192293328D02*
X207815169Y-192293328D01*
X207815169Y-192293328D02*
X207958027Y-192364757D01*
X207958027Y-192364757D02*
X208029455Y-192436185D01*
X208029455Y-192436185D02*
X208100884Y-192579042D01*
X208100884Y-192579042D02*
X208100884Y-192721900D01*
X208100884Y-192721900D02*
X208029455Y-192936185D01*
X208029455Y-192936185D02*
X207172312Y-193793328D01*
X207172312Y-193793328D02*
X208100884Y-193793328D01*
X209029455Y-192293328D02*
X209172312Y-192293328D01*
X209172312Y-192293328D02*
X209315169Y-192364757D01*
X209315169Y-192364757D02*
X209386598Y-192436185D01*
X209386598Y-192436185D02*
X209458026Y-192579042D01*
X209458026Y-192579042D02*
X209529455Y-192864757D01*
X209529455Y-192864757D02*
X209529455Y-193221900D01*
X209529455Y-193221900D02*
X209458026Y-193507614D01*
X209458026Y-193507614D02*
X209386598Y-193650471D01*
X209386598Y-193650471D02*
X209315169Y-193721900D01*
X209315169Y-193721900D02*
X209172312Y-193793328D01*
X209172312Y-193793328D02*
X209029455Y-193793328D01*
X209029455Y-193793328D02*
X208886598Y-193721900D01*
X208886598Y-193721900D02*
X208815169Y-193650471D01*
X208815169Y-193650471D02*
X208743740Y-193507614D01*
X208743740Y-193507614D02*
X208672312Y-193221900D01*
X208672312Y-193221900D02*
X208672312Y-192864757D01*
X208672312Y-192864757D02*
X208743740Y-192579042D01*
X208743740Y-192579042D02*
X208815169Y-192436185D01*
X208815169Y-192436185D02*
X208886598Y-192364757D01*
X208886598Y-192364757D02*
X209029455Y-192293328D01*
X210100883Y-192436185D02*
X210172311Y-192364757D01*
X210172311Y-192364757D02*
X210315169Y-192293328D01*
X210315169Y-192293328D02*
X210672311Y-192293328D01*
X210672311Y-192293328D02*
X210815169Y-192364757D01*
X210815169Y-192364757D02*
X210886597Y-192436185D01*
X210886597Y-192436185D02*
X210958026Y-192579042D01*
X210958026Y-192579042D02*
X210958026Y-192721900D01*
X210958026Y-192721900D02*
X210886597Y-192936185D01*
X210886597Y-192936185D02*
X210029454Y-193793328D01*
X210029454Y-193793328D02*
X210958026Y-193793328D01*
X212243740Y-192293328D02*
X211958025Y-192293328D01*
X211958025Y-192293328D02*
X211815168Y-192364757D01*
X211815168Y-192364757D02*
X211743740Y-192436185D01*
X211743740Y-192436185D02*
X211600882Y-192650471D01*
X211600882Y-192650471D02*
X211529454Y-192936185D01*
X211529454Y-192936185D02*
X211529454Y-193507614D01*
X211529454Y-193507614D02*
X211600882Y-193650471D01*
X211600882Y-193650471D02*
X211672311Y-193721900D01*
X211672311Y-193721900D02*
X211815168Y-193793328D01*
X211815168Y-193793328D02*
X212100882Y-193793328D01*
X212100882Y-193793328D02*
X212243740Y-193721900D01*
X212243740Y-193721900D02*
X212315168Y-193650471D01*
X212315168Y-193650471D02*
X212386597Y-193507614D01*
X212386597Y-193507614D02*
X212386597Y-193150471D01*
X212386597Y-193150471D02*
X212315168Y-193007614D01*
X212315168Y-193007614D02*
X212243740Y-192936185D01*
X212243740Y-192936185D02*
X212100882Y-192864757D01*
X212100882Y-192864757D02*
X211815168Y-192864757D01*
X211815168Y-192864757D02*
X211672311Y-192936185D01*
X211672311Y-192936185D02*
X211600882Y-193007614D01*
X211600882Y-193007614D02*
X211529454Y-193150471D01*
X213029453Y-193221900D02*
X214172311Y-193221900D01*
X215172311Y-192293328D02*
X215315168Y-192293328D01*
X215315168Y-192293328D02*
X215458025Y-192364757D01*
X215458025Y-192364757D02*
X215529454Y-192436185D01*
X215529454Y-192436185D02*
X215600882Y-192579042D01*
X215600882Y-192579042D02*
X215672311Y-192864757D01*
X215672311Y-192864757D02*
X215672311Y-193221900D01*
X215672311Y-193221900D02*
X215600882Y-193507614D01*
X215600882Y-193507614D02*
X215529454Y-193650471D01*
X215529454Y-193650471D02*
X215458025Y-193721900D01*
X215458025Y-193721900D02*
X215315168Y-193793328D01*
X215315168Y-193793328D02*
X215172311Y-193793328D01*
X215172311Y-193793328D02*
X215029454Y-193721900D01*
X215029454Y-193721900D02*
X214958025Y-193650471D01*
X214958025Y-193650471D02*
X214886596Y-193507614D01*
X214886596Y-193507614D02*
X214815168Y-193221900D01*
X214815168Y-193221900D02*
X214815168Y-192864757D01*
X214815168Y-192864757D02*
X214886596Y-192579042D01*
X214886596Y-192579042D02*
X214958025Y-192436185D01*
X214958025Y-192436185D02*
X215029454Y-192364757D01*
X215029454Y-192364757D02*
X215172311Y-192293328D01*
X216529453Y-192936185D02*
X216386596Y-192864757D01*
X216386596Y-192864757D02*
X216315167Y-192793328D01*
X216315167Y-192793328D02*
X216243739Y-192650471D01*
X216243739Y-192650471D02*
X216243739Y-192579042D01*
X216243739Y-192579042D02*
X216315167Y-192436185D01*
X216315167Y-192436185D02*
X216386596Y-192364757D01*
X216386596Y-192364757D02*
X216529453Y-192293328D01*
X216529453Y-192293328D02*
X216815167Y-192293328D01*
X216815167Y-192293328D02*
X216958025Y-192364757D01*
X216958025Y-192364757D02*
X217029453Y-192436185D01*
X217029453Y-192436185D02*
X217100882Y-192579042D01*
X217100882Y-192579042D02*
X217100882Y-192650471D01*
X217100882Y-192650471D02*
X217029453Y-192793328D01*
X217029453Y-192793328D02*
X216958025Y-192864757D01*
X216958025Y-192864757D02*
X216815167Y-192936185D01*
X216815167Y-192936185D02*
X216529453Y-192936185D01*
X216529453Y-192936185D02*
X216386596Y-193007614D01*
X216386596Y-193007614D02*
X216315167Y-193079042D01*
X216315167Y-193079042D02*
X216243739Y-193221900D01*
X216243739Y-193221900D02*
X216243739Y-193507614D01*
X216243739Y-193507614D02*
X216315167Y-193650471D01*
X216315167Y-193650471D02*
X216386596Y-193721900D01*
X216386596Y-193721900D02*
X216529453Y-193793328D01*
X216529453Y-193793328D02*
X216815167Y-193793328D01*
X216815167Y-193793328D02*
X216958025Y-193721900D01*
X216958025Y-193721900D02*
X217029453Y-193650471D01*
X217029453Y-193650471D02*
X217100882Y-193507614D01*
X217100882Y-193507614D02*
X217100882Y-193221900D01*
X217100882Y-193221900D02*
X217029453Y-193079042D01*
X217029453Y-193079042D02*
X216958025Y-193007614D01*
X216958025Y-193007614D02*
X216815167Y-192936185D01*
X217743738Y-193221900D02*
X218886596Y-193221900D01*
X219529453Y-192436185D02*
X219600881Y-192364757D01*
X219600881Y-192364757D02*
X219743739Y-192293328D01*
X219743739Y-192293328D02*
X220100881Y-192293328D01*
X220100881Y-192293328D02*
X220243739Y-192364757D01*
X220243739Y-192364757D02*
X220315167Y-192436185D01*
X220315167Y-192436185D02*
X220386596Y-192579042D01*
X220386596Y-192579042D02*
X220386596Y-192721900D01*
X220386596Y-192721900D02*
X220315167Y-192936185D01*
X220315167Y-192936185D02*
X219458024Y-193793328D01*
X219458024Y-193793328D02*
X220386596Y-193793328D01*
X220886595Y-192293328D02*
X221886595Y-192293328D01*
X221886595Y-192293328D02*
X221243738Y-193793328D01*
X177002200Y-194507200D02*
X285002200Y-194507200D01*
X178458026Y-196593328D02*
X178458026Y-195093328D01*
X179315169Y-196593328D02*
X178672312Y-195736185D01*
X179315169Y-195093328D02*
X178458026Y-195950471D01*
X179958026Y-196593328D02*
X179958026Y-195593328D01*
X179958026Y-195093328D02*
X179886598Y-195164757D01*
X179886598Y-195164757D02*
X179958026Y-195236185D01*
X179958026Y-195236185D02*
X180029455Y-195164757D01*
X180029455Y-195164757D02*
X179958026Y-195093328D01*
X179958026Y-195093328D02*
X179958026Y-195236185D01*
X181529455Y-196450471D02*
X181458027Y-196521900D01*
X181458027Y-196521900D02*
X181243741Y-196593328D01*
X181243741Y-196593328D02*
X181100884Y-196593328D01*
X181100884Y-196593328D02*
X180886598Y-196521900D01*
X180886598Y-196521900D02*
X180743741Y-196379042D01*
X180743741Y-196379042D02*
X180672312Y-196236185D01*
X180672312Y-196236185D02*
X180600884Y-195950471D01*
X180600884Y-195950471D02*
X180600884Y-195736185D01*
X180600884Y-195736185D02*
X180672312Y-195450471D01*
X180672312Y-195450471D02*
X180743741Y-195307614D01*
X180743741Y-195307614D02*
X180886598Y-195164757D01*
X180886598Y-195164757D02*
X181100884Y-195093328D01*
X181100884Y-195093328D02*
X181243741Y-195093328D01*
X181243741Y-195093328D02*
X181458027Y-195164757D01*
X181458027Y-195164757D02*
X181529455Y-195236185D01*
X182815170Y-196593328D02*
X182815170Y-195807614D01*
X182815170Y-195807614D02*
X182743741Y-195664757D01*
X182743741Y-195664757D02*
X182600884Y-195593328D01*
X182600884Y-195593328D02*
X182315170Y-195593328D01*
X182315170Y-195593328D02*
X182172312Y-195664757D01*
X182815170Y-196521900D02*
X182672312Y-196593328D01*
X182672312Y-196593328D02*
X182315170Y-196593328D01*
X182315170Y-196593328D02*
X182172312Y-196521900D01*
X182172312Y-196521900D02*
X182100884Y-196379042D01*
X182100884Y-196379042D02*
X182100884Y-196236185D01*
X182100884Y-196236185D02*
X182172312Y-196093328D01*
X182172312Y-196093328D02*
X182315170Y-196021900D01*
X182315170Y-196021900D02*
X182672312Y-196021900D01*
X182672312Y-196021900D02*
X182815170Y-195950471D01*
X184172313Y-196593328D02*
X184172313Y-195093328D01*
X184172313Y-196521900D02*
X184029455Y-196593328D01*
X184029455Y-196593328D02*
X183743741Y-196593328D01*
X183743741Y-196593328D02*
X183600884Y-196521900D01*
X183600884Y-196521900D02*
X183529455Y-196450471D01*
X183529455Y-196450471D02*
X183458027Y-196307614D01*
X183458027Y-196307614D02*
X183458027Y-195879042D01*
X183458027Y-195879042D02*
X183529455Y-195736185D01*
X183529455Y-195736185D02*
X183600884Y-195664757D01*
X183600884Y-195664757D02*
X183743741Y-195593328D01*
X183743741Y-195593328D02*
X184029455Y-195593328D01*
X184029455Y-195593328D02*
X184172313Y-195664757D01*
X186029455Y-195807614D02*
X186529455Y-195807614D01*
X186743741Y-196593328D02*
X186029455Y-196593328D01*
X186029455Y-196593328D02*
X186029455Y-195093328D01*
X186029455Y-195093328D02*
X186743741Y-195093328D01*
X187386598Y-196450471D02*
X187458027Y-196521900D01*
X187458027Y-196521900D02*
X187386598Y-196593328D01*
X187386598Y-196593328D02*
X187315170Y-196521900D01*
X187315170Y-196521900D02*
X187386598Y-196450471D01*
X187386598Y-196450471D02*
X187386598Y-196593328D01*
X188100884Y-196593328D02*
X188100884Y-195093328D01*
X188100884Y-195093328D02*
X188458027Y-195093328D01*
X188458027Y-195093328D02*
X188672313Y-195164757D01*
X188672313Y-195164757D02*
X188815170Y-195307614D01*
X188815170Y-195307614D02*
X188886599Y-195450471D01*
X188886599Y-195450471D02*
X188958027Y-195736185D01*
X188958027Y-195736185D02*
X188958027Y-195950471D01*
X188958027Y-195950471D02*
X188886599Y-196236185D01*
X188886599Y-196236185D02*
X188815170Y-196379042D01*
X188815170Y-196379042D02*
X188672313Y-196521900D01*
X188672313Y-196521900D02*
X188458027Y-196593328D01*
X188458027Y-196593328D02*
X188100884Y-196593328D01*
X189600884Y-196450471D02*
X189672313Y-196521900D01*
X189672313Y-196521900D02*
X189600884Y-196593328D01*
X189600884Y-196593328D02*
X189529456Y-196521900D01*
X189529456Y-196521900D02*
X189600884Y-196450471D01*
X189600884Y-196450471D02*
X189600884Y-196593328D01*
X190243742Y-196164757D02*
X190958028Y-196164757D01*
X190100885Y-196593328D02*
X190600885Y-195093328D01*
X190600885Y-195093328D02*
X191100885Y-196593328D01*
X191600884Y-196450471D02*
X191672313Y-196521900D01*
X191672313Y-196521900D02*
X191600884Y-196593328D01*
X191600884Y-196593328D02*
X191529456Y-196521900D01*
X191529456Y-196521900D02*
X191600884Y-196450471D01*
X191600884Y-196450471D02*
X191600884Y-196593328D01*
X194243742Y-196593328D02*
X193386599Y-196593328D01*
X193815170Y-196593328D02*
X193815170Y-195093328D01*
X193815170Y-195093328D02*
X193672313Y-195307614D01*
X193672313Y-195307614D02*
X193529456Y-195450471D01*
X193529456Y-195450471D02*
X193386599Y-195521900D01*
X195172313Y-195093328D02*
X195315170Y-195093328D01*
X195315170Y-195093328D02*
X195458027Y-195164757D01*
X195458027Y-195164757D02*
X195529456Y-195236185D01*
X195529456Y-195236185D02*
X195600884Y-195379042D01*
X195600884Y-195379042D02*
X195672313Y-195664757D01*
X195672313Y-195664757D02*
X195672313Y-196021900D01*
X195672313Y-196021900D02*
X195600884Y-196307614D01*
X195600884Y-196307614D02*
X195529456Y-196450471D01*
X195529456Y-196450471D02*
X195458027Y-196521900D01*
X195458027Y-196521900D02*
X195315170Y-196593328D01*
X195315170Y-196593328D02*
X195172313Y-196593328D01*
X195172313Y-196593328D02*
X195029456Y-196521900D01*
X195029456Y-196521900D02*
X194958027Y-196450471D01*
X194958027Y-196450471D02*
X194886598Y-196307614D01*
X194886598Y-196307614D02*
X194815170Y-196021900D01*
X194815170Y-196021900D02*
X194815170Y-195664757D01*
X194815170Y-195664757D02*
X194886598Y-195379042D01*
X194886598Y-195379042D02*
X194958027Y-195236185D01*
X194958027Y-195236185D02*
X195029456Y-195164757D01*
X195029456Y-195164757D02*
X195172313Y-195093328D01*
X196315169Y-196450471D02*
X196386598Y-196521900D01*
X196386598Y-196521900D02*
X196315169Y-196593328D01*
X196315169Y-196593328D02*
X196243741Y-196521900D01*
X196243741Y-196521900D02*
X196315169Y-196450471D01*
X196315169Y-196450471D02*
X196315169Y-196593328D01*
X197315170Y-195093328D02*
X197458027Y-195093328D01*
X197458027Y-195093328D02*
X197600884Y-195164757D01*
X197600884Y-195164757D02*
X197672313Y-195236185D01*
X197672313Y-195236185D02*
X197743741Y-195379042D01*
X197743741Y-195379042D02*
X197815170Y-195664757D01*
X197815170Y-195664757D02*
X197815170Y-196021900D01*
X197815170Y-196021900D02*
X197743741Y-196307614D01*
X197743741Y-196307614D02*
X197672313Y-196450471D01*
X197672313Y-196450471D02*
X197600884Y-196521900D01*
X197600884Y-196521900D02*
X197458027Y-196593328D01*
X197458027Y-196593328D02*
X197315170Y-196593328D01*
X197315170Y-196593328D02*
X197172313Y-196521900D01*
X197172313Y-196521900D02*
X197100884Y-196450471D01*
X197100884Y-196450471D02*
X197029455Y-196307614D01*
X197029455Y-196307614D02*
X196958027Y-196021900D01*
X196958027Y-196021900D02*
X196958027Y-195664757D01*
X196958027Y-195664757D02*
X197029455Y-195379042D01*
X197029455Y-195379042D02*
X197100884Y-195236185D01*
X197100884Y-195236185D02*
X197172313Y-195164757D01*
X197172313Y-195164757D02*
X197315170Y-195093328D01*
X198458026Y-196450471D02*
X198529455Y-196521900D01*
X198529455Y-196521900D02*
X198458026Y-196593328D01*
X198458026Y-196593328D02*
X198386598Y-196521900D01*
X198386598Y-196521900D02*
X198458026Y-196450471D01*
X198458026Y-196450471D02*
X198458026Y-196593328D01*
X199815170Y-195593328D02*
X199815170Y-196593328D01*
X199458027Y-195021900D02*
X199100884Y-196093328D01*
X199100884Y-196093328D02*
X200029455Y-196093328D01*
X177002200Y-191507200D02*
X285002200Y-191507200D01*
D11*
X264413853Y-193785528D02*
X263913853Y-193071242D01*
X263556710Y-193785528D02*
X263556710Y-192285528D01*
X263556710Y-192285528D02*
X264128139Y-192285528D01*
X264128139Y-192285528D02*
X264270996Y-192356957D01*
X264270996Y-192356957D02*
X264342425Y-192428385D01*
X264342425Y-192428385D02*
X264413853Y-192571242D01*
X264413853Y-192571242D02*
X264413853Y-192785528D01*
X264413853Y-192785528D02*
X264342425Y-192928385D01*
X264342425Y-192928385D02*
X264270996Y-192999814D01*
X264270996Y-192999814D02*
X264128139Y-193071242D01*
X264128139Y-193071242D02*
X263556710Y-193071242D01*
X265628139Y-193714100D02*
X265485282Y-193785528D01*
X265485282Y-193785528D02*
X265199568Y-193785528D01*
X265199568Y-193785528D02*
X265056710Y-193714100D01*
X265056710Y-193714100D02*
X264985282Y-193571242D01*
X264985282Y-193571242D02*
X264985282Y-192999814D01*
X264985282Y-192999814D02*
X265056710Y-192856957D01*
X265056710Y-192856957D02*
X265199568Y-192785528D01*
X265199568Y-192785528D02*
X265485282Y-192785528D01*
X265485282Y-192785528D02*
X265628139Y-192856957D01*
X265628139Y-192856957D02*
X265699568Y-192999814D01*
X265699568Y-192999814D02*
X265699568Y-193142671D01*
X265699568Y-193142671D02*
X264985282Y-193285528D01*
X266199567Y-192785528D02*
X266556710Y-193785528D01*
X266556710Y-193785528D02*
X266913853Y-192785528D01*
X267485281Y-193642671D02*
X267556710Y-193714100D01*
X267556710Y-193714100D02*
X267485281Y-193785528D01*
X267485281Y-193785528D02*
X267413853Y-193714100D01*
X267413853Y-193714100D02*
X267485281Y-193642671D01*
X267485281Y-193642671D02*
X267485281Y-193785528D01*
X267485281Y-192856957D02*
X267556710Y-192928385D01*
X267556710Y-192928385D02*
X267485281Y-192999814D01*
X267485281Y-192999814D02*
X267413853Y-192928385D01*
X267413853Y-192928385D02*
X267485281Y-192856957D01*
X267485281Y-192856957D02*
X267485281Y-192999814D01*
X269270996Y-192428385D02*
X269342424Y-192356957D01*
X269342424Y-192356957D02*
X269485282Y-192285528D01*
X269485282Y-192285528D02*
X269842424Y-192285528D01*
X269842424Y-192285528D02*
X269985282Y-192356957D01*
X269985282Y-192356957D02*
X270056710Y-192428385D01*
X270056710Y-192428385D02*
X270128139Y-192571242D01*
X270128139Y-192571242D02*
X270128139Y-192714100D01*
X270128139Y-192714100D02*
X270056710Y-192928385D01*
X270056710Y-192928385D02*
X269199567Y-193785528D01*
X269199567Y-193785528D02*
X270128139Y-193785528D01*
X271056710Y-192285528D02*
X271199567Y-192285528D01*
X271199567Y-192285528D02*
X271342424Y-192356957D01*
X271342424Y-192356957D02*
X271413853Y-192428385D01*
X271413853Y-192428385D02*
X271485281Y-192571242D01*
X271485281Y-192571242D02*
X271556710Y-192856957D01*
X271556710Y-192856957D02*
X271556710Y-193214100D01*
X271556710Y-193214100D02*
X271485281Y-193499814D01*
X271485281Y-193499814D02*
X271413853Y-193642671D01*
X271413853Y-193642671D02*
X271342424Y-193714100D01*
X271342424Y-193714100D02*
X271199567Y-193785528D01*
X271199567Y-193785528D02*
X271056710Y-193785528D01*
X271056710Y-193785528D02*
X270913853Y-193714100D01*
X270913853Y-193714100D02*
X270842424Y-193642671D01*
X270842424Y-193642671D02*
X270770995Y-193499814D01*
X270770995Y-193499814D02*
X270699567Y-193214100D01*
X270699567Y-193214100D02*
X270699567Y-192856957D01*
X270699567Y-192856957D02*
X270770995Y-192571242D01*
X270770995Y-192571242D02*
X270842424Y-192428385D01*
X270842424Y-192428385D02*
X270913853Y-192356957D01*
X270913853Y-192356957D02*
X271056710Y-192285528D01*
X272128138Y-192428385D02*
X272199566Y-192356957D01*
X272199566Y-192356957D02*
X272342424Y-192285528D01*
X272342424Y-192285528D02*
X272699566Y-192285528D01*
X272699566Y-192285528D02*
X272842424Y-192356957D01*
X272842424Y-192356957D02*
X272913852Y-192428385D01*
X272913852Y-192428385D02*
X272985281Y-192571242D01*
X272985281Y-192571242D02*
X272985281Y-192714100D01*
X272985281Y-192714100D02*
X272913852Y-192928385D01*
X272913852Y-192928385D02*
X272056709Y-193785528D01*
X272056709Y-193785528D02*
X272985281Y-193785528D01*
X274270995Y-192285528D02*
X273985280Y-192285528D01*
X273985280Y-192285528D02*
X273842423Y-192356957D01*
X273842423Y-192356957D02*
X273770995Y-192428385D01*
X273770995Y-192428385D02*
X273628137Y-192642671D01*
X273628137Y-192642671D02*
X273556709Y-192928385D01*
X273556709Y-192928385D02*
X273556709Y-193499814D01*
X273556709Y-193499814D02*
X273628137Y-193642671D01*
X273628137Y-193642671D02*
X273699566Y-193714100D01*
X273699566Y-193714100D02*
X273842423Y-193785528D01*
X273842423Y-193785528D02*
X274128137Y-193785528D01*
X274128137Y-193785528D02*
X274270995Y-193714100D01*
X274270995Y-193714100D02*
X274342423Y-193642671D01*
X274342423Y-193642671D02*
X274413852Y-193499814D01*
X274413852Y-193499814D02*
X274413852Y-193142671D01*
X274413852Y-193142671D02*
X274342423Y-192999814D01*
X274342423Y-192999814D02*
X274270995Y-192928385D01*
X274270995Y-192928385D02*
X274128137Y-192856957D01*
X274128137Y-192856957D02*
X273842423Y-192856957D01*
X273842423Y-192856957D02*
X273699566Y-192928385D01*
X273699566Y-192928385D02*
X273628137Y-192999814D01*
X273628137Y-192999814D02*
X273556709Y-193142671D01*
X275342423Y-192285528D02*
X275485280Y-192285528D01*
X275485280Y-192285528D02*
X275628137Y-192356957D01*
X275628137Y-192356957D02*
X275699566Y-192428385D01*
X275699566Y-192428385D02*
X275770994Y-192571242D01*
X275770994Y-192571242D02*
X275842423Y-192856957D01*
X275842423Y-192856957D02*
X275842423Y-193214100D01*
X275842423Y-193214100D02*
X275770994Y-193499814D01*
X275770994Y-193499814D02*
X275699566Y-193642671D01*
X275699566Y-193642671D02*
X275628137Y-193714100D01*
X275628137Y-193714100D02*
X275485280Y-193785528D01*
X275485280Y-193785528D02*
X275342423Y-193785528D01*
X275342423Y-193785528D02*
X275199566Y-193714100D01*
X275199566Y-193714100D02*
X275128137Y-193642671D01*
X275128137Y-193642671D02*
X275056708Y-193499814D01*
X275056708Y-193499814D02*
X274985280Y-193214100D01*
X274985280Y-193214100D02*
X274985280Y-192856957D01*
X274985280Y-192856957D02*
X275056708Y-192571242D01*
X275056708Y-192571242D02*
X275128137Y-192428385D01*
X275128137Y-192428385D02*
X275199566Y-192356957D01*
X275199566Y-192356957D02*
X275342423Y-192285528D01*
X276699565Y-192928385D02*
X276556708Y-192856957D01*
X276556708Y-192856957D02*
X276485279Y-192785528D01*
X276485279Y-192785528D02*
X276413851Y-192642671D01*
X276413851Y-192642671D02*
X276413851Y-192571242D01*
X276413851Y-192571242D02*
X276485279Y-192428385D01*
X276485279Y-192428385D02*
X276556708Y-192356957D01*
X276556708Y-192356957D02*
X276699565Y-192285528D01*
X276699565Y-192285528D02*
X276985279Y-192285528D01*
X276985279Y-192285528D02*
X277128137Y-192356957D01*
X277128137Y-192356957D02*
X277199565Y-192428385D01*
X277199565Y-192428385D02*
X277270994Y-192571242D01*
X277270994Y-192571242D02*
X277270994Y-192642671D01*
X277270994Y-192642671D02*
X277199565Y-192785528D01*
X277199565Y-192785528D02*
X277128137Y-192856957D01*
X277128137Y-192856957D02*
X276985279Y-192928385D01*
X276985279Y-192928385D02*
X276699565Y-192928385D01*
X276699565Y-192928385D02*
X276556708Y-192999814D01*
X276556708Y-192999814D02*
X276485279Y-193071242D01*
X276485279Y-193071242D02*
X276413851Y-193214100D01*
X276413851Y-193214100D02*
X276413851Y-193499814D01*
X276413851Y-193499814D02*
X276485279Y-193642671D01*
X276485279Y-193642671D02*
X276556708Y-193714100D01*
X276556708Y-193714100D02*
X276699565Y-193785528D01*
X276699565Y-193785528D02*
X276985279Y-193785528D01*
X276985279Y-193785528D02*
X277128137Y-193714100D01*
X277128137Y-193714100D02*
X277199565Y-193642671D01*
X277199565Y-193642671D02*
X277270994Y-193499814D01*
X277270994Y-193499814D02*
X277270994Y-193214100D01*
X277270994Y-193214100D02*
X277199565Y-193071242D01*
X277199565Y-193071242D02*
X277128137Y-192999814D01*
X277128137Y-192999814D02*
X276985279Y-192928385D01*
X277842422Y-192428385D02*
X277913850Y-192356957D01*
X277913850Y-192356957D02*
X278056708Y-192285528D01*
X278056708Y-192285528D02*
X278413850Y-192285528D01*
X278413850Y-192285528D02*
X278556708Y-192356957D01*
X278556708Y-192356957D02*
X278628136Y-192428385D01*
X278628136Y-192428385D02*
X278699565Y-192571242D01*
X278699565Y-192571242D02*
X278699565Y-192714100D01*
X278699565Y-192714100D02*
X278628136Y-192928385D01*
X278628136Y-192928385D02*
X277770993Y-193785528D01*
X277770993Y-193785528D02*
X278699565Y-193785528D01*
X279199564Y-192285528D02*
X280199564Y-192285528D01*
X280199564Y-192285528D02*
X279556707Y-193785528D01*
D10*
X178386598Y-193721900D02*
X178600884Y-193793328D01*
X178600884Y-193793328D02*
X178958026Y-193793328D01*
X178958026Y-193793328D02*
X179100884Y-193721900D01*
X179100884Y-193721900D02*
X179172312Y-193650471D01*
X179172312Y-193650471D02*
X179243741Y-193507614D01*
X179243741Y-193507614D02*
X179243741Y-193364757D01*
X179243741Y-193364757D02*
X179172312Y-193221900D01*
X179172312Y-193221900D02*
X179100884Y-193150471D01*
X179100884Y-193150471D02*
X178958026Y-193079042D01*
X178958026Y-193079042D02*
X178672312Y-193007614D01*
X178672312Y-193007614D02*
X178529455Y-192936185D01*
X178529455Y-192936185D02*
X178458026Y-192864757D01*
X178458026Y-192864757D02*
X178386598Y-192721900D01*
X178386598Y-192721900D02*
X178386598Y-192579042D01*
X178386598Y-192579042D02*
X178458026Y-192436185D01*
X178458026Y-192436185D02*
X178529455Y-192364757D01*
X178529455Y-192364757D02*
X178672312Y-192293328D01*
X178672312Y-192293328D02*
X179029455Y-192293328D01*
X179029455Y-192293328D02*
X179243741Y-192364757D01*
X179886597Y-193793328D02*
X179886597Y-192793328D01*
X179886597Y-192293328D02*
X179815169Y-192364757D01*
X179815169Y-192364757D02*
X179886597Y-192436185D01*
X179886597Y-192436185D02*
X179958026Y-192364757D01*
X179958026Y-192364757D02*
X179886597Y-192293328D01*
X179886597Y-192293328D02*
X179886597Y-192436185D01*
X180458026Y-192793328D02*
X181243741Y-192793328D01*
X181243741Y-192793328D02*
X180458026Y-193793328D01*
X180458026Y-193793328D02*
X181243741Y-193793328D01*
X182386598Y-193721900D02*
X182243741Y-193793328D01*
X182243741Y-193793328D02*
X181958027Y-193793328D01*
X181958027Y-193793328D02*
X181815169Y-193721900D01*
X181815169Y-193721900D02*
X181743741Y-193579042D01*
X181743741Y-193579042D02*
X181743741Y-193007614D01*
X181743741Y-193007614D02*
X181815169Y-192864757D01*
X181815169Y-192864757D02*
X181958027Y-192793328D01*
X181958027Y-192793328D02*
X182243741Y-192793328D01*
X182243741Y-192793328D02*
X182386598Y-192864757D01*
X182386598Y-192864757D02*
X182458027Y-193007614D01*
X182458027Y-193007614D02*
X182458027Y-193150471D01*
X182458027Y-193150471D02*
X181743741Y-193293328D01*
X183100883Y-193650471D02*
X183172312Y-193721900D01*
X183172312Y-193721900D02*
X183100883Y-193793328D01*
X183100883Y-193793328D02*
X183029455Y-193721900D01*
X183029455Y-193721900D02*
X183100883Y-193650471D01*
X183100883Y-193650471D02*
X183100883Y-193793328D01*
X183100883Y-192864757D02*
X183172312Y-192936185D01*
X183172312Y-192936185D02*
X183100883Y-193007614D01*
X183100883Y-193007614D02*
X183029455Y-192936185D01*
X183029455Y-192936185D02*
X183100883Y-192864757D01*
X183100883Y-192864757D02*
X183100883Y-193007614D01*
X184886598Y-193364757D02*
X185600884Y-193364757D01*
X184743741Y-193793328D02*
X185243741Y-192293328D01*
X185243741Y-192293328D02*
X185743741Y-193793328D01*
X186886598Y-192793328D02*
X186886598Y-193793328D01*
X186529455Y-192221900D02*
X186172312Y-193293328D01*
X186172312Y-193293328D02*
X187100883Y-193293328D01*
X263458026Y-196593328D02*
X263458026Y-195093328D01*
X264815170Y-196593328D02*
X264815170Y-195093328D01*
X264815170Y-196521900D02*
X264672312Y-196593328D01*
X264672312Y-196593328D02*
X264386598Y-196593328D01*
X264386598Y-196593328D02*
X264243741Y-196521900D01*
X264243741Y-196521900D02*
X264172312Y-196450471D01*
X264172312Y-196450471D02*
X264100884Y-196307614D01*
X264100884Y-196307614D02*
X264100884Y-195879042D01*
X264100884Y-195879042D02*
X264172312Y-195736185D01*
X264172312Y-195736185D02*
X264243741Y-195664757D01*
X264243741Y-195664757D02*
X264386598Y-195593328D01*
X264386598Y-195593328D02*
X264672312Y-195593328D01*
X264672312Y-195593328D02*
X264815170Y-195664757D01*
X265529455Y-196450471D02*
X265600884Y-196521900D01*
X265600884Y-196521900D02*
X265529455Y-196593328D01*
X265529455Y-196593328D02*
X265458027Y-196521900D01*
X265458027Y-196521900D02*
X265529455Y-196450471D01*
X265529455Y-196450471D02*
X265529455Y-196593328D01*
X265529455Y-195664757D02*
X265600884Y-195736185D01*
X265600884Y-195736185D02*
X265529455Y-195807614D01*
X265529455Y-195807614D02*
X265458027Y-195736185D01*
X265458027Y-195736185D02*
X265529455Y-195664757D01*
X265529455Y-195664757D02*
X265529455Y-195807614D01*
X267600884Y-195736185D02*
X267458027Y-195664757D01*
X267458027Y-195664757D02*
X267386598Y-195593328D01*
X267386598Y-195593328D02*
X267315170Y-195450471D01*
X267315170Y-195450471D02*
X267315170Y-195379042D01*
X267315170Y-195379042D02*
X267386598Y-195236185D01*
X267386598Y-195236185D02*
X267458027Y-195164757D01*
X267458027Y-195164757D02*
X267600884Y-195093328D01*
X267600884Y-195093328D02*
X267886598Y-195093328D01*
X267886598Y-195093328D02*
X268029456Y-195164757D01*
X268029456Y-195164757D02*
X268100884Y-195236185D01*
X268100884Y-195236185D02*
X268172313Y-195379042D01*
X268172313Y-195379042D02*
X268172313Y-195450471D01*
X268172313Y-195450471D02*
X268100884Y-195593328D01*
X268100884Y-195593328D02*
X268029456Y-195664757D01*
X268029456Y-195664757D02*
X267886598Y-195736185D01*
X267886598Y-195736185D02*
X267600884Y-195736185D01*
X267600884Y-195736185D02*
X267458027Y-195807614D01*
X267458027Y-195807614D02*
X267386598Y-195879042D01*
X267386598Y-195879042D02*
X267315170Y-196021900D01*
X267315170Y-196021900D02*
X267315170Y-196307614D01*
X267315170Y-196307614D02*
X267386598Y-196450471D01*
X267386598Y-196450471D02*
X267458027Y-196521900D01*
X267458027Y-196521900D02*
X267600884Y-196593328D01*
X267600884Y-196593328D02*
X267886598Y-196593328D01*
X267886598Y-196593328D02*
X268029456Y-196521900D01*
X268029456Y-196521900D02*
X268100884Y-196450471D01*
X268100884Y-196450471D02*
X268172313Y-196307614D01*
X268172313Y-196307614D02*
X268172313Y-196021900D01*
X268172313Y-196021900D02*
X268100884Y-195879042D01*
X268100884Y-195879042D02*
X268029456Y-195807614D01*
X268029456Y-195807614D02*
X267886598Y-195736185D01*
X269886598Y-195021900D02*
X268600884Y-196950471D01*
X271172313Y-196593328D02*
X270315170Y-196593328D01*
X270743741Y-196593328D02*
X270743741Y-195093328D01*
X270743741Y-195093328D02*
X270600884Y-195307614D01*
X270600884Y-195307614D02*
X270458027Y-195450471D01*
X270458027Y-195450471D02*
X270315170Y-195521900D01*
X272600884Y-196593328D02*
X271743741Y-196593328D01*
X272172312Y-196593328D02*
X272172312Y-195093328D01*
X272172312Y-195093328D02*
X272029455Y-195307614D01*
X272029455Y-195307614D02*
X271886598Y-195450471D01*
X271886598Y-195450471D02*
X271743741Y-195521900D01*
X177002200Y-187507200D02*
X285002200Y-187507200D01*
D12*
X178693928Y-188211638D02*
X179836785Y-188211638D01*
X179015357Y-190211638D02*
X179265357Y-188211638D01*
X180253452Y-190211638D02*
X180420119Y-188878304D01*
X180503452Y-188211638D02*
X180396309Y-188306876D01*
X180396309Y-188306876D02*
X180479643Y-188402114D01*
X180479643Y-188402114D02*
X180586786Y-188306876D01*
X180586786Y-188306876D02*
X180503452Y-188211638D01*
X180503452Y-188211638D02*
X180479643Y-188402114D01*
X181086786Y-188878304D02*
X181848690Y-188878304D01*
X181455833Y-188211638D02*
X181241548Y-189925923D01*
X181241548Y-189925923D02*
X181312976Y-190116400D01*
X181312976Y-190116400D02*
X181491548Y-190211638D01*
X181491548Y-190211638D02*
X181682024Y-190211638D01*
X182634405Y-190211638D02*
X182455833Y-190116400D01*
X182455833Y-190116400D02*
X182384405Y-189925923D01*
X182384405Y-189925923D02*
X182598690Y-188211638D01*
X184170119Y-190116400D02*
X183967738Y-190211638D01*
X183967738Y-190211638D02*
X183586785Y-190211638D01*
X183586785Y-190211638D02*
X183408214Y-190116400D01*
X183408214Y-190116400D02*
X183336785Y-189925923D01*
X183336785Y-189925923D02*
X183432024Y-189164019D01*
X183432024Y-189164019D02*
X183551071Y-188973542D01*
X183551071Y-188973542D02*
X183753452Y-188878304D01*
X183753452Y-188878304D02*
X184134404Y-188878304D01*
X184134404Y-188878304D02*
X184312976Y-188973542D01*
X184312976Y-188973542D02*
X184384404Y-189164019D01*
X184384404Y-189164019D02*
X184360595Y-189354495D01*
X184360595Y-189354495D02*
X183384404Y-189544971D01*
X185134405Y-190021161D02*
X185217738Y-190116400D01*
X185217738Y-190116400D02*
X185110595Y-190211638D01*
X185110595Y-190211638D02*
X185027262Y-190116400D01*
X185027262Y-190116400D02*
X185134405Y-190021161D01*
X185134405Y-190021161D02*
X185110595Y-190211638D01*
X185265357Y-188973542D02*
X185348690Y-189068780D01*
X185348690Y-189068780D02*
X185241548Y-189164019D01*
X185241548Y-189164019D02*
X185158214Y-189068780D01*
X185158214Y-189068780D02*
X185265357Y-188973542D01*
X185265357Y-188973542D02*
X185241548Y-189164019D01*
X187836786Y-188211638D02*
X187634405Y-189830685D01*
X187634405Y-189830685D02*
X187705834Y-190021161D01*
X187705834Y-190021161D02*
X187789167Y-190116400D01*
X187789167Y-190116400D02*
X187967739Y-190211638D01*
X187967739Y-190211638D02*
X188348691Y-190211638D01*
X188348691Y-190211638D02*
X188551072Y-190116400D01*
X188551072Y-190116400D02*
X188658215Y-190021161D01*
X188658215Y-190021161D02*
X188777262Y-189830685D01*
X188777262Y-189830685D02*
X188979643Y-188211638D01*
X189646310Y-188211638D02*
X190062977Y-190211638D01*
X190062977Y-190211638D02*
X190979643Y-188211638D01*
X193717739Y-189164019D02*
X193051073Y-189164019D01*
X192920120Y-190211638D02*
X193170120Y-188211638D01*
X193170120Y-188211638D02*
X194122501Y-188211638D01*
X194920121Y-190211638D02*
X194741549Y-190116400D01*
X194741549Y-190116400D02*
X194670121Y-189925923D01*
X194670121Y-189925923D02*
X194884406Y-188211638D01*
X195967740Y-190211638D02*
X195789168Y-190116400D01*
X195789168Y-190116400D02*
X195705835Y-190021161D01*
X195705835Y-190021161D02*
X195634406Y-189830685D01*
X195634406Y-189830685D02*
X195705835Y-189259257D01*
X195705835Y-189259257D02*
X195824882Y-189068780D01*
X195824882Y-189068780D02*
X195932025Y-188973542D01*
X195932025Y-188973542D02*
X196134406Y-188878304D01*
X196134406Y-188878304D02*
X196420120Y-188878304D01*
X196420120Y-188878304D02*
X196598692Y-188973542D01*
X196598692Y-188973542D02*
X196682025Y-189068780D01*
X196682025Y-189068780D02*
X196753454Y-189259257D01*
X196753454Y-189259257D02*
X196682025Y-189830685D01*
X196682025Y-189830685D02*
X196562978Y-190021161D01*
X196562978Y-190021161D02*
X196455835Y-190116400D01*
X196455835Y-190116400D02*
X196253454Y-190211638D01*
X196253454Y-190211638D02*
X195967740Y-190211638D01*
X197777264Y-190211638D02*
X197598692Y-190116400D01*
X197598692Y-190116400D02*
X197515359Y-190021161D01*
X197515359Y-190021161D02*
X197443930Y-189830685D01*
X197443930Y-189830685D02*
X197515359Y-189259257D01*
X197515359Y-189259257D02*
X197634406Y-189068780D01*
X197634406Y-189068780D02*
X197741549Y-188973542D01*
X197741549Y-188973542D02*
X197943930Y-188878304D01*
X197943930Y-188878304D02*
X198229644Y-188878304D01*
X198229644Y-188878304D02*
X198408216Y-188973542D01*
X198408216Y-188973542D02*
X198491549Y-189068780D01*
X198491549Y-189068780D02*
X198562978Y-189259257D01*
X198562978Y-189259257D02*
X198491549Y-189830685D01*
X198491549Y-189830685D02*
X198372502Y-190021161D01*
X198372502Y-190021161D02*
X198265359Y-190116400D01*
X198265359Y-190116400D02*
X198062978Y-190211638D01*
X198062978Y-190211638D02*
X197777264Y-190211638D01*
X199301073Y-190211638D02*
X199467740Y-188878304D01*
X199420121Y-189259257D02*
X199539168Y-189068780D01*
X199539168Y-189068780D02*
X199646311Y-188973542D01*
X199646311Y-188973542D02*
X199848692Y-188878304D01*
X199848692Y-188878304D02*
X200039168Y-188878304D01*
X201979645Y-190116400D02*
X202253454Y-190211638D01*
X202253454Y-190211638D02*
X202729645Y-190211638D01*
X202729645Y-190211638D02*
X202932026Y-190116400D01*
X202932026Y-190116400D02*
X203039169Y-190021161D01*
X203039169Y-190021161D02*
X203158216Y-189830685D01*
X203158216Y-189830685D02*
X203182026Y-189640209D01*
X203182026Y-189640209D02*
X203110597Y-189449733D01*
X203110597Y-189449733D02*
X203027264Y-189354495D01*
X203027264Y-189354495D02*
X202848693Y-189259257D01*
X202848693Y-189259257D02*
X202479645Y-189164019D01*
X202479645Y-189164019D02*
X202301073Y-189068780D01*
X202301073Y-189068780D02*
X202217740Y-188973542D01*
X202217740Y-188973542D02*
X202146312Y-188783066D01*
X202146312Y-188783066D02*
X202170121Y-188592590D01*
X202170121Y-188592590D02*
X202289169Y-188402114D01*
X202289169Y-188402114D02*
X202396312Y-188306876D01*
X202396312Y-188306876D02*
X202598693Y-188211638D01*
X202598693Y-188211638D02*
X203074883Y-188211638D01*
X203074883Y-188211638D02*
X203348693Y-188306876D01*
X204824883Y-190211638D02*
X204955835Y-189164019D01*
X204955835Y-189164019D02*
X204884407Y-188973542D01*
X204884407Y-188973542D02*
X204705835Y-188878304D01*
X204705835Y-188878304D02*
X204324883Y-188878304D01*
X204324883Y-188878304D02*
X204122502Y-188973542D01*
X204836788Y-190116400D02*
X204634407Y-190211638D01*
X204634407Y-190211638D02*
X204158216Y-190211638D01*
X204158216Y-190211638D02*
X203979645Y-190116400D01*
X203979645Y-190116400D02*
X203908216Y-189925923D01*
X203908216Y-189925923D02*
X203932026Y-189735447D01*
X203932026Y-189735447D02*
X204051074Y-189544971D01*
X204051074Y-189544971D02*
X204253455Y-189449733D01*
X204253455Y-189449733D02*
X204729645Y-189449733D01*
X204729645Y-189449733D02*
X204932026Y-189354495D01*
X205943931Y-188878304D02*
X205777264Y-190211638D01*
X205920121Y-189068780D02*
X206027264Y-188973542D01*
X206027264Y-188973542D02*
X206229645Y-188878304D01*
X206229645Y-188878304D02*
X206515359Y-188878304D01*
X206515359Y-188878304D02*
X206693931Y-188973542D01*
X206693931Y-188973542D02*
X206765359Y-189164019D01*
X206765359Y-189164019D02*
X206634407Y-190211638D01*
X207586788Y-190211638D02*
X207753455Y-188878304D01*
X207836788Y-188211638D02*
X207729645Y-188306876D01*
X207729645Y-188306876D02*
X207812979Y-188402114D01*
X207812979Y-188402114D02*
X207920122Y-188306876D01*
X207920122Y-188306876D02*
X207836788Y-188211638D01*
X207836788Y-188211638D02*
X207812979Y-188402114D01*
X208420122Y-188878304D02*
X209182026Y-188878304D01*
X208789169Y-188211638D02*
X208574884Y-189925923D01*
X208574884Y-189925923D02*
X208646312Y-190116400D01*
X208646312Y-190116400D02*
X208824884Y-190211638D01*
X208824884Y-190211638D02*
X209015360Y-190211638D01*
X209682026Y-190211638D02*
X209848693Y-188878304D01*
X209932026Y-188211638D02*
X209824883Y-188306876D01*
X209824883Y-188306876D02*
X209908217Y-188402114D01*
X209908217Y-188402114D02*
X210015360Y-188306876D01*
X210015360Y-188306876D02*
X209932026Y-188211638D01*
X209932026Y-188211638D02*
X209908217Y-188402114D01*
X210610598Y-188878304D02*
X211658217Y-188878304D01*
X211658217Y-188878304D02*
X210443931Y-190211638D01*
X210443931Y-190211638D02*
X211491550Y-190211638D01*
X213110598Y-190211638D02*
X213241550Y-189164019D01*
X213241550Y-189164019D02*
X213170122Y-188973542D01*
X213170122Y-188973542D02*
X212991550Y-188878304D01*
X212991550Y-188878304D02*
X212610598Y-188878304D01*
X212610598Y-188878304D02*
X212408217Y-188973542D01*
X213122503Y-190116400D02*
X212920122Y-190211638D01*
X212920122Y-190211638D02*
X212443931Y-190211638D01*
X212443931Y-190211638D02*
X212265360Y-190116400D01*
X212265360Y-190116400D02*
X212193931Y-189925923D01*
X212193931Y-189925923D02*
X212217741Y-189735447D01*
X212217741Y-189735447D02*
X212336789Y-189544971D01*
X212336789Y-189544971D02*
X212539170Y-189449733D01*
X212539170Y-189449733D02*
X213015360Y-189449733D01*
X213015360Y-189449733D02*
X213217741Y-189354495D01*
X213943932Y-188878304D02*
X214705836Y-188878304D01*
X214312979Y-188211638D02*
X214098694Y-189925923D01*
X214098694Y-189925923D02*
X214170122Y-190116400D01*
X214170122Y-190116400D02*
X214348694Y-190211638D01*
X214348694Y-190211638D02*
X214539170Y-190211638D01*
X215205836Y-190211638D02*
X215372503Y-188878304D01*
X215455836Y-188211638D02*
X215348693Y-188306876D01*
X215348693Y-188306876D02*
X215432027Y-188402114D01*
X215432027Y-188402114D02*
X215539170Y-188306876D01*
X215539170Y-188306876D02*
X215455836Y-188211638D01*
X215455836Y-188211638D02*
X215432027Y-188402114D01*
X216443932Y-190211638D02*
X216265360Y-190116400D01*
X216265360Y-190116400D02*
X216182027Y-190021161D01*
X216182027Y-190021161D02*
X216110598Y-189830685D01*
X216110598Y-189830685D02*
X216182027Y-189259257D01*
X216182027Y-189259257D02*
X216301074Y-189068780D01*
X216301074Y-189068780D02*
X216408217Y-188973542D01*
X216408217Y-188973542D02*
X216610598Y-188878304D01*
X216610598Y-188878304D02*
X216896312Y-188878304D01*
X216896312Y-188878304D02*
X217074884Y-188973542D01*
X217074884Y-188973542D02*
X217158217Y-189068780D01*
X217158217Y-189068780D02*
X217229646Y-189259257D01*
X217229646Y-189259257D02*
X217158217Y-189830685D01*
X217158217Y-189830685D02*
X217039170Y-190021161D01*
X217039170Y-190021161D02*
X216932027Y-190116400D01*
X216932027Y-190116400D02*
X216729646Y-190211638D01*
X216729646Y-190211638D02*
X216443932Y-190211638D01*
X218134408Y-188878304D02*
X217967741Y-190211638D01*
X218110598Y-189068780D02*
X218217741Y-188973542D01*
X218217741Y-188973542D02*
X218420122Y-188878304D01*
X218420122Y-188878304D02*
X218705836Y-188878304D01*
X218705836Y-188878304D02*
X218884408Y-188973542D01*
X218884408Y-188973542D02*
X218955836Y-189164019D01*
X218955836Y-189164019D02*
X218824884Y-190211638D01*
X221551075Y-188211638D02*
X221348694Y-189830685D01*
X221348694Y-189830685D02*
X221420123Y-190021161D01*
X221420123Y-190021161D02*
X221503456Y-190116400D01*
X221503456Y-190116400D02*
X221682028Y-190211638D01*
X221682028Y-190211638D02*
X222062980Y-190211638D01*
X222062980Y-190211638D02*
X222265361Y-190116400D01*
X222265361Y-190116400D02*
X222372504Y-190021161D01*
X222372504Y-190021161D02*
X222491551Y-189830685D01*
X222491551Y-189830685D02*
X222693932Y-188211638D01*
X223562980Y-188878304D02*
X223396313Y-190211638D01*
X223539170Y-189068780D02*
X223646313Y-188973542D01*
X223646313Y-188973542D02*
X223848694Y-188878304D01*
X223848694Y-188878304D02*
X224134408Y-188878304D01*
X224134408Y-188878304D02*
X224312980Y-188973542D01*
X224312980Y-188973542D02*
X224384408Y-189164019D01*
X224384408Y-189164019D02*
X224253456Y-190211638D01*
X225205837Y-190211638D02*
X225372504Y-188878304D01*
X225455837Y-188211638D02*
X225348694Y-188306876D01*
X225348694Y-188306876D02*
X225432028Y-188402114D01*
X225432028Y-188402114D02*
X225539171Y-188306876D01*
X225539171Y-188306876D02*
X225455837Y-188211638D01*
X225455837Y-188211638D02*
X225432028Y-188402114D01*
X226039171Y-188878304D02*
X226801075Y-188878304D01*
X226408218Y-188211638D02*
X226193933Y-189925923D01*
X226193933Y-189925923D02*
X226265361Y-190116400D01*
X226265361Y-190116400D02*
X226443933Y-190211638D01*
X226443933Y-190211638D02*
X226634409Y-190211638D01*
D10*
X178958026Y-185607614D02*
X178458026Y-185607614D01*
X178458026Y-186393328D02*
X178458026Y-184893328D01*
X178458026Y-184893328D02*
X179172312Y-184893328D01*
X179743740Y-186393328D02*
X179743740Y-185393328D01*
X179743740Y-184893328D02*
X179672312Y-184964757D01*
X179672312Y-184964757D02*
X179743740Y-185036185D01*
X179743740Y-185036185D02*
X179815169Y-184964757D01*
X179815169Y-184964757D02*
X179743740Y-184893328D01*
X179743740Y-184893328D02*
X179743740Y-185036185D01*
X180672312Y-186393328D02*
X180529455Y-186321900D01*
X180529455Y-186321900D02*
X180458026Y-186179042D01*
X180458026Y-186179042D02*
X180458026Y-184893328D01*
X181815169Y-186321900D02*
X181672312Y-186393328D01*
X181672312Y-186393328D02*
X181386598Y-186393328D01*
X181386598Y-186393328D02*
X181243740Y-186321900D01*
X181243740Y-186321900D02*
X181172312Y-186179042D01*
X181172312Y-186179042D02*
X181172312Y-185607614D01*
X181172312Y-185607614D02*
X181243740Y-185464757D01*
X181243740Y-185464757D02*
X181386598Y-185393328D01*
X181386598Y-185393328D02*
X181672312Y-185393328D01*
X181672312Y-185393328D02*
X181815169Y-185464757D01*
X181815169Y-185464757D02*
X181886598Y-185607614D01*
X181886598Y-185607614D02*
X181886598Y-185750471D01*
X181886598Y-185750471D02*
X181172312Y-185893328D01*
X182529454Y-186250471D02*
X182600883Y-186321900D01*
X182600883Y-186321900D02*
X182529454Y-186393328D01*
X182529454Y-186393328D02*
X182458026Y-186321900D01*
X182458026Y-186321900D02*
X182529454Y-186250471D01*
X182529454Y-186250471D02*
X182529454Y-186393328D01*
X182529454Y-185464757D02*
X182600883Y-185536185D01*
X182600883Y-185536185D02*
X182529454Y-185607614D01*
X182529454Y-185607614D02*
X182458026Y-185536185D01*
X182458026Y-185536185D02*
X182529454Y-185464757D01*
X182529454Y-185464757D02*
X182529454Y-185607614D01*
X184386597Y-185393328D02*
X184386597Y-186893328D01*
X184386597Y-185464757D02*
X184529455Y-185393328D01*
X184529455Y-185393328D02*
X184815169Y-185393328D01*
X184815169Y-185393328D02*
X184958026Y-185464757D01*
X184958026Y-185464757D02*
X185029455Y-185536185D01*
X185029455Y-185536185D02*
X185100883Y-185679042D01*
X185100883Y-185679042D02*
X185100883Y-186107614D01*
X185100883Y-186107614D02*
X185029455Y-186250471D01*
X185029455Y-186250471D02*
X184958026Y-186321900D01*
X184958026Y-186321900D02*
X184815169Y-186393328D01*
X184815169Y-186393328D02*
X184529455Y-186393328D01*
X184529455Y-186393328D02*
X184386597Y-186321900D01*
X186386598Y-186321900D02*
X186243740Y-186393328D01*
X186243740Y-186393328D02*
X185958026Y-186393328D01*
X185958026Y-186393328D02*
X185815169Y-186321900D01*
X185815169Y-186321900D02*
X185743740Y-186250471D01*
X185743740Y-186250471D02*
X185672312Y-186107614D01*
X185672312Y-186107614D02*
X185672312Y-185679042D01*
X185672312Y-185679042D02*
X185743740Y-185536185D01*
X185743740Y-185536185D02*
X185815169Y-185464757D01*
X185815169Y-185464757D02*
X185958026Y-185393328D01*
X185958026Y-185393328D02*
X186243740Y-185393328D01*
X186243740Y-185393328D02*
X186386598Y-185464757D01*
X187029454Y-186393328D02*
X187029454Y-184893328D01*
X187029454Y-185464757D02*
X187172312Y-185393328D01*
X187172312Y-185393328D02*
X187458026Y-185393328D01*
X187458026Y-185393328D02*
X187600883Y-185464757D01*
X187600883Y-185464757D02*
X187672312Y-185536185D01*
X187672312Y-185536185D02*
X187743740Y-185679042D01*
X187743740Y-185679042D02*
X187743740Y-186107614D01*
X187743740Y-186107614D02*
X187672312Y-186250471D01*
X187672312Y-186250471D02*
X187600883Y-186321900D01*
X187600883Y-186321900D02*
X187458026Y-186393328D01*
X187458026Y-186393328D02*
X187172312Y-186393328D01*
X187172312Y-186393328D02*
X187029454Y-186321900D01*
X188029455Y-186536185D02*
X189172312Y-186536185D01*
X189815169Y-184893328D02*
X189958026Y-184893328D01*
X189958026Y-184893328D02*
X190100883Y-184964757D01*
X190100883Y-184964757D02*
X190172312Y-185036185D01*
X190172312Y-185036185D02*
X190243740Y-185179042D01*
X190243740Y-185179042D02*
X190315169Y-185464757D01*
X190315169Y-185464757D02*
X190315169Y-185821900D01*
X190315169Y-185821900D02*
X190243740Y-186107614D01*
X190243740Y-186107614D02*
X190172312Y-186250471D01*
X190172312Y-186250471D02*
X190100883Y-186321900D01*
X190100883Y-186321900D02*
X189958026Y-186393328D01*
X189958026Y-186393328D02*
X189815169Y-186393328D01*
X189815169Y-186393328D02*
X189672312Y-186321900D01*
X189672312Y-186321900D02*
X189600883Y-186250471D01*
X189600883Y-186250471D02*
X189529454Y-186107614D01*
X189529454Y-186107614D02*
X189458026Y-185821900D01*
X189458026Y-185821900D02*
X189458026Y-185464757D01*
X189458026Y-185464757D02*
X189529454Y-185179042D01*
X189529454Y-185179042D02*
X189600883Y-185036185D01*
X189600883Y-185036185D02*
X189672312Y-184964757D01*
X189672312Y-184964757D02*
X189815169Y-184893328D01*
X190886597Y-185036185D02*
X190958025Y-184964757D01*
X190958025Y-184964757D02*
X191100883Y-184893328D01*
X191100883Y-184893328D02*
X191458025Y-184893328D01*
X191458025Y-184893328D02*
X191600883Y-184964757D01*
X191600883Y-184964757D02*
X191672311Y-185036185D01*
X191672311Y-185036185D02*
X191743740Y-185179042D01*
X191743740Y-185179042D02*
X191743740Y-185321900D01*
X191743740Y-185321900D02*
X191672311Y-185536185D01*
X191672311Y-185536185D02*
X190815168Y-186393328D01*
X190815168Y-186393328D02*
X191743740Y-186393328D01*
X192315168Y-185036185D02*
X192386596Y-184964757D01*
X192386596Y-184964757D02*
X192529454Y-184893328D01*
X192529454Y-184893328D02*
X192886596Y-184893328D01*
X192886596Y-184893328D02*
X193029454Y-184964757D01*
X193029454Y-184964757D02*
X193100882Y-185036185D01*
X193100882Y-185036185D02*
X193172311Y-185179042D01*
X193172311Y-185179042D02*
X193172311Y-185321900D01*
X193172311Y-185321900D02*
X193100882Y-185536185D01*
X193100882Y-185536185D02*
X192243739Y-186393328D01*
X192243739Y-186393328D02*
X193172311Y-186393328D01*
X193743739Y-185036185D02*
X193815167Y-184964757D01*
X193815167Y-184964757D02*
X193958025Y-184893328D01*
X193958025Y-184893328D02*
X194315167Y-184893328D01*
X194315167Y-184893328D02*
X194458025Y-184964757D01*
X194458025Y-184964757D02*
X194529453Y-185036185D01*
X194529453Y-185036185D02*
X194600882Y-185179042D01*
X194600882Y-185179042D02*
X194600882Y-185321900D01*
X194600882Y-185321900D02*
X194529453Y-185536185D01*
X194529453Y-185536185D02*
X193672310Y-186393328D01*
X193672310Y-186393328D02*
X194600882Y-186393328D01*
X195243738Y-186250471D02*
X195315167Y-186321900D01*
X195315167Y-186321900D02*
X195243738Y-186393328D01*
X195243738Y-186393328D02*
X195172310Y-186321900D01*
X195172310Y-186321900D02*
X195243738Y-186250471D01*
X195243738Y-186250471D02*
X195243738Y-186393328D01*
X195958024Y-186393328D02*
X195958024Y-184893328D01*
X196100882Y-185821900D02*
X196529453Y-186393328D01*
X196529453Y-185393328D02*
X195958024Y-185964757D01*
X197172310Y-186393328D02*
X197172310Y-185393328D01*
X197172310Y-184893328D02*
X197100882Y-184964757D01*
X197100882Y-184964757D02*
X197172310Y-185036185D01*
X197172310Y-185036185D02*
X197243739Y-184964757D01*
X197243739Y-184964757D02*
X197172310Y-184893328D01*
X197172310Y-184893328D02*
X197172310Y-185036185D01*
X198529454Y-186321900D02*
X198386596Y-186393328D01*
X198386596Y-186393328D02*
X198100882Y-186393328D01*
X198100882Y-186393328D02*
X197958025Y-186321900D01*
X197958025Y-186321900D02*
X197886596Y-186250471D01*
X197886596Y-186250471D02*
X197815168Y-186107614D01*
X197815168Y-186107614D02*
X197815168Y-185679042D01*
X197815168Y-185679042D02*
X197886596Y-185536185D01*
X197886596Y-185536185D02*
X197958025Y-185464757D01*
X197958025Y-185464757D02*
X198100882Y-185393328D01*
X198100882Y-185393328D02*
X198386596Y-185393328D01*
X198386596Y-185393328D02*
X198529454Y-185464757D01*
X199815168Y-186393328D02*
X199815168Y-185607614D01*
X199815168Y-185607614D02*
X199743739Y-185464757D01*
X199743739Y-185464757D02*
X199600882Y-185393328D01*
X199600882Y-185393328D02*
X199315168Y-185393328D01*
X199315168Y-185393328D02*
X199172310Y-185464757D01*
X199815168Y-186321900D02*
X199672310Y-186393328D01*
X199672310Y-186393328D02*
X199315168Y-186393328D01*
X199315168Y-186393328D02*
X199172310Y-186321900D01*
X199172310Y-186321900D02*
X199100882Y-186179042D01*
X199100882Y-186179042D02*
X199100882Y-186036185D01*
X199100882Y-186036185D02*
X199172310Y-185893328D01*
X199172310Y-185893328D02*
X199315168Y-185821900D01*
X199315168Y-185821900D02*
X199672310Y-185821900D01*
X199672310Y-185821900D02*
X199815168Y-185750471D01*
X201172311Y-186393328D02*
X201172311Y-184893328D01*
X201172311Y-186321900D02*
X201029453Y-186393328D01*
X201029453Y-186393328D02*
X200743739Y-186393328D01*
X200743739Y-186393328D02*
X200600882Y-186321900D01*
X200600882Y-186321900D02*
X200529453Y-186250471D01*
X200529453Y-186250471D02*
X200458025Y-186107614D01*
X200458025Y-186107614D02*
X200458025Y-185679042D01*
X200458025Y-185679042D02*
X200529453Y-185536185D01*
X200529453Y-185536185D02*
X200600882Y-185464757D01*
X200600882Y-185464757D02*
X200743739Y-185393328D01*
X200743739Y-185393328D02*
X201029453Y-185393328D01*
X201029453Y-185393328D02*
X201172311Y-185464757D01*
X201529454Y-186536185D02*
X202672311Y-186536185D01*
X203029453Y-185393328D02*
X203029453Y-186893328D01*
X203029453Y-185464757D02*
X203172311Y-185393328D01*
X203172311Y-185393328D02*
X203458025Y-185393328D01*
X203458025Y-185393328D02*
X203600882Y-185464757D01*
X203600882Y-185464757D02*
X203672311Y-185536185D01*
X203672311Y-185536185D02*
X203743739Y-185679042D01*
X203743739Y-185679042D02*
X203743739Y-186107614D01*
X203743739Y-186107614D02*
X203672311Y-186250471D01*
X203672311Y-186250471D02*
X203600882Y-186321900D01*
X203600882Y-186321900D02*
X203458025Y-186393328D01*
X203458025Y-186393328D02*
X203172311Y-186393328D01*
X203172311Y-186393328D02*
X203029453Y-186321900D01*
X205029454Y-186321900D02*
X204886596Y-186393328D01*
X204886596Y-186393328D02*
X204600882Y-186393328D01*
X204600882Y-186393328D02*
X204458025Y-186321900D01*
X204458025Y-186321900D02*
X204386596Y-186250471D01*
X204386596Y-186250471D02*
X204315168Y-186107614D01*
X204315168Y-186107614D02*
X204315168Y-185679042D01*
X204315168Y-185679042D02*
X204386596Y-185536185D01*
X204386596Y-185536185D02*
X204458025Y-185464757D01*
X204458025Y-185464757D02*
X204600882Y-185393328D01*
X204600882Y-185393328D02*
X204886596Y-185393328D01*
X204886596Y-185393328D02*
X205029454Y-185464757D01*
X205672310Y-186393328D02*
X205672310Y-184893328D01*
X205672310Y-185464757D02*
X205815168Y-185393328D01*
X205815168Y-185393328D02*
X206100882Y-185393328D01*
X206100882Y-185393328D02*
X206243739Y-185464757D01*
X206243739Y-185464757D02*
X206315168Y-185536185D01*
X206315168Y-185536185D02*
X206386596Y-185679042D01*
X206386596Y-185679042D02*
X206386596Y-186107614D01*
X206386596Y-186107614D02*
X206315168Y-186250471D01*
X206315168Y-186250471D02*
X206243739Y-186321900D01*
X206243739Y-186321900D02*
X206100882Y-186393328D01*
X206100882Y-186393328D02*
X205815168Y-186393328D01*
X205815168Y-186393328D02*
X205672310Y-186321900D01*
X177002200Y-181507200D02*
X285002200Y-181507200D01*
X178386598Y-183621900D02*
X178600884Y-183693328D01*
X178600884Y-183693328D02*
X178958026Y-183693328D01*
X178958026Y-183693328D02*
X179100884Y-183621900D01*
X179100884Y-183621900D02*
X179172312Y-183550471D01*
X179172312Y-183550471D02*
X179243741Y-183407614D01*
X179243741Y-183407614D02*
X179243741Y-183264757D01*
X179243741Y-183264757D02*
X179172312Y-183121900D01*
X179172312Y-183121900D02*
X179100884Y-183050471D01*
X179100884Y-183050471D02*
X178958026Y-182979042D01*
X178958026Y-182979042D02*
X178672312Y-182907614D01*
X178672312Y-182907614D02*
X178529455Y-182836185D01*
X178529455Y-182836185D02*
X178458026Y-182764757D01*
X178458026Y-182764757D02*
X178386598Y-182621900D01*
X178386598Y-182621900D02*
X178386598Y-182479042D01*
X178386598Y-182479042D02*
X178458026Y-182336185D01*
X178458026Y-182336185D02*
X178529455Y-182264757D01*
X178529455Y-182264757D02*
X178672312Y-182193328D01*
X178672312Y-182193328D02*
X179029455Y-182193328D01*
X179029455Y-182193328D02*
X179243741Y-182264757D01*
X179886597Y-183693328D02*
X179886597Y-182193328D01*
X180529455Y-183693328D02*
X180529455Y-182907614D01*
X180529455Y-182907614D02*
X180458026Y-182764757D01*
X180458026Y-182764757D02*
X180315169Y-182693328D01*
X180315169Y-182693328D02*
X180100883Y-182693328D01*
X180100883Y-182693328D02*
X179958026Y-182764757D01*
X179958026Y-182764757D02*
X179886597Y-182836185D01*
X181815169Y-183621900D02*
X181672312Y-183693328D01*
X181672312Y-183693328D02*
X181386598Y-183693328D01*
X181386598Y-183693328D02*
X181243740Y-183621900D01*
X181243740Y-183621900D02*
X181172312Y-183479042D01*
X181172312Y-183479042D02*
X181172312Y-182907614D01*
X181172312Y-182907614D02*
X181243740Y-182764757D01*
X181243740Y-182764757D02*
X181386598Y-182693328D01*
X181386598Y-182693328D02*
X181672312Y-182693328D01*
X181672312Y-182693328D02*
X181815169Y-182764757D01*
X181815169Y-182764757D02*
X181886598Y-182907614D01*
X181886598Y-182907614D02*
X181886598Y-183050471D01*
X181886598Y-183050471D02*
X181172312Y-183193328D01*
X183100883Y-183621900D02*
X182958026Y-183693328D01*
X182958026Y-183693328D02*
X182672312Y-183693328D01*
X182672312Y-183693328D02*
X182529454Y-183621900D01*
X182529454Y-183621900D02*
X182458026Y-183479042D01*
X182458026Y-183479042D02*
X182458026Y-182907614D01*
X182458026Y-182907614D02*
X182529454Y-182764757D01*
X182529454Y-182764757D02*
X182672312Y-182693328D01*
X182672312Y-182693328D02*
X182958026Y-182693328D01*
X182958026Y-182693328D02*
X183100883Y-182764757D01*
X183100883Y-182764757D02*
X183172312Y-182907614D01*
X183172312Y-182907614D02*
X183172312Y-183050471D01*
X183172312Y-183050471D02*
X182458026Y-183193328D01*
X183600883Y-182693328D02*
X184172311Y-182693328D01*
X183815168Y-182193328D02*
X183815168Y-183479042D01*
X183815168Y-183479042D02*
X183886597Y-183621900D01*
X183886597Y-183621900D02*
X184029454Y-183693328D01*
X184029454Y-183693328D02*
X184172311Y-183693328D01*
X184672311Y-183550471D02*
X184743740Y-183621900D01*
X184743740Y-183621900D02*
X184672311Y-183693328D01*
X184672311Y-183693328D02*
X184600883Y-183621900D01*
X184600883Y-183621900D02*
X184672311Y-183550471D01*
X184672311Y-183550471D02*
X184672311Y-183693328D01*
X184672311Y-182764757D02*
X184743740Y-182836185D01*
X184743740Y-182836185D02*
X184672311Y-182907614D01*
X184672311Y-182907614D02*
X184600883Y-182836185D01*
X184600883Y-182836185D02*
X184672311Y-182764757D01*
X184672311Y-182764757D02*
X184672311Y-182907614D01*
D11*
X178556710Y-180685528D02*
X178556710Y-179185528D01*
X178556710Y-179185528D02*
X178913853Y-179185528D01*
X178913853Y-179185528D02*
X179128139Y-179256957D01*
X179128139Y-179256957D02*
X179270996Y-179399814D01*
X179270996Y-179399814D02*
X179342425Y-179542671D01*
X179342425Y-179542671D02*
X179413853Y-179828385D01*
X179413853Y-179828385D02*
X179413853Y-180042671D01*
X179413853Y-180042671D02*
X179342425Y-180328385D01*
X179342425Y-180328385D02*
X179270996Y-180471242D01*
X179270996Y-180471242D02*
X179128139Y-180614100D01*
X179128139Y-180614100D02*
X178913853Y-180685528D01*
X178913853Y-180685528D02*
X178556710Y-180685528D01*
X180628139Y-180614100D02*
X180485282Y-180685528D01*
X180485282Y-180685528D02*
X180199568Y-180685528D01*
X180199568Y-180685528D02*
X180056710Y-180614100D01*
X180056710Y-180614100D02*
X179985282Y-180471242D01*
X179985282Y-180471242D02*
X179985282Y-179899814D01*
X179985282Y-179899814D02*
X180056710Y-179756957D01*
X180056710Y-179756957D02*
X180199568Y-179685528D01*
X180199568Y-179685528D02*
X180485282Y-179685528D01*
X180485282Y-179685528D02*
X180628139Y-179756957D01*
X180628139Y-179756957D02*
X180699568Y-179899814D01*
X180699568Y-179899814D02*
X180699568Y-180042671D01*
X180699568Y-180042671D02*
X179985282Y-180185528D01*
X181270996Y-180614100D02*
X181413853Y-180685528D01*
X181413853Y-180685528D02*
X181699567Y-180685528D01*
X181699567Y-180685528D02*
X181842424Y-180614100D01*
X181842424Y-180614100D02*
X181913853Y-180471242D01*
X181913853Y-180471242D02*
X181913853Y-180399814D01*
X181913853Y-180399814D02*
X181842424Y-180256957D01*
X181842424Y-180256957D02*
X181699567Y-180185528D01*
X181699567Y-180185528D02*
X181485282Y-180185528D01*
X181485282Y-180185528D02*
X181342424Y-180114100D01*
X181342424Y-180114100D02*
X181270996Y-179971242D01*
X181270996Y-179971242D02*
X181270996Y-179899814D01*
X181270996Y-179899814D02*
X181342424Y-179756957D01*
X181342424Y-179756957D02*
X181485282Y-179685528D01*
X181485282Y-179685528D02*
X181699567Y-179685528D01*
X181699567Y-179685528D02*
X181842424Y-179756957D01*
X182556710Y-180685528D02*
X182556710Y-179685528D01*
X182556710Y-179185528D02*
X182485282Y-179256957D01*
X182485282Y-179256957D02*
X182556710Y-179328385D01*
X182556710Y-179328385D02*
X182628139Y-179256957D01*
X182628139Y-179256957D02*
X182556710Y-179185528D01*
X182556710Y-179185528D02*
X182556710Y-179328385D01*
X183913854Y-179685528D02*
X183913854Y-180899814D01*
X183913854Y-180899814D02*
X183842425Y-181042671D01*
X183842425Y-181042671D02*
X183770996Y-181114100D01*
X183770996Y-181114100D02*
X183628139Y-181185528D01*
X183628139Y-181185528D02*
X183413854Y-181185528D01*
X183413854Y-181185528D02*
X183270996Y-181114100D01*
X183913854Y-180614100D02*
X183770996Y-180685528D01*
X183770996Y-180685528D02*
X183485282Y-180685528D01*
X183485282Y-180685528D02*
X183342425Y-180614100D01*
X183342425Y-180614100D02*
X183270996Y-180542671D01*
X183270996Y-180542671D02*
X183199568Y-180399814D01*
X183199568Y-180399814D02*
X183199568Y-179971242D01*
X183199568Y-179971242D02*
X183270996Y-179828385D01*
X183270996Y-179828385D02*
X183342425Y-179756957D01*
X183342425Y-179756957D02*
X183485282Y-179685528D01*
X183485282Y-179685528D02*
X183770996Y-179685528D01*
X183770996Y-179685528D02*
X183913854Y-179756957D01*
X184628139Y-179685528D02*
X184628139Y-180685528D01*
X184628139Y-179828385D02*
X184699568Y-179756957D01*
X184699568Y-179756957D02*
X184842425Y-179685528D01*
X184842425Y-179685528D02*
X185056711Y-179685528D01*
X185056711Y-179685528D02*
X185199568Y-179756957D01*
X185199568Y-179756957D02*
X185270997Y-179899814D01*
X185270997Y-179899814D02*
X185270997Y-180685528D01*
X186556711Y-180614100D02*
X186413854Y-180685528D01*
X186413854Y-180685528D02*
X186128140Y-180685528D01*
X186128140Y-180685528D02*
X185985282Y-180614100D01*
X185985282Y-180614100D02*
X185913854Y-180471242D01*
X185913854Y-180471242D02*
X185913854Y-179899814D01*
X185913854Y-179899814D02*
X185985282Y-179756957D01*
X185985282Y-179756957D02*
X186128140Y-179685528D01*
X186128140Y-179685528D02*
X186413854Y-179685528D01*
X186413854Y-179685528D02*
X186556711Y-179756957D01*
X186556711Y-179756957D02*
X186628140Y-179899814D01*
X186628140Y-179899814D02*
X186628140Y-180042671D01*
X186628140Y-180042671D02*
X185913854Y-180185528D01*
X187913854Y-180685528D02*
X187913854Y-179185528D01*
X187913854Y-180614100D02*
X187770996Y-180685528D01*
X187770996Y-180685528D02*
X187485282Y-180685528D01*
X187485282Y-180685528D02*
X187342425Y-180614100D01*
X187342425Y-180614100D02*
X187270996Y-180542671D01*
X187270996Y-180542671D02*
X187199568Y-180399814D01*
X187199568Y-180399814D02*
X187199568Y-179971242D01*
X187199568Y-179971242D02*
X187270996Y-179828385D01*
X187270996Y-179828385D02*
X187342425Y-179756957D01*
X187342425Y-179756957D02*
X187485282Y-179685528D01*
X187485282Y-179685528D02*
X187770996Y-179685528D01*
X187770996Y-179685528D02*
X187913854Y-179756957D01*
X189770996Y-180685528D02*
X189770996Y-179185528D01*
X189770996Y-179756957D02*
X189913854Y-179685528D01*
X189913854Y-179685528D02*
X190199568Y-179685528D01*
X190199568Y-179685528D02*
X190342425Y-179756957D01*
X190342425Y-179756957D02*
X190413854Y-179828385D01*
X190413854Y-179828385D02*
X190485282Y-179971242D01*
X190485282Y-179971242D02*
X190485282Y-180399814D01*
X190485282Y-180399814D02*
X190413854Y-180542671D01*
X190413854Y-180542671D02*
X190342425Y-180614100D01*
X190342425Y-180614100D02*
X190199568Y-180685528D01*
X190199568Y-180685528D02*
X189913854Y-180685528D01*
X189913854Y-180685528D02*
X189770996Y-180614100D01*
X190985282Y-179685528D02*
X191342425Y-180685528D01*
X191699568Y-179685528D02*
X191342425Y-180685528D01*
X191342425Y-180685528D02*
X191199568Y-181042671D01*
X191199568Y-181042671D02*
X191128139Y-181114100D01*
X191128139Y-181114100D02*
X190985282Y-181185528D01*
X194128139Y-180685528D02*
X193413853Y-180685528D01*
X193413853Y-180685528D02*
X193413853Y-179185528D01*
X194842425Y-180685528D02*
X194699568Y-180614100D01*
X194699568Y-180614100D02*
X194628139Y-180542671D01*
X194628139Y-180542671D02*
X194556711Y-180399814D01*
X194556711Y-180399814D02*
X194556711Y-179971242D01*
X194556711Y-179971242D02*
X194628139Y-179828385D01*
X194628139Y-179828385D02*
X194699568Y-179756957D01*
X194699568Y-179756957D02*
X194842425Y-179685528D01*
X194842425Y-179685528D02*
X195056711Y-179685528D01*
X195056711Y-179685528D02*
X195199568Y-179756957D01*
X195199568Y-179756957D02*
X195270997Y-179828385D01*
X195270997Y-179828385D02*
X195342425Y-179971242D01*
X195342425Y-179971242D02*
X195342425Y-180399814D01*
X195342425Y-180399814D02*
X195270997Y-180542671D01*
X195270997Y-180542671D02*
X195199568Y-180614100D01*
X195199568Y-180614100D02*
X195056711Y-180685528D01*
X195056711Y-180685528D02*
X194842425Y-180685528D01*
X196628140Y-179685528D02*
X196628140Y-180899814D01*
X196628140Y-180899814D02*
X196556711Y-181042671D01*
X196556711Y-181042671D02*
X196485282Y-181114100D01*
X196485282Y-181114100D02*
X196342425Y-181185528D01*
X196342425Y-181185528D02*
X196128140Y-181185528D01*
X196128140Y-181185528D02*
X195985282Y-181114100D01*
X196628140Y-180614100D02*
X196485282Y-180685528D01*
X196485282Y-180685528D02*
X196199568Y-180685528D01*
X196199568Y-180685528D02*
X196056711Y-180614100D01*
X196056711Y-180614100D02*
X195985282Y-180542671D01*
X195985282Y-180542671D02*
X195913854Y-180399814D01*
X195913854Y-180399814D02*
X195913854Y-179971242D01*
X195913854Y-179971242D02*
X195985282Y-179828385D01*
X195985282Y-179828385D02*
X196056711Y-179756957D01*
X196056711Y-179756957D02*
X196199568Y-179685528D01*
X196199568Y-179685528D02*
X196485282Y-179685528D01*
X196485282Y-179685528D02*
X196628140Y-179756957D01*
X197342425Y-180685528D02*
X197342425Y-179685528D01*
X197342425Y-179185528D02*
X197270997Y-179256957D01*
X197270997Y-179256957D02*
X197342425Y-179328385D01*
X197342425Y-179328385D02*
X197413854Y-179256957D01*
X197413854Y-179256957D02*
X197342425Y-179185528D01*
X197342425Y-179185528D02*
X197342425Y-179328385D01*
X198699569Y-180614100D02*
X198556711Y-180685528D01*
X198556711Y-180685528D02*
X198270997Y-180685528D01*
X198270997Y-180685528D02*
X198128140Y-180614100D01*
X198128140Y-180614100D02*
X198056711Y-180542671D01*
X198056711Y-180542671D02*
X197985283Y-180399814D01*
X197985283Y-180399814D02*
X197985283Y-179971242D01*
X197985283Y-179971242D02*
X198056711Y-179828385D01*
X198056711Y-179828385D02*
X198128140Y-179756957D01*
X198128140Y-179756957D02*
X198270997Y-179685528D01*
X198270997Y-179685528D02*
X198556711Y-179685528D01*
X198556711Y-179685528D02*
X198699569Y-179756957D01*
X201342425Y-180685528D02*
X200842425Y-179971242D01*
X200485282Y-180685528D02*
X200485282Y-179185528D01*
X200485282Y-179185528D02*
X201056711Y-179185528D01*
X201056711Y-179185528D02*
X201199568Y-179256957D01*
X201199568Y-179256957D02*
X201270997Y-179328385D01*
X201270997Y-179328385D02*
X201342425Y-179471242D01*
X201342425Y-179471242D02*
X201342425Y-179685528D01*
X201342425Y-179685528D02*
X201270997Y-179828385D01*
X201270997Y-179828385D02*
X201199568Y-179899814D01*
X201199568Y-179899814D02*
X201056711Y-179971242D01*
X201056711Y-179971242D02*
X200485282Y-179971242D01*
X202556711Y-180614100D02*
X202413854Y-180685528D01*
X202413854Y-180685528D02*
X202128140Y-180685528D01*
X202128140Y-180685528D02*
X201985282Y-180614100D01*
X201985282Y-180614100D02*
X201913854Y-180471242D01*
X201913854Y-180471242D02*
X201913854Y-179899814D01*
X201913854Y-179899814D02*
X201985282Y-179756957D01*
X201985282Y-179756957D02*
X202128140Y-179685528D01*
X202128140Y-179685528D02*
X202413854Y-179685528D01*
X202413854Y-179685528D02*
X202556711Y-179756957D01*
X202556711Y-179756957D02*
X202628140Y-179899814D01*
X202628140Y-179899814D02*
X202628140Y-180042671D01*
X202628140Y-180042671D02*
X201913854Y-180185528D01*
X203485282Y-180685528D02*
X203342425Y-180614100D01*
X203342425Y-180614100D02*
X203270996Y-180471242D01*
X203270996Y-180471242D02*
X203270996Y-179185528D01*
X204056710Y-180685528D02*
X204056710Y-179685528D01*
X204056710Y-179185528D02*
X203985282Y-179256957D01*
X203985282Y-179256957D02*
X204056710Y-179328385D01*
X204056710Y-179328385D02*
X204128139Y-179256957D01*
X204128139Y-179256957D02*
X204056710Y-179185528D01*
X204056710Y-179185528D02*
X204056710Y-179328385D01*
X205413854Y-180685528D02*
X205413854Y-179899814D01*
X205413854Y-179899814D02*
X205342425Y-179756957D01*
X205342425Y-179756957D02*
X205199568Y-179685528D01*
X205199568Y-179685528D02*
X204913854Y-179685528D01*
X204913854Y-179685528D02*
X204770996Y-179756957D01*
X205413854Y-180614100D02*
X205270996Y-180685528D01*
X205270996Y-180685528D02*
X204913854Y-180685528D01*
X204913854Y-180685528D02*
X204770996Y-180614100D01*
X204770996Y-180614100D02*
X204699568Y-180471242D01*
X204699568Y-180471242D02*
X204699568Y-180328385D01*
X204699568Y-180328385D02*
X204770996Y-180185528D01*
X204770996Y-180185528D02*
X204913854Y-180114100D01*
X204913854Y-180114100D02*
X205270996Y-180114100D01*
X205270996Y-180114100D02*
X205413854Y-180042671D01*
X206128139Y-179685528D02*
X206128139Y-180685528D01*
X206128139Y-179828385D02*
X206199568Y-179756957D01*
X206199568Y-179756957D02*
X206342425Y-179685528D01*
X206342425Y-179685528D02*
X206556711Y-179685528D01*
X206556711Y-179685528D02*
X206699568Y-179756957D01*
X206699568Y-179756957D02*
X206770997Y-179899814D01*
X206770997Y-179899814D02*
X206770997Y-180685528D01*
X208128140Y-180614100D02*
X207985282Y-180685528D01*
X207985282Y-180685528D02*
X207699568Y-180685528D01*
X207699568Y-180685528D02*
X207556711Y-180614100D01*
X207556711Y-180614100D02*
X207485282Y-180542671D01*
X207485282Y-180542671D02*
X207413854Y-180399814D01*
X207413854Y-180399814D02*
X207413854Y-179971242D01*
X207413854Y-179971242D02*
X207485282Y-179828385D01*
X207485282Y-179828385D02*
X207556711Y-179756957D01*
X207556711Y-179756957D02*
X207699568Y-179685528D01*
X207699568Y-179685528D02*
X207985282Y-179685528D01*
X207985282Y-179685528D02*
X208128140Y-179756957D01*
X209342425Y-180614100D02*
X209199568Y-180685528D01*
X209199568Y-180685528D02*
X208913854Y-180685528D01*
X208913854Y-180685528D02*
X208770996Y-180614100D01*
X208770996Y-180614100D02*
X208699568Y-180471242D01*
X208699568Y-180471242D02*
X208699568Y-179899814D01*
X208699568Y-179899814D02*
X208770996Y-179756957D01*
X208770996Y-179756957D02*
X208913854Y-179685528D01*
X208913854Y-179685528D02*
X209199568Y-179685528D01*
X209199568Y-179685528D02*
X209342425Y-179756957D01*
X209342425Y-179756957D02*
X209413854Y-179899814D01*
X209413854Y-179899814D02*
X209413854Y-180042671D01*
X209413854Y-180042671D02*
X208699568Y-180185528D01*
X210985282Y-179685528D02*
X211556710Y-179685528D01*
X211199567Y-180685528D02*
X211199567Y-179399814D01*
X211199567Y-179399814D02*
X211270996Y-179256957D01*
X211270996Y-179256957D02*
X211413853Y-179185528D01*
X211413853Y-179185528D02*
X211556710Y-179185528D01*
X212270996Y-180685528D02*
X212128139Y-180614100D01*
X212128139Y-180614100D02*
X212056710Y-180542671D01*
X212056710Y-180542671D02*
X211985282Y-180399814D01*
X211985282Y-180399814D02*
X211985282Y-179971242D01*
X211985282Y-179971242D02*
X212056710Y-179828385D01*
X212056710Y-179828385D02*
X212128139Y-179756957D01*
X212128139Y-179756957D02*
X212270996Y-179685528D01*
X212270996Y-179685528D02*
X212485282Y-179685528D01*
X212485282Y-179685528D02*
X212628139Y-179756957D01*
X212628139Y-179756957D02*
X212699568Y-179828385D01*
X212699568Y-179828385D02*
X212770996Y-179971242D01*
X212770996Y-179971242D02*
X212770996Y-180399814D01*
X212770996Y-180399814D02*
X212699568Y-180542671D01*
X212699568Y-180542671D02*
X212628139Y-180614100D01*
X212628139Y-180614100D02*
X212485282Y-180685528D01*
X212485282Y-180685528D02*
X212270996Y-180685528D01*
X213413853Y-180685528D02*
X213413853Y-179685528D01*
X213413853Y-179971242D02*
X213485282Y-179828385D01*
X213485282Y-179828385D02*
X213556711Y-179756957D01*
X213556711Y-179756957D02*
X213699568Y-179685528D01*
X213699568Y-179685528D02*
X213842425Y-179685528D01*
X215413853Y-180614100D02*
X215628139Y-180685528D01*
X215628139Y-180685528D02*
X215985281Y-180685528D01*
X215985281Y-180685528D02*
X216128139Y-180614100D01*
X216128139Y-180614100D02*
X216199567Y-180542671D01*
X216199567Y-180542671D02*
X216270996Y-180399814D01*
X216270996Y-180399814D02*
X216270996Y-180256957D01*
X216270996Y-180256957D02*
X216199567Y-180114100D01*
X216199567Y-180114100D02*
X216128139Y-180042671D01*
X216128139Y-180042671D02*
X215985281Y-179971242D01*
X215985281Y-179971242D02*
X215699567Y-179899814D01*
X215699567Y-179899814D02*
X215556710Y-179828385D01*
X215556710Y-179828385D02*
X215485281Y-179756957D01*
X215485281Y-179756957D02*
X215413853Y-179614100D01*
X215413853Y-179614100D02*
X215413853Y-179471242D01*
X215413853Y-179471242D02*
X215485281Y-179328385D01*
X215485281Y-179328385D02*
X215556710Y-179256957D01*
X215556710Y-179256957D02*
X215699567Y-179185528D01*
X215699567Y-179185528D02*
X216056710Y-179185528D01*
X216056710Y-179185528D02*
X216270996Y-179256957D01*
X217556710Y-180685528D02*
X217556710Y-179899814D01*
X217556710Y-179899814D02*
X217485281Y-179756957D01*
X217485281Y-179756957D02*
X217342424Y-179685528D01*
X217342424Y-179685528D02*
X217056710Y-179685528D01*
X217056710Y-179685528D02*
X216913852Y-179756957D01*
X217556710Y-180614100D02*
X217413852Y-180685528D01*
X217413852Y-180685528D02*
X217056710Y-180685528D01*
X217056710Y-180685528D02*
X216913852Y-180614100D01*
X216913852Y-180614100D02*
X216842424Y-180471242D01*
X216842424Y-180471242D02*
X216842424Y-180328385D01*
X216842424Y-180328385D02*
X216913852Y-180185528D01*
X216913852Y-180185528D02*
X217056710Y-180114100D01*
X217056710Y-180114100D02*
X217413852Y-180114100D01*
X217413852Y-180114100D02*
X217556710Y-180042671D01*
X218056710Y-179685528D02*
X218628138Y-179685528D01*
X218270995Y-179185528D02*
X218270995Y-180471242D01*
X218270995Y-180471242D02*
X218342424Y-180614100D01*
X218342424Y-180614100D02*
X218485281Y-180685528D01*
X218485281Y-180685528D02*
X218628138Y-180685528D01*
X218985281Y-179685528D02*
X219342424Y-180685528D01*
X219342424Y-180685528D02*
X219699567Y-179685528D01*
X220270995Y-180685528D02*
X220270995Y-179685528D01*
X220270995Y-179185528D02*
X220199567Y-179256957D01*
X220199567Y-179256957D02*
X220270995Y-179328385D01*
X220270995Y-179328385D02*
X220342424Y-179256957D01*
X220342424Y-179256957D02*
X220270995Y-179185528D01*
X220270995Y-179185528D02*
X220270995Y-179328385D01*
X221556710Y-180614100D02*
X221413853Y-180685528D01*
X221413853Y-180685528D02*
X221128139Y-180685528D01*
X221128139Y-180685528D02*
X220985281Y-180614100D01*
X220985281Y-180614100D02*
X220913853Y-180471242D01*
X220913853Y-180471242D02*
X220913853Y-179899814D01*
X220913853Y-179899814D02*
X220985281Y-179756957D01*
X220985281Y-179756957D02*
X221128139Y-179685528D01*
X221128139Y-179685528D02*
X221413853Y-179685528D01*
X221413853Y-179685528D02*
X221556710Y-179756957D01*
X221556710Y-179756957D02*
X221628139Y-179899814D01*
X221628139Y-179899814D02*
X221628139Y-180042671D01*
X221628139Y-180042671D02*
X220913853Y-180185528D01*
X222128138Y-179685528D02*
X222413853Y-180685528D01*
X222413853Y-180685528D02*
X222699567Y-179971242D01*
X222699567Y-179971242D02*
X222985281Y-180685528D01*
X222985281Y-180685528D02*
X223270995Y-179685528D01*
X225485281Y-179899814D02*
X225699567Y-179971242D01*
X225699567Y-179971242D02*
X225770996Y-180042671D01*
X225770996Y-180042671D02*
X225842424Y-180185528D01*
X225842424Y-180185528D02*
X225842424Y-180399814D01*
X225842424Y-180399814D02*
X225770996Y-180542671D01*
X225770996Y-180542671D02*
X225699567Y-180614100D01*
X225699567Y-180614100D02*
X225556710Y-180685528D01*
X225556710Y-180685528D02*
X224985281Y-180685528D01*
X224985281Y-180685528D02*
X224985281Y-179185528D01*
X224985281Y-179185528D02*
X225485281Y-179185528D01*
X225485281Y-179185528D02*
X225628139Y-179256957D01*
X225628139Y-179256957D02*
X225699567Y-179328385D01*
X225699567Y-179328385D02*
X225770996Y-179471242D01*
X225770996Y-179471242D02*
X225770996Y-179614100D01*
X225770996Y-179614100D02*
X225699567Y-179756957D01*
X225699567Y-179756957D02*
X225628139Y-179828385D01*
X225628139Y-179828385D02*
X225485281Y-179899814D01*
X225485281Y-179899814D02*
X224985281Y-179899814D01*
X226485281Y-180685528D02*
X226485281Y-179685528D01*
X226485281Y-179971242D02*
X226556710Y-179828385D01*
X226556710Y-179828385D02*
X226628139Y-179756957D01*
X226628139Y-179756957D02*
X226770996Y-179685528D01*
X226770996Y-179685528D02*
X226913853Y-179685528D01*
X227628138Y-180685528D02*
X227485281Y-180614100D01*
X227485281Y-180614100D02*
X227413852Y-180542671D01*
X227413852Y-180542671D02*
X227342424Y-180399814D01*
X227342424Y-180399814D02*
X227342424Y-179971242D01*
X227342424Y-179971242D02*
X227413852Y-179828385D01*
X227413852Y-179828385D02*
X227485281Y-179756957D01*
X227485281Y-179756957D02*
X227628138Y-179685528D01*
X227628138Y-179685528D02*
X227842424Y-179685528D01*
X227842424Y-179685528D02*
X227985281Y-179756957D01*
X227985281Y-179756957D02*
X228056710Y-179828385D01*
X228056710Y-179828385D02*
X228128138Y-179971242D01*
X228128138Y-179971242D02*
X228128138Y-180399814D01*
X228128138Y-180399814D02*
X228056710Y-180542671D01*
X228056710Y-180542671D02*
X227985281Y-180614100D01*
X227985281Y-180614100D02*
X227842424Y-180685528D01*
X227842424Y-180685528D02*
X227628138Y-180685528D01*
X229413853Y-180685528D02*
X229413853Y-179899814D01*
X229413853Y-179899814D02*
X229342424Y-179756957D01*
X229342424Y-179756957D02*
X229199567Y-179685528D01*
X229199567Y-179685528D02*
X228913853Y-179685528D01*
X228913853Y-179685528D02*
X228770995Y-179756957D01*
X229413853Y-180614100D02*
X229270995Y-180685528D01*
X229270995Y-180685528D02*
X228913853Y-180685528D01*
X228913853Y-180685528D02*
X228770995Y-180614100D01*
X228770995Y-180614100D02*
X228699567Y-180471242D01*
X228699567Y-180471242D02*
X228699567Y-180328385D01*
X228699567Y-180328385D02*
X228770995Y-180185528D01*
X228770995Y-180185528D02*
X228913853Y-180114100D01*
X228913853Y-180114100D02*
X229270995Y-180114100D01*
X229270995Y-180114100D02*
X229413853Y-180042671D01*
X230770996Y-180685528D02*
X230770996Y-179185528D01*
X230770996Y-180614100D02*
X230628138Y-180685528D01*
X230628138Y-180685528D02*
X230342424Y-180685528D01*
X230342424Y-180685528D02*
X230199567Y-180614100D01*
X230199567Y-180614100D02*
X230128138Y-180542671D01*
X230128138Y-180542671D02*
X230056710Y-180399814D01*
X230056710Y-180399814D02*
X230056710Y-179971242D01*
X230056710Y-179971242D02*
X230128138Y-179828385D01*
X230128138Y-179828385D02*
X230199567Y-179756957D01*
X230199567Y-179756957D02*
X230342424Y-179685528D01*
X230342424Y-179685528D02*
X230628138Y-179685528D01*
X230628138Y-179685528D02*
X230770996Y-179756957D01*
X231485281Y-180685528D02*
X231485281Y-179185528D01*
X231485281Y-179756957D02*
X231628139Y-179685528D01*
X231628139Y-179685528D02*
X231913853Y-179685528D01*
X231913853Y-179685528D02*
X232056710Y-179756957D01*
X232056710Y-179756957D02*
X232128139Y-179828385D01*
X232128139Y-179828385D02*
X232199567Y-179971242D01*
X232199567Y-179971242D02*
X232199567Y-180399814D01*
X232199567Y-180399814D02*
X232128139Y-180542671D01*
X232128139Y-180542671D02*
X232056710Y-180614100D01*
X232056710Y-180614100D02*
X231913853Y-180685528D01*
X231913853Y-180685528D02*
X231628139Y-180685528D01*
X231628139Y-180685528D02*
X231485281Y-180614100D01*
X233485282Y-180685528D02*
X233485282Y-179899814D01*
X233485282Y-179899814D02*
X233413853Y-179756957D01*
X233413853Y-179756957D02*
X233270996Y-179685528D01*
X233270996Y-179685528D02*
X232985282Y-179685528D01*
X232985282Y-179685528D02*
X232842424Y-179756957D01*
X233485282Y-180614100D02*
X233342424Y-180685528D01*
X233342424Y-180685528D02*
X232985282Y-180685528D01*
X232985282Y-180685528D02*
X232842424Y-180614100D01*
X232842424Y-180614100D02*
X232770996Y-180471242D01*
X232770996Y-180471242D02*
X232770996Y-180328385D01*
X232770996Y-180328385D02*
X232842424Y-180185528D01*
X232842424Y-180185528D02*
X232985282Y-180114100D01*
X232985282Y-180114100D02*
X233342424Y-180114100D01*
X233342424Y-180114100D02*
X233485282Y-180042671D01*
X234199567Y-179685528D02*
X234199567Y-180685528D01*
X234199567Y-179828385D02*
X234270996Y-179756957D01*
X234270996Y-179756957D02*
X234413853Y-179685528D01*
X234413853Y-179685528D02*
X234628139Y-179685528D01*
X234628139Y-179685528D02*
X234770996Y-179756957D01*
X234770996Y-179756957D02*
X234842425Y-179899814D01*
X234842425Y-179899814D02*
X234842425Y-180685528D01*
X236199568Y-180685528D02*
X236199568Y-179185528D01*
X236199568Y-180614100D02*
X236056710Y-180685528D01*
X236056710Y-180685528D02*
X235770996Y-180685528D01*
X235770996Y-180685528D02*
X235628139Y-180614100D01*
X235628139Y-180614100D02*
X235556710Y-180542671D01*
X235556710Y-180542671D02*
X235485282Y-180399814D01*
X235485282Y-180399814D02*
X235485282Y-179971242D01*
X235485282Y-179971242D02*
X235556710Y-179828385D01*
X235556710Y-179828385D02*
X235628139Y-179756957D01*
X235628139Y-179756957D02*
X235770996Y-179685528D01*
X235770996Y-179685528D02*
X236056710Y-179685528D01*
X236056710Y-179685528D02*
X236199568Y-179756957D01*
X238770996Y-180685528D02*
X238056710Y-180685528D01*
X238056710Y-180685528D02*
X238056710Y-179185528D01*
X239056711Y-179685528D02*
X239628139Y-179685528D01*
X239270996Y-179185528D02*
X239270996Y-180471242D01*
X239270996Y-180471242D02*
X239342425Y-180614100D01*
X239342425Y-180614100D02*
X239485282Y-180685528D01*
X239485282Y-180685528D02*
X239628139Y-180685528D01*
X240770997Y-180685528D02*
X240770997Y-179185528D01*
X240770997Y-180614100D02*
X240628139Y-180685528D01*
X240628139Y-180685528D02*
X240342425Y-180685528D01*
X240342425Y-180685528D02*
X240199568Y-180614100D01*
X240199568Y-180614100D02*
X240128139Y-180542671D01*
X240128139Y-180542671D02*
X240056711Y-180399814D01*
X240056711Y-180399814D02*
X240056711Y-179971242D01*
X240056711Y-179971242D02*
X240128139Y-179828385D01*
X240128139Y-179828385D02*
X240199568Y-179756957D01*
X240199568Y-179756957D02*
X240342425Y-179685528D01*
X240342425Y-179685528D02*
X240628139Y-179685528D01*
X240628139Y-179685528D02*
X240770997Y-179756957D01*
D10*
X197002200Y-191507200D02*
X197002200Y-194507200D01*
X261002200Y-191507200D02*
X261002200Y-198007200D01*
G36*
X119416876Y-131095272D02*
G01*
X119638291Y-131154600D01*
X119850067Y-131242320D01*
X120048581Y-131356933D01*
X120230438Y-131496476D01*
X120392524Y-131658562D01*
X120532067Y-131840419D01*
X120646680Y-132038933D01*
X120734400Y-132250709D01*
X120793728Y-132472124D01*
X120823648Y-132699388D01*
X120823648Y-132928612D01*
X120793728Y-133155876D01*
X120734400Y-133377291D01*
X120646680Y-133589067D01*
X120532067Y-133787581D01*
X120392524Y-133969438D01*
X120230438Y-134131524D01*
X120048581Y-134271067D01*
X119850067Y-134385680D01*
X119638291Y-134473400D01*
X119416876Y-134532728D01*
X119189612Y-134562648D01*
X118960388Y-134562648D01*
X118733124Y-134532728D01*
X118511709Y-134473400D01*
X118299933Y-134385680D01*
X118101419Y-134271067D01*
X117919562Y-134131524D01*
X117757476Y-133969438D01*
X117617933Y-133787581D01*
X117503320Y-133589067D01*
X117415600Y-133377291D01*
X117356272Y-133155876D01*
X117326352Y-132928612D01*
X117326352Y-132699388D01*
X117356272Y-132472124D01*
X117415600Y-132250709D01*
X117503320Y-132038933D01*
X117617933Y-131840419D01*
X117757476Y-131658562D01*
X117919562Y-131496476D01*
X118101419Y-131356933D01*
X118299933Y-131242320D01*
X118511709Y-131154600D01*
X118733124Y-131095272D01*
X118960388Y-131065352D01*
X119189612Y-131065352D01*
X119416876Y-131095272D01*
G37*
G36*
X189256876Y-131095272D02*
G01*
X189478291Y-131154600D01*
X189690067Y-131242320D01*
X189888581Y-131356933D01*
X190070438Y-131496476D01*
X190232524Y-131658562D01*
X190372067Y-131840419D01*
X190486680Y-132038933D01*
X190574400Y-132250709D01*
X190633728Y-132472124D01*
X190663648Y-132699388D01*
X190663648Y-132928612D01*
X190633728Y-133155876D01*
X190574400Y-133377291D01*
X190486680Y-133589067D01*
X190372067Y-133787581D01*
X190232524Y-133969438D01*
X190070438Y-134131524D01*
X189888581Y-134271067D01*
X189690067Y-134385680D01*
X189478291Y-134473400D01*
X189256876Y-134532728D01*
X189029612Y-134562648D01*
X188800388Y-134562648D01*
X188573124Y-134532728D01*
X188351709Y-134473400D01*
X188139933Y-134385680D01*
X187941419Y-134271067D01*
X187759562Y-134131524D01*
X187597476Y-133969438D01*
X187457933Y-133787581D01*
X187343320Y-133589067D01*
X187255600Y-133377291D01*
X187196272Y-133155876D01*
X187166352Y-132928612D01*
X187166352Y-132699388D01*
X187196272Y-132472124D01*
X187255600Y-132250709D01*
X187343320Y-132038933D01*
X187457933Y-131840419D01*
X187597476Y-131658562D01*
X187759562Y-131496476D01*
X187941419Y-131356933D01*
X188139933Y-131242320D01*
X188351709Y-131154600D01*
X188573124Y-131095272D01*
X188800388Y-131065352D01*
X189029612Y-131065352D01*
X189256876Y-131095272D01*
G37*
G36*
X152197034Y-130878764D02*
G01*
X152230125Y-130900875D01*
X152252236Y-130933966D01*
X152260000Y-130973000D01*
X152260000Y-132623000D01*
X152252236Y-132662034D01*
X152230125Y-132695125D01*
X152197034Y-132717236D01*
X152158000Y-132725000D01*
X150508000Y-132725000D01*
X150468966Y-132717236D01*
X150435875Y-132695125D01*
X150413764Y-132662034D01*
X150406000Y-132623000D01*
X150406000Y-130973000D01*
X150413764Y-130933966D01*
X150435875Y-130900875D01*
X150468966Y-130878764D01*
X150508000Y-130871000D01*
X152158000Y-130871000D01*
X152197034Y-130878764D01*
G37*
G36*
X149062094Y-130910916D02*
G01*
X149229985Y-130980459D01*
X149381083Y-131081419D01*
X149509581Y-131209917D01*
X149610541Y-131361015D01*
X149680084Y-131528906D01*
X149715536Y-131707138D01*
X149715536Y-131888862D01*
X149680084Y-132067094D01*
X149610541Y-132234985D01*
X149509581Y-132386083D01*
X149381083Y-132514581D01*
X149229985Y-132615541D01*
X149062094Y-132685084D01*
X148883862Y-132720536D01*
X148702138Y-132720536D01*
X148523906Y-132685084D01*
X148356015Y-132615541D01*
X148204917Y-132514581D01*
X148076419Y-132386083D01*
X147975459Y-132234985D01*
X147905916Y-132067094D01*
X147870464Y-131888862D01*
X147870464Y-131707138D01*
X147905916Y-131528906D01*
X147975459Y-131361015D01*
X148076419Y-131209917D01*
X148204917Y-131081419D01*
X148356015Y-130980459D01*
X148523906Y-130910916D01*
X148702138Y-130875464D01*
X148883862Y-130875464D01*
X149062094Y-130910916D01*
G37*
G36*
X171793299Y-129315417D02*
G01*
X171827039Y-129337961D01*
X171849583Y-129371701D01*
X171857500Y-129411500D01*
X171857500Y-131136500D01*
X171849583Y-131176299D01*
X171827039Y-131210039D01*
X171793299Y-131232583D01*
X171753500Y-131240500D01*
X170028500Y-131240500D01*
X169988701Y-131232583D01*
X169954961Y-131210039D01*
X169932417Y-131176299D01*
X169924500Y-131136500D01*
X169924500Y-129411500D01*
X169932417Y-129371701D01*
X169954961Y-129337961D01*
X169988701Y-129315417D01*
X170028500Y-129307500D01*
X171753500Y-129307500D01*
X171793299Y-129315417D01*
G37*
G36*
X139634746Y-128428788D02*
G01*
X139820488Y-128489140D01*
X139994502Y-128577804D01*
X140152503Y-128692599D01*
X140290601Y-128830697D01*
X140405396Y-128988698D01*
X140494060Y-129162712D01*
X140554412Y-129348454D01*
X140584963Y-129541350D01*
X140584963Y-129736650D01*
X140554412Y-129929546D01*
X140494060Y-130115288D01*
X140405396Y-130289302D01*
X140290601Y-130447303D01*
X140152503Y-130585401D01*
X139994502Y-130700196D01*
X139820488Y-130788860D01*
X139634746Y-130849212D01*
X139441850Y-130879763D01*
X139246550Y-130879763D01*
X139053654Y-130849212D01*
X138867912Y-130788860D01*
X138693898Y-130700196D01*
X138535897Y-130585401D01*
X138397799Y-130447303D01*
X138283004Y-130289302D01*
X138194340Y-130115288D01*
X138133988Y-129929546D01*
X138103437Y-129736650D01*
X138103437Y-129541350D01*
X138133988Y-129348454D01*
X138194340Y-129162712D01*
X138283004Y-128988698D01*
X138397799Y-128830697D01*
X138535897Y-128692599D01*
X138693898Y-128577804D01*
X138867912Y-128489140D01*
X139053654Y-128428788D01*
X139246550Y-128398237D01*
X139441850Y-128398237D01*
X139634746Y-128428788D01*
G37*
G36*
X142809746Y-128428788D02*
G01*
X142995488Y-128489140D01*
X143169502Y-128577804D01*
X143327503Y-128692599D01*
X143465601Y-128830697D01*
X143580396Y-128988698D01*
X143669060Y-129162712D01*
X143729412Y-129348454D01*
X143759963Y-129541350D01*
X143759963Y-129736650D01*
X143729412Y-129929546D01*
X143669060Y-130115288D01*
X143580396Y-130289302D01*
X143465601Y-130447303D01*
X143327503Y-130585401D01*
X143169502Y-130700196D01*
X142995488Y-130788860D01*
X142809746Y-130849212D01*
X142616850Y-130879763D01*
X142421550Y-130879763D01*
X142228654Y-130849212D01*
X142042912Y-130788860D01*
X141868898Y-130700196D01*
X141710897Y-130585401D01*
X141572799Y-130447303D01*
X141458004Y-130289302D01*
X141369340Y-130115288D01*
X141308988Y-129929546D01*
X141278437Y-129736650D01*
X141278437Y-129541350D01*
X141308988Y-129348454D01*
X141369340Y-129162712D01*
X141458004Y-128988698D01*
X141572799Y-128830697D01*
X141710897Y-128692599D01*
X141868898Y-128577804D01*
X142042912Y-128489140D01*
X142228654Y-128428788D01*
X142421550Y-128398237D01*
X142616850Y-128398237D01*
X142809746Y-128428788D01*
G37*
G36*
X171171560Y-126809117D02*
G01*
X171346605Y-126881623D01*
X171504141Y-126986885D01*
X171638115Y-127120859D01*
X171743377Y-127278395D01*
X171815883Y-127453440D01*
X171852846Y-127639266D01*
X171852846Y-127828734D01*
X171815883Y-128014560D01*
X171743377Y-128189605D01*
X171638115Y-128347141D01*
X171504141Y-128481115D01*
X171346605Y-128586377D01*
X171171560Y-128658883D01*
X170985734Y-128695846D01*
X170796266Y-128695846D01*
X170610440Y-128658883D01*
X170435395Y-128586377D01*
X170277859Y-128481115D01*
X170143885Y-128347141D01*
X170038623Y-128189605D01*
X169966117Y-128014560D01*
X169929154Y-127828734D01*
X169929154Y-127639266D01*
X169966117Y-127453440D01*
X170038623Y-127278395D01*
X170143885Y-127120859D01*
X170277859Y-126986885D01*
X170435395Y-126881623D01*
X170610440Y-126809117D01*
X170796266Y-126772154D01*
X170985734Y-126772154D01*
X171171560Y-126809117D01*
G37*
G36*
X144633183Y-127610469D02*
G01*
X144756645Y-127681750D01*
X144857450Y-127782555D01*
X144928731Y-127906017D01*
X144965628Y-128043720D01*
X144965628Y-128186280D01*
X144928731Y-128323983D01*
X144857450Y-128447445D01*
X144756645Y-128548250D01*
X144633183Y-128619531D01*
X144495480Y-128656428D01*
X144352920Y-128656428D01*
X144215217Y-128619531D01*
X144091755Y-128548250D01*
X143990950Y-128447445D01*
X143919669Y-128323983D01*
X143882772Y-128186280D01*
X143882772Y-128043720D01*
X143919669Y-127906017D01*
X143990950Y-127782555D01*
X144091755Y-127681750D01*
X144215217Y-127610469D01*
X144352920Y-127573572D01*
X144495480Y-127573572D01*
X144633183Y-127610469D01*
G37*
G36*
X139553183Y-126594469D02*
G01*
X139676645Y-126665750D01*
X139777450Y-126766555D01*
X139848731Y-126890017D01*
X139885628Y-127027720D01*
X139885628Y-127170280D01*
X139848731Y-127307983D01*
X139777450Y-127431445D01*
X139676645Y-127532250D01*
X139553183Y-127603531D01*
X139415480Y-127640428D01*
X139272920Y-127640428D01*
X139135217Y-127603531D01*
X139011755Y-127532250D01*
X138910950Y-127431445D01*
X138839669Y-127307983D01*
X138802772Y-127170280D01*
X138802772Y-127027720D01*
X138839669Y-126890017D01*
X138910950Y-126766555D01*
X139011755Y-126665750D01*
X139135217Y-126594469D01*
X139272920Y-126557572D01*
X139415480Y-126557572D01*
X139553183Y-126594469D01*
G37*
G36*
X125254543Y-124896804D02*
G01*
X125366520Y-124961454D01*
X125457948Y-125052882D01*
X125522598Y-125164859D01*
X125556063Y-125289752D01*
X125560300Y-125354402D01*
X125560300Y-126573602D01*
X125556063Y-126638252D01*
X125522598Y-126763145D01*
X125457948Y-126875122D01*
X125366520Y-126966550D01*
X125254543Y-127031200D01*
X125129650Y-127064665D01*
X125000350Y-127064665D01*
X124875457Y-127031200D01*
X124763480Y-126966550D01*
X124672052Y-126875122D01*
X124607402Y-126763145D01*
X124573937Y-126638252D01*
X124569700Y-126573602D01*
X124569700Y-125354402D01*
X124573937Y-125289752D01*
X124607402Y-125164859D01*
X124672052Y-125052882D01*
X124763480Y-124961454D01*
X124875457Y-124896804D01*
X125000350Y-124863339D01*
X125129650Y-124863339D01*
X125254543Y-124896804D01*
G37*
G36*
X144633183Y-125578469D02*
G01*
X144756645Y-125649750D01*
X144857450Y-125750555D01*
X144928731Y-125874017D01*
X144965628Y-126011720D01*
X144965628Y-126154280D01*
X144928731Y-126291983D01*
X144857450Y-126415445D01*
X144756645Y-126516250D01*
X144633183Y-126587531D01*
X144495480Y-126624428D01*
X144352920Y-126624428D01*
X144215217Y-126587531D01*
X144091755Y-126516250D01*
X143990950Y-126415445D01*
X143919669Y-126291983D01*
X143882772Y-126154280D01*
X143882772Y-126011720D01*
X143919669Y-125874017D01*
X143990950Y-125750555D01*
X144091755Y-125649750D01*
X144215217Y-125578469D01*
X144352920Y-125541572D01*
X144495480Y-125541572D01*
X144633183Y-125578469D01*
G37*
G36*
X171171560Y-124269117D02*
G01*
X171346605Y-124341623D01*
X171504141Y-124446885D01*
X171638115Y-124580859D01*
X171743377Y-124738395D01*
X171815883Y-124913440D01*
X171852846Y-125099266D01*
X171852846Y-125288734D01*
X171815883Y-125474560D01*
X171743377Y-125649605D01*
X171638115Y-125807141D01*
X171504141Y-125941115D01*
X171346605Y-126046377D01*
X171171560Y-126118883D01*
X170985734Y-126155846D01*
X170796266Y-126155846D01*
X170610440Y-126118883D01*
X170435395Y-126046377D01*
X170277859Y-125941115D01*
X170143885Y-125807141D01*
X170038623Y-125649605D01*
X169966117Y-125474560D01*
X169929154Y-125288734D01*
X169929154Y-125099266D01*
X169966117Y-124913440D01*
X170038623Y-124738395D01*
X170143885Y-124580859D01*
X170277859Y-124446885D01*
X170435395Y-124341623D01*
X170610440Y-124269117D01*
X170796266Y-124232154D01*
X170985734Y-124232154D01*
X171171560Y-124269117D01*
G37*
G36*
X139634746Y-123348788D02*
G01*
X139820488Y-123409140D01*
X139994502Y-123497804D01*
X140152503Y-123612599D01*
X140290601Y-123750697D01*
X140405396Y-123908698D01*
X140494060Y-124082712D01*
X140554412Y-124268454D01*
X140584963Y-124461350D01*
X140584963Y-124656650D01*
X140554412Y-124849546D01*
X140494060Y-125035288D01*
X140405396Y-125209302D01*
X140290601Y-125367303D01*
X140152503Y-125505401D01*
X139994502Y-125620196D01*
X139820488Y-125708860D01*
X139634746Y-125769212D01*
X139441850Y-125799763D01*
X139246550Y-125799763D01*
X139053654Y-125769212D01*
X138867912Y-125708860D01*
X138693898Y-125620196D01*
X138535897Y-125505401D01*
X138397799Y-125367303D01*
X138283004Y-125209302D01*
X138194340Y-125035288D01*
X138133988Y-124849546D01*
X138103437Y-124656650D01*
X138103437Y-124461350D01*
X138133988Y-124268454D01*
X138194340Y-124082712D01*
X138283004Y-123908698D01*
X138397799Y-123750697D01*
X138535897Y-123612599D01*
X138693898Y-123497804D01*
X138867912Y-123409140D01*
X139053654Y-123348788D01*
X139246550Y-123318237D01*
X139441850Y-123318237D01*
X139634746Y-123348788D01*
G37*
G36*
X142809746Y-123348788D02*
G01*
X142995488Y-123409140D01*
X143169502Y-123497804D01*
X143327503Y-123612599D01*
X143465601Y-123750697D01*
X143580396Y-123908698D01*
X143669060Y-124082712D01*
X143729412Y-124268454D01*
X143759963Y-124461350D01*
X143759963Y-124656650D01*
X143729412Y-124849546D01*
X143669060Y-125035288D01*
X143580396Y-125209302D01*
X143465601Y-125367303D01*
X143327503Y-125505401D01*
X143169502Y-125620196D01*
X142995488Y-125708860D01*
X142809746Y-125769212D01*
X142616850Y-125799763D01*
X142421550Y-125799763D01*
X142228654Y-125769212D01*
X142042912Y-125708860D01*
X141868898Y-125620196D01*
X141710897Y-125505401D01*
X141572799Y-125367303D01*
X141458004Y-125209302D01*
X141369340Y-125035288D01*
X141308988Y-124849546D01*
X141278437Y-124656650D01*
X141278437Y-124461350D01*
X141308988Y-124268454D01*
X141369340Y-124082712D01*
X141458004Y-123908698D01*
X141572799Y-123750697D01*
X141710897Y-123612599D01*
X141868898Y-123497804D01*
X142042912Y-123409140D01*
X142228654Y-123348788D01*
X142421550Y-123318237D01*
X142616850Y-123318237D01*
X142809746Y-123348788D01*
G37*
G36*
X171182010Y-121694667D02*
G01*
X171363575Y-121769874D01*
X171526979Y-121879057D01*
X171665943Y-122018021D01*
X171775126Y-122181425D01*
X171850333Y-122362990D01*
X171888673Y-122555738D01*
X171888673Y-122752262D01*
X171850333Y-122945010D01*
X171775126Y-123126575D01*
X171665943Y-123289979D01*
X171526979Y-123428943D01*
X171363575Y-123538126D01*
X171182010Y-123613333D01*
X170989262Y-123651673D01*
X170792738Y-123651673D01*
X170599990Y-123613333D01*
X170418425Y-123538126D01*
X170255021Y-123428943D01*
X170116057Y-123289979D01*
X170006874Y-123126575D01*
X169931667Y-122945010D01*
X169893327Y-122752262D01*
X169893327Y-122555738D01*
X169931667Y-122362990D01*
X170006874Y-122181425D01*
X170116057Y-122018021D01*
X170255021Y-121879057D01*
X170418425Y-121769874D01*
X170599990Y-121694667D01*
X170792738Y-121656327D01*
X170989262Y-121656327D01*
X171182010Y-121694667D01*
G37*
G36*
X183284543Y-118938402D02*
G01*
X183396520Y-119003052D01*
X183487948Y-119094480D01*
X183552598Y-119206457D01*
X183586063Y-119331350D01*
X183586063Y-119460650D01*
X183552598Y-119585543D01*
X183487948Y-119697520D01*
X183396520Y-119788948D01*
X183284543Y-119853598D01*
X183159650Y-119887063D01*
X183030350Y-119887063D01*
X182905457Y-119853598D01*
X182793480Y-119788948D01*
X182702052Y-119697520D01*
X182637402Y-119585543D01*
X182603937Y-119460650D01*
X182603937Y-119331350D01*
X182637402Y-119206457D01*
X182702052Y-119094480D01*
X182793480Y-119003052D01*
X182905457Y-118938402D01*
X183030350Y-118904937D01*
X183159650Y-118904937D01*
X183284543Y-118938402D01*
G37*
G36*
X171793299Y-116996417D02*
G01*
X171827039Y-117018961D01*
X171849583Y-117052701D01*
X171857500Y-117092500D01*
X171857500Y-118817500D01*
X171849583Y-118857299D01*
X171827039Y-118891039D01*
X171793299Y-118913583D01*
X171753500Y-118921500D01*
X170028500Y-118921500D01*
X169988701Y-118913583D01*
X169954961Y-118891039D01*
X169932417Y-118857299D01*
X169924500Y-118817500D01*
X169924500Y-117092500D01*
X169932417Y-117052701D01*
X169954961Y-117018961D01*
X169988701Y-116996417D01*
X170028500Y-116988500D01*
X171753500Y-116988500D01*
X171793299Y-116996417D01*
G37*
G36*
X171171560Y-114490117D02*
G01*
X171346605Y-114562623D01*
X171504141Y-114667885D01*
X171638115Y-114801859D01*
X171743377Y-114959395D01*
X171815883Y-115134440D01*
X171852846Y-115320266D01*
X171852846Y-115509734D01*
X171815883Y-115695560D01*
X171743377Y-115870605D01*
X171638115Y-116028141D01*
X171504141Y-116162115D01*
X171346605Y-116267377D01*
X171171560Y-116339883D01*
X170985734Y-116376846D01*
X170796266Y-116376846D01*
X170610440Y-116339883D01*
X170435395Y-116267377D01*
X170277859Y-116162115D01*
X170143885Y-116028141D01*
X170038623Y-115870605D01*
X169966117Y-115695560D01*
X169929154Y-115509734D01*
X169929154Y-115320266D01*
X169966117Y-115134440D01*
X170038623Y-114959395D01*
X170143885Y-114801859D01*
X170277859Y-114667885D01*
X170435395Y-114562623D01*
X170610440Y-114490117D01*
X170796266Y-114453154D01*
X170985734Y-114453154D01*
X171171560Y-114490117D01*
G37*
G36*
X171171560Y-111950117D02*
G01*
X171346605Y-112022623D01*
X171504141Y-112127885D01*
X171638115Y-112261859D01*
X171743377Y-112419395D01*
X171815883Y-112594440D01*
X171852846Y-112780266D01*
X171852846Y-112969734D01*
X171815883Y-113155560D01*
X171743377Y-113330605D01*
X171638115Y-113488141D01*
X171504141Y-113622115D01*
X171346605Y-113727377D01*
X171171560Y-113799883D01*
X170985734Y-113836846D01*
X170796266Y-113836846D01*
X170610440Y-113799883D01*
X170435395Y-113727377D01*
X170277859Y-113622115D01*
X170143885Y-113488141D01*
X170038623Y-113330605D01*
X169966117Y-113155560D01*
X169929154Y-112969734D01*
X169929154Y-112780266D01*
X169966117Y-112594440D01*
X170038623Y-112419395D01*
X170143885Y-112261859D01*
X170277859Y-112127885D01*
X170435395Y-112022623D01*
X170610440Y-111950117D01*
X170796266Y-111913154D01*
X170985734Y-111913154D01*
X171171560Y-111950117D01*
G37*
G36*
X183284543Y-111528802D02*
G01*
X183396520Y-111593452D01*
X183487948Y-111684880D01*
X183552598Y-111796857D01*
X183586063Y-111921750D01*
X183590300Y-111986400D01*
X183590300Y-113205600D01*
X183586063Y-113270250D01*
X183552598Y-113395143D01*
X183487948Y-113507120D01*
X183396520Y-113598548D01*
X183284543Y-113663198D01*
X183159650Y-113696663D01*
X183030350Y-113696663D01*
X182905457Y-113663198D01*
X182793480Y-113598548D01*
X182702052Y-113507120D01*
X182637402Y-113395143D01*
X182603937Y-113270250D01*
X182599700Y-113205600D01*
X182599700Y-111986400D01*
X182603937Y-111921750D01*
X182637402Y-111796857D01*
X182702052Y-111684880D01*
X182793480Y-111593452D01*
X182905457Y-111528802D01*
X183030350Y-111495337D01*
X183159650Y-111495337D01*
X183284543Y-111528802D01*
G37*
G36*
X171182010Y-109375667D02*
G01*
X171363575Y-109450874D01*
X171526979Y-109560057D01*
X171665943Y-109699021D01*
X171775126Y-109862425D01*
X171850333Y-110043990D01*
X171888673Y-110236738D01*
X171888673Y-110433262D01*
X171850333Y-110626010D01*
X171775126Y-110807575D01*
X171665943Y-110970979D01*
X171526979Y-111109943D01*
X171363575Y-111219126D01*
X171182010Y-111294333D01*
X170989262Y-111332673D01*
X170792738Y-111332673D01*
X170599990Y-111294333D01*
X170418425Y-111219126D01*
X170255021Y-111109943D01*
X170116057Y-110970979D01*
X170006874Y-110807575D01*
X169931667Y-110626010D01*
X169893327Y-110433262D01*
X169893327Y-110236738D01*
X169931667Y-110043990D01*
X170006874Y-109862425D01*
X170116057Y-109699021D01*
X170255021Y-109560057D01*
X170418425Y-109450874D01*
X170599990Y-109375667D01*
X170792738Y-109337327D01*
X170989262Y-109337327D01*
X171182010Y-109375667D01*
G37*
G36*
X125254647Y-107106404D02*
G01*
X125366624Y-107171054D01*
X125458052Y-107262482D01*
X125522702Y-107374459D01*
X125556167Y-107499352D01*
X125556167Y-107628652D01*
X125522702Y-107753545D01*
X125458052Y-107865522D01*
X125366624Y-107956950D01*
X125254647Y-108021600D01*
X125129754Y-108055065D01*
X125000454Y-108055065D01*
X124875561Y-108021600D01*
X124763584Y-107956950D01*
X124672156Y-107865522D01*
X124607506Y-107753545D01*
X124574041Y-107628652D01*
X124574041Y-107499352D01*
X124607506Y-107374459D01*
X124672156Y-107262482D01*
X124763584Y-107171054D01*
X124875561Y-107106404D01*
X125000454Y-107072939D01*
X125129754Y-107072939D01*
X125254647Y-107106404D01*
G37*
G36*
X183284543Y-106746402D02*
G01*
X183396520Y-106811052D01*
X183487948Y-106902480D01*
X183552598Y-107014457D01*
X183586063Y-107139350D01*
X183586063Y-107268650D01*
X183552598Y-107393543D01*
X183487948Y-107505520D01*
X183396520Y-107596948D01*
X183284543Y-107661598D01*
X183159650Y-107695063D01*
X183030350Y-107695063D01*
X182905457Y-107661598D01*
X182793480Y-107596948D01*
X182702052Y-107505520D01*
X182637402Y-107393543D01*
X182603937Y-107268650D01*
X182603937Y-107139350D01*
X182637402Y-107014457D01*
X182702052Y-106902480D01*
X182793480Y-106811052D01*
X182905457Y-106746402D01*
X183030350Y-106712937D01*
X183159650Y-106712937D01*
X183284543Y-106746402D01*
G37*
G36*
X183284543Y-99336802D02*
G01*
X183396520Y-99401452D01*
X183487948Y-99492880D01*
X183552598Y-99604857D01*
X183586063Y-99729750D01*
X183590300Y-99794400D01*
X183590300Y-101013600D01*
X183586063Y-101078250D01*
X183552598Y-101203143D01*
X183487948Y-101315120D01*
X183396520Y-101406548D01*
X183284543Y-101471198D01*
X183159650Y-101504663D01*
X183030350Y-101504663D01*
X182905457Y-101471198D01*
X182793480Y-101406548D01*
X182702052Y-101315120D01*
X182637402Y-101203143D01*
X182603937Y-101078250D01*
X182599700Y-101013600D01*
X182599700Y-99794400D01*
X182603937Y-99729750D01*
X182637402Y-99604857D01*
X182702052Y-99492880D01*
X182793480Y-99401452D01*
X182905457Y-99336802D01*
X183030350Y-99303337D01*
X183159650Y-99303337D01*
X183284543Y-99336802D01*
G37*
G36*
X125254543Y-98226804D02*
G01*
X125366520Y-98291454D01*
X125457948Y-98382882D01*
X125522598Y-98494859D01*
X125556063Y-98619752D01*
X125560300Y-98684402D01*
X125560300Y-99903602D01*
X125556063Y-99968252D01*
X125522598Y-100093145D01*
X125457948Y-100205122D01*
X125366520Y-100296550D01*
X125254543Y-100361200D01*
X125129650Y-100394665D01*
X125000350Y-100394665D01*
X124875457Y-100361200D01*
X124763480Y-100296550D01*
X124672052Y-100205122D01*
X124607402Y-100093145D01*
X124573937Y-99968252D01*
X124569700Y-99903602D01*
X124569700Y-98684402D01*
X124573937Y-98619752D01*
X124607402Y-98494859D01*
X124672052Y-98382882D01*
X124763480Y-98291454D01*
X124875457Y-98226804D01*
X125000350Y-98193339D01*
X125129650Y-98193339D01*
X125254543Y-98226804D01*
G37*
G36*
X178175555Y-90587667D02*
G01*
X178399531Y-90660442D01*
X178609366Y-90767358D01*
X178799892Y-90905783D01*
X178966417Y-91072308D01*
X179104842Y-91262834D01*
X179211758Y-91472669D01*
X179284533Y-91696645D01*
X179321374Y-91929249D01*
X179321374Y-92164751D01*
X179284533Y-92397355D01*
X179211758Y-92621331D01*
X179104842Y-92831166D01*
X178966417Y-93021692D01*
X178799892Y-93188217D01*
X178609366Y-93326642D01*
X178399531Y-93433558D01*
X178175555Y-93506333D01*
X177942951Y-93543174D01*
X177707449Y-93543174D01*
X177474845Y-93506333D01*
X177250869Y-93433558D01*
X177041034Y-93326642D01*
X176850508Y-93188217D01*
X176683983Y-93021692D01*
X176545558Y-92831166D01*
X176438642Y-92621331D01*
X176365867Y-92397355D01*
X176329026Y-92164751D01*
X176329026Y-91929249D01*
X176365867Y-91696645D01*
X176438642Y-91472669D01*
X176545558Y-91262834D01*
X176683983Y-91072308D01*
X176850508Y-90905783D01*
X177041034Y-90767358D01*
X177250869Y-90660442D01*
X177474845Y-90587667D01*
X177707449Y-90550826D01*
X177942951Y-90550826D01*
X178175555Y-90587667D01*
G37*
G36*
X178175555Y-86627666D02*
G01*
X178399531Y-86700441D01*
X178609366Y-86807357D01*
X178799892Y-86945782D01*
X178966417Y-87112307D01*
X179104842Y-87302833D01*
X179211758Y-87512668D01*
X179284533Y-87736644D01*
X179321374Y-87969248D01*
X179321374Y-88204750D01*
X179284533Y-88437354D01*
X179211758Y-88661330D01*
X179104842Y-88871165D01*
X178966417Y-89061691D01*
X178799892Y-89228216D01*
X178609366Y-89366641D01*
X178399531Y-89473557D01*
X178175555Y-89546332D01*
X177942951Y-89583173D01*
X177707449Y-89583173D01*
X177474845Y-89546332D01*
X177250869Y-89473557D01*
X177041034Y-89366641D01*
X176850508Y-89228216D01*
X176683983Y-89061691D01*
X176545558Y-88871165D01*
X176438642Y-88661330D01*
X176365867Y-88437354D01*
X176329026Y-88204750D01*
X176329026Y-87969248D01*
X176365867Y-87736644D01*
X176438642Y-87512668D01*
X176545558Y-87302833D01*
X176683983Y-87112307D01*
X176850508Y-86945782D01*
X177041034Y-86807357D01*
X177250869Y-86700441D01*
X177474845Y-86627666D01*
X177707449Y-86590825D01*
X177942951Y-86590825D01*
X178175555Y-86627666D01*
G37*
G36*
X125254647Y-80436404D02*
G01*
X125366624Y-80501054D01*
X125458052Y-80592482D01*
X125522702Y-80704459D01*
X125556167Y-80829352D01*
X125556167Y-80958652D01*
X125522702Y-81083545D01*
X125458052Y-81195522D01*
X125366624Y-81286950D01*
X125254647Y-81351600D01*
X125129754Y-81385065D01*
X125000454Y-81385065D01*
X124875561Y-81351600D01*
X124763584Y-81286950D01*
X124672156Y-81195522D01*
X124607506Y-81083545D01*
X124574041Y-80958652D01*
X124574041Y-80829352D01*
X124607506Y-80704459D01*
X124672156Y-80592482D01*
X124763584Y-80501054D01*
X124875561Y-80436404D01*
X125000454Y-80402939D01*
X125129754Y-80402939D01*
X125254647Y-80436404D01*
G37*
G36*
X119416876Y-71255272D02*
G01*
X119638291Y-71314600D01*
X119850067Y-71402320D01*
X120048581Y-71516933D01*
X120230438Y-71656476D01*
X120392524Y-71818562D01*
X120532067Y-72000419D01*
X120646680Y-72198933D01*
X120734400Y-72410709D01*
X120793728Y-72632124D01*
X120823648Y-72859388D01*
X120823648Y-73088612D01*
X120793728Y-73315876D01*
X120734400Y-73537291D01*
X120646680Y-73749067D01*
X120532067Y-73947581D01*
X120392524Y-74129438D01*
X120230438Y-74291524D01*
X120048581Y-74431067D01*
X119850067Y-74545680D01*
X119638291Y-74633400D01*
X119416876Y-74692728D01*
X119189612Y-74722648D01*
X118960388Y-74722648D01*
X118733124Y-74692728D01*
X118511709Y-74633400D01*
X118299933Y-74545680D01*
X118101419Y-74431067D01*
X117919562Y-74291524D01*
X117757476Y-74129438D01*
X117617933Y-73947581D01*
X117503320Y-73749067D01*
X117415600Y-73537291D01*
X117356272Y-73315876D01*
X117326352Y-73088612D01*
X117326352Y-72859388D01*
X117356272Y-72632124D01*
X117415600Y-72410709D01*
X117503320Y-72198933D01*
X117617933Y-72000419D01*
X117757476Y-71818562D01*
X117919562Y-71656476D01*
X118101419Y-71516933D01*
X118299933Y-71402320D01*
X118511709Y-71314600D01*
X118733124Y-71255272D01*
X118960388Y-71225352D01*
X119189612Y-71225352D01*
X119416876Y-71255272D01*
G37*
G36*
X189256876Y-71255272D02*
G01*
X189478291Y-71314600D01*
X189690067Y-71402320D01*
X189888581Y-71516933D01*
X190070438Y-71656476D01*
X190232524Y-71818562D01*
X190372067Y-72000419D01*
X190486680Y-72198933D01*
X190574400Y-72410709D01*
X190633728Y-72632124D01*
X190663648Y-72859388D01*
X190663648Y-73088612D01*
X190633728Y-73315876D01*
X190574400Y-73537291D01*
X190486680Y-73749067D01*
X190372067Y-73947581D01*
X190232524Y-74129438D01*
X190070438Y-74291524D01*
X189888581Y-74431067D01*
X189690067Y-74545680D01*
X189478291Y-74633400D01*
X189256876Y-74692728D01*
X189029612Y-74722648D01*
X188800388Y-74722648D01*
X188573124Y-74692728D01*
X188351709Y-74633400D01*
X188139933Y-74545680D01*
X187941419Y-74431067D01*
X187759562Y-74291524D01*
X187597476Y-74129438D01*
X187457933Y-73947581D01*
X187343320Y-73749067D01*
X187255600Y-73537291D01*
X187196272Y-73315876D01*
X187166352Y-73088612D01*
X187166352Y-72859388D01*
X187196272Y-72632124D01*
X187255600Y-72410709D01*
X187343320Y-72198933D01*
X187457933Y-72000419D01*
X187597476Y-71818562D01*
X187759562Y-71656476D01*
X187941419Y-71516933D01*
X188139933Y-71402320D01*
X188351709Y-71314600D01*
X188573124Y-71255272D01*
X188800388Y-71225352D01*
X189029612Y-71225352D01*
X189256876Y-71255272D01*
G37*
M02*
