M48
; DRILL file KiCad 10.0.4 date 2026-08-27T19:19:21
; FORMAT={-:-/ absolute / metric / decimal}
; #@! TF.CreationDate,2026-08-27T19:19:21-03:00
; #@! TF.GenerationSoftware,Kicad,Pcbnew,10.0.4
; #@! TF.FileFunction,NonPlated,1,2,NPTH
FMAT,2
METRIC
; #@! TA.AperFunction,NonPlated,NPTH,ComponentDrill
T1C0.889
; #@! TA.AperFunction,NonPlated,NPTH,ComponentDrill
T2C0.991
; #@! TA.AperFunction,NonPlated,NPTH,ComponentDrill
T3C2.388
; #@! TA.AperFunction,NonPlated,NPTH,ComponentDrill
T4C3.200
%
G90
G05
T1
X125.065Y-80.894
X125.065Y-107.564
X183.095Y-107.204
X183.095Y-119.396
T2
X139.344Y-127.099
X144.424Y-126.083
X144.424Y-128.115
T3
X139.344Y-124.559
X139.344Y-129.639
X142.519Y-124.559
X142.519Y-129.639
T4
X119.075Y-72.974
X119.075Y-132.814
X188.915Y-72.974
X188.915Y-132.814
T1
G00X125.065Y-98.684
M15
G01X125.065Y-99.904
M16
G05
G00X125.065Y-125.354
M15
G01X125.065Y-126.574
M16
G05
G00X183.095Y-101.014
M15
G01X183.095Y-99.794
M16
G05
G00X183.095Y-113.206
M15
G01X183.095Y-111.986
M16
G05
M30
