M48
; DRILL file KiCad 10.0.4 date 2026-08-27T19:19:21
; FORMAT={-:-/ absolute / metric / decimal}
; #@! TF.CreationDate,2026-08-27T19:19:21-03:00
; #@! TF.GenerationSoftware,Kicad,Pcbnew,10.0.4
; #@! TF.FileFunction,Plated,1,2,PTH
FMAT,2
METRIC
; #@! TA.AperFunction,Plated,PTH,ViaDrill
T1C0.305
; #@! TA.AperFunction,Plated,PTH,ComponentDrill
T2C1.100
; #@! TA.AperFunction,Plated,PTH,ComponentDrill
T3C1.150
; #@! TA.AperFunction,Plated,PTH,ComponentDrill
T4C1.800
%
G90
G05
T1
X118.313Y-128.75
X120.599Y-128.75
X122.885Y-102.334
X122.885Y-103.604
X122.885Y-104.874
X124.155Y-73.124
X124.155Y-74.394
X124.155Y-75.664
X124.155Y-133.83
X125.425Y-102.334
X125.425Y-103.604
X125.425Y-104.874
X126.695Y-73.124
X126.695Y-74.394
X126.695Y-75.664
X126.695Y-133.83
X128.473Y-126.21
X128.473Y-127.734
X128.6Y-102.334
X128.6Y-103.604
X128.6Y-104.874
X129.235Y-73.124
X129.235Y-74.394
X129.235Y-75.664
X129.235Y-133.83
X130.251Y-126.21
X130.251Y-127.734
X131.14Y-102.334
X131.14Y-103.604
X131.14Y-104.874
X131.775Y-73.124
X131.775Y-74.394
X131.775Y-75.664
X131.775Y-126.21
X131.775Y-127.734
X131.775Y-133.83
X132.918Y-90.269
X132.918Y-91.031
X133.68Y-90.269
X133.68Y-91.031
X134.442Y-90.269
X134.442Y-91.031
X135.204Y-127.607
X136.22Y-127.607
X137.363Y-127.658
X137.668Y-122.146
X138.43Y-86.078
X138.43Y-87.348
X138.43Y-88.618
X139.395Y-117.574
X139.395Y-118.844
X139.903Y-107.033
X139.903Y-108.303
X140.919Y-131.544
X141.046Y-110.589
X143.205Y-110.843
X143.205Y-111.732
X143.205Y-115.288
X143.257Y-119.123
X144.221Y-122.146
X144.45Y-106.195
X145.11Y-118.209
X145.491Y-120.647
X145.491Y-127.099
X145.643Y-84.757
X146.38Y-118.209
X146.38Y-119.479
X146.761Y-131.544
X147.167Y-113.876
X147.472Y-115.83
X147.65Y-119.479
X147.821Y-107.82
X147.828Y-114.522
X148.387Y-92.53
X148.501Y-115.193
X148.539Y-107.109
X148.742Y-129.715
X149.149Y-87.246
X149.149Y-88.516
X149.174Y-95.349
X149.195Y-94.494
X149.328Y-108.928
X149.86Y-111.529
X150.063Y-95.349
X150.095Y-94.494
X151.206Y-134.211
X152.603Y-134.211
X153.119Y-128.152
X153.213Y-126.312
X153.365Y-102.969
X153.365Y-104.239
X154.127Y-92.428
X155.041Y-107.776
X155.099Y-111.28
X155.397Y-92.428
X155.905Y-71.854
X155.905Y-74.394
X155.905Y-80.744
X156.007Y-113.872
X156.057Y-98.676
X156.21Y-129.131
X156.667Y-92.428
X156.819Y-114.475
X156.921Y-101.775
X157.175Y-71.854
X157.175Y-74.394
X157.175Y-80.744
X157.302Y-99.667
X157.632Y-100.708
X157.632Y-115.193
X158.191Y-97.635
X158.242Y-96.34
X158.445Y-105.001
X158.445Y-115.847
X159.08Y-93.444
X159.08Y-94.816
X159.207Y-90.269
X159.207Y-91.031
X159.461Y-110.704
X159.512Y-113.256
X159.512Y-117.93
X159.969Y-90.269
X159.969Y-91.031
X160.096Y-103.477
X160.35Y-93.444
X160.375Y-94.866
X160.731Y-90.269
X160.731Y-91.031
X161.036Y-109.954
X161.137Y-127.378
X161.747Y-97.127
X161.747Y-102.588
X162.128Y-107.541
X162.38Y-108.455
X162.407Y-125.55
X162.509Y-99.667
X162.89Y-94.841
X163.017Y-86.967
X163.017Y-88.11
X163.525Y-108.582
X163.525Y-114.17
X163.925Y-126.464
X164.287Y-94.841
X164.414Y-86.967
X164.414Y-88.11
X164.795Y-71.854
X164.795Y-117.574
X164.795Y-120.114
X165.176Y-102.207
X165.43Y-111.224
X165.938Y-86.967
X165.938Y-88.11
X166.065Y-71.854
X166.065Y-117.574
X166.065Y-120.114
X166.446Y-99.667
X166.446Y-102.207
X166.573Y-104.493
X166.624Y-109.598
X166.7Y-94.841
X166.7Y-111.224
X167.335Y-71.854
X167.335Y-86.967
X167.335Y-88.11
X167.843Y-102.207
X167.97Y-94.841
X167.97Y-111.224
X168.224Y-123.289
X168.249Y-129.664
X169.113Y-102.207
X170.764Y-102.207
X171.145Y-71.854
X171.145Y-74.394
X172.034Y-102.207
X172.415Y-71.854
X172.415Y-74.394
X173.177Y-112.494
X173.177Y-121.384
X173.177Y-125.321
X173.685Y-71.854
X173.685Y-74.394
X174.955Y-132.814
X176.123Y-105.89
X176.225Y-97.254
X176.225Y-99.794
X176.225Y-132.814
X177.495Y-97.254
X177.495Y-99.794
X177.495Y-132.814
X177.952Y-118.946
X178.257Y-84.3
X178.765Y-71.854
X178.765Y-74.394
X178.765Y-97.254
X178.765Y-99.794
X178.765Y-109.954
X178.765Y-111.224
X180.035Y-71.854
X180.035Y-74.394
X180.035Y-84.3
X180.67Y-109.954
X180.67Y-111.224
X180.67Y-125.194
X180.67Y-127.734
X180.67Y-130.274
X180.67Y-132.814
X181.305Y-71.854
X181.305Y-74.394
X181.686Y-84.3
X181.686Y-86.967
X181.686Y-88.491
X181.94Y-95.984
X181.94Y-97.254
X181.94Y-109.319
X181.94Y-125.194
X181.94Y-127.734
X181.94Y-130.274
X181.94Y-132.814
X182.575Y-79.474
X182.575Y-81.125
X183.21Y-95.984
X183.21Y-97.254
X183.21Y-109.319
X183.21Y-125.194
X183.21Y-127.734
X183.21Y-130.274
X183.21Y-132.814
X186.385Y-79.474
X186.385Y-82.014
X186.385Y-88.364
X186.385Y-90.904
X186.385Y-95.984
X186.385Y-125.194
X186.385Y-127.734
X187.655Y-79.474
X187.655Y-82.014
X187.655Y-88.364
X187.655Y-90.904
X187.655Y-95.984
X187.655Y-109.319
X187.655Y-125.194
X187.655Y-127.734
X188.925Y-79.474
X188.925Y-82.014
X188.925Y-88.364
X188.925Y-90.904
X188.925Y-109.319
X188.925Y-125.194
X188.925Y-127.734
T2
X148.793Y-131.798
X151.333Y-131.798
T3
X170.891Y-110.335
X170.891Y-112.875
X170.891Y-115.415
X170.891Y-117.955
X170.891Y-122.654
X170.891Y-125.194
X170.891Y-127.734
X170.891Y-130.274
T4
X177.825Y-88.087
X177.825Y-92.047
M30
